<?xml version="1.0" encoding="UTF-8"?> <svg xmlns="http://www.w3.org/2000/svg" width="363" height="234" viewBox="0 0 363 234" fill="none"> <path d="M106.986 121.381H11.4221L18.4877 53.3057H114.861L106.986 121.381Z" fill="#F5F5F5"></path> <path d="M21.9296 109.958C21.8417 109.958 22.8326 99.7088 24.1343 87.0905C25.436 74.4721 26.5618 64.2227 26.6439 64.2227C26.726 64.2227 25.7409 74.4663 24.4392 87.0905C23.1375 99.7147 22.0117 109.964 21.9296 109.958Z" fill="#E0E0E0"></path> <path d="M39.3268 66.5399C37.7327 66.6909 36.1308 66.7418 34.5304 66.6924C32.93 66.7418 31.328 66.6909 29.734 66.5399C31.3278 66.3854 32.93 66.3345 34.5304 66.3875C36.1308 66.3345 37.733 66.3854 39.3268 66.5399Z" fill="#E0E0E0"></path> <path d="M80.1427 66.5392C80.1427 66.6213 71.5878 66.6916 61.0393 66.6916C50.4908 66.6916 41.9301 66.6213 41.9301 66.5392C41.9301 66.4571 50.485 66.3867 61.0393 66.3867C71.5937 66.3867 80.1427 66.4512 80.1427 66.5392Z" fill="#E0E0E0"></path> <path d="M38.195 90.7254C36.6012 90.8799 34.9991 90.9308 33.3987 90.8779C31.7983 90.9308 30.1961 90.8799 28.6023 90.7254C30.1963 90.5744 31.7983 90.5235 33.3987 90.573C34.9991 90.5235 36.601 90.5744 38.195 90.7254Z" fill="#E0E0E0"></path> <path d="M79.0111 90.7267C79.0111 90.8146 70.4562 90.8791 59.9077 90.8791C49.3592 90.8791 40.7985 90.8146 40.7985 90.7267C40.7985 90.6387 49.3534 90.5742 59.9077 90.5742C70.4621 90.5742 79.0111 90.6446 79.0111 90.7267Z" fill="#E0E0E0"></path> <path d="M65.9939 101.908C65.9939 101.996 57.439 102.061 46.8905 102.061C36.342 102.061 27.7812 101.996 27.7812 101.908C27.7812 101.82 36.3362 101.756 46.8905 101.756C57.4449 101.756 65.9939 101.797 65.9939 101.908Z" fill="#E0E0E0"></path> <path d="M43.5544 73.3702C43.5544 73.4523 40.5347 73.5227 36.8055 73.5227C33.0762 73.5227 30.0565 73.4523 30.0565 73.3702C30.0565 73.2881 33.0821 73.2119 36.8055 73.2119C40.5288 73.2119 43.5544 73.2823 43.5544 73.3702Z" fill="#E0E0E0"></path> <path d="M43.2143 83.379C43.2143 83.467 40.1887 83.5315 36.4654 83.5315C32.742 83.5315 29.7164 83.467 29.7164 83.379C29.7164 83.2911 32.7362 83.2266 36.4654 83.2266C40.1946 83.2266 43.2143 83.2969 43.2143 83.379Z" fill="#E0E0E0"></path> <path d="M54.6248 97.6915C54.6248 97.7736 51.5992 97.844 47.8759 97.844C44.1525 97.844 41.127 97.7736 41.127 97.6915C41.127 97.6094 44.1467 97.5391 47.8759 97.5391C51.6051 97.5391 54.6248 97.6036 54.6248 97.6915Z" fill="#E0E0E0"></path> <path d="M92.6439 73.3702C92.6439 73.4523 84.9275 73.5227 75.4051 73.5227C65.8827 73.5227 58.1604 73.4523 58.1604 73.3702C58.1604 73.2881 65.8827 73.2119 75.4051 73.2119C84.9275 73.2119 92.6439 73.2823 92.6439 73.3702Z" fill="#E0E0E0"></path> <path d="M82.0132 83.9601C82.0132 84.048 74.2968 84.1125 64.7744 84.1125C55.2521 84.1125 47.5356 84.048 47.5356 83.9601C47.5356 83.8721 55.2521 83.8076 64.7744 83.8076C74.2968 83.8076 82.0132 83.878 82.0132 83.9601Z" fill="#E0E0E0"></path> <path d="M93.8811 97.6915C93.8811 97.7736 86.1588 97.844 76.6423 97.844C67.1257 97.844 59.3976 97.7736 59.3976 97.6915C59.3976 97.6094 67.1199 97.5391 76.6423 97.5391C86.1646 97.5391 93.8811 97.6036 93.8811 97.6915Z" fill="#E0E0E0"></path> <path d="M62.3999 109.958C62.3999 110.04 54.6776 110.111 45.1552 110.111C35.6328 110.111 27.9164 110.04 27.9164 109.958C27.9164 109.876 35.6328 109.806 45.1552 109.806C54.6776 109.806 62.3999 109.87 62.3999 109.958Z" fill="#E0E0E0"></path> <path d="M100.53 109.958C100.53 110.04 92.8081 110.111 83.2915 110.111C73.775 110.111 66.0469 110.04 66.0469 109.958C66.0469 109.876 73.7633 109.806 83.2915 109.806C92.8198 109.806 100.53 109.87 100.53 109.958Z" fill="#E0E0E0"></path> <path d="M62.3939 113.945C62.3939 114.033 54.6775 114.098 45.1551 114.098C35.6327 114.098 27.9104 114.033 27.9104 113.945C27.9104 113.857 35.6327 113.793 45.1551 113.793C54.6775 113.793 62.3939 113.863 62.3939 113.945Z" fill="#E0E0E0"></path> <path d="M64.0709 76.2433C64.0709 76.3254 56.3545 76.3957 46.8321 76.3957C37.3097 76.3957 29.5874 76.3254 29.5874 76.2433C29.5874 76.1612 37.3097 76.0908 46.8321 76.0908C56.3545 76.0908 64.0709 76.1553 64.0709 76.2433Z" fill="#E0E0E0"></path> <path d="M54.8768 73.4051C53.4024 73.5561 51.9194 73.607 50.4381 73.5576C48.9548 73.607 47.4699 73.5561 45.9935 73.4051C47.4697 73.2506 48.9548 73.1997 50.4381 73.2527C51.9194 73.1998 53.4026 73.2507 54.8768 73.4051Z" fill="#E0E0E0"></path> <path d="M37.0692 94.0155C35.5928 94.1664 34.1079 94.2174 32.6246 94.1679C31.1433 94.2173 29.6603 94.1664 28.1859 94.0155C29.6603 93.8645 31.1433 93.8136 32.6246 93.863C34.1079 93.8136 35.5928 93.8645 37.0692 94.0155Z" fill="#E0E0E0"></path> <path d="M36.8582 97.6922C35.3838 97.8432 33.9008 97.8941 32.4195 97.8447C30.9363 97.8941 29.4514 97.8432 27.975 97.6922C29.4511 97.5378 30.9363 97.4868 32.4195 97.5398C33.9008 97.4869 35.384 97.5378 36.8582 97.6922Z" fill="#E0E0E0"></path> <path d="M113.805 60.506C113.805 60.5939 92.3155 60.6584 65.8123 60.6584C39.3091 60.6584 17.8075 60.5939 17.8075 60.506C17.8075 60.418 39.2974 60.3535 65.8123 60.3535C92.3272 60.3535 113.805 60.4239 113.805 60.506Z" fill="#E0E0E0"></path> <path d="M24.2868 58.4001C24.9151 58.4001 25.4243 57.8908 25.4243 57.2625C25.4243 56.6343 24.9151 56.125 24.2868 56.125C23.6586 56.125 23.1493 56.6343 23.1493 57.2625C23.1493 57.8908 23.6586 58.4001 24.2868 58.4001Z" fill="white"></path> <path d="M29.1711 58.4001C29.7993 58.4001 30.3086 57.8908 30.3086 57.2625C30.3086 56.6343 29.7993 56.125 29.1711 56.125C28.5429 56.125 28.0336 56.6343 28.0336 57.2625C28.0336 57.8908 28.5429 58.4001 29.1711 58.4001Z" fill="white"></path> <path d="M34.0554 58.4001C34.6836 58.4001 35.1929 57.8908 35.1929 57.2625C35.1929 56.6343 34.6836 56.125 34.0554 56.125C33.4271 56.125 32.9178 56.6343 32.9178 57.2625C32.9178 57.8908 33.4271 58.4001 34.0554 58.4001Z" fill="white"></path> <path d="M355.125 87.3433H259.561L266.627 19.2734H363L355.125 87.3433Z" fill="#F5F5F5"></path> <path d="M270.069 75.9212C269.987 75.9212 270.972 65.6717 272.273 53.0534C273.575 40.4351 274.701 30.1856 274.783 30.2208C274.865 30.256 273.88 40.4644 272.578 53.0886C271.276 65.7128 270.151 75.9271 270.069 75.9212Z" fill="#E0E0E0"></path> <path d="M287.466 32.5021C284.271 32.7053 281.067 32.7053 277.873 32.5021C281.067 32.2988 284.271 32.2988 287.466 32.5021Z" fill="#E0E0E0"></path> <path d="M328.288 32.5021C328.288 32.5841 319.733 32.6545 309.178 32.6545C298.624 32.6545 290.069 32.5841 290.069 32.5021C290.069 32.42 298.624 32.3496 309.178 32.3496C319.733 32.3496 328.288 32.42 328.288 32.5021Z" fill="#E0E0E0"></path> <path d="M286.34 56.6944C283.144 56.8976 279.938 56.8976 276.741 56.6944C279.938 56.4912 283.144 56.4912 286.34 56.6944Z" fill="#E0E0E0"></path> <path d="M327.185 56.6944C327.185 56.7765 318.63 56.8469 308.076 56.8469C297.522 56.8469 288.967 56.7765 288.967 56.6944C288.967 56.6124 297.522 56.542 308.076 56.542C318.63 56.542 327.185 56.6065 327.185 56.6944Z" fill="#E0E0E0"></path> <path d="M314.139 67.8468C314.139 67.9289 305.584 67.9992 295.03 67.9992C284.475 67.9992 275.92 67.9289 275.92 67.8468C275.92 67.7647 284.475 67.6943 295.03 67.6943C305.584 67.6943 314.139 67.7588 314.139 67.8468Z" fill="#E0E0E0"></path> <path d="M291.699 39.3331C291.699 39.4152 288.674 39.4856 284.95 39.4856C281.227 39.4856 278.201 39.4152 278.201 39.3331C278.201 39.251 281.221 39.1689 284.968 39.1689C288.715 39.1689 291.699 39.2452 291.699 39.3331Z" fill="#E0E0E0"></path> <path d="M291.353 49.3409C291.353 49.4289 288.333 49.4934 284.604 49.4934C280.875 49.4934 277.855 49.4289 277.855 49.3409C277.855 49.253 280.875 49.1885 284.604 49.1885C288.333 49.1885 291.353 49.2588 291.353 49.3409Z" fill="#E0E0E0"></path> <path d="M302.764 63.6544C302.764 63.7365 299.744 63.8069 296.015 63.8069C292.286 63.8069 289.266 63.7365 289.266 63.6544C289.266 63.5723 292.286 63.502 296.015 63.502C299.744 63.502 302.764 63.5723 302.764 63.6544Z" fill="#E0E0E0"></path> <path d="M340.8 39.3321C340.8 39.4142 333.078 39.4846 323.556 39.4846C314.033 39.4846 306.317 39.4142 306.317 39.3321C306.317 39.25 314.033 39.1797 323.556 39.1797C333.078 39.1797 340.8 39.2442 340.8 39.3321Z" fill="#E0E0E0"></path> <path d="M330.158 49.922C330.158 50.0099 322.436 50.0744 312.914 50.0744C303.391 50.0744 295.675 50.0099 295.675 49.922C295.675 49.834 303.391 49.7695 312.914 49.7695C322.436 49.7695 330.158 49.8399 330.158 49.922Z" fill="#E0E0E0"></path> <path d="M342.02 63.6544C342.02 63.7365 334.304 63.8069 324.781 63.8069C315.259 63.8069 307.543 63.7365 307.543 63.6544C307.543 63.5723 315.259 63.502 324.781 63.502C334.304 63.502 342.02 63.5723 342.02 63.6544Z" fill="#E0E0E0"></path> <path d="M310.539 75.921C310.539 76.0031 302.817 76.0735 293.3 76.0735C283.784 76.0735 276.055 76.0031 276.055 75.921C276.055 75.8389 283.772 75.7686 293.3 75.7686C302.828 75.7686 310.539 75.8331 310.539 75.921Z" fill="#E0E0E0"></path> <path d="M348.669 75.921C348.669 76.0031 340.953 76.0735 331.431 76.0735C321.908 76.0735 314.186 76.0031 314.186 75.921C314.186 75.8389 321.908 75.7686 331.431 75.7686C340.953 75.7686 348.669 75.8331 348.669 75.921Z" fill="#E0E0E0"></path> <path d="M310.533 79.9083C310.533 79.9963 302.817 80.0608 293.294 80.0608C283.772 80.0608 276.055 79.9963 276.055 79.9083C276.055 79.8204 283.772 79.7559 293.294 79.7559C302.817 79.7559 310.533 79.8262 310.533 79.9083Z" fill="#E0E0E0"></path> <path d="M312.216 42.2062C312.216 42.2882 304.494 42.3586 294.971 42.3586C285.449 42.3586 277.732 42.2882 277.732 42.2062C277.732 42.1241 285.449 42.0537 294.971 42.0537C304.494 42.0537 312.216 42.1006 312.216 42.2062Z" fill="#E0E0E0"></path> <path d="M303.016 39.3683C300.06 39.5715 297.094 39.5715 294.139 39.3683C297.094 39.165 300.06 39.165 303.016 39.3683Z" fill="#E0E0E0"></path> <path d="M285.208 59.9767C282.251 60.1799 279.283 60.1799 276.325 59.9767C279.283 59.7734 282.251 59.7734 285.208 59.9767Z" fill="#E0E0E0"></path> <path d="M284.997 63.6544C282.042 63.8577 279.076 63.8577 276.12 63.6544C279.076 63.4511 282.042 63.4511 284.997 63.6544Z" fill="#E0E0E0"></path> <path d="M361.95 26.4679C361.95 26.5558 340.455 26.6203 313.951 26.6203C287.448 26.6203 265.953 26.5558 265.953 26.4679C265.953 26.3799 287.437 26.3154 313.951 26.3154C340.466 26.3154 361.95 26.3858 361.95 26.4679Z" fill="#E0E0E0"></path> <path d="M272.426 24.3629C273.054 24.3629 273.563 23.8537 273.563 23.2254C273.563 22.5972 273.054 22.0879 272.426 22.0879C271.798 22.0879 271.288 22.5972 271.288 23.2254C271.288 23.8537 271.798 24.3629 272.426 24.3629Z" fill="white"></path> <path d="M277.31 24.3629C277.938 24.3629 278.448 23.8537 278.448 23.2254C278.448 22.5972 277.938 22.0879 277.31 22.0879C276.682 22.0879 276.173 22.5972 276.173 23.2254C276.173 23.8537 276.682 24.3629 277.31 24.3629Z" fill="white"></path> <path d="M282.195 24.3629C282.823 24.3629 283.332 23.8537 283.332 23.2254C283.332 22.5972 282.823 22.0879 282.195 22.0879C281.566 22.0879 281.057 22.5972 281.057 23.2254C281.057 23.8537 281.566 24.3629 282.195 24.3629Z" fill="white"></path> <path d="M154.692 42.8973H95.1711L99.5688 0.498047H159.594L154.692 42.8973Z" fill="#EBEBEB"></path> <path d="M101.715 35.779C101.633 35.779 102.219 29.3936 103.028 21.5365C103.837 13.6793 104.564 7.31152 104.652 7.31739C104.74 7.32325 104.148 13.7086 103.333 21.5658C102.518 29.4229 101.797 35.7907 101.715 35.779Z" fill="#E0E0E0"></path> <path d="M112.58 8.73644C110.593 8.93971 108.591 8.93971 106.605 8.73644C108.591 8.53317 110.593 8.53317 112.58 8.73644Z" fill="#E0E0E0"></path> <path d="M137.975 8.73644C137.975 8.82439 132.645 8.88889 126.072 8.88889C119.499 8.88889 114.169 8.82439 114.169 8.73644C114.169 8.64848 119.499 8.58398 126.072 8.58398C132.645 8.58398 137.975 8.6778 137.975 8.73644Z" fill="#E0E0E0"></path> <path d="M111.847 23.8058C109.861 24.0091 107.859 24.0091 105.872 23.8058C107.859 23.6025 109.861 23.6025 111.847 23.8058Z" fill="#E0E0E0"></path> <path d="M137.271 23.8058C137.271 23.8879 131.941 23.9582 125.368 23.9582C118.795 23.9582 113.465 23.8879 113.465 23.8058C113.465 23.7237 118.795 23.6533 125.368 23.6533C131.941 23.6533 137.271 23.7237 137.271 23.8058Z" fill="#E0E0E0"></path> <path d="M129.162 30.7482C129.162 30.8361 123.832 30.9006 117.259 30.9006C110.686 30.9006 105.362 30.8361 105.362 30.7482C105.362 30.6602 110.686 30.5957 117.259 30.5957C123.832 30.5957 129.162 30.6661 129.162 30.7482Z" fill="#E0E0E0"></path> <path d="M115.183 12.993C113.787 13.1439 112.382 13.1949 110.979 13.1455C109.578 13.195 108.175 13.144 106.781 12.993C108.175 12.8385 109.578 12.7876 110.979 12.8406C112.382 12.7877 113.788 12.8387 115.183 12.993Z" fill="#E0E0E0"></path> <path d="M114.972 19.2332C113.577 19.3876 112.171 19.4385 110.768 19.3856C109.365 19.4385 107.96 19.3876 106.564 19.2332C107.96 19.0823 109.365 19.0314 110.768 19.0807C112.171 19.0314 113.576 19.0823 114.972 19.2332Z" fill="#E0E0E0"></path> <path d="M122.079 28.1384C120.683 28.2928 119.278 28.3438 117.875 28.2909C116.471 28.3438 115.066 28.2928 113.67 28.1384C115.066 27.9876 116.471 27.9366 117.875 27.986C119.278 27.9366 120.683 27.9876 122.079 28.1384Z" fill="#E0E0E0"></path> <path d="M145.768 12.9943C145.768 13.0763 140.959 13.1467 135.031 13.1467C129.103 13.1467 124.307 13.0763 124.307 12.9943C124.307 12.9122 129.115 12.8418 135.049 12.8418C140.983 12.8418 145.768 12.9063 145.768 12.9943Z" fill="#E0E0E0"></path> <path d="M139.136 19.59C139.136 19.672 134.328 19.7424 128.4 19.7424C122.472 19.7424 117.664 19.672 117.664 19.59C117.664 19.5079 122.472 19.4375 128.4 19.4375C134.328 19.4375 139.136 19.5079 139.136 19.59Z" fill="#E0E0E0"></path> <path d="M146.53 28.1398C146.53 28.2277 141.722 28.2922 135.794 28.2922C129.865 28.2922 125.052 28.2277 125.052 28.1398C125.052 28.0518 129.86 27.9873 135.794 27.9873C141.727 27.9873 146.53 28.0577 146.53 28.1398Z" fill="#E0E0E0"></path> <path d="M126.922 35.7794C126.922 35.8674 122.114 35.9319 116.18 35.9319C110.246 35.9319 105.444 35.8674 105.444 35.7794C105.444 35.6914 110.252 35.627 116.18 35.627C122.108 35.627 126.922 35.6973 126.922 35.7794Z" fill="#E0E0E0"></path> <path d="M150.693 35.7794C150.693 35.8674 145.885 35.9319 139.957 35.9319C134.029 35.9319 129.215 35.8674 129.215 35.7794C129.215 35.6914 134.023 35.627 139.957 35.627C145.891 35.627 150.693 35.6973 150.693 35.7794Z" fill="#E0E0E0"></path> <path d="M126.916 38.2657C126.916 38.3537 122.108 38.4182 116.18 38.4182C110.252 38.4182 105.444 38.3537 105.444 38.2657C105.444 38.1778 110.246 38.1133 116.18 38.1133C122.114 38.1133 126.916 38.1836 126.916 38.2657Z" fill="#E0E0E0"></path> <path d="M127.96 14.7814C127.96 14.8693 123.152 14.9338 117.224 14.9338C111.296 14.9338 106.488 14.8693 106.488 14.7814C106.488 14.6934 111.296 14.6289 117.224 14.6289C123.152 14.6289 127.96 14.6993 127.96 14.7814Z" fill="#E0E0E0"></path> <path d="M122.237 13.0166C120.398 13.2198 118.541 13.2198 116.702 13.0166C118.541 12.8135 120.398 12.8135 122.237 13.0166Z" fill="#E0E0E0"></path> <path d="M111.143 25.8527C109.306 26.0559 107.452 26.0559 105.614 25.8527C107.452 25.6494 109.306 25.6494 111.143 25.8527Z" fill="#E0E0E0"></path> <path d="M111.014 28.1397C109.175 28.3428 107.319 28.3428 105.479 28.1397C107.319 27.9365 109.175 27.9365 111.014 28.1397Z" fill="#E0E0E0"></path> <path d="M158.937 4.9835C158.937 5.06559 145.556 5.13596 129.033 5.13596C112.51 5.13596 99.1289 5.06559 99.1289 4.9835C99.1289 4.90141 112.51 4.83105 129.033 4.83105C145.556 4.83105 158.937 4.89555 158.937 4.9835Z" fill="#E0E0E0"></path> <path d="M103.89 2.96069C103.885 3.10066 103.839 3.23612 103.758 3.34999C103.676 3.46387 103.563 3.55108 103.432 3.60063C103.301 3.65018 103.158 3.65985 103.022 3.62843C102.885 3.597 102.761 3.5259 102.665 3.42406C102.569 3.32222 102.505 3.19421 102.482 3.05615C102.458 2.91809 102.476 2.77615 102.533 2.64823C102.59 2.52031 102.683 2.41212 102.802 2.3373C102.92 2.26247 103.058 2.22435 103.198 2.22775C103.292 2.23002 103.384 2.25083 103.47 2.28898C103.555 2.32712 103.633 2.38185 103.697 2.45C103.761 2.51814 103.811 2.59836 103.845 2.68602C103.878 2.77367 103.893 2.86703 103.89 2.96069Z" fill="white"></path> <path d="M106.933 2.96048C106.929 3.09971 106.883 3.23451 106.802 3.34806C106.722 3.46161 106.609 3.54888 106.479 3.59901C106.349 3.64913 106.208 3.65987 106.072 3.6299C105.935 3.59994 105.811 3.53058 105.714 3.43049C105.617 3.33039 105.552 3.20399 105.527 3.06704C105.501 2.93009 105.516 2.78866 105.571 2.66038C105.625 2.53209 105.716 2.42264 105.832 2.34567C105.948 2.2687 106.084 2.22762 106.224 2.22754C106.319 2.22749 106.413 2.24659 106.501 2.2837C106.588 2.32081 106.668 2.37518 106.734 2.44357C106.8 2.51195 106.852 2.59296 106.886 2.68176C106.92 2.77057 106.936 2.86536 106.933 2.96048Z" fill="white"></path> <path d="M109.977 2.96048C109.972 3.09971 109.926 3.23451 109.846 3.34806C109.765 3.46161 109.653 3.54888 109.523 3.59901C109.393 3.64913 109.251 3.65987 109.115 3.6299C108.979 3.59994 108.855 3.53058 108.758 3.43049C108.661 3.33039 108.596 3.20399 108.57 3.06704C108.544 2.93009 108.56 2.78866 108.614 2.66038C108.668 2.53209 108.759 2.42264 108.875 2.34567C108.992 2.2687 109.128 2.22762 109.267 2.22754C109.362 2.22749 109.456 2.24659 109.544 2.2837C109.632 2.32081 109.711 2.37518 109.777 2.44357C109.843 2.51195 109.895 2.59296 109.929 2.68176C109.964 2.77057 109.98 2.86536 109.977 2.96048Z" fill="white"></path> <path d="M316.455 116.89H286.481V213.908H316.455V116.89Z" fill="#EBEBEB"></path> <path d="M341.903 116.907H316.455V213.89H341.903V116.907Z" fill="#E0E0E0"></path> <path d="M312.867 120.817H288.82V141.715H312.867V120.817Z" fill="#E0E0E0"></path> <path d="M312.867 144.084H288.82V164.982H312.867V144.084Z" fill="#E0E0E0"></path> <path d="M312.867 167.352H288.82V188.249H312.867V167.352Z" fill="#E0E0E0"></path> <path d="M312.867 190.623H288.82V211.521H312.867V190.623Z" fill="#E0E0E0"></path> <path d="M300.846 124.676C300.848 124.842 300.799 125.005 300.708 125.144C300.617 125.282 300.486 125.391 300.333 125.455C300.18 125.52 300.011 125.537 299.848 125.505C299.685 125.474 299.535 125.394 299.417 125.277C299.299 125.16 299.219 125.011 299.186 124.848C299.153 124.685 299.169 124.516 299.233 124.363C299.296 124.209 299.403 124.078 299.541 123.985C299.679 123.893 299.842 123.844 300.008 123.844C300.229 123.844 300.442 123.931 300.599 124.087C300.756 124.243 300.845 124.455 300.846 124.676Z" fill="#FAFAFA"></path> <path d="M300.846 148.23C300.848 148.396 300.799 148.559 300.708 148.698C300.617 148.836 300.486 148.945 300.333 149.009C300.18 149.073 300.011 149.091 299.848 149.059C299.685 149.027 299.535 148.948 299.417 148.831C299.299 148.714 299.219 148.565 299.186 148.402C299.153 148.239 299.169 148.07 299.233 147.916C299.296 147.763 299.403 147.632 299.541 147.539C299.679 147.447 299.842 147.397 300.008 147.397C300.229 147.397 300.442 147.485 300.599 147.641C300.756 147.797 300.845 148.009 300.846 148.23Z" fill="#FAFAFA"></path> <path d="M300.846 171.754C300.846 171.92 300.797 172.082 300.705 172.22C300.613 172.358 300.482 172.466 300.329 172.529C300.176 172.593 300.007 172.609 299.844 172.577C299.682 172.545 299.532 172.465 299.415 172.347C299.298 172.23 299.218 172.081 299.186 171.918C299.153 171.755 299.17 171.587 299.233 171.434C299.297 171.28 299.404 171.149 299.542 171.057C299.68 170.965 299.842 170.916 300.008 170.916C300.23 170.916 300.444 171.004 300.601 171.162C300.758 171.319 300.846 171.532 300.846 171.754Z" fill="#FAFAFA"></path> <path d="M300.846 195.291C300.848 195.457 300.799 195.619 300.708 195.758C300.617 195.897 300.486 196.005 300.333 196.069C300.18 196.134 300.011 196.151 299.848 196.12C299.685 196.088 299.535 196.008 299.417 195.891C299.299 195.774 299.219 195.625 299.186 195.462C299.153 195.299 299.169 195.131 299.233 194.977C299.296 194.823 299.403 194.692 299.541 194.6C299.679 194.507 299.842 194.458 300.008 194.458C300.229 194.458 300.442 194.546 300.599 194.702C300.756 194.858 300.845 195.069 300.846 195.291Z" fill="#FAFAFA"></path> <path d="M289.946 213.907H286.481V233.368H289.946V213.907Z" fill="#E0E0E0"></path> <path d="M316.332 213.907H312.867V233.368H316.332V213.907Z" fill="#E0E0E0"></path> <path d="M341.528 213.907H338.062V233.368H341.528V213.907Z" fill="#E0E0E0"></path> <path d="M34.6769 227.874C33.7915 227.117 31.8096 224.713 33.3341 221.917C33.9205 220.896 35.0932 220.386 36.1662 219.935C37.2723 219.561 38.316 219.024 39.2622 218.34C40.945 216.915 41.4082 214.546 42.5223 212.646C43.8064 210.471 46.1987 208.835 48.7259 208.952C51.6166 209.081 54.0031 211.432 55.123 214.112C56.243 216.792 56.2547 219.77 56.2957 222.667C56.2957 224.268 56.2371 226.074 55.0527 227.159C53.9679 228.155 52.3261 228.167 50.8485 228.12L35.017 227.639" fill="#F5F5F5"></path> <path d="M64.9151 184.584H23.3368L30.8304 229.035C30.9824 229.96 31.3936 230.823 32.0163 231.524C32.6391 232.224 33.4478 232.734 34.3485 232.993L34.4951 233.034C34.6166 233.072 34.7399 233.103 34.8645 233.128C35.1612 233.197 35.4634 233.238 35.7675 233.251V233.292L35.9727 233.263H54.5015C54.8442 233.261 55.1859 233.226 55.5218 233.158C56.6018 232.994 57.5983 232.48 58.3579 231.695C59.1175 230.91 59.5981 229.898 59.7259 228.813L63.3261 198.182L63.4903 196.962L64.9151 184.83V184.584ZM57.0697 212.94H52.8069L53.235 200.04H58.1779L57.0697 212.94ZM58.5942 200.04H62.6987L61.1742 212.94H57.4626L58.5942 200.04ZM46.404 227.241L46.146 216.036H52.2909L51.9157 227.241H46.404ZM39.7606 216.036H45.7355L45.9994 227.241H40.6342L39.7606 216.036ZM40.2238 227.241H35.2163C34.7414 224.216 34.1198 220.281 33.4573 216.036H39.356L40.2238 227.241ZM39.5202 212.94L38.5116 200.04H45.3602L45.6593 212.94H39.5202ZM46.0756 212.94L45.7766 200.04H52.8128L52.3789 212.94H46.0756ZM45.7003 196.944L45.4247 184.994H53.3229L52.9242 196.944H45.7003ZM45.2899 196.944H38.2536L37.3213 184.994H44.9967L45.2899 196.944ZM37.8549 196.944H30.4317C30.1678 195.297 29.9157 193.731 29.6929 192.33C28.9189 187.498 28.6257 185.68 28.4674 184.994H36.9402L37.8549 196.944ZM38.1012 200.04L39.1038 212.94H32.9647C32.7595 211.632 32.5484 210.307 32.3373 208.982C31.8565 205.939 31.3757 202.89 30.9242 200.04H38.1012ZM32.5484 212.94H28.5319L26.3624 200.04H30.4903L32.5484 212.94ZM33.0351 216.036C33.6214 219.912 34.2488 223.735 34.7941 227.241H30.9359L29.0479 216.036H33.0351ZM52.3261 227.241L52.7014 216.036H56.8059L55.8443 227.241H52.3261ZM53.3581 196.962L53.7568 185.012H59.4855L58.4653 196.962H53.3581ZM28.0921 185.012C28.2563 185.88 29.0127 190.582 30.033 196.962H25.8581L23.8411 185.012H28.0921ZM59.4914 227.23H56.2899L57.2515 216.024H60.8224L59.4914 227.23ZM63.0623 196.933H58.8757L59.9018 184.983H64.4695L63.0623 196.933Z" fill="#E0E0E0"></path> <path d="M338.913 233.362C338.913 233.45 263.027 233.515 169.456 233.515C75.8859 233.515 0 233.45 0 233.362C0 233.274 75.8683 233.21 169.486 233.21C263.103 233.21 338.913 233.28 338.913 233.362Z" fill="#263238"></path> <path d="M189.498 106.529H124.471L129.279 60.207H194.857L189.498 106.529Z" fill="#263238"></path> <path d="M186.191 106.529H121.158L125.966 60.207H191.544L186.191 106.529Z" fill="#455A64"></path> <path d="M183.775 104.43H123.433L127.895 61.4502H188.747L183.775 104.43Z" fill="#F5F5F5"></path> <path d="M129.977 97.2637C129.889 97.2637 130.487 90.7845 131.314 82.8218C132.141 74.8591 132.868 68.3975 132.95 68.4092C133.032 68.4209 132.44 74.8591 131.613 82.8511C130.786 90.8431 130.059 97.2695 129.977 97.2637Z" fill="#263238"></path> <path d="M140.959 69.8468C138.946 70.0501 136.916 70.0501 134.902 69.8468C136.916 69.6435 138.946 69.6435 140.959 69.8468Z" fill="#263238"></path> <path d="M166.736 69.8468C166.736 69.9289 161.335 69.9992 154.668 69.9992C148.002 69.9992 142.607 69.9289 142.607 69.8468C142.607 69.7647 148.008 69.6943 154.668 69.6943C161.329 69.6943 166.736 69.7647 166.736 69.8468Z" fill="#508EC2"></path> <path d="M140.25 85.1212C138.234 85.3245 136.203 85.3245 134.187 85.1212C136.203 84.9179 138.234 84.9179 140.25 85.1212Z" fill="#263238"></path> <path d="M166.02 85.1212C166.02 85.2092 160.62 85.2737 153.959 85.2737C147.298 85.2737 141.892 85.2092 141.892 85.1212C141.892 85.0332 147.292 84.9688 153.959 84.9688C160.626 84.9688 166.02 85.0391 166.02 85.1212Z" fill="#508EC2"></path> <path d="M157.8 92.1632C157.8 92.2453 152.399 92.3156 145.738 92.3156C139.077 92.3156 133.671 92.2453 133.671 92.1632C133.671 92.0811 139.071 92.0107 145.738 92.0107C152.405 92.0107 157.8 92.0811 157.8 92.1632Z" fill="#508EC2"></path> <path d="M143.657 74.1569C142.242 74.3151 140.817 74.368 139.394 74.3153C137.971 74.368 136.546 74.3151 135.131 74.1569C136.547 74.0062 137.971 73.9552 139.394 74.0045C140.817 73.9552 142.241 74.0062 143.657 74.1569Z" fill="#508EC2"></path> <path d="M143.416 80.4831C142.001 80.6339 140.576 80.6848 139.153 80.6356C137.731 80.6848 136.306 80.6339 134.891 80.4831C136.306 80.3289 137.731 80.2779 139.153 80.3307C140.576 80.2779 142.001 80.3289 143.416 80.4831Z" fill="#508EC2"></path> <path d="M150.623 89.5184C149.207 89.6692 147.783 89.7201 146.36 89.6709C144.937 89.7204 143.513 89.6694 142.097 89.5184C143.512 89.3639 144.937 89.313 146.36 89.366C147.783 89.3132 149.207 89.3642 150.623 89.5184Z" fill="#508EC2"></path> <path d="M174.634 74.1564C174.634 74.2443 169.761 74.3147 163.751 74.3147C157.741 74.3147 152.862 74.2443 152.862 74.1564C152.862 74.0684 157.735 74.0039 163.751 74.0039C169.767 74.0039 174.634 74.0743 174.634 74.1564Z" fill="#263238"></path> <path d="M167.914 80.8468C167.914 80.9347 163.042 80.9992 157.032 80.9992C151.021 80.9992 146.143 80.9347 146.143 80.8468C146.143 80.7588 151.016 80.6943 157.032 80.6943C163.048 80.6943 167.914 80.7647 167.914 80.8468Z" fill="#263238"></path> <path d="M175.408 89.5187C175.408 89.6007 170.535 89.6711 164.525 89.6711C158.515 89.6711 153.625 89.5949 153.625 89.5187C153.625 89.4424 158.497 89.3662 164.513 89.3662C170.529 89.3662 175.408 89.4307 175.408 89.5187Z" fill="#263238"></path> <path d="M155.53 97.2648C155.53 97.3468 150.652 97.4172 144.642 97.4172C138.632 97.4172 133.753 97.3468 133.753 97.2648C133.753 97.1827 138.632 97.1123 144.642 97.1123C150.652 97.1123 155.53 97.1768 155.53 97.2648Z" fill="#263238"></path> <path d="M179.606 97.2648C179.606 97.3468 174.733 97.4172 168.723 97.4172C162.713 97.4172 157.835 97.3468 157.835 97.2648C157.835 97.1827 162.707 97.1123 168.723 97.1123C174.739 97.1123 179.606 97.1768 179.606 97.2648Z" fill="#263238"></path> <path d="M155.524 99.7804C155.524 99.8683 150.652 99.9328 144.642 99.9328C138.632 99.9328 133.753 99.8683 133.753 99.7804C133.753 99.6924 138.626 99.6279 144.642 99.6279C150.658 99.6279 155.524 99.6983 155.524 99.7804Z" fill="#263238"></path> <path d="M156.586 75.9747C156.586 76.0568 151.713 76.1272 145.703 76.1272C139.693 76.1272 134.814 76.0568 134.814 75.9747C134.814 75.8926 139.687 75.8223 145.703 75.8223C151.719 75.8223 156.586 75.8926 156.586 75.9747Z" fill="#263238"></path> <path d="M150.781 74.1856C148.916 74.3889 147.035 74.3889 145.17 74.1856C147.034 73.9746 148.916 73.9746 150.781 74.1856Z" fill="#455A64"></path> <path d="M139.552 87.1964C137.689 87.3997 135.81 87.3997 133.947 87.1964C135.81 86.9931 137.689 86.9931 139.552 87.1964Z" fill="#455A64"></path> <path d="M139.4 89.5187C137.537 89.7219 135.657 89.7219 133.794 89.5187C135.657 89.3154 137.537 89.3154 139.4 89.5187Z" fill="#455A64"></path> <path d="M187.991 66.0421C187.991 66.1242 174.423 66.1946 157.682 66.1946C140.942 66.1946 127.374 66.1242 127.374 66.0421C127.374 65.96 140.942 65.8838 157.682 65.8838C174.423 65.8838 187.991 65.9542 187.991 66.0421Z" fill="#263238"></path> <path d="M132.182 63.9898C132.182 64.1327 132.139 64.2723 132.06 64.3911C131.98 64.5098 131.867 64.6022 131.735 64.6567C131.603 64.7111 131.458 64.725 131.318 64.6967C131.178 64.6684 131.049 64.5991 130.949 64.4977C130.848 64.3962 130.78 64.2671 130.753 64.1269C130.725 63.9866 130.74 63.8414 130.796 63.7097C130.851 63.578 130.945 63.4658 131.064 63.3873C131.184 63.3087 131.324 63.2674 131.466 63.2686C131.561 63.2686 131.654 63.2873 131.742 63.3236C131.829 63.3599 131.908 63.4131 131.974 63.4802C132.041 63.5472 132.093 63.6268 132.129 63.7142C132.165 63.8017 132.183 63.8954 132.182 63.9898Z" fill="white"></path> <path d="M135.266 63.9898C135.266 64.1327 135.224 64.2723 135.144 64.3911C135.065 64.5098 134.952 64.6022 134.819 64.6567C134.687 64.7111 134.542 64.725 134.402 64.6967C134.262 64.6684 134.133 64.5991 134.033 64.4977C133.932 64.3962 133.864 64.2671 133.837 64.1269C133.81 63.9866 133.825 63.8414 133.88 63.7097C133.936 63.578 134.029 63.4658 134.148 63.3873C134.268 63.3087 134.408 63.2674 134.551 63.2686C134.645 63.2686 134.739 63.2873 134.826 63.3236C134.913 63.3599 134.992 63.4131 135.059 63.4802C135.125 63.5472 135.178 63.6268 135.213 63.7142C135.249 63.8017 135.267 63.8954 135.266 63.9898Z" fill="white"></path> <path d="M138.38 63.9898C138.38 64.1327 138.337 64.2723 138.258 64.3911C138.178 64.5098 138.065 64.6022 137.933 64.6567C137.801 64.7111 137.656 64.725 137.515 64.6967C137.375 64.6684 137.247 64.5991 137.146 64.4977C137.046 64.3962 136.977 64.2671 136.95 64.1269C136.923 63.9866 136.938 63.8414 136.994 63.7097C137.049 63.578 137.143 63.4658 137.262 63.3873C137.381 63.3087 137.521 63.2674 137.664 63.2686C137.759 63.2686 137.852 63.2873 137.939 63.3236C138.027 63.3599 138.106 63.4131 138.172 63.4802C138.239 63.5472 138.291 63.6268 138.327 63.7142C138.362 63.8017 138.38 63.8954 138.38 63.9898Z" fill="white"></path> <path d="M274.924 107.936H206.52L211.574 59.2041H280.565L274.924 107.936Z" fill="#263238"></path> <path d="M271.441 107.936H203.037L208.097 59.2041H277.082L271.441 107.936Z" fill="#455A64"></path> <path d="M268.908 105.725H205.435L210.126 60.5117H274.138L268.908 105.725Z" fill="#EBEBEB"></path> <path d="M212.348 97.505C212.266 97.505 212.899 90.6915 213.761 82.3125C214.623 73.9335 215.397 67.1436 215.479 67.1553C215.561 67.167 214.928 73.9629 214.066 82.3477C213.204 90.7326 212.43 97.5108 212.348 97.505Z" fill="#263238"></path> <path d="M223.905 68.6681C221.785 68.8713 219.651 68.8713 217.531 68.6681C219.651 68.457 221.786 68.457 223.905 68.6681Z" fill="#263238"></path> <path d="M251.018 68.6681C251.018 68.7502 245.336 68.8205 238.323 68.8205C231.311 68.8205 225.635 68.7502 225.635 68.6681C225.635 68.586 231.317 68.5098 238.323 68.5098C245.33 68.5098 251.018 68.5801 251.018 68.6681Z" fill="#508EC2"></path> <path d="M223.155 84.7345C221.035 84.9377 218.901 84.9377 216.781 84.7345C218.901 84.5312 221.035 84.5312 223.155 84.7345Z" fill="#263238"></path> <path d="M250.268 84.7345C250.268 84.8166 244.58 84.8869 237.573 84.8869C230.566 84.8869 224.884 84.8166 224.884 84.7345C224.884 84.6524 230.566 84.582 237.573 84.582C244.58 84.582 250.268 84.6524 250.268 84.7345Z" fill="#508EC2"></path> <path d="M241.619 92.1398C241.619 92.2277 235.937 92.2922 228.93 92.2922C221.923 92.2922 216.236 92.2277 216.236 92.1398C216.236 92.0518 221.917 91.9873 228.93 91.9873C235.943 91.9873 241.619 92.0577 241.619 92.1398Z" fill="#508EC2"></path> <path d="M226.714 73.1778C223.729 73.3811 220.733 73.3811 217.748 73.1778C220.733 72.9746 223.729 72.9746 226.714 73.1778Z" fill="#508EC2"></path> <path d="M226.485 79.8497C223.5 80.0608 220.504 80.0608 217.52 79.8497C220.505 79.6465 223.5 79.6465 226.485 79.8497Z" fill="#508EC2"></path> <path d="M234.067 89.3605C231.082 89.5637 228.086 89.5637 225.101 89.3605C228.086 89.1572 231.082 89.1572 234.067 89.3605Z" fill="#508EC2"></path> <path d="M259.327 73.1778C259.327 73.2658 254.202 73.3303 247.875 73.3303C241.549 73.3303 236.424 73.2658 236.424 73.1778C236.424 73.0899 241.549 73.0254 247.875 73.0254C254.202 73.0254 259.327 73.1192 259.327 73.1778Z" fill="#263238"></path> <path d="M252.261 80.214C252.261 80.3019 247.131 80.3664 240.81 80.3664C234.489 80.3664 229.358 80.3019 229.358 80.214C229.358 80.126 234.483 80.0615 240.81 80.0615C247.136 80.0615 252.261 80.1553 252.261 80.214Z" fill="#263238"></path> <path d="M260.142 89.3605C260.142 89.4426 255.011 89.5129 248.69 89.5129C242.369 89.5129 237.239 89.4426 237.239 89.3605C237.239 89.2784 242.364 89.208 248.69 89.208C255.017 89.208 260.142 89.2725 260.142 89.3605Z" fill="#263238"></path> <path d="M239.232 97.505C239.232 97.5871 234.108 97.6574 227.781 97.6574C221.454 97.6574 216.329 97.5871 216.329 97.505C216.329 97.4229 221.46 97.3525 227.781 97.3525C234.102 97.3525 239.232 97.4229 239.232 97.505Z" fill="#263238"></path> <path d="M264.557 97.505C264.557 97.5871 259.426 97.6574 253.106 97.6574C246.785 97.6574 241.654 97.5871 241.654 97.505C241.654 97.4229 246.779 97.3525 253.106 97.3525C259.432 97.3525 264.557 97.4229 264.557 97.505Z" fill="#263238"></path> <path d="M239.232 100.15C239.232 100.232 234.108 100.302 227.781 100.302C221.454 100.302 216.329 100.232 216.329 100.15C216.329 100.067 221.454 99.9971 227.781 99.9971C234.108 99.9971 239.232 100.073 239.232 100.15Z" fill="#263238"></path> <path d="M240.34 75.1124C240.34 75.1945 235.216 75.2649 228.889 75.2649C222.562 75.2649 217.438 75.1945 217.438 75.1124C217.438 75.0303 222.562 74.96 228.889 74.96C235.216 74.96 240.34 75.0303 240.34 75.1124Z" fill="#263238"></path> <path d="M234.231 73.2247C232.27 73.428 230.293 73.428 228.332 73.2247C230.293 73.0215 232.27 73.0215 234.231 73.2247Z" fill="#455A64"></path> <path d="M222.404 86.9161C220.443 87.1194 218.466 87.1194 216.505 86.9161C218.466 86.7129 220.443 86.7129 222.404 86.9161Z" fill="#455A64"></path> <path d="M222.263 89.3604C220.302 89.5637 218.326 89.5637 216.365 89.3604C218.326 89.1572 220.302 89.1572 222.263 89.3604Z" fill="#455A64"></path> <path d="M273.376 64.6573C273.376 64.7453 259.104 64.8098 241.496 64.8098C223.888 64.8098 209.616 64.7453 209.616 64.6573C209.616 64.5694 223.888 64.5049 241.496 64.5049C259.104 64.5049 273.376 64.5752 273.376 64.6573Z" fill="#263238"></path> <path d="M214.67 62.5054C214.67 62.655 214.626 62.8013 214.543 62.9257C214.459 63.0501 214.341 63.147 214.203 63.2043C214.065 63.2615 213.913 63.2765 213.766 63.2473C213.619 63.2181 213.485 63.1461 213.379 63.0403C213.273 62.9345 213.201 62.7997 213.172 62.653C213.143 62.5063 213.158 62.3542 213.215 62.216C213.272 62.0778 213.369 61.9596 213.493 61.8765C213.618 61.7934 213.764 61.749 213.914 61.749C214.013 61.7483 214.112 61.7673 214.204 61.805C214.296 61.8428 214.38 61.8985 214.45 61.9688C214.521 62.0392 214.576 62.1229 214.614 62.2151C214.652 62.3072 214.671 62.4059 214.67 62.5054Z" fill="white"></path> <path d="M217.913 62.5054C217.913 62.655 217.868 62.8013 217.785 62.9257C217.702 63.0501 217.584 63.147 217.446 63.2043C217.308 63.2615 217.155 63.2765 217.009 63.2473C216.862 63.2181 216.727 63.1461 216.621 63.0403C216.516 62.9345 216.444 62.7997 216.414 62.653C216.385 62.5063 216.4 62.3542 216.457 62.216C216.515 62.0778 216.612 61.9596 216.736 61.8765C216.86 61.7934 217.007 61.749 217.156 61.749C217.256 61.7483 217.355 61.7673 217.447 61.805C217.539 61.8428 217.623 61.8985 217.693 61.9688C217.763 62.0392 217.819 62.1229 217.857 62.2151C217.894 62.3072 217.913 62.4059 217.913 62.5054Z" fill="white"></path> <path d="M221.161 62.5054C221.161 62.655 221.117 62.8013 221.034 62.9257C220.951 63.0501 220.832 63.147 220.694 63.2043C220.556 63.2615 220.404 63.2765 220.257 63.2473C220.11 63.2181 219.976 63.1461 219.87 63.0403C219.764 62.9345 219.692 62.7997 219.663 62.653C219.634 62.5063 219.649 62.3542 219.706 62.216C219.763 62.0778 219.86 61.9596 219.984 61.8765C220.109 61.7934 220.255 61.749 220.405 61.749C220.504 61.7483 220.603 61.7673 220.695 61.805C220.787 61.8428 220.871 61.8985 220.941 61.9688C221.012 62.0392 221.067 62.1229 221.105 62.2151C221.143 62.3072 221.162 62.4059 221.161 62.5054Z" fill="white"></path> <path d="M235.896 50.2508H170.57L175.402 3.71777H241.279L235.896 50.2508Z" fill="#263238"></path> <path d="M232.571 50.2508H167.246L172.077 3.71777H237.954L232.571 50.2508Z" fill="#455A64"></path> <path d="M230.144 48.1469H169.533L174.012 4.96777H235.14L230.144 48.1469Z" fill="#FAFAFA"></path> <path d="M176.194 40.9268C176.111 40.9268 176.715 34.4183 177.542 26.4205C178.369 18.4226 179.102 11.9316 179.19 11.9434C179.278 11.9551 178.668 18.446 177.841 26.4498C177.014 34.4535 176.281 40.9268 176.194 40.9268Z" fill="#263238"></path> <path d="M187.235 13.3692C185.211 13.5725 183.172 13.5725 181.148 13.3692C183.172 13.166 185.211 13.166 187.235 13.3692Z" fill="#263238"></path> <path d="M213.122 13.3693C213.122 13.4513 207.698 13.5217 201.002 13.5217C194.306 13.5217 188.882 13.4513 188.882 13.3693C188.882 13.2872 194.306 13.2168 201.002 13.2168C207.698 13.2168 213.122 13.2696 213.122 13.3693Z" fill="#508EC2"></path> <path d="M186.513 28.7023C184.49 28.9055 182.451 28.9055 180.427 28.7023C182.451 28.499 184.49 28.499 186.513 28.7023Z" fill="#263238"></path> <path d="M212.407 28.7023C212.407 28.7843 206.977 28.8547 200.287 28.8547C193.596 28.8547 188.167 28.7843 188.167 28.7023C188.167 28.6202 193.591 28.5498 200.287 28.5498C206.983 28.5498 212.407 28.6143 212.407 28.7023Z" fill="#508EC2"></path> <path d="M204.151 35.7745C204.151 35.8566 198.721 35.927 192.031 35.927C185.341 35.927 179.911 35.8566 179.911 35.7745C179.911 35.6924 185.335 35.6221 192.031 35.6221C198.727 35.6221 204.151 35.6924 204.151 35.7745Z" fill="#508EC2"></path> <path d="M189.914 17.6905C187.064 17.8938 184.203 17.8938 181.353 17.6905C184.203 17.4873 187.064 17.4873 189.914 17.6905Z" fill="#508EC2"></path> <path d="M189.697 24.0411C186.847 24.2444 183.986 24.2444 181.136 24.0411C183.986 23.8379 186.847 23.8379 189.697 24.0411Z" fill="#508EC2"></path> <path d="M196.933 33.1183C194.083 33.3215 191.222 33.3215 188.372 33.1183C191.222 32.915 194.083 32.915 196.933 33.1183Z" fill="#508EC2"></path> <path d="M221.055 17.6905C221.055 17.7726 216.159 17.843 210.12 17.843C204.08 17.843 199.184 17.7726 199.184 17.6905C199.184 17.6084 204.075 17.5381 210.12 17.5381C216.165 17.5381 221.055 17.6026 221.055 17.6905Z" fill="#263238"></path> <path d="M214.307 24.4103C214.307 24.4924 209.41 24.5627 203.371 24.5627C197.332 24.5627 192.436 24.4924 192.436 24.4103C192.436 24.3282 197.332 24.2578 203.371 24.2578C209.41 24.2578 214.307 24.3223 214.307 24.4103Z" fill="#263238"></path> <path d="M221.835 33.1183C221.835 33.2004 216.939 33.2707 210.9 33.2707C204.86 33.2707 199.964 33.2004 199.964 33.1183C199.964 33.0362 204.86 32.9658 210.9 32.9658C216.939 32.9658 221.835 33.0303 221.835 33.1183Z" fill="#263238"></path> <path d="M201.864 40.9288C201.864 41.0109 196.968 41.0813 190.929 41.0813C184.889 41.0813 180.011 40.9816 180.011 40.9288C180.011 40.876 184.907 40.7764 190.946 40.7764C196.986 40.7764 201.864 40.8115 201.864 40.9288Z" fill="#263238"></path> <path d="M226.051 40.9288C226.051 41.0109 221.155 41.0813 215.116 41.0813C209.076 41.0813 204.18 41.0109 204.18 40.9288C204.18 40.8467 209.076 40.7764 215.116 40.7764C221.155 40.7764 226.051 40.8115 226.051 40.9288Z" fill="#263238"></path> <path d="M201.864 43.4259C201.864 43.5138 196.968 43.5783 190.929 43.5783C184.889 43.5783 179.993 43.5138 179.993 43.4259C179.993 43.3379 184.889 43.2734 190.929 43.2734C196.968 43.2734 201.864 43.3438 201.864 43.4259Z" fill="#263238"></path> <path d="M202.925 19.5138C202.925 19.5959 198.029 19.6662 191.99 19.6662C185.95 19.6662 181.054 19.5959 181.054 19.5138C181.054 19.4317 185.95 19.3613 191.99 19.3613C198.029 19.3613 202.925 19.4258 202.925 19.5138Z" fill="#263238"></path> <path d="M197.097 17.714C195.224 17.9172 193.335 17.9172 191.462 17.714C193.335 17.5107 195.224 17.5107 197.097 17.714Z" fill="#455A64"></path> <path d="M185.798 30.7833C183.925 30.9866 182.036 30.9866 180.163 30.7833C182.036 30.58 183.925 30.58 185.798 30.7833Z" fill="#455A64"></path> <path d="M185.669 33.1183C183.796 33.3215 181.907 33.3215 180.034 33.1183C181.907 32.915 183.796 32.915 185.669 33.1183Z" fill="#455A64"></path> <path d="M234.471 9.52843C234.471 9.61638 220.844 9.68674 204.034 9.68674C187.223 9.68674 173.561 9.61638 173.561 9.52843C173.561 9.44047 187.188 9.37598 204.01 9.37598C220.833 9.37598 234.471 9.44634 234.471 9.52843Z" fill="#263238"></path> <path d="M177.694 8.19243C178.093 8.19243 178.416 7.86953 178.416 7.47122C178.416 7.0729 178.093 6.75 177.694 6.75C177.296 6.75 176.973 7.0729 176.973 7.47122C176.973 7.86953 177.296 8.19243 177.694 8.19243Z" fill="white"></path> <path d="M180.79 8.19243C181.189 8.19243 181.512 7.86953 181.512 7.47122C181.512 7.0729 181.189 6.75 180.79 6.75C180.392 6.75 180.069 7.0729 180.069 7.47122C180.069 7.86953 180.392 8.19243 180.79 8.19243Z" fill="white"></path> <path d="M183.886 8.19243C184.285 8.19243 184.608 7.86953 184.608 7.47122C184.608 7.0729 184.285 6.75 183.886 6.75C183.488 6.75 183.165 7.0729 183.165 7.47122C183.165 7.86953 183.488 8.19243 183.886 8.19243Z" fill="white"></path> <path d="M125.233 226.033H120.144V232.976H125.233V226.033Z" fill="#263238"></path> <path d="M152.517 145.022H197.672V142.824H152.517V145.022Z" fill="#263238"></path> <path d="M204.667 145.024L213.14 113.284H177.876L170.207 145.024H204.667Z" fill="#263238"></path> <path d="M172.323 142.625H203.822L211.152 114.75H179.489L172.323 142.625Z" fill="#F5F5F5"></path> <path d="M180.275 120.149L178.322 128.042H199.208L201.436 120.149H180.275Z" fill="#E0E0E0"></path> <path d="M197.015 119.108C197.015 119.195 193.356 119.26 188.835 119.26C184.314 119.26 180.656 119.195 180.656 119.108C180.656 119.02 184.314 118.955 188.835 118.955C193.356 118.955 197.015 119.025 197.015 119.108Z" fill="#455A64"></path> <path d="M187.51 121.657C185.316 121.86 183.108 121.86 180.914 121.657C183.108 121.454 185.316 121.454 187.51 121.657Z" fill="#263238"></path> <path d="M192.799 121.534C191.376 121.738 189.93 121.738 188.507 121.534C189.93 121.331 191.376 121.331 192.799 121.534Z" fill="#263238"></path> <path d="M198.774 123.087C198.774 123.175 194.734 123.245 189.75 123.245C184.766 123.245 180.726 123.175 180.726 123.087C180.726 122.999 184.766 122.935 189.75 122.935C194.734 122.935 198.774 123.017 198.774 123.087Z" fill="#455A64"></path> <path d="M186.203 124.396C184.253 124.6 182.288 124.6 180.339 124.396C182.288 124.191 184.253 124.191 186.203 124.396Z" fill="#508EC2"></path> <path d="M197.156 126.266C197.156 126.348 193.409 126.418 188.788 126.418C184.168 126.418 180.415 126.348 180.415 126.266C180.415 126.184 184.162 126.113 188.788 126.113C193.415 126.113 197.156 126.178 197.156 126.266Z" fill="#455A64"></path> <path d="M184.836 130.306C182.691 130.507 180.532 130.507 178.386 130.306C180.532 130.104 182.691 130.104 184.836 130.306Z" fill="#455A64"></path> <path d="M190.372 130.334C189.644 130.476 188.901 130.521 188.161 130.469C187.421 130.514 186.679 130.455 185.956 130.293C186.684 130.151 187.427 130.105 188.167 130.158C188.906 130.113 189.649 130.172 190.372 130.334Z" fill="#263238"></path> <path d="M193.497 130.182C193.497 130.27 193.075 130.334 192.559 130.334C192.043 130.334 191.626 130.27 191.626 130.182C191.626 130.094 192.049 130.029 192.559 130.029C193.069 130.029 193.497 130.1 193.497 130.182Z" fill="#263238"></path> <path d="M180.544 131.925C180.544 132.013 180.081 132.077 179.512 132.077C178.944 132.077 178.486 132.013 178.486 131.925C178.486 131.837 178.949 131.772 179.512 131.772C180.075 131.772 180.544 131.843 180.544 131.925Z" fill="#508EC2"></path> <path d="M186.701 131.925C185.069 132.128 183.419 132.128 181.787 131.925C183.419 131.722 185.069 131.722 186.701 131.925Z" fill="#263238"></path> <path d="M201.383 131.736C201.383 131.824 198.451 131.889 194.822 131.889C191.192 131.889 188.255 131.824 188.255 131.736C188.255 131.648 191.187 131.584 194.822 131.584C198.457 131.584 201.383 131.654 201.383 131.736Z" fill="#455A64"></path> <path d="M180.228 133.607C180.228 133.689 179.759 133.759 179.172 133.759C178.586 133.759 178.117 133.689 178.117 133.607C178.117 133.524 178.586 133.454 179.172 133.454C179.759 133.454 180.228 133.519 180.228 133.607Z" fill="#263238"></path> <path d="M183.464 133.572C183.058 133.723 182.622 133.775 182.192 133.724C181.76 133.775 181.322 133.723 180.914 133.572C181.323 133.424 181.76 133.372 182.192 133.419C182.622 133.372 183.057 133.424 183.464 133.572Z" fill="#263238"></path> <path d="M193.11 133.419C190.356 133.622 187.59 133.622 184.836 133.419C187.59 133.216 190.356 133.216 193.11 133.419Z" fill="#455A64"></path> <path d="M188.009 136.346C186.344 136.496 184.672 136.547 183.001 136.498C181.33 136.548 179.658 136.497 177.994 136.346C179.658 136.191 181.33 136.14 183.001 136.193C184.672 136.14 186.344 136.191 188.009 136.346Z" fill="#455A64"></path> <path d="M193.855 136.217C192.349 136.42 190.822 136.42 189.316 136.217C190.822 136.014 192.349 136.014 193.855 136.217Z" fill="#508EC2"></path> <path d="M202.538 136.217C200.033 136.42 197.515 136.42 195.01 136.217C197.515 136.014 200.033 136.014 202.538 136.217Z" fill="#263238"></path> <path d="M200.533 118.984C200.533 119.071 200.181 119.136 199.753 119.136C199.325 119.136 198.973 119.071 198.973 118.984C198.973 118.896 199.325 118.831 199.753 118.831C200.181 118.831 200.533 118.913 200.533 118.984Z" fill="#263238"></path> <path d="M184.649 117.928C183.516 118.131 182.357 118.131 181.224 117.928C182.357 117.725 183.516 117.725 184.649 117.928Z" fill="#508EC2"></path> <path d="M210.624 116.755H178.961L179.495 114.75H211.158L210.624 116.755Z" fill="#EBEBEB"></path> <path d="M180.826 116.111C181.017 116.111 181.172 115.956 181.172 115.765C181.172 115.574 181.017 115.419 180.826 115.419C180.635 115.419 180.48 115.574 180.48 115.765C180.48 115.956 180.635 116.111 180.826 116.111Z" fill="#FAFAFA"></path> <path d="M182.016 116.111C182.207 116.111 182.362 115.956 182.362 115.765C182.362 115.574 182.207 115.419 182.016 115.419C181.825 115.419 181.67 115.574 181.67 115.765C181.67 115.956 181.825 116.111 182.016 116.111Z" fill="#FAFAFA"></path> <path d="M183.206 116.111C183.397 116.111 183.552 115.956 183.552 115.765C183.552 115.574 183.397 115.419 183.206 115.419C183.015 115.419 182.86 115.574 182.86 115.765C182.86 115.956 183.015 116.111 183.206 116.111Z" fill="#FAFAFA"></path> <path d="M249.212 147.979H174.135V191.785H249.212V147.979Z" fill="#263238"></path> <path d="M208.338 147.979H174.135V191.785H208.338V147.979Z" fill="#455A64"></path> <path d="M204.855 162.855C204.846 162.781 204.846 162.707 204.855 162.633V161.993C204.855 161.407 204.855 160.604 204.825 159.56C204.825 157.443 204.79 154.418 204.767 150.689L204.878 150.8L177.366 150.841L177.519 150.689V153.849C177.519 154.893 177.519 155.931 177.519 156.945C177.519 158.98 177.519 160.956 177.519 162.844L177.378 162.703L197.085 162.767L202.808 162.808H204.344H204.749H204.89H204.767H204.38H202.873L197.179 162.844L177.378 162.914H177.231V162.767C177.231 160.879 177.231 158.903 177.231 156.869V150.7L177.384 150.548L204.896 150.589H205.007V150.7C204.978 154.459 204.96 157.508 204.943 159.636C204.943 160.668 204.943 161.477 204.943 162.046V162.668C204.86 162.791 204.855 162.891 204.855 162.855Z" fill="#263238"></path> <path d="M192.265 156.773C192.189 156.441 192.003 156.144 191.738 155.929C191.595 155.829 191.43 155.766 191.257 155.744C191.085 155.723 190.909 155.744 190.747 155.806C190.551 155.881 190.382 156.014 190.263 156.187C190.144 156.359 190.08 156.564 190.078 156.773C190.081 156.983 190.146 157.187 190.265 157.359C190.384 157.531 190.552 157.664 190.747 157.741C190.91 157.8 191.085 157.82 191.258 157.797C191.43 157.775 191.595 157.711 191.738 157.612C192.001 157.396 192.186 157.099 192.265 156.768C192.265 156.768 192.318 156.873 192.265 157.067C192.218 157.348 192.07 157.602 191.849 157.782C191.681 157.919 191.481 158.011 191.267 158.049C191.054 158.087 190.834 158.07 190.629 157.999C190.373 157.911 190.15 157.745 189.992 157.524C189.835 157.303 189.75 157.039 189.75 156.768C189.75 156.496 189.835 156.232 189.992 156.011C190.15 155.79 190.373 155.624 190.629 155.536C190.834 155.465 191.053 155.447 191.267 155.483C191.48 155.52 191.681 155.611 191.849 155.747C192.07 155.927 192.218 156.182 192.265 156.463C192.324 156.668 192.283 156.773 192.265 156.773Z" fill="#263238"></path> <path d="M204.854 176.252C204.846 176.176 204.846 176.1 204.854 176.024V175.384C204.854 174.798 204.854 173.995 204.825 172.951C204.825 170.84 204.79 167.815 204.767 164.08L204.878 164.191L177.366 164.238L177.519 164.085V167.246C177.519 168.295 177.519 169.327 177.519 170.348C177.519 172.382 177.519 174.358 177.519 176.246L177.378 176.1L197.085 176.17L202.808 176.211H204.344H204.749H204.89H204.767H204.38H202.873L197.179 176.252L177.378 176.323H177.231V176.176C177.231 174.288 177.231 172.312 177.231 170.277V164.091C177.196 164.091 177.519 163.798 177.384 163.933L204.896 163.98H205.007V164.062C204.978 167.826 204.96 170.875 204.942 173.004C204.942 174.036 204.942 174.839 204.942 175.414V176.029C204.86 176.188 204.854 176.258 204.854 176.252Z" fill="#263238"></path> <path d="M192.265 170.166C192.183 169.841 191.998 169.551 191.738 169.339C191.581 169.228 191.398 169.161 191.206 169.147C191.015 169.133 190.823 169.171 190.652 169.258C190.481 169.345 190.337 169.478 190.236 169.641C190.134 169.804 190.08 169.992 190.078 170.184C190.08 170.394 190.144 170.598 190.263 170.771C190.382 170.943 190.551 171.076 190.747 171.151C190.909 171.213 191.085 171.234 191.257 171.213C191.43 171.191 191.595 171.128 191.738 171.028C192.002 170.813 192.188 170.516 192.265 170.184C192.265 170.184 192.318 170.289 192.265 170.483C192.218 170.764 192.07 171.018 191.849 171.198C191.681 171.335 191.481 171.427 191.267 171.465C191.054 171.503 190.834 171.486 190.629 171.415C190.373 171.327 190.15 171.161 189.992 170.94C189.835 170.72 189.75 170.455 189.75 170.184C189.75 169.912 189.835 169.648 189.992 169.427C190.15 169.206 190.373 169.04 190.629 168.952C190.834 168.882 191.054 168.865 191.267 168.902C191.481 168.94 191.681 169.032 191.849 169.169C192.07 169.349 192.218 169.604 192.265 169.885C192.324 170.061 192.283 170.166 192.265 170.166Z" fill="#263238"></path> <path d="M204.855 189.645C204.846 189.571 204.846 189.497 204.855 189.423V188.784C204.855 188.197 204.855 187.394 204.825 186.35C204.825 184.233 204.79 181.208 204.767 177.479L204.878 177.59L177.366 177.631L177.519 177.479V180.639C177.519 181.683 177.519 182.721 177.519 183.735C177.519 185.77 177.519 187.746 177.519 189.634L177.378 189.493L197.085 189.558L202.808 189.599H204.344H204.749H204.89H204.767H204.38H202.873L197.179 189.634L177.378 189.704H177.231V189.558C177.231 187.669 177.231 185.693 177.231 183.659V177.49L177.384 177.338L204.896 177.379H205.007V177.49C204.978 181.249 204.96 184.298 204.943 186.426C204.943 187.458 204.943 188.268 204.943 188.836V189.458C204.86 189.581 204.855 189.651 204.855 189.645Z" fill="#263238"></path> <path d="M192.265 183.564C192.189 183.232 192.003 182.935 191.738 182.72C191.595 182.62 191.43 182.557 191.257 182.535C191.085 182.514 190.909 182.535 190.747 182.597C190.551 182.672 190.382 182.805 190.263 182.978C190.144 183.15 190.08 183.355 190.078 183.564C190.08 183.756 190.134 183.944 190.236 184.107C190.337 184.271 190.481 184.403 190.652 184.49C190.823 184.577 191.015 184.616 191.206 184.601C191.398 184.587 191.581 184.52 191.738 184.409C192.001 184.193 192.186 183.896 192.265 183.564C192.265 183.564 192.318 183.67 192.265 183.863C192.218 184.145 192.07 184.399 191.849 184.579C191.681 184.716 191.481 184.808 191.267 184.846C191.054 184.884 190.834 184.867 190.629 184.796C190.373 184.708 190.15 184.542 189.992 184.321C189.835 184.1 189.75 183.836 189.75 183.564C189.75 183.293 189.835 183.029 189.992 182.808C190.15 182.587 190.373 182.421 190.629 182.333C190.834 182.262 191.053 182.243 191.267 182.28C191.48 182.317 191.681 182.408 191.849 182.544C192.07 182.724 192.218 182.978 192.265 183.26C192.324 183.459 192.283 183.564 192.265 183.564Z" fill="#263238"></path> <path d="M124.137 227.441L73.9626 227.4V147.979H124.137V227.441Z" fill="#263238"></path> <path d="M251.939 144.923H71.5411V149.086H251.939V144.923Z" fill="#263238"></path> <path d="M79.5565 149.087H73.9626V233.346H79.5565V149.087Z" fill="#263238"></path> <path d="M249.212 149.087H243.618V233.369H249.212V149.087Z" fill="#263238"></path> <path d="M213.931 149.087H208.337V233.369H213.931V149.087Z" fill="#263238"></path> <path d="M96.9068 144.923C96.9068 145.005 91.53 145.075 84.8983 145.075C78.2666 145.075 72.8898 145.005 72.8898 144.923C72.8898 144.841 78.2666 144.771 84.8983 144.771C91.53 144.771 96.9068 144.835 96.9068 144.923Z" fill="#455A64"></path> <path d="M149.655 229.241L149.796 223.219L138.508 222.879L138.209 231.674L138.907 231.739C142.015 232.008 154.739 232.876 156.832 232.325C159.177 231.692 149.655 229.241 149.655 229.241Z" fill="#508EC2"></path> <g opacity="0.4"> <path opacity="0.4" d="M154.299 230.606C154.299 230.606 157.635 231.674 157.195 232.219C156.756 232.764 143.874 232.36 138.209 231.691V231.439L153.238 232.025C153.238 232.025 153.625 230.612 154.299 230.606Z" fill="white"></path> </g> <path d="M138.057 231.429H138.25L138.837 231.481L140.883 231.634C142.613 231.751 144.988 231.874 147.65 231.962C150.312 232.05 152.692 232.068 154.428 232.062H156.48H157.067H157.26H157.067H156.48H154.428C152.698 232.062 150.324 232.003 147.656 231.921C144.988 231.839 142.619 231.728 140.889 231.634L138.837 231.528H138.25L138.057 231.429Z" fill="#263238"></path> <path d="M153.249 232.202C153.35 231.865 153.489 231.54 153.666 231.235C153.878 230.956 154.12 230.7 154.387 230.473C154.045 230.612 153.753 230.852 153.55 231.161C153.347 231.47 153.242 231.833 153.249 232.202Z" fill="#263238"></path> <path d="M149.972 230.413C150.001 230.413 150.171 230.243 150.341 229.991C150.511 229.739 150.629 229.51 150.599 229.492C150.57 229.475 150.4 229.657 150.23 229.915C150.06 230.173 149.942 230.39 149.972 230.413Z" fill="#263238"></path> <path d="M149.075 229.903C149.075 229.903 149.28 229.815 149.479 229.645C149.679 229.475 149.819 229.317 149.796 229.288C149.772 229.258 149.591 229.376 149.391 229.546C149.192 229.716 149.051 229.874 149.075 229.903Z" fill="#263238"></path> <path d="M148.529 228.819C148.716 228.891 148.916 228.923 149.116 228.913C149.312 228.943 149.513 228.927 149.702 228.866C149.515 228.795 149.316 228.763 149.116 228.772C148.793 228.76 148.529 228.778 148.529 228.819Z" fill="#263238"></path> <path d="M148.348 228.062C148.539 228.194 148.766 228.268 148.998 228.274C149.227 228.318 149.464 228.294 149.679 228.203C149.459 228.158 149.235 228.136 149.01 228.139C148.793 228.089 148.571 228.063 148.348 228.062Z" fill="#263238"></path> <path d="M150.388 229.441C150.627 229.482 150.871 229.482 151.109 229.441C151.373 229.415 151.634 229.366 151.889 229.294C152.043 229.254 152.193 229.197 152.335 229.124C152.423 229.079 152.49 229.001 152.522 228.907C152.536 228.854 152.534 228.798 152.516 228.746C152.499 228.694 152.466 228.648 152.423 228.614C152.15 228.47 151.836 228.424 151.533 228.485C151.231 228.546 150.959 228.71 150.763 228.948C150.648 229.09 150.562 229.254 150.511 229.429C150.498 229.493 150.498 229.559 150.511 229.623C150.595 229.409 150.714 229.211 150.863 229.036C151.031 228.851 151.249 228.719 151.49 228.655C151.779 228.57 152.09 228.6 152.358 228.737C152.47 228.825 152.417 228.96 152.288 229.036C152.156 229.101 152.019 229.154 151.877 229.195C151.63 229.271 151.377 229.33 151.121 229.371C150.693 229.423 150.388 229.418 150.388 229.441Z" fill="#263238"></path> <path d="M150.57 229.481C150.664 229.333 150.699 229.156 150.67 228.983C150.654 228.791 150.592 228.606 150.488 228.444C150.431 228.335 150.347 228.242 150.244 228.175C150.142 228.107 150.024 228.066 149.901 228.057C149.827 228.07 149.761 228.111 149.717 228.173C149.673 228.234 149.655 228.31 149.667 228.385C149.682 228.502 149.722 228.614 149.784 228.713C149.872 228.876 149.983 229.026 150.113 229.159C150.222 229.292 150.36 229.399 150.517 229.47C150.517 229.47 150.376 229.335 150.183 229.094C150.072 228.958 149.976 228.811 149.896 228.655C149.802 228.496 149.737 228.221 149.925 228.191C150.113 228.162 150.283 228.367 150.388 228.514C150.488 228.658 150.554 228.822 150.582 228.995C150.595 229.157 150.591 229.32 150.57 229.481Z" fill="#263238"></path> <path d="M138.38 228.344C138.38 228.373 138.708 228.344 139.212 228.402C139.876 228.493 140.5 228.771 141.011 229.204C141.522 229.638 141.899 230.208 142.097 230.848C142.173 231.116 142.236 231.388 142.285 231.663C142.3 231.587 142.3 231.509 142.285 231.434C142.265 231.236 142.229 231.04 142.179 230.848C141.997 230.177 141.616 229.578 141.087 229.129C140.557 228.679 139.903 228.402 139.212 228.332C139.005 228.311 138.797 228.311 138.591 228.332C138.52 228.327 138.449 228.331 138.38 228.344Z" fill="#263238"></path> <path d="M139.693 223.683C139.594 224.451 139.537 225.224 139.523 225.999C139.469 226.779 139.459 227.562 139.494 228.344C139.593 227.576 139.65 226.803 139.664 226.028C139.721 225.248 139.731 224.464 139.693 223.683Z" fill="#263238"></path> <path d="M143.756 230.665C144.292 230.809 144.844 230.882 145.398 230.882C145.951 230.925 146.506 230.897 147.052 230.8C147.052 230.759 146.313 230.8 145.404 230.747C144.495 230.695 143.762 230.63 143.756 230.665Z" fill="#263238"></path> <path d="M141.546 230.595C141.546 230.595 141.599 230.753 141.669 230.923C141.739 231.093 141.774 231.252 141.815 231.246C141.857 231.24 141.88 231.07 141.815 230.876C141.751 230.683 141.569 230.571 141.546 230.595Z" fill="#263238"></path> <path d="M140.725 229.535C140.725 229.535 140.766 229.681 140.877 229.804C140.989 229.927 141.106 230.004 141.135 229.974C141.165 229.945 141.094 229.834 140.977 229.71C140.86 229.587 140.772 229.511 140.725 229.535Z" fill="#263238"></path> <path d="M139.552 229.024C139.552 229.065 139.711 229.065 139.875 229.129C140.039 229.194 140.156 229.282 140.186 229.258C140.215 229.235 140.127 229.077 139.922 229C139.716 228.924 139.552 228.989 139.552 229.024Z" fill="#263238"></path> <path d="M138.72 228.773C138.72 228.808 138.773 228.867 138.861 228.908C138.949 228.949 139.043 228.949 139.055 228.908C139.067 228.867 139.008 228.808 138.914 228.773C138.82 228.737 138.737 228.737 138.72 228.773Z" fill="#263238"></path> <g opacity="0.3"> <path opacity="0.3" d="M138.403 228.045L149.684 228.203L149.708 226.843L138.339 227.324L138.403 228.045Z" fill="black"></path> </g> <path d="M167.457 230.179V224.151L156.164 224.11L156.099 232.906L156.797 232.953C159.91 233.134 172.628 233.668 174.733 233.046C177.044 232.372 167.457 230.179 167.457 230.179Z" fill="#508EC2"></path> <g opacity="0.4"> <path opacity="0.4" d="M172.136 231.416C172.136 231.416 175.496 232.401 175.068 232.952C174.64 233.503 161.758 233.451 156.076 232.952V232.7L171.11 232.894C171.11 232.894 171.479 231.445 172.136 231.416Z" fill="white"></path> </g> <path d="M155.923 232.666H156.117L156.674 232.701L158.726 232.801C160.456 232.871 162.831 232.936 165.498 232.947C168.166 232.959 170.541 232.947 172.277 232.871L174.329 232.795L174.886 232.76H175.08H174.329L172.277 232.789C170.518 232.789 168.143 232.842 165.498 232.83C162.854 232.818 160.462 232.766 158.726 232.725L156.674 232.666H155.923Z" fill="#263238"></path> <path d="M171.133 233.047C171.221 232.706 171.351 232.377 171.52 232.068C171.724 231.78 171.96 231.516 172.224 231.282C171.871 231.411 171.578 231.665 171.403 231.998C171.185 232.301 171.088 232.676 171.133 233.047Z" fill="#263238"></path> <path d="M167.809 231.34C167.838 231.34 167.996 231.165 168.166 230.907C168.336 230.649 168.436 230.426 168.407 230.402C168.377 230.379 168.213 230.578 168.049 230.836C167.885 231.094 167.773 231.317 167.809 231.34Z" fill="#263238"></path> <path d="M166.894 230.853C166.894 230.853 167.099 230.76 167.293 230.59C167.486 230.42 167.627 230.249 167.603 230.22C167.58 230.191 167.398 230.314 167.205 230.484C167.011 230.654 166.87 230.824 166.894 230.853Z" fill="#263238"></path> <path d="M166.319 229.786C166.507 229.852 166.707 229.878 166.906 229.862C167.103 229.886 167.303 229.866 167.492 229.804C167.492 229.763 167.234 229.728 166.906 229.728C166.577 229.728 166.319 229.733 166.319 229.786Z" fill="#263238"></path> <path d="M166.126 229.029C166.321 229.158 166.549 229.225 166.782 229.223C167.013 229.269 167.252 229.238 167.463 229.135C167.241 229.101 167.018 229.085 166.794 229.088C166.574 229.049 166.35 229.029 166.126 229.029Z" fill="#263238"></path> <path d="M168.196 230.355C168.434 230.4 168.679 230.4 168.917 230.355C169.18 230.326 169.44 230.269 169.691 230.185C169.846 230.145 169.996 230.086 170.137 230.009C170.223 229.959 170.288 229.877 170.318 229.781C170.329 229.727 170.324 229.672 170.304 229.621C170.285 229.57 170.251 229.526 170.207 229.493C169.931 229.356 169.615 229.319 169.315 229.389C169.014 229.458 168.747 229.63 168.559 229.875C168.45 230.018 168.368 230.182 168.319 230.355C168.303 230.421 168.303 230.489 168.319 230.555C168.397 230.342 168.51 230.144 168.653 229.968C168.818 229.778 169.033 229.637 169.275 229.564C169.559 229.47 169.869 229.494 170.137 229.628C170.254 229.716 170.207 229.851 170.078 229.927C169.95 229.998 169.814 230.055 169.673 230.097C169.428 230.18 169.177 230.244 168.923 230.291C168.471 230.32 168.196 230.32 168.196 230.355Z" fill="#263238"></path> <path d="M168.383 230.396C168.468 230.242 168.497 230.064 168.465 229.891C168.446 229.7 168.379 229.517 168.272 229.358C168.212 229.253 168.127 229.164 168.025 229.1C167.923 229.036 167.806 228.997 167.686 228.988C167.649 228.995 167.614 229.01 167.583 229.03C167.552 229.051 167.525 229.078 167.504 229.109C167.483 229.14 167.469 229.175 167.462 229.211C167.455 229.248 167.455 229.286 167.463 229.322C167.48 229.438 167.522 229.548 167.586 229.645C167.68 229.806 167.794 229.953 167.926 230.085C168.149 230.308 168.331 230.396 168.336 230.378C168.342 230.36 168.196 230.249 167.996 230.02C167.881 229.884 167.779 229.736 167.691 229.58C167.592 229.428 167.527 229.152 167.691 229.123C167.856 229.094 168.055 229.287 168.166 229.428C168.269 229.569 168.339 229.731 168.372 229.903C168.389 230.067 168.393 230.231 168.383 230.396Z" fill="#263238"></path> <path d="M156.164 229.581C156.164 229.581 156.486 229.551 156.996 229.616C157.661 229.693 158.291 229.955 158.814 230.372C159.333 230.795 159.725 231.353 159.946 231.985C160.116 232.466 160.133 232.794 160.157 232.788C160.168 232.712 160.168 232.635 160.157 232.559C160.135 232.361 160.096 232.165 160.04 231.973C159.839 231.308 159.443 230.719 158.902 230.284C158.36 229.849 157.7 229.587 157.008 229.534C156.801 229.515 156.593 229.515 156.387 229.534C156.24 229.551 156.164 229.569 156.164 229.581Z" fill="#263238"></path> <path d="M157.354 224.884C157.272 225.663 157.237 226.446 157.248 227.229C157.209 228.011 157.218 228.794 157.278 229.575C157.356 228.795 157.391 228.012 157.383 227.229C157.423 226.448 157.413 225.664 157.354 224.884Z" fill="#263238"></path> <path d="M161.599 231.762C162.139 231.89 162.693 231.947 163.247 231.933C163.801 231.96 164.357 231.917 164.9 231.804C164.9 231.768 164.156 231.804 163.247 231.804C162.338 231.804 161.605 231.721 161.599 231.762Z" fill="#263238"></path> <path d="M159.383 231.745C159.383 231.775 159.447 231.904 159.518 232.074C159.588 232.244 159.635 232.396 159.676 232.39C159.717 232.385 159.735 232.215 159.647 232.021C159.559 231.828 159.412 231.722 159.383 231.745Z" fill="#263238"></path> <path d="M158.556 230.707C158.527 230.707 158.603 230.848 158.72 230.971C158.837 231.094 158.949 231.164 158.978 231.135C159.007 231.106 158.931 230.994 158.814 230.871C158.697 230.748 158.585 230.678 158.556 230.707Z" fill="#263238"></path> <path d="M157.366 230.227C157.366 230.268 157.524 230.268 157.688 230.327C157.852 230.385 157.975 230.473 158.005 230.45C158.034 230.426 157.94 230.268 157.735 230.198C157.53 230.127 157.354 230.192 157.366 230.227Z" fill="#263238"></path> <path d="M156.516 229.998C156.516 230.034 156.568 230.092 156.663 230.134C156.757 230.175 156.845 230.169 156.857 230.134C156.868 230.098 156.804 230.039 156.71 230.004C156.615 229.969 156.557 229.963 156.516 229.998Z" fill="#263238"></path> <g opacity="0.3"> <path opacity="0.3" d="M156.181 229.277L167.463 229.143L167.451 227.782L156.093 228.562L156.181 229.277Z" fill="black"></path> </g> <path d="M142.525 126.999L147.046 140.608C148.265 144.284 151.479 144.918 155.354 144.918H180.503V139.271L157.53 135.993L152.053 122.003L142.525 126.999Z" fill="#FFBE9D"></path> <path d="M183.271 138.103L185.264 137.159C185.264 137.159 187.416 133.002 187.909 133.172C188.401 133.342 188.548 134.562 187.686 136.467L190.336 135.711C190.336 135.711 196.083 138.367 195.831 138.725C195.578 139.083 195.104 139.933 193.855 139.311C192.606 138.69 190.958 137.916 190.958 137.916L187.862 138.801L191.855 139.311L195.614 142.724C195.614 142.724 194.376 143.65 193.315 142.671L183.558 144.764L180.503 144.94V139.294L183.271 138.103Z" fill="#FFBE9D"></path> <path d="M193.315 142.655C193.274 142.655 193.092 142.392 192.729 142.01C192.521 141.792 192.282 141.606 192.019 141.459C191.688 141.301 191.33 141.207 190.964 141.184C189.972 141.116 188.99 140.949 188.032 140.685C189.025 140.652 190.019 140.718 190.999 140.885C191.409 140.91 191.81 141.024 192.172 141.219C192.454 141.389 192.702 141.61 192.905 141.87C193.109 142.091 193.25 142.362 193.315 142.655Z" fill="#EB996E"></path> <path d="M191.79 143.041C191.749 143.041 191.72 142.842 191.45 142.783C191.181 142.725 190.723 142.678 190.278 142.631C189.703 142.622 189.131 142.565 188.566 142.461C189.13 142.264 189.737 142.217 190.325 142.326C190.742 142.362 191.153 142.447 191.55 142.578C191.62 142.604 191.682 142.645 191.733 142.699C191.784 142.753 191.822 142.818 191.843 142.889C191.843 142.994 191.808 143.047 191.79 143.041Z" fill="#EB996E"></path> <path d="M121.293 71.0194L119.927 98.6836L131.771 99.7976L132.428 93.1132C132.428 93.1132 136.603 94.1452 137.869 90.2811C138.684 87.8126 139.406 68.4746 139.406 68.4746L121.293 71.0194Z" fill="#FFBE9D"></path> <path d="M140.426 71.6768C140.754 74.2685 137.136 75.7813 137.136 75.7813L136.503 81.9087C135.937 81.8683 135.369 81.8683 134.803 81.9087C135.108 79.0356 131.402 79.5985 131.027 81.5569C130.651 83.5153 132.786 84.6998 132.786 84.6998C131.308 86.9689 130.704 88.171 128.605 90.2994C126.33 92.6038 125.087 92.7914 122.741 92.7211L120.156 92.6038C120.156 92.6038 119.229 90.3933 118.555 85.1688C118.232 82.6592 116.268 79.3639 116.831 75.2829C118.414 63.679 129.531 64.9045 129.531 64.9045C135.342 65.0276 139.664 65.6726 140.426 71.6768Z" fill="#263238"></path> <path d="M131.93 65.2031C134.439 65.2676 137.043 65.467 139.247 66.669C141.452 67.871 143.152 70.3513 142.701 72.8199L141.446 73.0485L140.93 72.1221C140.93 72.6146 140.93 73.1072 140.93 73.5997L138.725 74.2154C138.394 72.333 137.731 70.5244 136.767 68.8737" fill="#263238"></path> <path d="M121.762 77.9334C121.675 77.8 121.61 77.6535 121.569 77.4995C121.427 77.0893 121.321 76.6675 121.252 76.2389C121.014 74.8156 121.113 73.3562 121.542 71.9783C121.971 70.6003 122.717 69.3423 123.721 68.3055C124.017 67.9895 124.34 67.701 124.688 67.4435C124.81 67.3371 124.949 67.2518 125.099 67.1914C125.128 67.2325 124.589 67.637 123.879 68.4462C122.957 69.5002 122.265 70.7342 121.844 72.0699C121.441 73.4103 121.317 74.8193 121.481 76.2095C121.592 77.2826 121.815 77.9158 121.762 77.9334Z" fill="#455A64"></path> <path d="M124.096 76.965C123.869 76.519 123.712 76.0403 123.633 75.546C123.373 74.3648 123.295 73.1505 123.404 71.9458C123.506 70.7372 123.791 69.5509 124.248 68.4277C124.414 67.9532 124.653 67.5079 124.958 67.1084C124.327 68.6617 123.907 70.2926 123.709 71.9575C123.614 73.6365 123.744 75.3206 124.096 76.965Z" fill="#455A64"></path> <path d="M139.218 72.6732C139.159 72.6732 139.06 71.9578 138.579 70.9141C137.961 69.538 136.971 68.3619 135.721 67.5185C134.47 66.6751 133.009 66.1981 131.502 66.1412C130.329 66.0884 129.631 66.2643 129.619 66.2116C129.774 66.1336 129.94 66.082 130.112 66.0591C130.571 65.9681 131.039 65.9248 131.507 65.9301C133.073 65.9279 134.602 66.3956 135.899 67.2727C137.195 68.1498 138.198 69.3959 138.778 70.8496C138.955 71.2824 139.087 71.7324 139.171 72.1924C139.213 72.349 139.229 72.5114 139.218 72.6732Z" fill="#455A64"></path> <path d="M122.132 62.9629C122.794 63.103 123.392 63.4574 123.832 63.9714C124.346 64.4123 124.697 65.0133 124.829 65.6777C124.747 65.7129 124.366 64.9272 123.615 64.1825C122.865 63.4378 122.091 63.0508 122.132 62.9629Z" fill="#263238"></path> <path d="M124.893 62.9736C124.981 63.003 124.799 63.6245 124.835 64.3926C124.87 65.1607 125.081 65.7588 124.999 65.7999C124.669 65.4122 124.501 64.9125 124.53 64.4043C124.46 63.8983 124.59 63.3849 124.893 62.9736Z" fill="#455A64"></path> <path d="M140.397 124.032L142.326 130.582L154.604 125.029C154.164 123.657 152.13 117.547 148.248 107.849C147.185 105.19 145.456 102.85 143.226 101.054C140.997 99.2576 138.342 98.0659 135.518 97.5936C131.647 96.8871 127.725 96.4949 123.791 96.4209C116.907 96.4971 106.787 100.801 105.415 107.562C104.371 112.71 105.374 121.804 105.374 132.851L106.271 153.96L141.546 155.133L140.397 124.032Z" fill="#508EC2"></path> <g opacity="0.3"> <path opacity="0.3" d="M105.391 127.971C109.683 128.851 114.087 127.971 118.461 127.707C121.111 127.549 124.055 127.262 126.154 128.88C127.819 130.17 128.499 132.346 128.969 134.398C130.798 142.214 131.126 147.456 131.537 155.471L110.305 156.761L105.391 127.971Z" fill="black"></path> </g> <path d="M147.216 105.825C147.216 105.913 137.952 105.978 126.529 105.978C115.107 105.978 105.849 105.913 105.849 105.825C105.849 105.737 115.107 105.673 126.529 105.673C137.952 105.673 147.216 105.743 147.216 105.825Z" fill="#FAFAFA"></path> <path d="M149.79 111.753C149.79 111.835 139.716 111.905 127.303 111.905C114.89 111.905 104.817 111.835 104.817 111.753C104.817 111.671 114.878 111.601 127.303 111.601C139.728 111.601 149.79 111.671 149.79 111.753Z" fill="#FAFAFA"></path> <path d="M153.038 119.189C153.038 119.277 142.296 119.341 129.045 119.341C115.793 119.341 105.051 119.277 105.051 119.189C105.051 119.101 115.793 119.036 129.045 119.036C142.296 119.036 153.038 119.107 153.038 119.189Z" fill="#FAFAFA"></path> <path d="M140.139 127.21C140.139 127.292 136.779 127.363 132.645 127.363C128.511 127.363 125.146 127.292 125.146 127.21C125.146 127.128 128.5 127.058 132.645 127.058C136.791 127.058 140.139 127.122 140.139 127.21Z" fill="#FAFAFA"></path> <path d="M140.825 135.917C140.825 135.999 137.307 136.04 132.979 136.005C128.652 135.97 125.134 135.876 125.134 135.788C125.134 135.7 128.652 135.665 132.979 135.7C137.307 135.735 140.825 135.817 140.825 135.917Z" fill="#FAFAFA"></path> <path d="M141.165 142.982C140.962 143.018 140.755 143.028 140.549 143.011L138.866 142.976C137.447 142.947 135.489 142.905 133.325 142.905C131.162 142.905 129.221 142.941 127.784 142.97L126.101 143.005C125.895 143.032 125.686 143.032 125.48 143.005C125.68 142.947 125.887 142.915 126.095 142.911C126.488 142.87 127.063 142.829 127.772 142.788C129.191 142.7 131.156 142.63 133.325 142.63C135.495 142.63 137.459 142.706 138.872 142.794C139.582 142.835 140.156 142.882 140.555 142.923C140.76 142.918 140.965 142.938 141.165 142.982Z" fill="#FAFAFA"></path> <path d="M141.053 148.706C141.053 148.788 137.594 148.859 133.325 148.859C129.057 148.859 125.603 148.788 125.603 148.706C125.603 148.624 129.057 148.554 133.325 148.554C137.594 148.554 141.053 148.618 141.053 148.706Z" fill="#FAFAFA"></path> <path d="M142.103 100.015C142.103 100.103 135.313 100.167 126.94 100.167C118.567 100.167 111.771 100.103 111.771 100.015C111.771 99.9268 118.561 99.8623 126.94 99.8623C135.319 99.8623 142.103 99.9327 142.103 100.015Z" fill="#FAFAFA"></path> <path d="M141.311 101.117C141.311 101.152 140.96 101.169 140.373 101.398C139.56 101.755 138.857 102.324 138.339 103.046C137.591 104.13 137.169 105.406 137.125 106.722C137.08 108.341 137.206 109.961 137.5 111.554C137.993 114.471 138.651 117.359 139.47 120.202C139.758 121.264 139.998 122.137 140.18 122.8C140.278 123.115 140.355 123.436 140.408 123.761C140.268 123.463 140.154 123.153 140.068 122.835C139.869 122.249 139.587 121.352 139.259 120.261C138.387 117.422 137.701 114.529 137.207 111.601C136.913 109.984 136.795 108.34 136.855 106.699C136.916 105.335 137.377 104.02 138.18 102.917C138.73 102.176 139.481 101.61 140.344 101.287C140.578 101.207 140.82 101.152 141.065 101.122C141.146 101.109 141.229 101.107 141.311 101.117Z" fill="#263238"></path> <path d="M154.211 123.351C153.664 123.732 153.086 124.066 152.481 124.347C151.391 124.934 149.86 125.667 148.148 126.441C146.436 127.215 144.865 127.86 143.715 128.299C143.104 128.563 142.473 128.777 141.827 128.939C142.408 128.615 143.011 128.335 143.633 128.1C144.759 127.608 146.319 126.927 148.025 126.165C149.731 125.403 151.268 124.67 152.382 124.154C152.973 123.845 153.584 123.577 154.211 123.351Z" fill="#263238"></path> <path d="M117.159 154.306L159.307 155.795C162.595 155.913 165.706 157.315 167.973 159.7C170.24 162.085 171.482 165.264 171.432 168.554L169.673 228.749L153.39 228.21L154.604 171.849L117.154 170.864L117.159 154.306Z" fill="#263238"></path> <path d="M99.7446 154.306L141.898 155.795C145.186 155.913 148.298 157.315 150.564 159.7C152.831 162.085 154.073 165.264 154.023 168.554L152.264 228.749L135.764 227.442L137.207 171.849L99.7564 170.864L99.7446 154.306Z" fill="#263238"></path> <path d="M131.29 176.17H127.145V225.84H131.29V176.17Z" fill="#455A64"></path> <path d="M92.3567 127.961V164.526C92.3567 166.829 93.2716 169.038 94.9001 170.666C96.5287 172.295 98.7375 173.21 101.041 173.21H125.392V127.961C125.392 127.453 125.292 126.949 125.097 126.48C124.903 126.01 124.618 125.584 124.258 125.224C123.899 124.865 123.472 124.58 123.003 124.385C122.533 124.191 122.03 124.091 121.522 124.091H96.2266C95.7184 124.091 95.2152 124.191 94.7457 124.385C94.2761 124.58 93.8495 124.865 93.4902 125.224C93.1308 125.584 92.8458 126.01 92.6513 126.48C92.4568 126.949 92.3567 127.453 92.3567 127.961Z" fill="#455A64"></path> <path d="M158.157 176.171H98.8652C98.8652 174.46 99.5448 172.819 100.754 171.61C101.964 170.4 103.605 169.721 105.315 169.721H151.737C153.447 169.721 155.088 170.4 156.298 171.61C157.507 172.819 158.187 174.46 158.187 176.171H158.157Z" fill="#455A64"></path> <path d="M125.392 168.882C125.399 168.976 125.399 169.07 125.392 169.163C125.387 169.432 125.354 169.699 125.292 169.961C125.097 170.789 124.664 171.542 124.048 172.128C123.431 172.714 122.658 173.108 121.821 173.262C121.042 173.345 120.258 173.375 119.476 173.35H114.146C110.364 173.35 106.939 173.35 104.465 173.315L101.533 173.274L100.736 173.244C100.641 173.243 100.547 173.233 100.454 173.215C100.546 173.189 100.641 173.177 100.736 173.18L101.533 173.15L104.465 173.098C106.939 173.068 110.364 173.051 114.146 173.045H119.47C120.238 173.076 121.008 173.058 121.774 172.992C122.423 172.882 123.038 172.62 123.568 172.23C124.352 171.652 124.917 170.825 125.169 169.884C125.374 169.269 125.357 168.882 125.392 168.882Z" fill="#263238"></path> <path d="M132.856 176.3C131.649 176.454 130.431 176.505 129.215 176.452C128.001 176.505 126.785 176.454 125.579 176.3C126.785 176.149 128.001 176.098 129.215 176.147C130.431 176.098 131.649 176.149 132.856 176.3Z" fill="#263238"></path> <path d="M150.892 173.526C150.718 172.952 150.597 172.363 150.529 171.767C150.33 170.641 150.066 169.005 149.749 166.988C149.432 164.971 149.215 162.526 148.101 160.105C147.518 158.845 146.779 157.663 145.903 156.586C144.944 155.444 143.831 154.442 142.596 153.608C141.365 152.764 140.012 152.114 138.585 151.679C137.256 151.254 135.875 151.016 134.48 150.969C131.801 150.911 129.35 150.922 127.309 150.881C125.269 150.84 123.609 150.823 122.466 150.787C121.877 150.801 121.288 150.76 120.707 150.664C121.289 150.573 121.877 150.534 122.466 150.547C123.609 150.512 125.263 150.477 127.309 150.453C129.356 150.43 131.777 150.377 134.498 150.412C137.505 150.483 140.428 151.417 142.918 153.104C144.204 153.966 145.357 155.011 146.342 156.205C147.249 157.327 148.008 158.561 148.6 159.876C148.735 160.187 148.846 160.509 148.969 160.82L149.145 161.289C149.186 161.447 149.233 161.606 149.274 161.764C149.362 162.075 149.45 162.385 149.532 162.69C149.614 162.995 149.643 163.306 149.702 163.605C149.907 164.807 150.019 165.909 150.159 166.93C150.417 168.953 150.623 170.6 150.746 171.732C150.849 172.324 150.898 172.925 150.892 173.526Z" fill="#455A64"></path> <path d="M147.351 230.319H146.764C146.807 227.976 146.382 225.647 145.515 223.469C144.648 221.292 143.355 219.309 141.713 217.636C140.071 215.964 138.111 214.635 135.95 213.728C133.788 212.821 131.468 212.354 129.124 212.354C126.78 212.354 124.459 212.821 122.298 213.728C120.136 214.635 118.177 215.964 116.535 217.636C114.893 219.309 113.6 221.292 112.733 223.469C111.865 225.647 111.441 227.976 111.483 230.319H110.897C110.854 227.898 111.293 225.493 112.19 223.243C113.086 220.994 114.422 218.946 116.118 217.218C117.815 215.491 119.839 214.118 122.072 213.182C124.305 212.245 126.702 211.763 129.124 211.763C131.545 211.763 133.943 212.245 136.176 213.182C138.409 214.118 140.433 215.491 142.129 217.218C143.826 218.946 145.162 220.994 146.058 223.243C146.955 225.493 147.394 227.898 147.351 230.319Z" fill="#455A64"></path> <path d="M113.923 231.246C113.923 231.786 113.762 232.315 113.462 232.764C113.162 233.213 112.735 233.564 112.236 233.77C111.737 233.977 111.187 234.031 110.657 233.926C110.127 233.821 109.64 233.56 109.258 233.178C108.876 232.796 108.616 232.309 108.51 231.779C108.405 231.249 108.459 230.7 108.666 230.2C108.873 229.701 109.223 229.274 109.672 228.974C110.122 228.674 110.65 228.514 111.19 228.514C111.549 228.513 111.905 228.583 112.237 228.72C112.569 228.857 112.87 229.058 113.124 229.312C113.378 229.566 113.579 229.868 113.716 230.2C113.853 230.531 113.923 230.887 113.923 231.246Z" fill="#263238"></path> <path d="M149.925 230.871C149.925 231.412 149.765 231.94 149.464 232.389C149.164 232.838 148.737 233.189 148.238 233.395C147.739 233.602 147.189 233.656 146.659 233.551C146.129 233.446 145.643 233.185 145.26 232.803C144.878 232.421 144.618 231.934 144.513 231.404C144.407 230.874 144.461 230.325 144.668 229.825C144.875 229.326 145.225 228.899 145.674 228.599C146.124 228.299 146.652 228.139 147.192 228.139C147.917 228.139 148.612 228.427 149.125 228.939C149.637 229.451 149.925 230.146 149.925 230.871Z" fill="#263238"></path> <path d="M147.175 225.84C147.175 225.928 139.241 225.998 129.461 225.998C119.681 225.998 111.747 225.928 111.747 225.84C111.747 225.752 119.675 225.688 129.461 225.688C139.247 225.688 147.175 225.758 147.175 225.84Z" fill="#455A64"></path> <path d="M86.6631 111.741C87.0955 112.015 87.4687 112.372 87.7608 112.792C88.0528 113.212 88.2578 113.686 88.3635 114.187C88.564 115.195 88.5319 116.236 88.2697 117.23C87.8241 119.153 86.5106 120.994 85.1034 122.413C83.6316 120.789 83.5437 118.244 83.5789 116.948C83.6375 114.902 84.992 111.237 86.6631 111.741Z" fill="#508EC2"></path> <path d="M86.6397 125.862C86.5953 125.293 86.7014 124.723 86.9474 124.208C87.1934 123.693 87.5706 123.253 88.041 122.93C88.5191 122.615 89.0549 122.397 89.6176 122.291C90.1802 122.184 90.7585 122.19 91.3188 122.308C91.5817 122.336 91.8354 122.421 92.0622 122.556C92.289 122.692 92.4836 122.876 92.6322 123.094C92.7357 123.319 92.7773 123.568 92.7525 123.814C92.7278 124.06 92.6377 124.296 92.4915 124.495C92.1888 124.895 91.7835 125.205 91.3188 125.393C89.7884 126.12 88.1759 126.565 86.6279 125.873" fill="#508EC2"></path> <path d="M84.1652 130.154C84.2465 129.723 84.3722 129.303 84.5404 128.899C84.7043 128.45 84.9229 128.022 85.1913 127.626C85.4979 127.132 85.8388 126.66 86.2115 126.213C86.8972 125.391 87.7753 124.75 88.768 124.349C89.0701 124.238 89.3824 124.157 89.7003 124.108C89.8168 124.089 89.9357 124.089 90.0522 124.108C90.0522 124.149 89.5596 124.202 88.8267 124.513C87.8827 124.944 87.0473 125.581 86.3816 126.377C86.0138 126.816 85.6731 127.276 85.3613 127.755C85.0928 128.137 84.8649 128.546 84.6812 128.975C84.5374 129.38 84.365 129.774 84.1652 130.154Z" fill="#263238"></path> <path d="M85.8773 114.62C85.8992 114.84 85.8992 115.062 85.8773 115.283C85.8773 115.705 85.8187 116.321 85.7659 117.077C85.6545 118.596 85.4727 120.689 85.2265 122.999C84.9802 125.309 84.687 127.385 84.4466 128.863C84.3235 129.613 84.2238 130.217 84.1417 130.622C84.1115 130.841 84.0624 131.056 83.9951 131.267C83.9932 131.044 84.0128 130.823 84.0538 130.604C84.1183 130.147 84.1945 129.543 84.2883 128.845C84.4877 127.338 84.7515 125.257 85.0037 122.946C85.2558 120.636 85.4493 118.59 85.59 117.042C85.6662 116.315 85.7307 115.711 85.7776 115.248C85.7956 115.036 85.8289 114.827 85.8773 114.62Z" fill="#263238"></path> <path d="M84.0713 126.324C83.8452 125.137 83.3402 124.022 82.598 123.068C81.8558 122.115 80.8977 121.352 79.8027 120.842C79.2163 120.59 78.5185 120.431 78.0729 120.842C77.6273 121.252 77.7446 122.014 77.9791 122.571C78.4902 123.747 79.3383 124.745 80.4164 125.439C81.4945 126.134 82.7542 126.492 84.0361 126.471" fill="#508EC2"></path> <path d="M80.2308 122.589C80.3418 122.623 80.4466 122.675 80.5416 122.741C81.7269 123.422 82.7589 124.34 83.5731 125.439C83.8936 125.924 84.1332 126.459 84.2825 127.022C84.3983 127.482 84.4515 127.955 84.4409 128.429C84.4326 128.746 84.3954 129.062 84.3295 129.373C84.3141 129.49 84.2825 129.605 84.2356 129.713C84.1887 129.713 84.2943 129.215 84.2825 128.429C84.2711 127.971 84.2062 127.517 84.089 127.074C83.9319 126.538 83.6947 126.028 83.3854 125.562C82.7932 124.723 82.0707 123.985 81.2452 123.375C80.8912 123.134 80.5524 122.871 80.2308 122.589Z" fill="#263238"></path> <path d="M83.8779 144.923C81.9335 144.922 80.0692 144.148 78.6948 142.773C77.3205 141.398 76.5485 139.533 76.5485 137.588V130.259H91.2073V137.588C91.2073 139.533 90.4353 141.398 89.0609 142.773C87.6866 144.148 85.8223 144.922 83.8779 144.923Z" fill="#263238"></path> <path d="M91.2132 133.864C91.154 133.94 91.0872 134.008 91.0138 134.07L90.4275 134.615L88.1935 136.503L88.1407 136.544L88.0762 136.509L83.8486 133.97H83.9717L79.9904 136.503L79.9317 136.544L79.8731 136.497L77.4397 134.591L76.7713 134.052C76.6885 133.991 76.6136 133.92 76.5485 133.841C76.644 133.88 76.733 133.933 76.8123 133.999C77 134.134 77.2345 134.304 77.5159 134.498L79.9962 136.339H79.8789L83.8134 133.747L83.8779 133.706L83.9424 133.741L88.17 136.333H88.0527L90.3219 134.498L90.961 133.993C91.1252 133.911 91.2073 133.853 91.2132 133.864Z" fill="#E0E0E0"></path> <path d="M91.2132 132.398C91.154 132.473 91.0872 132.541 91.0138 132.603L90.4274 133.148L88.2169 135.054L88.1641 135.095L88.0996 135.06L83.8486 132.503H83.9717L80.0138 135.065L79.9552 135.107L79.8965 135.06L77.4632 133.154L76.7947 132.615C76.7119 132.554 76.6371 132.483 76.5719 132.403C76.6674 132.442 76.7564 132.496 76.8358 132.562L77.5394 133.06L80.0197 134.901H79.9024L83.8368 132.31L83.9013 132.269L83.9658 132.304L88.1934 134.895H88.0762L90.3454 133.06L90.9845 132.556C91.1252 132.444 91.2073 132.398 91.2132 132.398Z" fill="#E0E0E0"></path> <path d="M91.2132 135.331C91.2132 135.331 91.1487 135.413 91.0139 135.542L90.4275 136.082L88.217 137.987L88.1642 138.034L88.0997 137.993L83.8486 135.466H83.9718L80.0139 138.028L79.9552 138.069L79.8966 138.028C78.9174 137.254 78.0906 136.609 77.4632 136.123L76.7948 135.577C76.6423 135.448 76.5661 135.378 76.572 135.366C76.666 135.408 76.7546 135.461 76.8358 135.525C77.0235 135.665 77.258 135.83 77.5395 136.029L80.0197 137.864H79.9025L83.8369 135.272L83.9014 135.231L83.9659 135.272L88.1935 137.858H88.0762L90.3454 136.017L90.9846 135.519C91.0522 135.446 91.1291 135.383 91.2132 135.331Z" fill="#E0E0E0"></path> <path d="M281.192 162.14C278.155 162.632 276.794 166.361 277.087 169.428C277.381 172.495 278.618 175.497 278.26 178.552C277.832 182.439 274.894 185.723 274.554 189.616C274.15 194.207 277.398 198.282 278.366 202.786C278.841 204.979 278.776 207.301 279.591 209.388C280.287 211.166 281.578 212.648 283.244 213.58C284.909 214.513 286.847 214.839 288.727 214.503C290.606 214.167 292.31 213.189 293.55 211.737C294.789 210.284 295.486 208.447 295.522 206.538C295.587 203.02 293.411 199.696 293.675 196.177C293.869 193.58 295.393 191.117 295.071 188.555C294.678 185.476 291.828 183.278 290.82 180.346C289.811 177.414 290.785 174.177 290.433 171.093C289.811 165.564 286.745 161.712 281.198 162.151" fill="#508EC2"></path> <path d="M265.677 188.918C265.155 194.043 267.436 200.059 270.057 204.497C272.724 208.956 276.744 212.448 281.532 214.465C282.065 214.688 282.734 214.876 283.185 214.512C283.346 214.337 283.467 214.128 283.539 213.902C283.61 213.675 283.632 213.435 283.602 213.199C283.641 207.759 281.915 202.453 278.683 198.078C275.451 193.702 270.887 190.492 265.677 188.93" fill="#508EC2"></path> <g opacity="0.2"> <path opacity="0.2" d="M265.677 188.918C265.155 194.043 267.436 200.059 270.057 204.497C272.724 208.956 276.744 212.448 281.532 214.465C282.065 214.688 282.734 214.876 283.185 214.512C283.346 214.337 283.467 214.128 283.539 213.902C283.61 213.675 283.632 213.435 283.602 213.199C283.641 207.759 281.915 202.453 278.683 198.078C275.451 193.702 270.887 190.492 265.677 188.93" fill="black"></path> </g> <path d="M287.999 225.165C287.938 225.078 287.889 224.983 287.853 224.883L287.483 224.039C287.178 223.312 286.715 222.28 286.129 220.961C284.602 217.595 282.905 214.309 281.045 211.116C279.173 207.926 277.141 204.832 274.959 201.845C274.12 200.702 273.428 199.781 272.942 199.154C272.719 198.861 272.531 198.615 272.391 198.421C272.321 198.339 272.261 198.251 272.209 198.157C272.209 198.157 272.297 198.228 272.432 198.386L273.018 199.084C273.534 199.67 274.249 200.591 275.111 201.722C279.6 207.636 283.362 214.068 286.317 220.878C286.903 222.186 287.313 223.253 287.589 223.998L287.906 224.86C287.946 224.958 287.977 225.06 287.999 225.165Z" fill="#263238"></path> <path d="M284.698 176.316C284.731 176.479 284.751 176.643 284.757 176.809C284.757 177.155 284.815 177.624 284.856 178.222C284.939 179.471 285.05 181.242 285.191 183.411C285.466 187.797 285.853 193.854 286.328 200.539C286.803 207.223 287.26 213.28 287.601 217.66C287.765 219.83 287.9 221.595 287.999 222.849C288.04 223.436 288.07 223.911 288.093 224.257C288.107 224.423 288.107 224.589 288.093 224.755C288.093 224.755 288.064 224.585 288.023 224.263C287.982 223.94 287.935 223.448 287.87 222.855C287.753 221.606 287.589 219.841 287.384 217.678C286.991 213.298 286.492 207.252 286.023 200.562C285.554 193.872 285.208 187.815 284.968 183.411C284.868 181.236 284.786 179.471 284.727 178.216C284.727 177.63 284.692 177.149 284.681 176.797C284.672 176.637 284.678 176.476 284.698 176.316Z" fill="#263238"></path> <path d="M279.984 217.859H292.819V227.282C292.818 228.915 292.168 230.481 291.012 231.636C289.857 232.79 288.29 233.439 286.657 233.439C285.08 233.44 283.563 232.835 282.419 231.751C281.275 230.667 280.59 229.185 280.506 227.61L279.984 217.859Z" fill="#263238"></path> <path d="M214.981 93.6348L245.588 110.586L244.439 112.744L214.101 95.4759L214.981 93.6348Z" fill="#508EC2"></path> <path d="M213.474 92.0338L214.881 89.8818L215.702 90.3861L214.441 92.5556L213.474 92.0338Z" fill="#508EC2"></path> <path d="M242.111 107.906L243.683 108.809L238.558 141.516L236.131 141.545L242.111 107.906Z" fill="#508EC2"></path> <path d="M229.077 144.923C229.077 144.923 232.812 141.147 237.808 141.405C239.235 141.458 240.639 141.792 241.937 142.388C243.235 142.985 244.402 143.833 245.372 144.882L229.077 144.923Z" fill="#508EC2"></path> <path d="M213.503 106.862L201.383 99.8606L204.901 93.8036C205.361 93.0076 205.972 92.3099 206.701 91.7503C207.43 91.1908 208.262 90.7803 209.149 90.5423C210.037 90.3044 210.963 90.2436 211.874 90.3635C212.785 90.4835 213.663 90.7817 214.459 91.2412C216.065 92.1697 217.237 93.6977 217.718 95.4898C218.198 97.2819 217.948 99.1914 217.021 100.799L213.503 106.862Z" fill="#508EC2"></path> </svg> 