<?xml version="1.0" encoding="UTF-8" standalone="no"?>
<svg
   xmlns:dc="http://purl.org/dc/elements/1.1/"
   xmlns:cc="http://creativecommons.org/ns#"
   xmlns:rdf="http://www.w3.org/1999/02/22-rdf-syntax-ns#"
   xmlns:svg="http://www.w3.org/2000/svg"
   xmlns="http://www.w3.org/2000/svg"
   viewBox="0 0 666.66669 496.81332"
   height="496.81332"
   width="666.66669"
   xml:space="preserve"
   id="svg2"
   version="1.1"><metadata
     id="metadata8"><rdf:RDF><cc:Work
         rdf:about=""><dc:format>image/svg+xml</dc:format><dc:type
           rdf:resource="http://purl.org/dc/dcmitype/StillImage" /></cc:Work></rdf:RDF></metadata><defs
     id="defs6" /><g
     transform="matrix(1.3333333,0,0,-1.3333333,0,496.81333)"
     id="g10"><g
       transform="scale(0.1)"
       id="g12"><path
         id="path14"
         style="fill:#e7e8e5;fill-opacity:1;fill-rule:nonzero;stroke:none"
         d="m 0,449.129 h 5000 v 2.5 H 0 Z" /><path
         id="path16"
         style="fill:#e7e8e5;fill-opacity:1;fill-rule:nonzero;stroke:none"
         d="m 4167.79,290.672 h 331.22 v -2.5 h -331.22 v 2.5" /><path
         id="path18"
         style="fill:#e7e8e5;fill-opacity:1;fill-rule:nonzero;stroke:none"
         d="m 3225.27,263.539 h 86.93 v -2.5 h -86.93 v 2.5" /><path
         id="path20"
         style="fill:#e7e8e5;fill-opacity:1;fill-rule:nonzero;stroke:none"
         d="m 3965.86,383.539 h 191.92 v -2.5 h -191.92 v 2.5" /><path
         id="path22"
         style="fill:#e7e8e5;fill-opacity:1;fill-rule:nonzero;stroke:none"
         d="m 524.59,364.23 h 431.934 v 2.5 H 524.59 Z" /><path
         id="path24"
         style="fill:#e7e8e5;fill-opacity:1;fill-rule:nonzero;stroke:none"
         d="m 1045.56,366.73 h 63.33 v -2.5 h -63.33 v 2.5" /><path
         id="path26"
         style="fill:#e7e8e5;fill-opacity:1;fill-rule:nonzero;stroke:none"
         d="m 1314.71,322.012 h 936.758 v 2.5 H 1314.71 Z" /><path
         id="path28"
         style="fill:#e7e8e5;fill-opacity:1;fill-rule:nonzero;stroke:none"
         d="m 439.152,3723.59 c -30.101,0 -54.582,-24.49 -54.582,-54.57 V 954.699 c 0,-30.097 24.481,-54.578 54.582,-54.578 H 2370.14 c 30.08,0 54.57,24.481 54.57,54.578 V 3669.02 c 0,30.08 -24.49,54.57 -54.57,54.57 H 439.152 M 2370.14,897.621 H 439.152 c -31.476,0 -57.082,25.598 -57.082,57.078 V 3669.02 c 0,31.46 25.606,57.07 57.082,57.07 H 2370.14 c 31.46,0 57.07,-25.61 57.07,-57.07 V 954.699 c 0,-31.48 -25.61,-57.078 -57.07,-57.078" /><path
         id="path30"
         style="fill:#e7e8e5;fill-opacity:1;fill-rule:nonzero;stroke:none"
         d="m 2602.12,3723.59 c -30.09,0 -54.57,-24.49 -54.57,-54.57 V 954.699 c 0,-30.097 24.48,-54.578 54.57,-54.578 h 1930.99 c 30.09,0 54.58,24.481 54.58,54.578 V 3669.02 c 0,30.08 -24.49,54.57 -54.58,54.57 H 2602.12 M 4533.11,897.621 H 2602.12 c -31.47,0 -57.07,25.598 -57.07,57.078 V 3669.02 c 0,31.46 25.6,57.07 57.07,57.07 h 1930.99 c 31.47,0 57.08,-25.61 57.08,-57.07 V 954.699 c 0,-31.48 -25.61,-57.078 -57.08,-57.078" /><path
         id="path32"
         style="fill:#e2e2e0;fill-opacity:1;fill-rule:nonzero;stroke:none"
         d="M 1063.33,451.629 H 1392.2 V 1655.68 H 1063.33 V 451.629" /><path
         id="path34"
         style="fill:#ededeb;fill-opacity:1;fill-rule:nonzero;stroke:none"
         d="m 1140.92,451.629 h -77.59 v 220.703 h 158.94 l -81.35,-220.703" /><path
         id="path36"
         style="fill:#e2e2e0;fill-opacity:1;fill-rule:nonzero;stroke:none"
         d="m 3116.66,451.629 h 328.879 v 1204.05 H 3116.66 Z" /><path
         id="path38"
         style="fill:#ededeb;fill-opacity:1;fill-rule:nonzero;stroke:none"
         d="m 1063.33,560.289 h 2121.05 v 1095.39 H 1063.33 Z" /><path
         id="path40"
         style="fill:#fafaf9;fill-opacity:1;fill-rule:nonzero;stroke:none"
         d="M 2097.81,1591.32 H 1123.52 V 702.809 h 974.29 v 888.511 m -7.5,-7.5 V 710.309 h -959.29 v 873.511 h 959.29" /><path
         id="path42"
         style="fill:#fafaf9;fill-opacity:1;fill-rule:nonzero;stroke:none"
         d="m 3124.19,1591.32 h -974.3 V 702.809 h 974.3 v 888.511 m -7.5,-7.5 V 710.309 h -959.3 v 873.511 h 959.3" /><path
         id="path44"
         style="fill:#fafaf9;fill-opacity:1;fill-rule:nonzero;stroke:none"
         d="m 2367.81,1426.57 c 0,-22.79 -30.88,-41.28 -68.97,-41.28 -38.1,0 -68.98,18.49 -68.98,41.28 0,22.8 30.88,41.27 68.98,41.27 38.09,0 68.97,-18.47 68.97,-41.27" /><path
         id="path46"
         style="fill:#fafaf9;fill-opacity:1;fill-rule:nonzero;stroke:none"
         d="m 2017.83,1426.57 c 0,-22.79 -30.88,-41.28 -68.98,-41.28 -38.09,0 -68.97,18.49 -68.97,41.28 0,22.8 30.88,41.27 68.97,41.27 38.1,0 68.98,-18.47 68.98,-41.27" /><path
         id="path48"
         style="fill:#ededeb;fill-opacity:1;fill-rule:nonzero;stroke:none"
         d="m 3106.79,451.629 h 77.59 v 220.703 h -158.94 l 81.35,-220.703" /><path
         id="path50"
         style="fill:#f3f2f1;fill-opacity:1;fill-rule:nonzero;stroke:none"
         d="m 2141.64,1795.52 c 0,0 5.96,-139.84 234.2,-139.84 228.25,0 234.21,139.84 234.21,139.84 h -468.41" /><path
         id="path52"
         style="fill:#e2e2e0;fill-opacity:1;fill-rule:nonzero;stroke:none"
         d="M 2731.07,2443.57 H 4502.85 V 3524.95 H 2731.07 Z" /><path
         id="path54"
         style="fill:#ededeb;fill-opacity:1;fill-rule:nonzero;stroke:none"
         d="m 2686.64,2443.57 h 1809.9 v 1081.38 h -1809.9 z" /><path
         id="path56"
         style="fill:#e2e2e0;fill-opacity:1;fill-rule:nonzero;stroke:none"
         d="m 2731.07,2402.29 h 1771.78 v 41.2813 H 2731.07 Z" /><path
         id="path58"
         style="fill:#ededeb;fill-opacity:1;fill-rule:nonzero;stroke:none"
         d="m 2612.61,2402.29 h 1809.91 v 41.2813 H 2612.61 Z" /><path
         id="path60"
         style="fill:#fafaf9;fill-opacity:1;fill-rule:nonzero;stroke:none"
         d="m 2748.84,2505.77 h 1685.5 v 956.977 h -1685.5 z" /><path
         id="path62"
         style="fill:#ffffff;fill-opacity:1;fill-rule:nonzero;stroke:none"
         d="m 3915.33,2505.77 -99.62,956.98 h -172.35 l 99.62,-956.98 h 172.35" /><path
         id="path64"
         style="fill:#ededeb;fill-opacity:1;fill-rule:nonzero;stroke:none"
         d="m 4405.54,2779.02 c 2.63,0 4.76,2.12 4.76,4.75 v 638.5 c 0,2.62 -2.13,4.76 -4.76,4.76 -2.63,0 -4.76,-2.14 -4.76,-4.76 v -638.5 c 0,-2.63 2.13,-4.75 4.76,-4.75" /><path
         id="path66"
         style="fill:#ffffff;fill-opacity:1;fill-rule:nonzero;stroke:none"
         d="m 3705.95,2505.77 -99.61,956.98 h -67.19 l 99.61,-956.98 h 67.19" /><path
         id="path68"
         style="fill:#e2e2e0;fill-opacity:1;fill-rule:nonzero;stroke:none"
         d="m 2748.84,2505.77 h 7.9023 v 956.977 h -7.9023 z" /><path
         id="path70"
         style="fill:#e4e4e2;fill-opacity:1;fill-rule:nonzero;stroke:none"
         d="m 4458.17,3381.54 h -23.83 v 57.01 h 29.56 l -5.73,-57.01" /><path
         id="path72"
         style="fill:#eaeae7;fill-opacity:1;fill-rule:nonzero;stroke:none"
         d="m 4434.34,3381.54 h -24.04 v 40.73 c 0,2.62 -2.13,4.76 -4.76,4.76 -2.63,0 -4.76,-2.14 -4.76,-4.76 v -40.73 h -576.62 l -5.93,57.01 h 616.11 v -57.01 m -782.52,0 h -37.03 l -5.93,57.01 h 37.02 l 5.94,-57.01" /><path
         id="path74"
         style="fill:#ececea;fill-opacity:1;fill-rule:nonzero;stroke:none"
         d="m 3824.16,3381.54 h -172.34 l -5.94,57.01 h 172.35 l 5.93,-57.01" /><path
         id="path76"
         style="fill:#e4e4e2;fill-opacity:1;fill-rule:nonzero;stroke:none"
         d="m 4410.3,3381.54 h -9.52 v 40.73 c 0,2.62 2.13,4.76 4.76,4.76 2.63,0 4.76,-2.14 4.76,-4.76 v -40.73" /><path
         id="path78"
         style="fill:#eaeae7;fill-opacity:1;fill-rule:nonzero;stroke:none"
         d="m 3547.6,3381.54 h -790.86 v 57.01 h 784.93 l 5.93,-57.01" /><path
         id="path80"
         style="fill:#ececea;fill-opacity:1;fill-rule:nonzero;stroke:none"
         d="m 2686.64,3381.54 h -14.7 l 5.72,57.01 h 8.98 v -57.01" /><path
         id="path82"
         style="fill:#e4e4e2;fill-opacity:1;fill-rule:nonzero;stroke:none"
         d="m 2686.64,3381.54 h 62.1992 v 57.0117 H 2686.64 Z" /><path
         id="path84"
         style="fill:#ececea;fill-opacity:1;fill-rule:nonzero;stroke:none"
         d="m 3614.79,3381.54 h -67.19 l -5.93,57.01 h 67.19 l 5.93,-57.01" /><path
         id="path86"
         style="fill:#dddedb;fill-opacity:1;fill-rule:nonzero;stroke:none"
         d="m 2748.84,3381.54 h 7.9023 v 57.0117 h -7.9023 z" /><path
         id="path88"
         style="fill:#e4e4e2;fill-opacity:1;fill-rule:nonzero;stroke:none"
         d="m 4458.17,3287.83 h -23.83 v 57.01 h 29.56 l -5.73,-57.01" /><path
         id="path90"
         style="fill:#eaeae7;fill-opacity:1;fill-rule:nonzero;stroke:none"
         d="m 4434.34,3287.83 h -24.04 v 57.01 h 24.04 v -57.01 m -33.56,0 h -566.86 l -5.94,57.01 h 572.8 v -57.01 m -739.21,0 h -37.02 l -5.94,57.01 h 37.03 l 5.93,-57.01" /><path
         id="path92"
         style="fill:#ececea;fill-opacity:1;fill-rule:nonzero;stroke:none"
         d="m 3833.92,3287.83 h -172.35 l -5.93,57.01 h 172.34 l 5.94,-57.01" /><path
         id="path94"
         style="fill:#e4e4e2;fill-opacity:1;fill-rule:nonzero;stroke:none"
         d="m 4400.78,3287.83 h 9.5195 v 57.0117 h -9.5195 z" /><path
         id="path96"
         style="fill:#eaeae7;fill-opacity:1;fill-rule:nonzero;stroke:none"
         d="m 3557.35,3287.83 h -339.54 c -52.59,15.56 -107.01,23.35 -161.41,23.35 -54.4,0 -108.81,-7.79 -161.4,-23.35 h -138.26 v 57.01 h 794.68 l 5.93,-57.01" /><path
         id="path98"
         style="fill:#ececea;fill-opacity:1;fill-rule:nonzero;stroke:none"
         d="m 2686.64,3287.83 h -14.7 l 5.72,57.01 h 8.98 v -57.01" /><path
         id="path100"
         style="fill:#e4e4e2;fill-opacity:1;fill-rule:nonzero;stroke:none"
         d="m 2686.64,3287.83 h 62.1992 v 57.0117 H 2686.64 Z" /><path
         id="path102"
         style="fill:#ececea;fill-opacity:1;fill-rule:nonzero;stroke:none"
         d="m 3624.55,3287.83 h -67.2 l -5.93,57.01 h 67.19 l 5.94,-57.01" /><path
         id="path104"
         style="fill:#dddedb;fill-opacity:1;fill-rule:nonzero;stroke:none"
         d="m 2748.84,3287.83 h 7.9023 v 57.0117 h -7.9023 z" /><path
         id="path106"
         style="fill:#ececea;fill-opacity:1;fill-rule:nonzero;stroke:none"
         d="m 2673,3204.73 4.66,46.4 h 8.98 v -38.05 c -4.64,-2.64 -9.19,-5.43 -13.64,-8.35" /><path
         id="path108"
         style="fill:#e4e4e2;fill-opacity:1;fill-rule:nonzero;stroke:none"
         d="m 4458.17,3194.13 h -23.83 v 57 h 29.56 l -5.73,-57 m -1771.53,18.95 v 38.05 h 62.2 v -13.28 c -21.94,-5.34 -42.85,-13.76 -62.2,-24.77" /><path
         id="path110"
         style="fill:#eaeae7;fill-opacity:1;fill-rule:nonzero;stroke:none"
         d="m 4434.34,3194.13 h -24.04 v 57 h 24.04 v -57 m -33.56,0 h -557.11 l -5.93,57 h 563.04 v -57 m -729.46,0 h -37.02 l -5.93,57 h 37.02 l 5.93,-57 m -104.21,0 H 3401.5 c -28.79,22.14 -59.22,41.14 -90.82,57 h 250.49 l 5.94,-57 m -810.37,45.5 v 11.5 h 45.36 c -4.65,-2.33 -9.26,-4.72 -13.86,-7.19 -10.67,-0.73 -21.19,-2.18 -31.5,-4.31" /><path
         id="path112"
         style="fill:#ececea;fill-opacity:1;fill-rule:nonzero;stroke:none"
         d="m 3843.67,3194.13 h -172.35 l -5.93,57 h 172.35 l 5.93,-57" /><path
         id="path114"
         style="fill:#e4e4e2;fill-opacity:1;fill-rule:nonzero;stroke:none"
         d="m 4400.78,3194.13 h 9.5195 v 57 h -9.5195 z" /><path
         id="path116"
         style="fill:#ececea;fill-opacity:1;fill-rule:nonzero;stroke:none"
         d="m 3634.3,3194.13 h -67.19 l -5.94,57 h 67.2 l 5.93,-57" /><path
         id="path118"
         style="fill:#dddedb;fill-opacity:1;fill-rule:nonzero;stroke:none"
         d="m 2748.84,3237.85 v 13.28 h 7.9 v -11.5 c -2.65,-0.55 -5.28,-1.15 -7.9,-1.78" /><path
         id="path120"
         style="fill:#e4e4e2;fill-opacity:1;fill-rule:nonzero;stroke:none"
         d="m 4458.17,3100.42 h -23.83 v 57 h 29.56 l -5.73,-57" /><path
         id="path122"
         style="fill:#eaeae7;fill-opacity:1;fill-rule:nonzero;stroke:none"
         d="m 4434.34,3100.42 h -24.04 v 57 h 24.04 v -57 m -33.56,0 h -547.35 l -5.94,57 h 553.29 v -57 m -719.7,0 h -37.02 l -5.94,57 h 37.03 l 5.93,-57 m -104.22,0 h -79.31 c -12.48,15.42 -25.91,30.36 -40.25,44.7 -4.18,4.18 -8.41,8.28 -12.68,12.3 h 126.31 l 5.93,-57" /><path
         id="path124"
         style="fill:#ececea;fill-opacity:1;fill-rule:nonzero;stroke:none"
         d="m 3853.43,3100.42 h -172.35 l -5.93,57 h 172.34 l 5.94,-57" /><path
         id="path126"
         style="fill:#e4e4e2;fill-opacity:1;fill-rule:nonzero;stroke:none"
         d="m 4400.78,3100.42 h 9.5195 v 57 h -9.5195 z" /><path
         id="path128"
         style="fill:#ececea;fill-opacity:1;fill-rule:nonzero;stroke:none"
         d="m 3644.06,3100.42 h -67.2 l -5.93,57 h 67.19 l 5.94,-57" /><path
         id="path130"
         style="fill:#e4e4e2;fill-opacity:1;fill-rule:nonzero;stroke:none"
         d="m 4458.17,3006.71 h -23.83 v 57 h 29.56 l -5.73,-57" /><path
         id="path132"
         style="fill:#eaeae7;fill-opacity:1;fill-rule:nonzero;stroke:none"
         d="m 4434.34,3006.71 h -24.04 v 57 h 24.04 v -57 m -33.56,0 h -230.14 c -11.64,3.63 -24.07,5.59 -37.03,5.59 H 3862.6 l -5.35,51.41 h 543.53 v -57 m -710.53,5.59 h -37.02 l -5.35,51.41 h 37.02 l 5.35,-51.41 m -104.21,0 h -29.89 c -9.43,17.57 -19.84,34.71 -31.26,51.41 h 55.79 l 5.36,-51.41" /><path
         id="path134"
         style="fill:#ececea;fill-opacity:1;fill-rule:nonzero;stroke:none"
         d="m 3862.6,3012.3 h -172.35 l -5.35,51.41 h 172.35 l 5.35,-51.41" /><path
         id="path136"
         style="fill:#e4e4e2;fill-opacity:1;fill-rule:nonzero;stroke:none"
         d="m 4400.78,3006.71 h 9.5195 v 57 h -9.5195 z" /><path
         id="path138"
         style="fill:#ececea;fill-opacity:1;fill-rule:nonzero;stroke:none"
         d="m 3653.23,3012.3 h -67.19 l -5.36,51.41 h 67.2 l 5.35,-51.41" /><path
         id="path140"
         style="fill:#e4e4e2;fill-opacity:1;fill-rule:nonzero;stroke:none"
         d="m 4458.17,2913 h -23.83 v 57 h 29.56 l -5.73,-57" /><path
         id="path142"
         style="fill:#eaeae7;fill-opacity:1;fill-rule:nonzero;stroke:none"
         d="m 4434.34,2913 h -24.04 v 57 h 24.04 v -57 m -33.56,0 h -147.37 c -3.92,21.56 -13.44,41.09 -27.06,57 h 174.43 v -57" /><path
         id="path144"
         style="fill:#e4e4e2;fill-opacity:1;fill-rule:nonzero;stroke:none"
         d="m 4400.78,2913 h 9.5195 v 57 h -9.5195 z" /><path
         id="path146"
         style="fill:#dadbd8;fill-opacity:1;fill-rule:nonzero;stroke:none"
         d="M 1226.96,3496.63 H 2306.32 V 2782.04 H 1226.96 v 714.59" /><path
         id="path148"
         style="fill:#f3f2f1;fill-opacity:1;fill-rule:nonzero;stroke:none"
         d="M 1161.89,3496.63 H 2277.9 V 2782.04 H 1161.89 v 714.59" /><path
         id="path150"
         style="fill:#ffffff;fill-opacity:1;fill-rule:nonzero;stroke:none"
         d="m 2184.41,3371.42 v -464.17 h -929.03 v 464.17 h 929.03" /><path
         id="path152"
         style="fill:#dadbd8;fill-opacity:1;fill-rule:nonzero;stroke:none"
         d="M 654.746,2619.38 H 1734.1 V 1904.79 H 654.746 v 714.59" /><path
         id="path154"
         style="fill:#f3f2f1;fill-opacity:1;fill-rule:nonzero;stroke:none"
         d="M 589.668,2619.38 H 1705.68 V 1904.79 H 589.668 v 714.59" /><path
         id="path156"
         style="fill:#ffffff;fill-opacity:1;fill-rule:nonzero;stroke:none"
         d="M 1612.19,2494.17 V 2030 H 683.164 v 464.17 h 929.026" /><path
         id="path158"
         style="fill:#f3f2f1;fill-opacity:1;fill-rule:nonzero;stroke:none"
         d="M 4438.89,113.23 C 4438.89,50.6914 3570.83,0 2500,0 1429.18,0 561.109,50.6914 561.109,113.23 c 0,62.54 868.071,113.239 1938.891,113.239 1070.83,0 1938.89,-50.699 1938.89,-113.239" /><path
         id="path160"
         style="fill:#406fbf;fill-opacity:1;fill-rule:nonzero;stroke:none"
         d="m 4272.9,2504.77 -10.17,0.48 3.94,82.73 10.16,-0.49 -3.93,-82.72" /><path
         id="path162"
         style="fill:#406fbf;fill-opacity:1;fill-rule:nonzero;stroke:none"
         d="m 4279.84,2650.97 -10.16,0.49 11.02,231.89 10.16,-0.49 -11.02,-231.89" /><path
         id="path164"
         style="fill:#406fbf;fill-opacity:1;fill-rule:nonzero;stroke:none"
         d="m 2894.1,3012.3 h 1239.51 c 70.25,0 125.01,-57.48 121.67,-127.74 L 4129.67,240.969 C 4126.34,170.711 4066.12,113.23 3995.87,113.23 H 2756.36 c -70.25,0 -125,57.481 -121.67,127.739 l 125.6,2643.591 c 3.34,70.26 63.55,127.74 133.81,127.74" /><path
         id="path166"
         style="fill:#406fbf;fill-opacity:1;fill-rule:nonzero;stroke:none"
         d="m 4415.88,1909.23 c -6.84,-143.53 -128.67,-259.82 -272.05,-259.82 -143.52,0 -254.28,116.29 -247.45,259.82 6.83,143.38 128.67,259.81 272.2,259.81 143.38,0 254.13,-116.43 247.3,-259.81 m 141.14,-30.4 2.89,60.72 -37.16,10.81 c -1.32,20.7 -4.42,40.86 -9.1,60.37 l 31.81,24.37 -20.57,56.11 -39.07,-4.43 c -9.13,18.05 -19.81,35.14 -31.83,51.16 l 20.63,34.27 -40.89,42.95 -35.15,-18.99 c -15.42,12.81 -31.97,24.31 -49.54,34.32 l 6.26,38.79 -55,23.24 -25.76,-30.56 c -19.28,5.63 -39.28,9.7 -59.91,12.01 l -8.97,37.55 h -60.73 l -12.56,-37.56 c -20.84,-2.32 -41.23,-6.39 -61.03,-12.02 l -22.87,30.58 -57.21,-23.24 2.57,-38.81 c -18.52,-10.01 -36.17,-21.5 -52.8,-34.31 l -33.35,19 -44.98,-42.95 17.36,-34.27 c -13.54,-16.02 -25.85,-33.11 -36.71,-51.16 l -38.64,4.43 -25.91,-56.11 29.48,-24.37 c -6.54,-19.51 -11.56,-39.67 -14.85,-60.37 l -38.19,-10.81 -2.89,-60.72 37.16,-10.8 c 1.33,-20.7 4.43,-40.86 9.1,-60.37 l -31.8,-24.39 20.56,-56.09 39.08,4.42 c 9.13,-18.04 19.8,-35.12 31.83,-51.14 l -20.64,-34.3 40.9,-42.94 35.18,19.01 c 15.41,-12.79 31.95,-24.28 49.52,-34.28 l -6.28,-38.85 55,-23.24 25.82,30.63 c 19.25,-5.61 39.22,-9.67 59.82,-11.99 l 9.01,-37.64 h 60.73 l 12.58,37.63 c 20.82,2.31 41.19,6.37 60.98,11.99 l 22.89,-30.62 57.21,23.24 -2.57,38.83 c 18.52,10 36.16,21.5 52.79,34.29 l 33.37,-19 44.98,42.94 -17.37,34.29 c 13.54,16.03 25.84,33.11 36.7,51.15 l 38.65,-4.42 25.91,56.09 -29.48,24.39 c 6.53,19.51 11.55,39.67 14.85,60.36 l 38.19,10.81" /><path
         id="path168"
         style="fill:#ffffff;fill-opacity:1;fill-rule:nonzero;stroke:none"
         d="m 4132.09,2980.36 h -1239.5 c -52.92,0 -97.84,-42.89 -100.36,-95.8 L 2672.82,371.242 c -0.87,-18.293 13.25,-33.113 31.54,-33.113 h 1364.89 c 18.28,0 33.81,14.82 34.68,33.113 l 119.41,2513.318 c 2.52,52.91 -38.34,95.8 -91.25,95.8" /><path
         id="path170"
         style="fill:#cfe0f5;fill-opacity:1;fill-rule:nonzero;stroke:none"
         d="M 3909.22,453.09 H 2875.96 c -30.73,0 -59.14,12.051 -80,33.93 -20.9,21.921 -31.6,50.929 -30.14,81.691 l 1.96,41.219 h 9.24 l -1.98,-41.649 c -1.34,-28.222 8.46,-54.82 27.6,-74.89 19.1,-20.032 45.14,-31.071 73.32,-31.071 h 1033.26 c 58.67,0 108.66,47.731 111.45,106.391 L 4025.48,670 h 9.24 l -4.83,-101.719 C 4026.87,504.77 3972.74,453.09 3909.22,453.09 m 138.96,842.26 h -10.71 c -3.61,5.81 -7.84,11.29 -12.67,16.35 -19.1,20.03 -45.14,31.06 -73.31,31.06 h -341.33 l 0.44,9.24 h 340.89 c 30.72,0 59.13,-12.05 80,-33.93 6.6,-6.92 12.18,-14.55 16.69,-22.72 m -789.06,47.41 h -148.28 l 0.44,9.24 h 148.28 l -0.44,-9.24" /><path
         id="path172"
         style="fill:#406fbf;fill-opacity:1;fill-rule:nonzero;stroke:none"
         d="m 2684.16,609.93 h -15.85 l 6.66,140.261 h 15.85 l -6.66,-140.261" /><path
         id="path174"
         style="fill:#e6effa;fill-opacity:1;fill-rule:nonzero;stroke:none"
         d="m 3061.87,609.93 h -284.85 l 6.66,140.261 h 217.57 c 44.79,0 83.18,36.641 85.31,81.43 l 21.97,462.489 c 37.78,-6.75 65.37,-40.23 63.47,-80.19 l -24.83,-522.549 c -2.13,-44.789 -40.52,-81.441 -85.3,-81.441 m -294.09,0 h -83.62 l 6.66,140.261 h 83.62 l -6.66,-140.261" /><path
         id="path176"
         style="fill:#bcd5f1;fill-opacity:1;fill-rule:nonzero;stroke:none"
         d="m 2777.02,609.93 h -9.24 l 6.66,140.261 h 9.24 l -6.66,-140.261" /><path
         id="path178"
         style="fill:#e6effa;fill-opacity:1;fill-rule:nonzero;stroke:none"
         d="m 3369.34,963.352 h -15.28 c -22.94,0 -40.82,18.769 -39.73,41.708 l 3.78,79.5 h 238.07 c 22.94,0 42.6,18.77 43.69,41.71 l 8.94,188.13 h 29.55 c 22.94,0 40.82,-18.77 39.73,-41.71 l -12.33,-259.38 h -252.34 c -22.94,0 -42.6,-18.771 -43.69,-41.708 l -0.39,-8.25" /><path
         id="path180"
         style="fill:#406fbf;fill-opacity:1;fill-rule:nonzero;stroke:none"
         d="m 4138.59,670 h -20.46 l 5.76,121.211 h 20.46 L 4138.59,670" /><path
         id="path182"
         style="fill:#e6effa;fill-opacity:1;fill-rule:nonzero;stroke:none"
         d="m 4118.13,670 h -83.41 l 5.76,121.211 h 83.41 L 4118.13,670 m -92.65,0 h -0.54 c -32.94,0 -58.61,26.949 -57.05,59.898 l 2.92,61.313 h 60.43 L 4025.48,670" /><path
         id="path184"
         style="fill:#bcd5f1;fill-opacity:1;fill-rule:nonzero;stroke:none"
         d="m 4034.72,670 h -9.24 l 5.76,121.211 h 9.24 L 4034.72,670" /><path
         id="path186"
         style="fill:#e6effa;fill-opacity:1;fill-rule:nonzero;stroke:none"
         d="m 3729.87,541.059 h -267.63 c -22.94,0 -40.81,18.773 -39.72,41.703 l 3.77,79.508 h 238.08 c 22.94,0 42.6,18.769 43.69,41.71 l 8.93,188.122 h 29.56 c 22.93,0 40.81,-18.77 39.72,-41.711 l -12.71,-267.629 c -1.09,-22.93 -20.75,-41.703 -43.69,-41.703" /><path
         id="path188"
         style="fill:#5d87cd;fill-opacity:1;fill-rule:nonzero;stroke:none"
         d="m 3378.84,170.5 c -34.95,0 -61.93,28.328 -60.27,63.27 1.66,34.941 31.34,63.269 66.28,63.269 34.95,0 61.93,-28.328 60.27,-63.269 -1.66,-34.942 -31.34,-63.27 -66.28,-63.27" /><path
         id="path190"
         style="fill:#cfe0f5;fill-opacity:1;fill-rule:nonzero;stroke:none"
         d="M 4029.7,1506.86 H 2855.17 c -22.18,0 -39.3,17.97 -38.25,40.15 l 31.8,669.28 c 66.56,-26.13 137.05,-39.19 207.56,-39.19 136.76,0 273.55,49.18 381.5,147.51 h 630.77 c 22.18,0 39.31,-17.98 38.25,-40.16 l -35.03,-737.44 c -1.06,-22.18 -19.89,-40.15 -42.07,-40.15" /><path
         id="path192"
         style="fill:#7da6dd;fill-opacity:1;fill-rule:nonzero;stroke:none"
         d="m 4092.87,2501.06 h -524.12 c 44.34,93.45 61.68,196.53 52.02,297.51 h 486.24 c 13.38,0 23.71,-10.84 23.07,-24.22 l -11.83,-249.07 c -0.64,-13.37 -12,-24.22 -25.38,-24.22" /><path
         id="path194"
         style="fill:#406fbf;fill-opacity:1;fill-rule:nonzero;stroke:none"
         d="m 2988.39,2076.83 h -63.73 l -21.49,-452.34 h 63.73 l 21.49,452.34" /><path
         id="path196"
         style="fill:#406fbf;fill-opacity:1;fill-rule:nonzero;stroke:none"
         d="M 3108.73,1910.4 H 3045 l -13.58,-285.91 h 63.72 l 13.59,285.91" /><path
         id="path198"
         style="fill:#406fbf;fill-opacity:1;fill-rule:nonzero;stroke:none"
         d="m 3232.41,1814.39 h -63.72 l -9.02,-189.9 h 63.72 l 9.02,189.9" /><path
         id="path200"
         style="fill:#406fbf;fill-opacity:1;fill-rule:nonzero;stroke:none"
         d="m 3356.15,1719.43 h -63.73 l -4.51,-94.94 h 63.73 l 4.51,94.94" /><path
         id="path202"
         style="fill:#406fbf;fill-opacity:1;fill-rule:nonzero;stroke:none"
         d="m 3496.21,1968.01 h -63.73 l -16.32,-343.52 h 63.73 l 16.32,343.52" /><path
         id="path204"
         style="fill:#406fbf;fill-opacity:1;fill-rule:nonzero;stroke:none"
         d="m 3633.18,2151.5 h -63.73 l -25.04,-527.01 h 63.73 l 25.04,527.01" /><path
         id="path206"
         style="fill:#406fbf;fill-opacity:1;fill-rule:nonzero;stroke:none"
         d="m 3764.06,2206.98 h -63.73 l -27.67,-582.49 h 63.72 l 27.68,582.49" /><path
         id="path208"
         style="fill:#406fbf;fill-opacity:1;fill-rule:nonzero;stroke:none"
         d="m 3881.56,1980.81 h -63.73 l -16.92,-356.32 h 63.72 l 16.93,356.32" /><path
         id="path210"
         style="fill:#406fbf;fill-opacity:1;fill-rule:nonzero;stroke:none"
         d="m 4004.34,1865.6 h -63.73 l -11.46,-241.11 h 63.73 l 11.46,241.11" /><path
         id="path212"
         style="fill:#406fbf;fill-opacity:1;fill-rule:nonzero;stroke:none"
         d="m 3001.25,750.191 h -522.54 c -44.79,0 -79.7,36.641 -77.57,81.43 l 24.82,522.549 c 2.13,44.79 40.52,81.44 85.31,81.44 h 522.55 c 44.79,0 79.69,-36.65 77.57,-81.44 l -24.83,-522.549 c -2.13,-44.789 -40.52,-81.43 -85.31,-81.43" /><path
         id="path214"
         style="fill:#cfe0f5;fill-opacity:1;fill-rule:nonzero;stroke:none"
         d="m 3001.25,750.191 h -522.54 c -43.48,0 -77.65,34.52 -77.66,77.52 -0.01,1.289 0.03,2.598 0.09,3.91 l 24.82,522.549 c 2.13,44.79 40.52,81.44 85.31,81.44 h 522.55 c 43.48,0 77.64,-34.54 77.66,-77.52 0,-1.3 -0.03,-2.61 -0.09,-3.92 l -0.11,-2.17 -0.44,-9.24 -24.28,-511.139 c -2.13,-44.789 -40.52,-81.43 -85.31,-81.43" /><path
         id="path216"
         style="fill:#ffffff;fill-opacity:1;fill-rule:nonzero;stroke:none"
         d="m 2751.69,997.16 c -52.84,0 -93.75,42.86 -91.23,95.7 2.52,52.92 47.51,95.78 100.35,95.78 52.92,0 93.74,-42.86 91.21,-95.78 -2.51,-52.84 -47.41,-95.7 -100.33,-95.7 z m 246.98,55.82 3.8,79.82 -37.16,24.58 c -3.6,13.59 -8.54,26.6 -14.67,38.89 l 10.1,37.92 -53.76,56.45 -38.32,-8.3 c -11.96,6.71 -24.71,12.27 -38.1,16.52 l -22.75,38.34 h -79.83 l -26.4,-38.33 c -13.79,-4.26 -27.06,-9.82 -39.67,-16.53 l -37.53,8.3 -59.13,-56.45 6.48,-37.9 c -7.32,-12.3 -13.51,-25.32 -18.41,-38.94 l -39.47,-24.55 -3.8,-79.82 37.12,-24.54 c 3.61,-13.62 8.56,-26.65 14.71,-38.96 l -10.09,-37.89 53.76,-56.442 38.34,8.301 c 11.96,-6.711 24.69,-12.258 38.06,-16.508 l 22.76,-38.359 h 79.83 l 26.43,38.359 c 13.77,4.25 27.03,9.797 39.62,16.508 l 37.55,-8.301 59.14,56.442 -6.49,37.922 c 7.31,12.288 13.49,25.308 18.39,38.898 l 39.49,24.57" /><path
         id="path218"
         style="fill:#406fbf;fill-opacity:1;fill-rule:nonzero;stroke:none"
         d="m 3556.18,1084.56 h -267.62 c -22.94,0 -40.82,18.77 -39.72,41.71 l 12.71,267.63 c 1.09,22.94 20.75,41.71 43.69,41.71 h 267.62 c 22.94,0 40.82,-18.77 39.73,-41.71 l -12.72,-267.63 c -1.09,-22.94 -20.75,-41.71 -43.69,-41.71" /><path
         id="path220"
         style="fill:#a4c3e9;fill-opacity:1;fill-rule:nonzero;stroke:none"
         d="m 3556.18,1084.56 h -267.62 c -22.27,0 -39.76,17.69 -39.77,39.71 0,0.66 0.01,1.33 0.05,2 l 12.71,267.63 c 1.09,22.94 20.75,41.71 43.69,41.71 h 267.62 c 22.27,0 39.76,-17.69 39.77,-39.71 0,-0.66 -0.01,-1.33 -0.04,-2 l -1.99,-41.9 -0.44,-9.24 -10.29,-216.49 c -1.09,-22.94 -20.75,-41.71 -43.69,-41.71" /><path
         id="path222"
         style="fill:#406fbf;fill-opacity:1;fill-rule:nonzero;stroke:none"
         d="m 4343.79,791.211 h -384.35 c -32.94,0 -58.61,26.949 -57.05,59.891 l 18.26,384.348 c 1.57,32.95 29.8,59.9 62.75,59.9 h 384.34 c 32.95,0 58.62,-26.95 57.05,-59.9 l -18.26,-384.348 c -1.56,-32.942 -29.8,-59.891 -62.74,-59.891" /><path
         id="path224"
         style="fill:#7da6dd;fill-opacity:1;fill-rule:nonzero;stroke:none"
         d="m 4343.79,791.211 h -384.35 c -31.97,0 -57.1,25.398 -57.12,57.019 0,0.95 0.03,1.911 0.07,2.872 l 18.26,384.348 c 1.57,32.95 29.8,59.9 62.75,59.9 h 384.34 c 31.98,0 57.11,-25.39 57.12,-57.02 0,-0.95 -0.02,-1.91 -0.07,-2.88 l -15.93,-335.329 -0.12,-2.5 -2.21,-46.519 c -1.56,-32.942 -29.8,-59.891 -62.74,-59.891" /><path
         id="path226"
         style="fill:#ffffff;fill-opacity:1;fill-rule:nonzero;stroke:none"
         d="m 4289.57,1043.28 -194.66,115.56 -10.98,-231.11 z" /><path
         id="path228"
         style="fill:#406fbf;fill-opacity:1;fill-rule:nonzero;stroke:none"
         d="m 3664.37,662.27 h -267.62 c -22.94,0 -40.82,18.769 -39.73,41.71 l 12.71,267.622 c 1.09,22.937 20.75,41.708 43.69,41.708 h 267.63 c 22.93,0 40.81,-18.771 39.72,-41.708 L 3708.06,703.98 c -1.09,-22.941 -20.75,-41.71 -43.69,-41.71" /><path
         id="path230"
         style="fill:#7da6dd;fill-opacity:1;fill-rule:nonzero;stroke:none"
         d="m 3664.37,662.27 h -267.62 c -22.27,0 -39.77,17.679 -39.78,39.699 0,0.672 0.02,1.332 0.05,2.011 l 12.71,267.622 c 1.09,22.937 20.75,41.708 43.69,41.708 h 267.63 c 22.26,0 39.76,-17.681 39.77,-39.701 0,-0.668 -0.02,-1.339 -0.05,-2.007 L 3708.06,703.98 c -1.09,-22.941 -20.75,-41.71 -43.69,-41.71" /><path
         id="path232"
         style="fill:#ffffff;fill-opacity:1;fill-rule:nonzero;stroke:none"
         d="m 3506.24,735.602 -95.04,99.777 22.11,21.062 73.95,-77.64 141.19,134.781 21.09,-22.09 -163.3,-155.89" /><path
         id="path234"
         style="fill:#f89e63;fill-opacity:1;fill-rule:nonzero;stroke:none"
         d="m 1698.38,2637.35 c -0.52,-57.14 -10.45,-160.02 -56.42,-188.79 0,0 24.74,-75.21 114.76,-116.45 94.82,28.96 56,81.36 56,81.36 -58.26,27.22 -47.34,72.35 -27.9,112.85 l -86.44,111.03" /><path
         id="path236"
         style="fill:#f89e63;fill-opacity:1;fill-rule:nonzero;stroke:none"
         d="m 1640.55,2336.63 c 13.08,-47.28 27.35,-95.68 42.13,-142.78 7.51,-23.59 15.48,-46.94 23.94,-69.73 8.27,-22.86 17.27,-45.24 27.16,-65.73 4.9,-10.12 10.12,-19.85 15.25,-27.64 1.27,-1.83 2.56,-3.96 3.7,-5.27 l 1.72,-2.29 c 0.55,-0.76 1.96,-2.34 2.89,-3.46 l 12.45,-14.78 c 16.22,-19.88 32.38,-39.57 47.99,-59.75 31.47,-40.13 61.87,-81.06 90.77,-123.35 l -35.85,-31.73 c -38.42,33.68 -75.5,68.6 -111.79,104.07 l -54.08,53.25 -13.29,13.26 c -1.2,1.22 -2.02,1.93 -3.52,3.59 l -4.45,4.95 c -3.12,3.4 -5.41,6.53 -7.94,9.77 -9.69,12.84 -17.11,25.18 -24.07,37.48 -26.59,49.1 -44.89,97.72 -62.07,146.98 -17.19,49.25 -31.74,98.24 -44.55,149.12 l 93.61,24.04" /><path
         id="path238"
         style="fill:#17282f;fill-opacity:1;fill-rule:nonzero;stroke:none"
         d="m 1515.2,2410.04 c -39.76,-58.43 11.02,-202.56 11.02,-202.56 l 179.31,0.05 c 0,0 1.65,119.21 -23.29,165.16 -32.28,59.47 -141.23,75.28 -167.04,37.35" /><path
         id="path240"
         style="fill:#f89e63;fill-opacity:1;fill-rule:nonzero;stroke:none"
         d="m 1962.76,1809.08 -69.24,20.32 -36.28,-14.39 c 0.37,-39.29 54.14,-67.45 54.14,-67.45 l 41.94,-38.57 c 8.89,-8.19 22.09,-9.59 32.5,-3.47 l 26.04,15.29 c 13.92,8.18 17.82,26.54 8.42,39.67 l -11.32,15.81 c -11.31,15.78 -27.57,27.32 -46.2,32.79" /><path
         id="path242"
         style="fill:#17282f;fill-opacity:1;fill-rule:nonzero;stroke:none"
         d="m 2616.37,2211.93 -92.25,92.25 c -20.07,20.08 -20.07,52.92 0,73 20.07,20.07 52.92,20.07 72.99,0 l 92.25,-92.25 c 20.07,-20.08 20.07,-52.92 0,-73 -20.07,-20.06 -52.92,-20.06 -72.99,0" /><path
         id="path244"
         style="fill:#17282f;fill-opacity:1;fill-rule:nonzero;stroke:none"
         d="m 2496.1,2176.18 -7.73,7.74 c -16.33,16.32 -16.33,43.04 0,59.37 l 59.53,59.53 c 16.33,16.32 43.04,16.32 59.37,0 l 7.73,-7.74 c 16.33,-16.32 16.33,-43.04 0,-59.37 l -59.53,-59.53 c -16.32,-16.33 -43.04,-16.33 -59.37,0" /><path
         id="path246"
         style="fill:#17282f;fill-opacity:1;fill-rule:nonzero;stroke:none"
         d="m 1691.45,1293.15 -86.1,86.11 c -10.23,10.23 -10.08,26.86 0.33,36.91 l 876.54,845.74 c 10.15,9.8 26.28,9.65 36.26,-0.32 l 55.3,-55.31 c 9.98,-9.97 10.12,-26.1 0.33,-36.26 l -845.75,-876.53 c -10.04,-10.41 -26.68,-10.56 -36.91,-0.34" /><path
         id="path248"
         style="fill:#406fbf;fill-opacity:1;fill-rule:nonzero;stroke:none"
         d="m 2591.58,2419.11 c -21.14,30.12 -38.86,61.72 -53.38,94.38 l 23.7,499.64 c 0.11,3.41 0.43,6.73 0.75,10.03 10.57,117.34 108.68,212.89 225.69,220.79 5.23,0.41 10.57,0.64 15.91,0.64 h 519.06 c 30.43,-16.34 59.79,-35.55 87.54,-57.87 16.02,-12.81 31.5,-26.69 46.45,-41.63 81.78,-81.79 133.34,-182.25 154.59,-287.73 36.61,-180.09 -14.95,-374.51 -154.7,-514.15 -8.65,-8.65 -17.4,-16.87 -26.48,-24.76 -222.59,-196.34 -562.51,-188.12 -775.4,24.76 -23.8,23.81 -45.05,49.21 -63.73,75.9" /><path
         id="path250"
         style="fill:#ffffff;fill-opacity:1;fill-rule:nonzero;stroke:none"
         d="m 2655.31,2343.21 c -23.8,23.81 -45.05,49.21 -63.73,75.9 l 28.19,594.02 c 4.48,95.87 85.94,173.59 181.7,173.59 h 609.38 c 16.02,-12.81 31.5,-26.69 46.45,-41.63 81.78,-81.79 133.34,-182.25 154.59,-287.73 36.61,-180.09 -14.95,-374.51 -154.7,-514.15 -8.65,-8.65 -17.4,-16.87 -26.48,-24.76 -222.59,-196.34 -562.51,-188.12 -775.4,24.76" /><path
         id="path252"
         style="fill:#ffffff;fill-opacity:1;fill-rule:nonzero;stroke:none"
         d="m 2731.53,2279.18 c -26.77,18.75 -52.27,40.07 -76.18,63.98 -45.14,45.14 -81.07,95.98 -107.8,150.21 v 0.14 c 12.59,-25.59 27.23,-50.46 44.03,-74.4 v 0 c 18.68,-26.69 39.93,-52.09 63.73,-75.9 23.93,-23.92 49.44,-45.25 76.22,-64 v -0.03 m -186.48,219.33 c -74.38,154.81 -74.36,336.39 0,491.18 v -331.82 l -6.85,-144.38 c 2.21,-4.97 4.49,-9.91 6.85,-14.83 v -0.15 m 2.5,212.05 v 284.27 c 4.75,9.65 9.78,19.16 15.12,28.58 -0.01,-0.08 -0.01,-0.16 -0.02,-0.25 -0.32,-3.3 -0.64,-6.62 -0.75,-10.03 l -14.35,-302.57" /><path
         id="path254"
         style="fill:#f3f2f1;fill-opacity:1;fill-rule:nonzero;stroke:none"
         d="m 2547.55,2493.37 c -0.84,1.71 -1.68,3.42 -2.5,5.14 v 0.15 c 0.82,-1.72 1.66,-3.44 2.5,-5.15 v -0.14 m -2.5,164.5 v 331.82 c 0.82,1.71 1.66,3.44 2.5,5.14 v -284.27 l -2.5,-52.69" /><path
         id="path256"
         style="fill:#fefefe;fill-opacity:1;fill-rule:nonzero;stroke:none"
         d="m 3524.89,3063.71 h -0.02 c -8.56,12.51 -17.67,24.77 -27.34,36.71 h 0.02 c 9.68,-11.95 18.79,-24.19 27.34,-36.71 m -80.27,93.71 h -0.04 c -10.96,10.32 -22.21,20.08 -33.73,29.3 -3.12,2.51 -6.26,4.98 -9.42,7.41 h 0.07 c 14.83,-11.4 29.22,-23.63 43.12,-36.71 m -133.94,93.71 H 2802.1 c 30.03,15.07 61.15,27.31 92.9,36.7 h 322.81 c 31.76,-9.4 62.82,-21.62 92.87,-36.7" /><path
         id="path258"
         style="fill:#f4f4f2;fill-opacity:1;fill-rule:nonzero;stroke:none"
         d="M 3217.81,3287.83 H 2895 c 52.59,15.56 107,23.35 161.4,23.35 54.4,0 108.82,-7.79 161.41,-23.35" /><path
         id="path260"
         style="fill:#f4f4f2;fill-opacity:1;fill-rule:nonzero;stroke:none"
         d="m 3401.5,3194.13 h -0.07 c -24.95,19.19 -51.11,35.96 -78.12,50.46 h -519.06 c -5.34,0 -10.68,-0.23 -15.91,-0.64 -0.03,0 -0.07,-0.01 -0.1,-0.01 4.6,2.47 9.21,4.86 13.86,7.19 h 508.58 c 31.6,-15.86 62.03,-34.86 90.82,-57" /><path
         id="path262"
         style="fill:#f4f4f2;fill-opacity:1;fill-rule:nonzero;stroke:none"
         d="m 3497.55,3100.42 h -0.02 c -12.49,15.42 -25.89,30.33 -40.23,44.67 -4.2,4.2 -8.44,8.3 -12.72,12.33 h 0.04 c 4.27,-4.02 8.5,-8.12 12.68,-12.3 14.34,-14.34 27.77,-29.28 40.25,-44.7" /><path
         id="path264"
         style="fill:#f4f4f2;fill-opacity:1;fill-rule:nonzero;stroke:none"
         d="m 3556.15,3012.3 h -0.03 c -9.42,17.56 -19.84,34.72 -31.25,51.41 h 0.02 c 11.42,-16.7 21.83,-33.84 31.26,-51.41" /><path
         id="path266"
         style="fill:#90b4e3;fill-opacity:1;fill-rule:nonzero;stroke:none"
         d="m 2762.51,2258.97 c -10.5,6.37 -20.82,13.1 -30.98,20.21 v 0.03 c 10.16,-7.11 20.48,-13.85 30.98,-20.22 v -0.02 m 809.5,721.39 h -0.03 c -4.93,10.77 -10.22,21.43 -15.86,31.94 h 0.03 c 5.64,-10.51 10.93,-21.17 15.86,-31.94" /><path
         id="path268"
         style="fill:#ffffff;fill-opacity:1;fill-rule:nonzero;stroke:none"
         d="m 2848.72,2216.29 c -29.64,11.63 -58.49,25.87 -86.21,42.68 v 0.02 c 27.73,-16.82 56.57,-31.04 86.21,-42.68 v -0.02 m 589.06,108.32 h -0.12 c 6.63,5.99 13.11,12.18 19.53,18.6 47.27,47.24 84.46,100.75 111.55,157.85 h 0.01 c -27.09,-57.11 -64.27,-110.64 -111.53,-157.9 -6.36,-6.36 -12.85,-12.55 -19.44,-18.55 m 182.99,473.96 h -0.1 c -1.9,19.7 -4.83,39.34 -8.78,58.79 -8.48,42.1 -21.78,83.38 -39.91,123 h 0.03 c 26.54,-57.97 42.79,-119.47 48.76,-181.79" /><path
         id="path270"
         style="fill:#e6effa;fill-opacity:1;fill-rule:nonzero;stroke:none"
         d="m 3056.28,2177.1 c -70.51,0 -141,13.06 -207.56,39.19 v 0.02 c 66.55,-26.12 137.03,-39.19 207.51,-39.19 133.83,0 267.68,47.13 374.48,141.33 v 0 c 2.34,2.03 4.65,4.08 6.95,6.16 h 0.12 c -107.95,-98.33 -244.74,-147.51 -381.5,-147.51" /><path
         id="path272"
         style="fill:#b9d3f0;fill-opacity:1;fill-rule:nonzero;stroke:none"
         d="m 3568.75,2501.06 h -0.01 c 36.34,76.58 54.52,159.62 54.55,242.68 v 0 c 0.01,18.3 -0.87,36.59 -2.62,54.83 h 0.1 c 9.66,-100.98 -7.68,-204.06 -52.02,-297.51" /><path
         id="path274"
         style="fill:#90b4e3;fill-opacity:1;fill-rule:nonzero;stroke:none"
         d="m 2591.58,2419.11 v 0 c -16.8,23.94 -31.44,48.81 -44.03,74.4 -0.84,1.71 -1.68,3.43 -2.5,5.15 -2.36,4.92 -4.64,9.86 -6.85,14.83 l 6.85,144.38 2.5,52.69 14.35,302.57 c 0.11,3.41 0.43,6.73 0.75,10.03 0.01,0.09 0.01,0.17 0.02,0.25 24.67,43.54 55.57,84.52 92.67,121.63 40.3,40.3 85.16,73.26 132.9,98.9 0.03,0 0.07,0.01 0.1,0.01 5.23,0.41 10.57,0.64 15.91,0.64 h 519.06 c 27.01,-14.5 53.17,-31.27 78.12,-50.46 3.16,-2.43 6.3,-4.9 9.42,-7.41 11.52,-9.22 22.77,-18.98 33.73,-29.3 4.28,-4.03 8.52,-8.13 12.72,-12.33 14.34,-14.34 27.74,-29.25 40.23,-44.67 9.67,-11.94 18.78,-24.2 27.34,-36.71 11.41,-16.69 21.83,-33.85 31.25,-51.41 5.64,-10.51 10.93,-21.17 15.86,-31.94 18.13,-39.62 31.43,-80.9 39.91,-123 3.95,-19.45 6.88,-39.09 8.78,-58.79 1.75,-18.24 2.63,-36.53 2.62,-54.83 0.01,38.08 -3.79,76.16 -11.4,113.62 -21.25,105.48 -72.81,205.94 -154.59,287.73 -14.95,14.94 -30.43,28.82 -46.45,41.63 h -609.38 c -95.76,0 -177.22,-77.72 -181.7,-173.59 l -28.19,-594.02" /><path
         id="path276"
         style="fill:#ffffff;fill-opacity:1;fill-rule:nonzero;stroke:none"
         d="m 3056.23,2177.12 c -70.48,0 -140.96,13.07 -207.51,39.19 -29.64,11.64 -58.48,25.86 -86.21,42.68 -10.5,6.37 -20.82,13.11 -30.98,20.22 -26.78,18.75 -52.29,40.08 -76.22,64 -23.8,23.81 -45.05,49.21 -63.73,75.9 v 0 l 28.19,594.02 c 4.48,95.87 85.94,173.59 181.7,173.59 h 609.38 c 16.02,-12.81 31.5,-26.69 46.45,-41.63 81.78,-81.79 133.34,-182.25 154.59,-287.73 7.61,-37.46 11.41,-75.54 11.4,-113.62 v 0 c 0.01,38.08 -3.79,76.16 -11.4,113.62 h -795.9 c -24.23,0 -44.73,-19.63 -45.91,-43.87 l -21.45,-451.16 c -1.18,-24.24 17.61,-43.88 41.85,-43.88 h 640.23 c -106.8,-94.2 -240.65,-141.33 -374.48,-141.33" /><path
         id="path278"
         style="fill:#b9d3f0;fill-opacity:1;fill-rule:nonzero;stroke:none"
         d="m 3430.71,2318.45 h -640.23 c -24.24,0 -43.03,19.64 -41.85,43.88 l 21.45,451.16 c 1.18,24.24 21.68,43.87 45.91,43.87 h 795.9 c 7.61,-37.46 11.41,-75.54 11.4,-113.62 -0.03,-83.06 -18.21,-166.1 -54.55,-242.68 -27.09,-57.1 -64.28,-110.61 -111.55,-157.85 -8.65,-8.65 -17.4,-16.87 -26.48,-24.76 v 0" /><path
         id="path280"
         style="fill:#17282f;fill-opacity:1;fill-rule:nonzero;stroke:none"
         d="m 3276.07,2664.3 c -82.22,-82.22 -175.77,-75.54 -237.59,-13.71 -61.82,61.81 -68.49,155.37 13.72,237.59 82.22,82.2 198.98,98.75 260.8,36.92 61.82,-61.82 45.29,-178.58 -36.93,-260.8" /><path
         id="path282"
         style="fill:#17282f;fill-opacity:1;fill-rule:nonzero;stroke:none"
         d="m 3253.26,2865.36 c -32.6,32.61 -39.16,78.93 -14.64,103.44 24.52,24.52 70.83,17.97 103.44,-14.65 32.6,-32.61 39.16,-78.92 14.64,-103.44 -24.52,-24.51 -70.83,-17.96 -103.44,14.65" /><path
         id="path284"
         style="fill:#17282f;fill-opacity:1;fill-rule:nonzero;stroke:none"
         d="m 3227.24,2826.68 c -3.94,0 -7.82,1.84 -10.29,5.28 l -103.5,144.32 c -1.84,2.57 -2.65,5.73 -2.28,8.87 l 10.58,88.97 c 0.83,6.95 7.13,11.91 14.06,11.07 6.93,-0.82 11.89,-7.11 11.07,-14.06 l -10,-84.1 100.63,-140.32 c 4.08,-5.67 2.77,-13.58 -2.91,-17.66 -2.23,-1.6 -4.81,-2.37 -7.36,-2.37" /><path
         id="path286"
         style="fill:#17282f;fill-opacity:1;fill-rule:nonzero;stroke:none"
         d="m 3371.55,2723.17 c -2.63,0 -5.21,0.83 -7.37,2.38 l -144.32,103.5 c -5.68,4.08 -6.98,11.99 -2.91,17.66 4.07,5.68 11.98,6.99 17.65,2.91 l 140.34,-100.64 84.09,10 c 6.99,0.92 13.23,-4.12 14.06,-11.07 0.83,-6.93 -4.13,-13.23 -11.07,-14.05 l -88.97,-10.59 -1.5,-0.1" /><path
         id="path288"
         style="fill:#17282f;fill-opacity:1;fill-rule:nonzero;stroke:none"
         d="m 3144.62,2744.07 c -2.55,0 -5.13,0.77 -7.36,2.38 l -140.34,100.64 -84.09,-10 c -6.96,-0.95 -13.24,4.12 -14.06,11.07 -0.83,6.93 4.13,13.23 11.07,14.05 l 88.97,10.58 c 3.13,0.44 6.3,-0.43 8.87,-2.27 L 3152,2767.01 c 5.68,-4.07 6.98,-11.98 2.91,-17.65 -2.47,-3.45 -6.35,-5.29 -10.29,-5.29" /><path
         id="path290"
         style="fill:#17282f;fill-opacity:1;fill-rule:nonzero;stroke:none"
         d="m 3237.56,2510.78 -1.51,0.1 c -6.93,0.82 -11.89,7.12 -11.06,14.05 l 10,84.1 -100.64,140.33 c -4.08,5.67 -2.77,13.58 2.91,17.65 5.67,4.08 13.58,2.79 17.65,-2.91 l 103.51,-144.31 c 1.84,-2.57 2.65,-5.74 2.28,-8.87 l -10.59,-88.98 c -0.76,-6.43 -6.23,-11.16 -12.55,-11.16" /><path
         id="path292"
         style="fill:#17282f;fill-opacity:1;fill-rule:nonzero;stroke:none"
         d="m 3378.99,2592.32 c -3.23,0 -6.47,1.24 -8.94,3.71 l -386.13,386.12 c -4.94,4.94 -4.94,12.95 0,17.89 4.94,4.94 12.95,4.94 17.89,0 l 386.13,-386.12 c 4.94,-4.94 4.94,-12.95 0,-17.89 -2.47,-2.47 -5.71,-3.71 -8.95,-3.71" /><path
         id="path294"
         style="fill:#17282f;fill-opacity:1;fill-rule:nonzero;stroke:none"
         d="m 3327.05,2926.5 c -1.67,0 -3.37,0.33 -5.01,1.04 -6.4,2.76 -9.35,10.17 -6.62,16.58 1.08,2.57 25.59,62.66 -31.31,105.91 -5.57,4.23 -6.65,12.16 -2.42,17.72 4.23,5.57 12.16,6.68 17.73,2.42 58.35,-44.35 51.19,-108.37 39.25,-136.04 -2.06,-4.77 -6.73,-7.63 -11.62,-7.63" /><path
         id="path296"
         style="fill:#17282f;fill-opacity:1;fill-rule:nonzero;stroke:none"
         d="m 3448,2891.21 c -3.82,0 -7.59,1.73 -10.08,5 -43.25,56.91 -103.35,32.36 -105.89,31.31 -6.41,-2.72 -13.85,0.25 -16.59,6.67 -2.73,6.41 0.2,13.82 6.6,16.57 27.65,11.94 91.68,19.1 136.03,-39.24 4.22,-5.56 3.14,-13.49 -2.42,-17.72 -2.29,-1.75 -4.98,-2.59 -7.65,-2.59" /><path
         id="path298"
         style="fill:#406fbf;fill-opacity:1;fill-rule:nonzero;stroke:none"
         d="m 2677.17,2364.99 c -209.41,209.42 -209.33,548.89 0,758.22 209.41,209.42 548.89,209.5 758.3,0.08 209.42,-209.41 209.34,-548.88 -0.07,-758.3 -209.34,-209.33 -548.82,-209.41 -758.23,0 z m 828.74,828.73 c -248.29,248.29 -650.88,248.37 -899.25,0 -248.29,-248.28 -248.21,-650.88 0.08,-899.16 248.29,-248.29 650.88,-248.37 899.17,-0.08 248.36,248.36 248.29,650.96 0,899.24" /><path
         id="path300"
         style="fill:#17282f;fill-opacity:1;fill-rule:nonzero;stroke:none"
         d="m 1965.55,2312.2 c -8.2,-59.21 -42.38,-194.86 -160.23,-504.36 l -376.06,77.26 c 33.46,134.51 52.63,223.91 50.55,471.7 -0.48,57.88 49.03,103.89 106.66,98.54 17.86,-1.66 36.69,-3.85 55.49,-6.78 63.91,-9.96 116.17,-18.58 170.76,-35.09 42.86,-12.96 88.46,-30.3 118.33,-42.2 23.71,-9.45 38.01,-33.79 34.5,-59.07" /><path
         id="path302"
         style="fill:#f89e63;fill-opacity:1;fill-rule:nonzero;stroke:none"
         d="m 1979.72,2288.19 c 3.05,-22.19 6.85,-46.79 11.4,-70.03 4.7,-23.46 9.46,-46.86 15.42,-69.72 5.92,-22.85 12.8,-45.27 20.82,-66.59 7.78,-21.45 17.14,-41.68 27.84,-59.38 5.4,-8.67 11.14,-16.66 17.12,-23.51 l 4.56,-4.71 c 1.63,-1.78 2.3,-2.09 3.43,-3.35 2.46,-2.02 5.45,-4.13 9.07,-6.18 14.64,-8.5 36.25,-14.32 58.34,-18.47 44.74,-7.8 94.45,-10.01 142.35,-10.18 l 6.98,-47.37 c -51.32,-12.91 -102.33,-20.06 -157.33,-18.14 -27.53,1.36 -55.92,4.76 -86.82,17.44 -7.71,3.29 -15.54,7.53 -23.33,12.69 -3.69,2.75 -8.27,5.9 -11.08,8.56 l -9.06,8.2 c -11.36,11.25 -20.96,23.13 -29.56,35.21 -33.02,48.74 -51.22,99.65 -66.01,150.45 -7.2,25.44 -13.62,50.89 -18.38,76.6 -4.89,25.95 -9.14,50.79 -11.87,78.33 l 96.11,10.15" /><path
         id="path304"
         style="fill:#17282f;fill-opacity:1;fill-rule:nonzero;stroke:none"
         d="m 1938.57,2366.65 c 79.28,-53.05 79.46,-183.94 79.46,-183.94 l -162.31,-100.96 c 0,0 -45.02,121.96 -32.44,214.33 7.35,53.95 66.53,103.2 115.29,70.57" /><path
         id="path306"
         style="fill:#f89e63;fill-opacity:1;fill-rule:nonzero;stroke:none"
         d="m 2268.58,1955.91 102.27,4.16 -51.37,-78.11 c 0,0 -53.2,7.08 -65.05,43.6 l 14.15,30.35" /><path
         id="path308"
         style="fill:#f89e63;fill-opacity:1;fill-rule:nonzero;stroke:none"
         d="m 2406.67,1901.21 -9.77,-14.05 c -6.72,-9.67 -18.38,-14.64 -30,-12.77 l -47.42,7.57 51.37,78.11 25.85,-14.76 c 15.62,-8.92 20.24,-29.32 9.97,-44.1" /><path
         id="path310"
         style="fill:#17282f;fill-opacity:1;fill-rule:nonzero;stroke:none"
         d="m 1915.02,2700.24 c 0.4,-7.61 4.75,-13.58 9.73,-13.32 4.98,0.27 8.69,6.65 8.29,14.26 -0.4,7.62 -4.76,13.58 -9.73,13.31 -4.98,-0.25 -8.69,-6.64 -8.29,-14.25" /><path
         id="path312"
         style="fill:#17282f;fill-opacity:1;fill-rule:nonzero;stroke:none"
         d="m 1921.13,2713.96 18.01,6.23 c 0,0 -8.63,-14.78 -18.01,-6.23" /><path
         id="path314"
         style="fill:#f57739;fill-opacity:1;fill-rule:nonzero;stroke:none"
         d="m 1922.39,2683.64 c 0,0 14.64,-32.11 29.69,-47.17 -9.56,-9.91 -26.87,-6.52 -26.87,-6.52 l -2.82,53.69" /><path
         id="path316"
         style="fill:#406fbf;fill-opacity:1;fill-rule:nonzero;stroke:none"
         d="m 1920.89,2784.76 c -19.97,0 -36.22,-30.94 -36.22,-68.96 0,-38.02 16.25,-68.95 36.22,-68.95 19.97,0 36.21,30.93 36.21,68.95 0,38.02 -16.24,68.96 -36.21,68.96 z m 0,-143.25 c -23.3,0 -41.56,32.63 -41.56,74.29 0,41.66 18.26,74.29 41.56,74.29 23.3,0 41.56,-32.63 41.56,-74.29 0,-41.66 -18.26,-74.29 -41.56,-74.29" /><path
         id="path318"
         style="fill:#17282f;fill-opacity:1;fill-rule:nonzero;stroke:none"
         d="m 1886.03,2718.72 c 1.88,-0.19 3.75,0.83 4.55,2.65 8.36,18.95 34.47,24.4 34.73,24.46 2.43,0.49 4,2.85 3.51,5.28 -0.48,2.42 -2.83,3.99 -5.27,3.5 -1.26,-0.25 -30.95,-6.47 -41.16,-29.63 -1,-2.25 0.02,-4.9 2.29,-5.9 l 1.35,-0.36" /><path
         id="path320"
         style="fill:#f89e63;fill-opacity:1;fill-rule:nonzero;stroke:none"
         d="m 1655.92,2714.61 c 10.64,-93.21 13.15,-132.89 62.9,-178.42 74.82,-68.46 186.98,-35.01 204.4,59.49 15.68,85.07 -4.36,223.22 -97.84,255.63 -92.1,31.94 -180.11,-43.5 -169.46,-136.7" /><path
         id="path322"
         style="fill:#17282f;fill-opacity:1;fill-rule:nonzero;stroke:none"
         d="m 1882,2679.37 c 43.31,66.46 65.22,148.83 23.46,197.47 -41.77,48.63 -104.64,0 -104.64,0 0,0 -168.44,61.08 -223.01,-9.5 -79.08,-102.29 24.39,-167.1 -1.04,-195.57 -25.42,-28.48 -60.26,-68.37 -28.71,-127.67 34.45,-64.73 296.65,-14.83 333.94,-89.25 109.85,5.98 52.72,184.82 0,224.52" /><path
         id="path324"
         style="fill:#17282f;fill-opacity:1;fill-rule:nonzero;stroke:none"
         d="m 1564.82,2644.19 -1.78,0.67 c -1.1,0.99 -1.19,2.67 -0.21,3.77 7.84,8.78 1.12,22.41 -8.18,41.26 -17.08,34.62 -42.89,86.94 9.1,154.17 0.89,1.19 2.57,1.4 3.74,0.48 1.16,-0.9 1.38,-2.58 0.47,-3.74 -49.94,-64.6 -26,-113.12 -8.52,-148.55 9.84,-19.94 17.61,-35.71 7.37,-47.17 l -1.99,-0.89" /><path
         id="path326"
         style="fill:#17282f;fill-opacity:1;fill-rule:nonzero;stroke:none"
         d="m 1920.63,2465.51 c -4.67,0 -9.89,0.57 -15.74,1.84 -1.44,0.32 -2.36,1.74 -2.04,3.18 0.31,1.45 1.75,2.35 3.17,2.04 23.39,-5.09 38.56,1.1 45.17,18.33 17.96,46.97 -33.12,160.95 -73.98,184.14 -1.28,0.73 -1.73,2.36 -1,3.64 0.71,1.28 2.34,1.73 3.63,1.01 43.31,-24.59 95.41,-140.81 76.33,-190.7 -4.34,-11.35 -14.02,-23.48 -35.54,-23.48" /><path
         id="path328"
         style="fill:#406fbf;fill-opacity:1;fill-rule:nonzero;stroke:none"
         d="m 1859.69,2685.56 c -1.2,0 -2.28,0.8 -2.59,2.01 -1.45,5.7 -0.39,10.98 3.13,15.65 10.82,14.37 45.86,22.58 104.14,24.43 1.36,0.25 2.7,-1.11 2.74,-2.58 0.05,-1.48 -1.1,-2.71 -2.58,-2.75 -70.47,-2.24 -93.29,-13.36 -100.03,-22.31 -2.54,-3.37 -3.27,-7.01 -2.22,-11.13 0.36,-1.43 -0.51,-2.88 -1.94,-3.24 l -0.65,-0.08" /><path
         id="path330"
         style="fill:#f89e63;fill-opacity:1;fill-rule:nonzero;stroke:none"
         d="m 1870.63,2665.15 c 9.15,-17.66 30.88,-26.47 41.98,-28.21 16.69,-2.62 12.13,22.81 4.09,46.5 -7.24,21.32 -24.66,48.38 -39.78,39.96 -14.9,-8.28 -16.75,-38.06 -6.29,-58.25" /><path
         id="path332"
         style="fill:#406fbf;fill-opacity:1;fill-rule:nonzero;stroke:none"
         d="m 995.457,233.852 c 1.727,-0.172 3.113,-0.571 4.074,-1.223 0.869,-0.598 1.249,-1.387 1.229,-2.57 -0.02,-3.028 -1.1,-5.278 -3.272,-6.879 -6.218,-4.551 -21.785,-3.891 -42.289,1.66 13.531,4.91 31.352,9.91 40.258,9.012 z m -18.719,-17.77 c 9.36,-0.941 18.125,-0.371 23.392,3.488 3.35,2.45 5.07,5.969 5.12,10.45 0.02,2.679 -1.08,4.851 -3.19,6.3 -10.876,7.469 -50.306,-7.898 -54.759,-9.679 -0.883,-0.352 -1.449,-1.231 -1.406,-2.18 0.039,-0.941 0.671,-1.762 1.582,-2.051 7.828,-2.379 18.902,-5.289 29.261,-6.328" /><path
         id="path334"
         style="fill:#406fbf;fill-opacity:1;fill-rule:nonzero;stroke:none"
         d="M 974.148,258.199 975.48,258 c 4.028,-0.82 4.125,-2.469 4.165,-3.02 0.398,-6.5 -16.262,-20.941 -28.383,-26.718 1.84,7.269 6.496,22.136 14.906,27.82 2.531,1.699 5.152,2.406 7.98,2.117 z m -26.242,-35.867 0.934,0.098 c 11.723,3.941 35.941,22 35.273,32.82 -0.156,2.57 -1.629,5.891 -7.734,7.129 -4.512,0.93 -8.805,0.051 -12.723,-2.59 -12.816,-8.668 -17.535,-33.758 -17.73,-34.828 l 0.738,-2.102 1.242,-0.527" /><path
         id="path336"
         style="fill:#f89e63;fill-opacity:1;fill-rule:nonzero;stroke:none"
         d="M 838.637,204.398 931.313,186.371 1033.77,414.809 941.098,432.832 838.637,204.398" /><path
         id="path338"
         style="fill:#17282f;fill-opacity:1;fill-rule:nonzero;stroke:none"
         d="M 955.141,226.789 855.035,262.25 c -3.644,1.289 -6.988,-0.371 -8.047,-4.012 l -29.765,-78.187 c -2.442,-8.391 3.429,-19.219 11.855,-22.031 34.992,-11.719 71.442,-17.399 116.813,-28.481 27.91,-6.797 71.669,-16.309 111.349,-16.309 38.8,0 33.91,39.239 16.68,42.801 -77.275,15.918 -84.236,30.117 -104.729,59.617 -3.695,5.321 -8.722,9.25 -14.05,11.141" /><path
         id="path340"
         style="fill:#c3c5c2;fill-opacity:1;fill-rule:nonzero;stroke:none"
         d="m 980.93,296.988 v 0 l 2.574,5.742 -2.574,-5.742 m -92.676,18.032 -0.039,0.011 22.058,49.199 h 0.051 l -22.07,-49.21" /><path
         id="path342"
         style="fill:#b1b3b1;fill-opacity:1;fill-rule:nonzero;stroke:none"
         d="m 910.324,364.23 h -0.051 l 0.114,0.25 0.047,-0.011 -0.11,-0.239" /><path
         id="path344"
         style="fill:#dc834c;fill-opacity:1;fill-rule:nonzero;stroke:none"
         d="m 980.93,296.988 -92.676,18.032 22.07,49.21 0.11,0.239 89.686,-24.688 -16.616,-37.051 -2.574,-5.742" /><path
         id="path346"
         style="fill:#406fbf;fill-opacity:1;fill-rule:nonzero;stroke:none"
         d="M 1425.17,1888.69 C 1293.87,1766.56 1284.73,1362.61 1189.67,1088.9 1036.72,813.488 896.078,368.422 896.078,368.422 l 127.662,-35.141 c 0,0 195.66,387.879 320.73,659.84 138.05,300.179 321.23,845.479 321.23,845.479 0,0 -139.95,29.14 -240.53,50.09" /><path
         id="path348"
         style="fill:#3563b7;fill-opacity:1;fill-rule:nonzero;stroke:none"
         d="m 1531.37,1458.92 c -11.32,74.52 -17.19,150 -13.99,221.64 l 79.75,-39.72 c -19.32,-54.35 -41.63,-116.58 -65.76,-181.92" /><path
         id="path350"
         style="fill:#406fbf;fill-opacity:1;fill-rule:nonzero;stroke:none"
         d="m 1856.49,233.691 c 1.74,0 3.16,-0.25 4.17,-0.812 0.93,-0.508 1.39,-1.25 1.49,-2.418 0.27,-3.031 -0.57,-5.371 -2.57,-7.18 -5.74,-5.152 -21.29,-6.051 -42.24,-2.582 12.97,6.231 30.2,12.992 39.15,12.992 z m -16.85,-19.562 c 9.41,0 18.07,1.461 22.93,5.82 3.08,2.781 4.44,6.449 4.04,10.91 -0.24,2.672 -1.55,4.731 -3.8,5.95 -11.57,6.351 -49.26,-12.887 -53.51,-15.11 -0.85,-0.437 -1.32,-1.367 -1.19,-2.301 0.14,-0.937 0.85,-1.699 1.78,-1.886 8.03,-1.59 19.34,-3.383 29.75,-3.383" /><path
         id="path352"
         style="fill:#406fbf;fill-opacity:1;fill-rule:nonzero;stroke:none"
         d="m 1832.85,255.789 1.35,-0.07 c 4.08,-0.418 4.35,-2.047 4.44,-2.578 1.05,-6.43 -14.08,-22.469 -25.57,-29.43 1.11,7.41 4.25,22.68 12.05,29.16 2.35,1.961 4.89,2.918 7.73,2.918 z m -22.52,-38.32 0.92,0.203 c 11.27,5.09 33.56,25.476 31.81,36.187 -0.41,2.532 -2.21,5.692 -8.41,6.321 -4.58,0.461 -8.76,-0.828 -12.4,-3.871 -11.88,-9.887 -14.06,-35.34 -14.15,-36.418 l 0.94,-2.012 1.29,-0.41" /><path
         id="path354"
         style="fill:#f89e63;fill-opacity:1;fill-rule:nonzero;stroke:none"
         d="m 1710.74,196.738 93.46,-14.109 45.15,214.57 -93.46,14.11 -45.15,-214.571" /><path
         id="path356"
         style="fill:#17282f;fill-opacity:1;fill-rule:nonzero;stroke:none"
         d="m 1819.9,220.691 h -106.2 c -3.86,0 -7,-2.671 -7.54,-6.453 l -12.1,-84.019 c -1.26,-8.719 6.24,-16.969 15.15,-16.809 37.03,0.629 54.87,2.809 101.57,2.809 28.73,0 94.43,-2.989 134.1,-2.989 38.81,0 41.79,39.239 25.27,42.801 -74.08,15.918 -109.5,37.899 -134.45,58.848 -4.5,3.781 -10.15,5.812 -15.8,5.812" /><path
         id="path358"
         style="fill:#c3c5c2;fill-opacity:1;fill-rule:nonzero;stroke:none"
         d="m 1732.6,300.648 -0.04,0.012 4.49,21.352 h 0.05 l -4.5,-21.364 m 5.02,23.864 h -0.05 l 18.25,86.75 0.05,-0.012 -18.25,-86.738" /><path
         id="path360"
         style="fill:#b1b3b1;fill-opacity:1;fill-rule:nonzero;stroke:none"
         d="m 1737.1,322.012 h -0.05 l 0.52,2.5 h 0.05 l -0.52,-2.5" /><path
         id="path362"
         style="fill:#dc834c;fill-opacity:1;fill-rule:nonzero;stroke:none"
         d="m 1826.07,286.531 -93.47,14.117 4.5,21.364 0.52,2.5 18.25,86.738 93.45,-14.109 -23.25,-110.61" /><path
         id="path364"
         style="fill:#406fbf;fill-opacity:1;fill-rule:nonzero;stroke:none"
         d="m 1805.32,1807.84 c 0,0 244.67,-473.4 217.59,-760.46 C 1994.74,748.801 1843.16,313.391 1843.16,313.391 L 1729.28,334 c 0,0 86.79,550.879 140.52,754.9 -131.51,303 -514.66,417.85 -339.86,775.51 51.2,-8.94 275.38,-56.57 275.38,-56.57" /><path
         id="path366"
         style="fill:#17282f;fill-opacity:1;fill-rule:nonzero;stroke:none"
         d="m 1711.2,321.352 148.3,-22.391 16.15,57.211 -163.46,12.879 -0.99,-47.699" /><path
         id="path368"
         style="fill:#17282f;fill-opacity:1;fill-rule:nonzero;stroke:none"
         d="m 879.191,341.859 143.959,-42.058 32.01,55.988 -164.668,31.922 -11.301,-45.852" /><path
         id="path370"
         style="fill:#ffffff;fill-opacity:1;fill-rule:nonzero;stroke:none"
         d="m 1428.16,1908.32 -16.53,-31.69 c -1.85,-2.33 0.69,-5.63 5.04,-6.53 l 387.04,-79.5 c 3.39,-0.71 6.54,0.38 7.19,2.47 l 10.31,32.97 c 0.71,2.28 -1.82,4.86 -5.53,5.62 l -380.81,78.22 c -2.8,0.58 -5.51,-0.06 -6.71,-1.56" /><path
         id="path372"
         style="fill:#406fbf;fill-opacity:1;fill-rule:nonzero;stroke:none"
         d="m 1470.56,1855.24 -10.2,2.08 c -2.03,0.42 -3.36,1.79 -2.96,3.04 l 13.77,42.76 c 0.4,1.25 2.39,1.93 4.42,1.51 l 10.2,-2.1 c 2.03,-0.41 3.37,-1.78 2.96,-3.03 l -13.76,-42.75 c -0.41,-1.25 -2.4,-1.93 -4.43,-1.51" /><path
         id="path374"
         style="fill:#406fbf;fill-opacity:1;fill-rule:nonzero;stroke:none"
         d="m 1774.3,1792.83 -10.2,2.1 c -2.03,0.42 -3.36,1.78 -2.96,3.04 l 13.77,42.74 c 0.4,1.25 2.39,1.94 4.42,1.53 l 10.2,-2.1 c 2.03,-0.42 3.37,-1.78 2.96,-3.04 l -13.76,-42.74 c -0.41,-1.25 -2.4,-1.94 -4.43,-1.53" /><path
         id="path376"
         style="fill:#406fbf;fill-opacity:1;fill-rule:nonzero;stroke:none"
         d="m 1622.43,1824.03 -10.2,2.1 c -2.03,0.41 -3.36,1.78 -2.96,3.03 l 13.77,42.75 c 0.4,1.25 2.39,1.94 4.42,1.52 l 10.2,-2.09 c 2.03,-0.42 3.37,-1.79 2.96,-3.04 l -13.76,-42.75 c -0.41,-1.25 -2.4,-1.94 -4.43,-1.52" /></g></g></svg>