<?xml version="1.0" encoding="UTF-8"?> <svg xmlns="http://www.w3.org/2000/svg" width="348" height="303" viewBox="0 0 348 303" fill="none"> <path d="M173.843 302.672C269.854 302.672 347.686 257.734 347.686 202.301C347.686 146.868 269.854 101.931 173.843 101.931C77.8322 101.931 0 146.868 0 202.301C0 257.734 77.8322 302.672 173.843 302.672Z" fill="#F5F5F5"></path> <path d="M123.83 210.294L141.803 220.664C142.408 220.973 143.078 221.135 143.757 221.135C144.436 221.135 145.106 220.973 145.711 220.664L218.238 178.746C219.308 178.129 219.301 177.137 218.238 176.519L200.116 166.188C199.511 165.88 198.841 165.72 198.162 165.72C197.483 165.72 196.814 165.88 196.208 166.188L123.83 208.059C122.79 208.676 122.79 209.677 123.83 210.294Z" fill="#E0E0E0"></path> <path d="M283.552 237.536C305.257 237.536 322.852 227.375 322.852 214.842C322.852 202.309 305.257 192.148 283.552 192.148C261.848 192.148 244.253 202.309 244.253 214.842C244.253 227.375 261.848 237.536 283.552 237.536Z" fill="#E0E0E0"></path> <path d="M65.1735 237.536C86.8781 237.536 104.473 227.375 104.473 214.842C104.473 202.309 86.8781 192.148 65.1735 192.148C43.469 192.148 25.874 202.309 25.874 214.842C25.874 227.375 43.469 237.536 65.1735 237.536Z" fill="#E0E0E0"></path> <path d="M51.8028 193.297C51.8028 193.297 50.6853 183.451 45.7934 175.808C40.9015 168.166 34.1653 163.406 27.8902 162.906C21.6151 162.406 16.5434 168.189 23.2562 172.151C29.9689 176.113 41.9096 180.169 47.4032 195.001L51.8028 193.297Z" fill="#508EC2"></path> <path opacity="0.15" d="M51.8028 193.297C51.8028 193.297 50.6853 183.451 45.7934 175.808C40.9015 168.166 34.1653 163.406 27.8902 162.906C21.6151 162.406 16.5434 168.189 23.2562 172.151C29.9689 176.113 41.9096 180.169 47.4032 195.001L51.8028 193.297Z" fill="black"></path> <path d="M49.9663 190.734H50.0289C50.07 190.718 50.1074 190.693 50.1391 190.663C50.1708 190.632 50.1961 190.595 50.2135 190.554C50.2309 190.514 50.2402 190.47 50.2407 190.426C50.2412 190.381 50.2329 190.338 50.2164 190.296C43.5897 173.98 30.9769 167.173 25.2098 165.845C25.1238 165.826 25.0339 165.842 24.9594 165.888C24.8849 165.935 24.8317 166.009 24.8112 166.095C24.8008 166.138 24.799 166.183 24.8059 166.226C24.8128 166.27 24.8284 166.312 24.8516 166.35C24.8749 166.388 24.9053 166.421 24.9413 166.446C24.9773 166.472 25.0181 166.491 25.0613 166.501C30.6878 167.798 43.0348 174.488 49.5756 190.547C49.6039 190.622 49.6603 190.684 49.7332 190.719C49.806 190.754 49.8896 190.759 49.9663 190.734Z" fill="white"></path> <path d="M16.434 190.929C17.0045 192.21 18.4033 192.875 19.7005 193.406C20.9977 193.937 22.4122 194.492 23.1155 195.703C24.5377 198.149 22.209 201.588 23.7328 203.971C24.087 204.449 24.5352 204.85 25.0499 205.148C25.5646 205.446 26.135 205.636 26.7258 205.706C27.6948 205.886 28.6794 205.886 29.6641 205.972C30.1321 205.963 30.5992 205.927 31.0629 205.862C32.4229 205.559 33.8449 205.71 35.1108 206.292C37.0567 207.386 37.6506 209.84 38.8384 211.762C39.5678 212.88 40.5309 213.827 41.6615 214.536C42.7921 215.246 44.0632 215.702 45.387 215.873C46.2623 215.982 47.8877 216.146 48.7785 215.646L48.9583 215.529C49.0755 215.388 49.2318 215.216 49.2943 215.123C49.2981 215.102 49.2981 215.081 49.2943 215.06C49.6382 213.794 49.0755 212.473 49.0521 211.153C49.0521 211.075 49.0521 210.997 49.0521 210.918C49.1068 209.395 49.1536 207.879 49.1849 206.355C49.2578 203.557 49.2865 200.759 49.2709 197.962C49.2709 196.141 49.4662 194.148 48.7004 192.437C47.8486 190.554 45.7309 190.515 44.926 188.662C44.6056 187.928 44.4415 187.1 44.1445 186.396C43.6677 185.298 42.8977 184.353 41.919 183.663C40.9403 182.974 39.7906 182.568 38.5962 182.489C34.8999 182.301 31.563 185.294 27.8902 185.021C26.9351 184.896 25.988 184.715 25.0535 184.482C22.0605 183.927 18.5986 184.779 16.9185 187.311C16.5493 187.829 16.3122 188.429 16.2277 189.06C16.1433 189.69 16.2141 190.332 16.434 190.929Z" fill="#508EC2"></path> <path d="M49.6537 209.168C49.7334 209.146 49.8012 209.094 49.8422 209.022C49.8832 208.95 49.8941 208.865 49.8725 208.785C44.793 189.632 24.5845 186.865 19.8958 187.209C19.8547 187.212 19.8146 187.223 19.7778 187.242C19.741 187.26 19.7082 187.286 19.6814 187.317C19.6545 187.348 19.6341 187.385 19.6212 187.424C19.6084 187.463 19.6035 187.504 19.6067 187.545C19.6096 187.586 19.6207 187.626 19.6392 187.663C19.6577 187.7 19.6833 187.733 19.7145 187.76C19.7458 187.787 19.782 187.807 19.8212 187.82C19.8603 187.833 19.9016 187.838 19.9427 187.834C24.5611 187.506 44.3242 190.179 49.3177 208.973C49.3445 209.038 49.392 209.092 49.4527 209.127C49.5134 209.163 49.584 209.177 49.6537 209.168Z" fill="white"></path> <path d="M27.2181 199.486C27.2798 199.473 27.3367 199.443 27.3823 199.4C29.2445 197.777 31.4422 196.585 33.8184 195.909C36.1945 195.234 38.6905 195.092 41.1281 195.492C41.211 195.505 41.2954 195.484 41.3629 195.434C41.4303 195.384 41.4751 195.31 41.4876 195.227C41.5 195.144 41.479 195.059 41.4292 194.992C41.3793 194.925 41.3048 194.88 41.2219 194.867C38.6855 194.451 36.0885 194.602 33.6173 195.309C31.1461 196.015 28.862 197.26 26.929 198.954C26.8995 198.983 26.876 199.018 26.86 199.056C26.844 199.094 26.8358 199.136 26.8358 199.177C26.8358 199.218 26.844 199.259 26.86 199.298C26.876 199.336 26.8995 199.371 26.929 199.4C26.9675 199.435 27.0135 199.461 27.0636 199.476C27.1137 199.491 27.1666 199.494 27.2181 199.486Z" fill="white"></path> <path d="M299.869 196.752C299.736 192.064 301.041 184.194 305.667 176.341C310.614 167.932 317.147 162.274 322.633 164.017C327.751 165.58 326.626 172.543 318.936 180.099C313.544 185.405 308.082 192.134 305.589 199.816L301.268 209.717L299.869 196.752Z" fill="#508EC2"></path> <path d="M299.869 196.752C299.736 192.064 301.041 184.194 305.667 176.341C310.614 167.932 317.147 162.274 322.633 164.017C327.751 165.58 326.626 172.543 318.936 180.099C313.544 185.405 308.082 192.134 305.589 199.816L301.268 209.717L299.869 196.752Z" fill="#508EC2"></path> <g opacity="0.15"> <path opacity="0.15" d="M299.869 196.752C299.736 192.064 301.041 184.194 305.667 176.341C310.614 167.932 317.147 162.274 322.633 164.017C327.751 165.58 326.626 172.543 318.936 180.099C313.544 185.405 308.082 192.134 305.589 199.816L301.268 209.717L299.869 196.752Z" fill="black"></path> </g> <path d="M300.721 200.253C300.788 200.245 300.852 200.217 300.903 200.172C300.955 200.128 300.992 200.069 301.01 200.003C304.3 186.601 312.646 172.496 320.421 167.182C320.493 167.132 320.542 167.055 320.558 166.969C320.574 166.883 320.556 166.794 320.507 166.721C320.484 166.684 320.453 166.652 320.416 166.627C320.38 166.603 320.339 166.586 320.295 166.578C320.252 166.57 320.208 166.571 320.165 166.58C320.122 166.59 320.081 166.609 320.046 166.635C312.153 172.012 303.69 186.281 300.361 199.824C300.342 199.909 300.356 199.999 300.401 200.075C300.446 200.151 300.519 200.206 300.603 200.23L300.721 200.253Z" fill="white"></path> <path d="M299.822 211.951C302.412 214.247 305.559 215.823 308.949 216.523C314.802 217.812 317.545 215.14 317.545 215.14C317.545 215.14 315.545 209.466 312.286 207.716C315.88 208.737 319.274 210.365 322.32 212.529C322.32 212.529 325.923 212.795 327.689 207.38C327.689 207.38 325.751 203.941 318.686 201.722C318.686 201.722 323.117 200.886 329.298 202.863C329.76 203.082 332.19 196.088 332.995 192.837C333.8 189.586 332.479 189.555 329.963 188.718C327.446 187.882 318.757 186.929 317.069 188.242C315.381 189.555 314.287 194.314 314.287 194.314C314.287 194.314 312.911 191.5 313.427 189.094C311.666 188.474 309.758 188.406 307.957 188.898C305.026 189.734 305.128 191.141 305.003 193.235C304.866 195.332 305.029 197.437 305.487 199.487C305.487 199.487 303.604 197.651 303.925 191.321C303.925 191.321 299.838 194.447 298.11 197.174C296.383 199.901 296.329 207.466 299.822 211.951Z" fill="#508EC2"></path> <path d="M299.798 212.296C299.861 212.3 299.923 212.287 299.978 212.258C300.033 212.229 300.079 212.185 300.111 212.131C305.464 202.496 323.883 192.056 330.283 191.196C330.369 191.185 330.447 191.139 330.5 191.071C330.552 191.002 330.576 190.915 330.564 190.829C330.56 190.785 330.546 190.742 330.524 190.704C330.503 190.665 330.474 190.631 330.439 190.604C330.403 190.577 330.363 190.558 330.321 190.547C330.278 190.536 330.233 190.533 330.189 190.54C323.672 191.407 304.972 202.019 299.533 211.788C299.511 211.825 299.496 211.867 299.491 211.911C299.485 211.954 299.488 211.998 299.5 212.041C299.511 212.083 299.531 212.122 299.558 212.157C299.586 212.191 299.619 212.22 299.658 212.241C299.7 212.27 299.748 212.289 299.798 212.296Z" fill="white"></path> <path d="M216.964 73.1958C216.329 71.6788 215.236 70.3977 213.838 69.5307L209.829 67.1864C209.556 64.6232 208.509 59.9891 204.64 57.215C204.39 57.0358 204.129 56.8715 203.859 56.7226L189.793 48.5955C186.3 46.2511 182.611 47.7124 180.267 49.205L174.797 46.0792C173.646 45.3632 172.306 45.0092 170.952 45.0633V19.7675C170.952 14.6177 169.248 10.9839 166.56 9.39755L151.962 0.949993C149.688 -0.441003 146.695 -0.355047 143.413 1.5439C136.302 5.64655 130.543 16.6573 130.543 26.1286V85.5975C130.543 111.722 124.252 133.024 124.393 154.952C124.463 166.252 129.402 180.912 129.402 185.468V209.169L144.109 217.648L213.346 177.677V152.123C213.346 144.23 214.26 137.635 216.995 116.012C219.73 94.3889 219.691 78.9317 216.964 73.1958Z" fill="#508EC2"></path> <path opacity="0.15" d="M216.964 73.1958C216.329 71.6788 215.236 70.3977 213.838 69.5307L209.829 67.1864C209.556 64.6232 208.509 59.9891 204.64 57.215C204.39 57.0358 204.129 56.8715 203.859 56.7226L189.793 48.5955C186.3 46.2511 182.611 47.7124 180.267 49.205L174.797 46.0792C173.646 45.3632 172.306 45.0092 170.952 45.0633V19.7675C170.952 14.6177 169.248 10.9839 166.56 9.39755L151.962 0.949993C149.688 -0.441003 146.695 -0.355047 143.413 1.5439C136.302 5.64655 130.543 16.6573 130.543 26.1286V85.5975C130.543 111.722 124.252 133.024 124.393 154.952C124.463 166.252 129.402 180.912 129.402 185.468V209.169L144.109 217.648L213.346 177.677V152.123C213.346 144.23 214.26 137.635 216.995 116.012C219.73 94.3889 219.691 78.9317 216.964 73.1958Z" fill="black"></path> <path opacity="0.15" d="M213.651 69.4684C212.498 68.8636 211.155 68.7318 209.907 69.1011C209.914 68.4824 209.883 67.8639 209.814 67.249L213.651 69.4684Z" fill="black"></path> <path opacity="0.15" d="M177.43 57.0362C174.978 59.0487 172.8 61.3737 170.952 63.9521V53.3008L177.43 57.0362Z" fill="black"></path> <path opacity="0.15" d="M180.181 49.2756L189.175 54.4411C190.076 54.9863 190.828 55.7461 191.363 56.6526C191.909 57.5822 192.277 58.605 192.45 59.669C193.67 58.4946 195.071 57.5236 196.599 56.7933L181.916 48.3145C181.316 48.5946 180.736 48.9157 180.181 49.2756Z" fill="black"></path> <path d="M144.077 217.641V193.955C144.077 189.399 139.139 174.739 139.068 163.478C138.928 141.542 145.218 120.24 145.218 94.1233V34.6544C145.218 25.1753 150.978 14.1723 158.089 10.0697C165.192 5.96704 170.952 10.3198 170.952 19.7988V63.9825C170.952 63.9825 177.563 54.4018 184.619 53.6594C191.676 52.917 192.434 59.7157 192.434 59.7157C192.434 59.7157 198.826 53.1749 204.601 57.3088C210.165 61.3021 209.884 69.1323 209.884 69.1323C209.884 69.1323 214.213 67.5694 216.917 73.2506C219.621 78.9318 219.644 94.4515 216.917 116.074C214.19 137.697 213.268 144.293 213.268 152.186V177.7L144.077 217.641Z" fill="#508EC2"></path> <path d="M148.461 209.99C148.27 209.988 148.087 209.91 147.953 209.774C147.818 209.638 147.742 209.455 147.742 209.263V191.423C147.742 189.078 147.117 186.21 145.922 180.959C144.593 175.098 142.796 167.072 142.733 160.868C142.663 150.802 144.054 140.698 145.523 130C147.172 117.981 148.876 105.564 148.876 91.5601V32.4193C148.876 25.9801 152.564 18.5641 157.268 15.5398C159.652 13.9769 162.004 13.7268 163.887 14.7584C166.052 15.9384 167.295 18.6657 167.295 22.2994L168.521 78.963C169.439 75.1048 170.806 71.3674 172.593 67.8272C174.046 64.928 178.063 59.9501 182.65 58.9654C184.432 58.5747 186.268 59.4968 187.198 60.0751C187.803 60.4821 188.361 60.9538 188.863 61.4817C189.289 61.913 189.754 62.3028 190.254 62.6461C191.614 63.537 193.653 62.8962 195.615 62.271C196.681 61.8951 197.814 61.7435 198.943 61.8255C200.071 61.9075 201.17 62.2215 202.171 62.7477C203.808 63.6877 205.041 65.1986 205.633 66.991C205.903 67.8233 206.097 68.6787 206.211 69.5464C206.319 70.3678 206.508 71.1766 206.774 71.9611C206.984 72.6213 207.373 73.2107 207.897 73.6643C208.421 74.1179 209.06 74.4182 209.743 74.5321C211.463 74.7509 212.799 75.8527 213.729 77.7908C215.526 81.5496 216.386 93.9747 213.401 117.575L212.861 121.888C210.517 140.573 209.696 146.895 209.696 154.71V174.371C209.678 174.55 209.594 174.715 209.46 174.836C209.327 174.956 209.153 175.023 208.974 175.023C208.794 175.023 208.621 174.956 208.487 174.836C208.354 174.715 208.269 174.55 208.251 174.371V154.694C208.251 146.77 209.032 140.464 211.423 121.724L211.971 117.395C214.909 94.0998 214.135 81.9872 212.424 78.4159C211.713 76.9233 210.775 76.1263 209.556 75.97C208.613 75.8295 207.729 75.43 207 74.816C206.271 74.2019 205.728 73.3975 205.43 72.4925C205.123 71.6132 204.908 70.7044 204.789 69.7808C204.683 69.0017 204.51 68.2331 204.273 67.4833C203.799 66.0223 202.803 64.7872 201.476 64.0137C200.645 63.584 199.735 63.3302 198.801 63.2684C197.868 63.2065 196.932 63.3379 196.052 63.6542C193.872 64.3419 191.363 65.1233 189.457 63.8574C188.892 63.4625 188.369 63.0122 187.894 62.5133C187.465 62.0618 186.988 61.6582 186.472 61.3098C185.87 60.9347 184.33 60.0907 182.994 60.3799C179.087 61.2082 175.359 65.6157 173.929 68.4758C171.389 73.5709 169.967 78.1815 168.686 85.4959C168.653 85.6753 168.555 85.8362 168.411 85.9474C168.266 86.0587 168.086 86.1122 167.904 86.0977C167.724 86.0841 167.555 86.0037 167.43 85.8721C167.306 85.7406 167.235 85.5675 167.232 85.3865L165.864 22.3151C165.864 19.1892 164.903 16.9464 163.223 16.0634C161.817 15.2819 159.988 15.5554 158.073 16.7902C153.814 19.5331 150.353 26.5584 150.353 32.4193V91.5601C150.353 105.665 148.641 118.13 146.984 130.18C145.515 140.839 144.14 150.896 144.202 160.86C144.242 166.908 146.039 174.848 147.328 180.638C148.547 185.991 149.18 188.906 149.18 191.423V209.263C149.18 209.455 149.105 209.638 148.97 209.774C148.836 209.91 148.653 209.988 148.461 209.99Z" fill="white"></path> <path d="M143.788 152.053H143.718C143.529 152.033 143.354 151.94 143.232 151.794C143.109 151.649 143.048 151.461 143.062 151.271C143.741 144.238 148.008 132.063 151.118 123.186C152.103 120.38 152.955 117.958 153.502 116.215C155.846 108.721 158.011 106.962 164.403 102.532C170.796 98.1008 180.525 89.3015 180.626 89.2468C180.736 89.1485 180.874 89.0862 181.021 89.068C181.167 89.0499 181.316 89.0768 181.447 89.1453C181.673 89.2625 186.87 92.1304 184.651 101.906C182.588 110.971 172.382 122.506 160.91 128.726C160.827 128.771 160.735 128.799 160.64 128.809C160.546 128.818 160.451 128.809 160.36 128.781C160.269 128.754 160.185 128.708 160.111 128.648C160.038 128.587 159.978 128.513 159.933 128.429C159.887 128.346 159.858 128.255 159.847 128.161C159.836 128.066 159.845 127.971 159.872 127.88C159.899 127.789 159.944 127.704 160.004 127.631C160.064 127.557 160.138 127.497 160.222 127.452C171.366 121.412 181.259 110.26 183.236 101.586C184.862 94.4435 182.228 91.5443 181.173 90.7004C179.22 92.4508 170.944 99.7887 165.232 103.751C158.878 108.15 157.128 109.596 154.885 116.684C154.322 118.45 153.471 120.88 152.486 123.717C149.399 132.516 145.172 144.566 144.507 151.451C144.478 151.62 144.389 151.773 144.258 151.883C144.126 151.993 143.96 152.053 143.788 152.053Z" fill="white"></path> <path d="M162.121 146.489C161.998 146.488 161.877 146.456 161.77 146.395C161.602 146.302 161.479 146.145 161.426 145.961C161.373 145.776 161.396 145.579 161.488 145.411C165.018 138.826 166.693 131.406 166.333 123.944C166.316 123.754 166.374 123.566 166.496 123.419C166.618 123.273 166.792 123.18 166.982 123.163C167.171 123.147 167.359 123.206 167.505 123.328C167.651 123.449 167.744 123.622 167.763 123.811C168.194 131.57 166.457 139.295 162.746 146.122C162.683 146.232 162.593 146.324 162.483 146.389C162.373 146.453 162.248 146.488 162.121 146.489Z" fill="white"></path> <path d="M166.232 102.828H166.185C166.089 102.821 165.996 102.796 165.911 102.753C165.825 102.71 165.749 102.65 165.686 102.577C165.624 102.505 165.576 102.421 165.547 102.33C165.517 102.238 165.505 102.142 165.513 102.047C165.513 101.969 166.052 94.5919 167.216 85.2769C167.253 85.0977 167.356 84.939 167.505 84.8324C167.654 84.7258 167.837 84.6792 168.018 84.7019C168.2 84.7246 168.366 84.8149 168.484 84.9548C168.602 85.0947 168.663 85.2739 168.654 85.4566C167.49 94.7247 166.959 102.07 166.959 102.149C166.947 102.333 166.865 102.506 166.73 102.632C166.595 102.759 166.417 102.829 166.232 102.828Z" fill="white"></path> <path d="M167.787 134.641C167.263 134.642 166.74 134.594 166.224 134.501C166.05 134.451 165.901 134.338 165.807 134.184C165.712 134.03 165.677 133.847 165.711 133.669C165.744 133.491 165.842 133.332 165.986 133.223C166.13 133.114 166.31 133.062 166.49 133.078C171.061 133.93 175.867 130.164 177.227 124.686C177.657 122.927 178.79 117.379 180.54 108.205C180.577 108.017 180.686 107.852 180.844 107.745C181.002 107.638 181.197 107.598 181.384 107.634C181.572 107.67 181.737 107.78 181.844 107.938C181.951 108.096 181.991 108.291 181.955 108.478C180.189 117.676 179.071 123.248 178.633 125.037C177.258 130.64 172.593 134.641 167.787 134.641Z" fill="white"></path> <path d="M184.065 94.2944H183.932C183.838 94.2775 183.749 94.2422 183.669 94.1905C183.589 94.1388 183.52 94.0718 183.466 93.9933C183.413 93.9148 183.375 93.8264 183.355 93.7332C183.336 93.64 183.335 93.5439 183.354 93.4505C185.206 83.6353 186.667 75.7582 186.667 75.7582C186.683 75.6649 186.717 75.5757 186.768 75.4958C186.819 75.416 186.885 75.3471 186.963 75.2932C187.041 75.2394 187.129 75.2016 187.222 75.1822C187.314 75.1627 187.41 75.162 187.503 75.18C187.597 75.1959 187.688 75.2306 187.768 75.2819C187.849 75.3332 187.919 75.4001 187.974 75.4787C188.028 75.5573 188.066 75.6461 188.086 75.7397C188.106 75.8333 188.107 75.9299 188.089 76.0239C188.089 76.0239 186.628 83.901 184.776 93.7161C184.742 93.8795 184.652 94.0262 184.523 94.1315C184.393 94.2368 184.232 94.2944 184.065 94.2944Z" fill="white"></path> <path d="M181.056 132C179.98 132.017 178.937 131.623 178.141 130.898C177.528 130.293 177.08 129.54 176.842 128.712C176.604 127.884 176.583 127.009 176.781 126.17C176.798 126.077 176.834 125.987 176.885 125.907C176.937 125.827 177.004 125.759 177.083 125.705C177.161 125.651 177.249 125.613 177.343 125.594C177.436 125.575 177.532 125.574 177.625 125.592C177.809 125.64 177.968 125.753 178.075 125.909C178.181 126.066 178.227 126.256 178.204 126.444C178.054 127.04 178.059 127.665 178.219 128.259C178.379 128.852 178.689 129.395 179.118 129.835C179.527 130.183 180.02 130.418 180.547 130.517C181.075 130.616 181.62 130.575 182.127 130.398C187.597 128.835 189.535 124.584 190.519 121.513C192.379 115.683 198.951 91.7392 200.928 81.5256C200.976 81.3423 201.089 81.1827 201.246 81.0763C201.402 80.97 201.592 80.9241 201.78 80.9473C201.969 80.985 202.134 81.0958 202.241 81.2555C202.348 81.4151 202.387 81.6105 202.351 81.7991C200.366 92.0596 193.755 116.105 191.895 121.95C190.199 127.264 187.128 130.484 182.517 131.789C182.042 131.926 181.55 131.997 181.056 132Z" fill="white"></path> <path d="M194.528 127.804C194.007 127.819 193.489 127.719 193.011 127.511C192.533 127.303 192.106 126.992 191.762 126.6C190.519 125.202 190.199 122.693 190.918 120.208C190.983 120.037 191.11 119.897 191.274 119.815C191.437 119.733 191.626 119.716 191.802 119.768C191.977 119.819 192.127 119.935 192.221 120.092C192.315 120.249 192.347 120.435 192.309 120.614C191.731 122.568 191.95 124.639 192.84 125.639C193.128 125.946 193.494 126.169 193.898 126.286C194.302 126.403 194.731 126.409 195.138 126.303C197.482 125.921 200.522 123.834 202.171 120.052C203.89 116.035 209.439 95.0451 209.493 94.8029C209.509 94.7025 209.546 94.6067 209.601 94.5214C209.656 94.4361 209.729 94.3633 209.814 94.3078C209.899 94.2522 209.994 94.2151 210.095 94.1988C210.195 94.1826 210.297 94.1875 210.396 94.2133C210.494 94.2391 210.586 94.2852 210.665 94.3486C210.744 94.412 210.809 94.4914 210.856 94.5815C210.903 94.6717 210.93 94.7707 210.937 94.8721C210.943 94.9734 210.928 95.075 210.892 95.1701C210.665 96.0376 205.258 116.512 203.5 120.622C201.546 125.202 197.912 127.312 195.404 127.734C195.114 127.78 194.822 127.804 194.528 127.804Z" fill="white"></path> <path d="M173.679 174.348L173.155 179.35C173.111 179.651 173.013 179.942 172.866 180.209C172.735 180.46 172.538 180.671 172.296 180.819L169.561 182.382C169.483 182.438 169.39 182.468 169.295 182.468C169.2 182.468 169.107 182.438 169.029 182.382C168.947 182.309 168.884 182.218 168.844 182.116C168.805 182.014 168.791 181.904 168.803 181.796V181.702L169.318 176.841L165.825 178.857L165.31 183.859C165.266 184.161 165.166 184.453 165.013 184.718C164.884 184.971 164.686 185.183 164.442 185.328L161.715 186.891C161.636 186.946 161.542 186.976 161.445 186.976C161.349 186.976 161.255 186.946 161.176 186.891C161.096 186.816 161.035 186.725 160.997 186.623C160.96 186.522 160.946 186.412 160.957 186.305V186.211L161.473 181.35L159.128 182.686C159.034 182.757 158.918 182.796 158.8 182.796C158.682 182.796 158.566 182.757 158.472 182.686C158.373 182.598 158.297 182.487 158.249 182.364C158.202 182.24 158.184 182.107 158.198 181.975V179.068C158.208 178.705 158.301 178.349 158.472 178.029C158.609 177.71 158.838 177.438 159.128 177.247L162.035 175.567L162.762 168.831L160.027 170.394C159.932 170.465 159.817 170.503 159.699 170.503C159.58 170.503 159.465 170.465 159.37 170.394C159.272 170.306 159.196 170.195 159.148 170.071C159.1 169.948 159.083 169.815 159.097 169.683V166.893C159.105 166.532 159.198 166.179 159.37 165.862C159.512 165.545 159.739 165.274 160.027 165.08L163.348 163.166L163.903 158.188C163.956 157.9 164.048 157.622 164.176 157.359C164.297 157.103 164.49 156.889 164.731 156.742L167.498 155.14C167.577 155.084 167.671 155.055 167.767 155.055C167.864 155.055 167.958 155.084 168.037 155.14C168.117 155.213 168.18 155.305 168.219 155.406C168.259 155.508 168.274 155.617 168.263 155.726V155.867L167.74 160.634L171.202 158.641L171.749 153.663C171.801 153.375 171.896 153.095 172.03 152.835C172.145 152.576 172.339 152.359 172.585 152.217L175.351 150.654C175.429 150.598 175.522 150.568 175.617 150.568C175.712 150.568 175.805 150.598 175.883 150.654C175.963 150.728 176.026 150.819 176.065 150.921C176.104 151.022 176.12 151.132 176.109 151.24V151.342L175.594 156.109L177.938 154.773C178.033 154.702 178.148 154.663 178.266 154.663C178.384 154.663 178.5 154.702 178.594 154.773C178.694 154.861 178.77 154.971 178.818 155.095C178.865 155.219 178.882 155.352 178.868 155.484V158.375C178.864 158.739 178.77 159.096 178.594 159.415C178.45 159.719 178.223 159.977 177.938 160.157L175 161.853L174.304 168.573L177.039 167.01C177.134 166.939 177.249 166.901 177.367 166.901C177.486 166.901 177.601 166.939 177.696 167.01C177.795 167.098 177.871 167.209 177.919 167.333C177.967 167.456 177.984 167.59 177.969 167.721V170.628C177.966 170.992 177.872 171.349 177.696 171.668C177.552 171.973 177.324 172.23 177.039 172.41L173.679 174.348ZM166.45 173.129L169.905 171.129L170.631 164.392L167.138 166.409L166.45 173.129Z" fill="white"></path> <path d="M181.251 155.593C181.168 155.483 181.108 155.357 181.074 155.223C181.041 155.088 181.035 154.949 181.056 154.812C181.097 154.442 181.222 154.086 181.423 153.773L188.925 141.558C189.113 141.269 189.3 140.98 189.496 140.699C189.66 140.445 189.879 140.231 190.137 140.074L192.833 138.511C192.927 138.44 193.042 138.401 193.161 138.401C193.279 138.401 193.394 138.44 193.489 138.511C193.588 138.599 193.665 138.709 193.712 138.833C193.76 138.957 193.777 139.09 193.763 139.222V169.003C193.76 169.367 193.666 169.724 193.489 170.043C193.348 170.359 193.12 170.63 192.833 170.824L190.035 172.434C189.94 172.505 189.825 172.543 189.707 172.543C189.588 172.543 189.473 172.505 189.379 172.434C189.278 172.345 189.2 172.233 189.151 172.108C189.102 171.983 189.084 171.848 189.097 171.715V148.896L184.19 156.813C184.04 157.095 183.805 157.322 183.518 157.461C183.412 157.509 183.293 157.524 183.179 157.503C183.064 157.482 182.959 157.427 182.877 157.344L181.251 155.593Z" fill="white"></path> <path d="M300.674 209.622C300.976 211.317 301.138 213.034 301.158 214.756C301.221 217.882 301.791 218.984 301.869 221.539C301.955 224.47 301.447 225.564 300.267 227.205C299.087 228.846 295.962 230.331 294.649 227.564C293.336 224.798 293.5 222.962 293.922 220.094C294.344 217.226 294.414 215.491 294.664 213.225C294.883 211.232 295.149 209.724 295.149 209.724L300.674 209.622Z" fill="#263238"></path> <path d="M291.843 185.1L302.112 184.912C301.963 191.773 300.869 203.183 300.697 209.622C300.658 210.833 300.697 218.999 300.267 221.523C299.58 225.267 295.141 224.759 294.899 222.524C294.657 220.289 295.188 210.708 295.172 209.723C295.172 205.597 293.281 194.821 292.265 187.421C292.195 187.053 291.843 185.451 291.843 185.1Z" fill="#FFA8A7"></path> <path d="M276.722 204.284C276.722 204.284 277.254 204.284 277.339 204.745C277.415 205.475 277.527 206.2 277.676 206.918C278.02 208.245 278.145 209.621 278.043 210.989C277.863 211.942 275.698 213.373 274.182 213.623C272.666 213.873 270.58 215.35 269.408 216.451C267.528 218.006 265.201 218.92 262.765 219.062C260.265 219.062 258.53 218.233 257.709 216.897C256.889 215.561 258.491 215.397 261.312 213.544L263.523 212.114C268.04 209.16 269.697 207.582 270.971 204.628L276.722 204.284Z" fill="#263238"></path> <path d="M270.939 202.675C271.01 200.573 269.963 184.943 269.963 184.943L278.801 185.936C276.714 198.439 276.542 202.659 276.777 204.472C276.824 204.642 276.842 204.819 276.832 204.996C276.832 207.418 274.096 208.723 271.963 210.341C271.119 210.974 268.954 212.943 266.415 213.803C264.774 214.365 261.726 214.584 261.351 213.576C263.945 211.599 267.478 209.004 269.541 206.746C270.486 205.636 270.861 204.8 270.939 202.675Z" fill="#FFA8A7"></path> <path d="M299.658 115.097C304.48 125.624 299.525 161.805 299.525 161.805C299.674 163.509 301.627 166.877 302.354 174.394C303.214 183.28 300.791 207.059 300.791 207.059C300.791 207.059 298.447 208.818 295.04 207.184C295.04 207.184 288.788 172.238 287.702 163.423C286.733 155.718 284.865 138.768 284.865 138.768L279.559 163.384C280.333 165.869 280.895 168.415 281.239 170.995C281.747 176.192 276.683 202.253 276.683 202.253C275.772 202.632 274.793 202.817 273.808 202.798C272.822 202.779 271.851 202.557 270.955 202.144C270.955 202.144 268.712 168.448 268.243 162.188C267.462 151.677 270.588 119.208 271.885 112.3L299.658 115.097Z" fill="#455A64"></path> <path d="M284.849 138.745L283.286 128.961C283.286 128.961 276.667 127.594 273.659 124.772C275.729 127.199 278.435 128.999 281.473 129.969L283.232 137.502L280.161 160.298L284.849 138.745Z" fill="#37474F"></path> <path d="M235.868 80.2282C238.399 76.5866 239.712 77.5947 240.697 80.9237C241.092 82.331 241.684 83.6755 242.455 84.9169C242.425 84.1938 242.498 83.47 242.674 82.7679C242.754 82.3958 242.968 82.0657 243.274 81.8398C243.581 81.6139 243.959 81.5077 244.339 81.541C244.659 81.6192 244.417 82.4006 244.698 83.7135C245.057 85.3858 245.761 86.222 245.683 88.0818C245.662 88.7795 245.892 89.4614 246.331 90.0042C248.535 92.7862 254.834 97.5375 259.288 100.945C262.062 97.3812 268.267 89.4103 271.244 85.6046C275.323 80.3845 276.644 78.3605 281.403 77.8525C279.969 78.5002 278.714 79.4872 277.746 80.7283C275.902 82.9476 278.269 93.3723 278.269 93.3723C278.269 93.3723 264.203 107.775 262.711 109.173C262.492 109.377 262.273 109.564 262.046 109.736C261.328 110.288 260.444 110.582 259.537 110.569C258.631 110.556 257.756 110.238 257.053 109.666C252.919 106.329 246.534 99.5067 242.924 95.9589C241.27 94.2461 239.74 92.4181 238.345 90.4887C234.445 85.3155 234.281 82.5178 235.868 80.2282Z" fill="#FFA8A7"></path> <path d="M291.062 78.1655C297.314 78.5953 297.743 81.6039 299.306 84.9016C300.45 87.4409 300.556 90.3262 299.603 92.9428L295.251 105.524C295.251 105.524 297.29 110.447 299.65 115.097C288.71 121.185 275.112 117.989 271.83 113.534C271.69 112.589 272.534 105.22 273.057 100.406C271.135 95.5842 270.627 92.5287 271.432 89.3403C272.94 83.4247 278.785 77.6653 281.372 77.8685L291.062 78.1655Z" fill="#508EC2"></path> <path opacity="0.15" d="M288.288 116.277C289.142 116.08 289.949 115.714 290.661 115.202C291.372 114.689 291.974 114.04 292.432 113.292C292.89 112.544 293.194 111.712 293.326 110.845C293.459 109.978 293.417 109.094 293.203 108.243C293.164 108.11 293.125 107.993 293.094 107.899C292.943 107.442 292.643 107.049 292.242 106.783C291.841 106.516 291.362 106.392 290.882 106.43C291.582 105.966 292.183 105.368 292.651 104.67C293.119 103.973 293.444 103.19 293.609 102.367L294.18 100.616C295.498 96.6402 295.566 92.3557 294.375 88.3396V88.2302L299.017 85.5889L299.799 86.1515C300.463 88.376 300.403 90.7544 299.627 92.9424L295.274 105.524C295.274 105.524 297.314 110.447 299.674 115.097C296.124 117.007 292.206 118.135 288.184 118.405C284.161 118.675 280.128 118.079 276.355 116.66C280.321 117.285 284.37 117.155 288.288 116.277Z" fill="black"></path> <path d="M314.756 66.7091C309.582 78.892 302.518 86.1361 299.267 93.9507C295 93.6616 291.679 83.3698 294.852 78.9701C294.852 78.9701 307.051 64.9039 308.184 59.6134C309.184 54.9247 311.356 47.3914 311.239 43.4138C311.202 42.7497 310.924 42.1218 310.458 41.6477C309.145 40.2333 309.145 39.1002 308.301 37.5451C307.644 36.3338 306.933 35.8806 307.137 35.607C307.405 35.3169 307.774 35.1394 308.169 35.1104C308.563 35.0814 308.954 35.203 309.262 35.4507C309.868 35.8951 310.41 36.421 310.872 37.0137C310.65 35.5275 310.219 34.0804 309.59 32.7156C308.145 29.4413 308.496 27.769 312.919 28.9334C315.693 29.668 317.428 31.9733 317.842 38.6313C318.04 41.4015 318.055 44.1816 317.889 46.9538C317.413 52.0802 316.889 56.9877 316.256 61.2389C315.987 63.1179 315.483 64.9557 314.756 66.7091Z" fill="#FFA8A7"></path> <path d="M325.493 29.0036C325.252 28.0289 324.743 27.1411 324.024 26.4404C323.963 25.1211 323.582 23.8364 322.914 22.6972C321.711 20.4388 320.374 20.2591 320.374 20.2591C320.159 19.0741 319.587 17.9833 318.733 17.1332C317.264 15.5703 315.881 15.9845 315.881 15.9845V6.77111C315.866 5.76356 315.615 4.77358 315.148 3.8806C314.681 2.98761 314.012 2.21649 313.193 1.62911C312.936 1.44623 312.634 1.33778 312.32 1.31572C312.005 1.29366 311.691 1.35884 311.411 1.50408L308.418 3.2311L308.301 3.29362C308.002 3.55033 307.771 3.87591 307.627 4.24219C307.482 4.60848 307.429 5.00441 307.473 5.39574V17.8287C307.473 23.2989 306.152 26.2216 306.183 30.84C306.183 33.1844 307.23 37.4746 307.23 38.4202V43.3746L321.703 51.7284L324.774 49.9545V44.6249C324.774 42.9761 324.962 41.8117 325.556 37.9591C326.149 34.1065 326.063 30.8556 325.493 29.0036Z" fill="#508EC2"></path> <path opacity="0.15" d="M325.493 29.0036C325.252 28.0289 324.743 27.1411 324.024 26.4404C323.963 25.1211 323.582 23.8364 322.914 22.6972C321.711 20.4388 320.374 20.2591 320.374 20.2591C320.159 19.0741 319.587 17.9833 318.733 17.1332C317.264 15.5703 315.881 15.9845 315.881 15.9845V6.77111C315.866 5.76356 315.615 4.77358 315.148 3.8806C314.681 2.98761 314.012 2.21649 313.193 1.62911C312.936 1.44623 312.634 1.33778 312.32 1.31572C312.005 1.29366 311.691 1.35884 311.411 1.50408L308.418 3.2311L308.301 3.29362C308.002 3.55033 307.771 3.87591 307.627 4.24219C307.482 4.60848 307.429 5.00441 307.473 5.39574V17.8287C307.473 23.2989 306.152 26.2216 306.183 30.84C306.183 33.1844 307.23 37.4746 307.23 38.4202V43.3746L321.703 51.7284L324.774 49.9545V44.6249C324.774 42.9761 324.962 41.8117 325.556 37.9591C326.149 34.1065 326.063 30.8556 325.493 29.0036Z" fill="black"></path> <path opacity="0.15" d="M319.038 49.4L321.664 51.7443L324.735 49.9704V44.6409C324.735 42.992 324.922 41.8276 325.516 37.975C326.11 34.1225 326.087 30.8716 325.516 29.0195C325.52 29.0041 325.52 28.9881 325.516 28.9727L319.827 32.2626L319.038 49.4Z" fill="black"></path> <path opacity="0.15" d="M324.024 26.4325C323.973 25.3059 323.682 24.203 323.172 23.1973L319.82 25.1353L318.179 26.9717L320.953 28.2142L324.024 26.4403V26.4325Z" fill="black"></path> <path opacity="0.15" d="M315.522 20.525L317.303 22.0333L320.374 20.2593C320.262 19.5195 319.996 18.8114 319.593 18.1807L315.522 20.525Z" fill="black"></path> <path opacity="0.15" d="M315.881 15.9683L312.81 17.7344V8.50536L315.881 6.73145V15.9683Z" fill="black"></path> <path d="M307.191 43.375V38.4206C307.191 37.475 306.16 33.2161 306.144 30.8404C306.144 26.222 307.433 23.2837 307.433 17.8291V5.39615C307.433 3.41906 308.637 2.50476 310.122 3.36436C310.94 3.95174 311.61 4.72286 312.077 5.61584C312.544 6.50883 312.795 7.49881 312.81 8.50635V17.7119C312.81 17.7119 314.193 17.3056 315.662 18.8529C316.514 19.7041 317.086 20.7943 317.303 21.9787C317.303 21.9787 318.64 22.1584 319.843 24.4168C320.511 25.556 320.892 26.8407 320.953 28.16C321.672 28.8607 322.181 29.7485 322.422 30.7232C323 32.5753 323 35.8183 322.422 39.6787C321.844 43.5391 321.64 44.6957 321.64 46.3445V51.6741L307.191 43.375Z" fill="#508EC2"></path> <path d="M320.757 50.1259C320.737 50.1269 320.717 50.1239 320.698 50.1169C320.679 50.1099 320.662 50.0991 320.647 50.0852C320.633 50.0713 320.621 50.0546 320.613 50.0361C320.605 50.0175 320.601 49.9976 320.601 49.9774V45.8435C320.662 43.7871 320.884 41.7386 321.265 39.7169L321.383 38.9354C322 34.778 321.828 32.0351 321.468 30.8629C321.321 30.368 321.088 29.9026 320.781 29.4876C320.418 29.0241 320.153 28.4926 319.999 27.9246C319.943 27.6956 319.901 27.4634 319.874 27.2291C319.846 27.0189 319.807 26.8102 319.757 26.604C319.622 26.0554 319.409 25.529 319.124 25.0411C318.799 24.482 318.388 23.9782 317.905 23.5485C317.387 23.1621 316.95 22.6791 316.616 22.1262C316.506 21.923 316.405 21.7042 316.311 21.5011C316.217 21.2979 316.108 21.0713 315.99 20.8681C315.782 20.4524 315.519 20.0661 315.209 19.7193C314.349 18.9379 313.646 19.016 313.412 19.1879C312.811 19.7887 312.436 20.5779 312.349 21.4229C312.341 21.4595 312.32 21.4919 312.29 21.5137C312.259 21.5354 312.222 21.5448 312.185 21.5401C312.149 21.5381 312.115 21.5224 312.09 21.4963C312.066 21.4701 312.052 21.4355 312.052 21.3995L311.763 7.88025C311.755 7.22715 311.59 6.58555 311.281 6.01004C310.972 5.43452 310.529 4.94212 309.989 4.57469C309.848 4.49451 309.69 4.45234 309.528 4.45234C309.366 4.45234 309.207 4.49451 309.067 4.57469C308.871 4.73935 308.719 4.94941 308.624 5.18646C308.529 5.42351 308.493 5.68033 308.52 5.93442V18.3518C308.498 20.7902 308.262 23.222 307.816 25.6193C307.454 27.5105 307.261 29.4299 307.238 31.3552C307.343 33.0043 307.562 34.6441 307.895 36.2628C308.092 37.1477 308.223 38.0464 308.285 38.951V42.7176C308.29 42.7405 308.29 42.7643 308.285 42.7872C308.28 42.8101 308.27 42.8315 308.255 42.8498C308.24 42.8682 308.222 42.883 308.201 42.8932C308.18 42.9034 308.156 42.9087 308.133 42.9087C308.109 42.9087 308.086 42.9034 308.065 42.8932C308.044 42.883 308.025 42.8682 308.011 42.8498C307.996 42.8315 307.986 42.8101 307.981 42.7872C307.975 42.7643 307.975 42.7405 307.981 42.7176V38.9901C307.916 38.1043 307.788 37.2242 307.598 36.3566C307.262 34.7198 307.04 33.0618 306.933 31.3943C306.958 29.4532 307.154 27.5181 307.519 25.6115C307.965 23.2298 308.2 20.8137 308.223 18.3909V5.98912C308.192 5.68337 308.238 5.37468 308.358 5.09183C308.479 4.80899 308.669 4.56118 308.91 4.37151C309.094 4.26442 309.303 4.20801 309.516 4.20801C309.729 4.20801 309.938 4.26442 310.122 4.37151C310.711 4.76435 311.197 5.29472 311.536 5.91688C311.875 6.53904 312.057 7.23432 312.068 7.94277L312.333 20.407C312.489 19.8707 312.795 19.3905 313.216 19.0238C313.544 18.7425 314.435 18.6409 315.412 19.563C315.754 19.9293 316.046 20.3393 316.28 20.7821C316.397 20.9931 316.506 21.2197 316.608 21.4307C316.709 21.6417 316.803 21.8449 316.905 22.0403C317.221 22.5606 317.635 23.0145 318.124 23.3766C318.637 23.8211 319.07 24.3496 319.405 24.9395C319.7 25.4271 319.926 25.953 320.077 26.5024C320.132 26.729 320.163 26.9478 320.195 27.1588C320.221 27.3829 320.262 27.6049 320.32 27.8231C320.461 28.3418 320.702 28.8277 321.031 29.2531C321.365 29.6966 321.617 30.197 321.773 30.7301C322.148 31.9335 322.32 34.7233 321.695 38.9354L321.586 39.7169C321.202 41.725 320.98 43.7607 320.921 45.8044V49.9149C320.934 49.9399 320.939 49.9679 320.936 49.9956C320.933 50.0234 320.923 50.0498 320.906 50.0718C320.888 50.0938 320.865 50.1106 320.839 50.1202C320.813 50.1297 320.785 50.1317 320.757 50.1259Z" fill="#FAFAFA"></path> <path d="M313.904 29.9102C312.706 29.8278 311.552 29.4287 310.559 28.7537C310.542 28.7441 310.527 28.731 310.515 28.7153C310.504 28.6996 310.495 28.6816 310.491 28.6625C310.486 28.6433 310.486 28.6235 310.49 28.6042C310.493 28.5849 310.501 28.5666 310.512 28.5505C310.522 28.5335 310.535 28.5187 310.551 28.5067C310.566 28.4948 310.584 28.486 310.603 28.4809C310.622 28.4759 310.641 28.4746 310.661 28.4771C310.68 28.4797 310.699 28.486 310.716 28.4958C312.279 29.4414 313.763 29.8243 314.623 29.4882C314.798 29.4254 314.955 29.3216 315.081 29.1857C315.207 29.0497 315.3 28.8855 315.35 28.7068C315.53 27.6708 315.336 26.6044 314.803 25.6982C313.653 25.4052 312.527 25.0264 311.435 24.5651C310.067 23.9321 309.817 23.893 309.411 24.7135C309.293 24.948 309.114 25.2527 308.903 25.6044C308.112 26.7656 307.552 28.0684 307.254 29.4414C307.259 29.4642 307.259 29.488 307.254 29.5109C307.249 29.5338 307.238 29.5552 307.224 29.5735C307.209 29.5919 307.19 29.6067 307.169 29.6169C307.148 29.6271 307.125 29.6324 307.101 29.6324C307.078 29.6324 307.055 29.6271 307.034 29.6169C307.012 29.6067 306.994 29.5919 306.979 29.5735C306.965 29.5552 306.954 29.5338 306.949 29.5109C306.944 29.488 306.944 29.4642 306.949 29.4414C307.251 28.0255 307.827 26.6823 308.645 25.4872C308.848 25.1355 309.028 24.8386 309.137 24.6119C309.684 23.5101 310.239 23.7133 311.56 24.3228C312.655 24.7814 313.784 25.1575 314.935 25.4481C314.955 25.4529 314.973 25.4615 314.99 25.4736C315.006 25.4857 315.019 25.501 315.029 25.5184C315.076 25.5888 316.1 27.3392 315.639 28.824C315.575 29.0447 315.459 29.2471 315.302 29.4142C315.144 29.5814 314.949 29.7085 314.732 29.7852C314.465 29.8742 314.185 29.9165 313.904 29.9102Z" fill="#FAFAFA"></path> <path d="M310.966 32.856C310.933 32.8545 310.903 32.843 310.877 32.8233C310.852 32.8035 310.833 32.7764 310.824 32.7456C310.814 32.7148 310.815 32.6819 310.825 32.6513C310.835 32.6207 310.854 32.594 310.88 32.5747C312.044 31.7932 311.841 29.3551 311.841 29.3316C311.836 29.3088 311.836 29.285 311.841 29.2621C311.846 29.2392 311.856 29.2178 311.871 29.1995C311.886 29.1811 311.904 29.1663 311.925 29.1561C311.947 29.1459 311.97 29.1406 311.993 29.1406C312.017 29.1406 312.04 29.1459 312.061 29.1561C312.082 29.1663 312.101 29.1811 312.115 29.1995C312.13 29.2178 312.14 29.2392 312.146 29.2621C312.151 29.285 312.151 29.3088 312.146 29.3316C312.146 29.4411 312.364 31.9886 311.044 32.856C311.018 32.863 310.991 32.863 310.966 32.856Z" fill="#FAFAFA"></path> <path d="M311.825 24.7452C311.787 24.7413 311.751 24.7232 311.725 24.6943C311.699 24.6654 311.684 24.6278 311.685 24.5889C311.685 24.5889 311.802 23.1589 312.044 21.4631C312.047 21.4435 312.054 21.4246 312.064 21.4077C312.074 21.3907 312.088 21.376 312.104 21.3643C312.12 21.3527 312.138 21.3444 312.157 21.3398C312.176 21.3353 312.196 21.3347 312.216 21.3381C312.236 21.3398 312.256 21.3458 312.273 21.3557C312.291 21.3656 312.306 21.3792 312.318 21.3955C312.33 21.4118 312.338 21.4304 312.342 21.4502C312.346 21.47 312.346 21.4903 312.341 21.51C312.099 23.1667 311.989 24.5733 311.989 24.5889C311.991 24.6105 311.987 24.632 311.979 24.6521C311.971 24.6721 311.959 24.6902 311.943 24.7051C311.928 24.72 311.909 24.7313 311.889 24.7382C311.868 24.7451 311.847 24.7475 311.825 24.7452Z" fill="#FAFAFA"></path> <path d="M313.724 32.762C313.162 32.762 312.443 32.2306 311.763 31.3163C311.748 31.3031 311.736 31.2869 311.728 31.2687C311.719 31.2505 311.715 31.2308 311.715 31.2108C311.715 31.1909 311.719 31.1712 311.728 31.153C311.736 31.1348 311.748 31.1185 311.763 31.1053C311.777 31.0914 311.793 31.0803 311.811 31.0728C311.829 31.0652 311.849 31.0613 311.868 31.0613C311.888 31.0613 311.907 31.0652 311.925 31.0728C311.943 31.0803 311.96 31.0914 311.974 31.1053C312.755 32.1603 313.435 32.4729 313.771 32.4182C313.857 32.4017 313.936 32.3604 313.999 32.2992C314.061 32.2381 314.104 32.1599 314.123 32.0743C314.217 31.8087 314.451 30.9256 314.818 29.433C314.823 29.414 314.831 29.3961 314.843 29.3803C314.854 29.3645 314.869 29.3511 314.885 29.341C314.902 29.3308 314.921 29.3241 314.94 29.3211C314.959 29.3181 314.979 29.319 314.998 29.3236C315.017 29.3282 315.035 29.3365 315.051 29.348C315.066 29.3595 315.08 29.3741 315.09 29.3908C315.1 29.4075 315.107 29.426 315.11 29.4453C315.113 29.4646 315.112 29.4844 315.107 29.5033C314.74 31.0037 314.506 31.9024 314.412 32.1681C314.373 32.3062 314.297 32.431 314.193 32.5288C314.088 32.6267 313.958 32.6938 313.818 32.723L313.724 32.762Z" fill="#FAFAFA"></path> <path d="M315.553 27.2465C315.534 27.2419 315.516 27.2337 315.5 27.2221C315.484 27.2106 315.471 27.1961 315.461 27.1794C315.451 27.1627 315.444 27.1441 315.441 27.1248C315.438 27.1055 315.439 27.0858 315.443 27.0668L316.131 24.1676C316.142 24.1286 316.168 24.0954 316.203 24.075C316.238 24.0546 316.279 24.0486 316.319 24.0582C316.338 24.0628 316.356 24.0711 316.371 24.0826C316.387 24.0941 316.4 24.1086 316.411 24.1253C316.421 24.142 316.428 24.1606 316.431 24.1799C316.434 24.1992 316.433 24.2189 316.428 24.2379C316.428 24.2379 316.123 25.5273 315.733 27.1371C315.728 27.1561 315.72 27.174 315.708 27.1898C315.697 27.2056 315.682 27.219 315.665 27.2292C315.649 27.2393 315.63 27.2461 315.611 27.2491C315.591 27.2521 315.572 27.2512 315.553 27.2465Z" fill="#FAFAFA"></path> <path d="M316.412 35.3181C315.904 35.2489 315.434 35.006 315.084 34.6304C314.744 34.3437 314.472 33.9841 314.29 33.5783C314.107 33.1725 314.018 32.7309 314.029 32.2861C314.04 32.2487 314.064 32.2168 314.098 32.1966C314.131 32.1763 314.171 32.1692 314.209 32.1766C314.229 32.1813 314.248 32.1898 314.264 32.2017C314.281 32.2136 314.295 32.2287 314.306 32.2461C314.317 32.2635 314.324 32.2829 314.328 32.3032C314.331 32.3235 314.331 32.3442 314.326 32.3642C314.335 32.7491 314.425 33.1277 314.591 33.4752C314.756 33.8227 314.994 34.1312 315.287 34.3804C315.803 34.8258 316.225 35.0368 316.506 34.9821C316.598 34.9573 316.683 34.9101 316.753 34.8447C316.822 34.7792 316.874 34.6976 316.905 34.607C317.765 32.7199 318.491 30.7745 319.077 28.7851C319.088 28.7478 319.113 28.7159 319.146 28.6956C319.179 28.6754 319.219 28.6683 319.257 28.6757C319.277 28.6802 319.296 28.6887 319.312 28.7008C319.328 28.7128 319.342 28.7281 319.352 28.7457C319.363 28.7633 319.369 28.7828 319.372 28.803C319.374 28.8233 319.372 28.8438 319.366 28.8633C318.774 30.8731 318.043 32.8394 317.178 34.7476C317.124 34.8782 317.04 34.9943 316.933 35.0866C316.825 35.1789 316.698 35.2448 316.561 35.279L316.412 35.3181Z" fill="#FAFAFA"></path> <path d="M319.03 37.5604C318.549 37.4863 318.107 37.249 317.78 36.8883C317.449 36.5885 317.202 36.2069 317.065 35.7817C316.928 35.3565 316.905 34.9027 316.998 34.4658C317.006 34.4478 317.017 34.4316 317.031 34.4179C317.045 34.4043 317.062 34.3935 317.08 34.3863C317.098 34.379 317.118 34.3754 317.137 34.3756C317.157 34.3759 317.176 34.38 317.194 34.3877C317.212 34.3954 317.228 34.4065 317.242 34.4205C317.255 34.4345 317.266 34.451 317.273 34.4692C317.281 34.4873 317.284 34.5067 317.284 34.5262C317.284 34.5458 317.28 34.5651 317.272 34.583C317.204 34.9651 317.236 35.3581 317.363 35.7247C317.49 36.0913 317.709 36.4192 317.999 36.6773C318.272 36.9953 318.653 37.2012 319.069 37.2556C319.124 37.2526 319.178 37.2386 319.228 37.2145C319.278 37.1903 319.322 37.1565 319.358 37.115C319.941 35.9908 320.447 34.829 320.875 33.6375C320.887 33.6002 320.914 33.5694 320.949 33.5518C320.984 33.5342 321.025 33.5313 321.062 33.5437C321.1 33.5578 321.131 33.5861 321.148 33.6225C321.166 33.6589 321.169 33.7007 321.156 33.7391C320.714 34.9627 320.192 36.1557 319.593 37.3103C319.459 37.456 319.275 37.5454 319.077 37.5604H319.03Z" fill="#FAFAFA"></path> <path d="M313.38 41.4684L313.271 42.3905C313.269 42.4121 313.262 42.433 313.251 42.4518C313.24 42.4706 313.226 42.487 313.208 42.4999C313.191 42.511 313.171 42.517 313.15 42.517C313.129 42.517 313.109 42.511 313.091 42.4999L312.521 42.1717C312.469 42.1441 312.428 42.1002 312.403 42.0467C312.373 41.9915 312.357 41.9298 312.357 41.8669L312.466 40.9761L311.739 40.5541L311.63 41.4762C311.624 41.5193 311.601 41.5584 311.567 41.5856C311.55 41.5967 311.529 41.6026 311.509 41.6026C311.488 41.6026 311.468 41.5967 311.45 41.5856L310.88 41.2574C310.829 41.2278 310.789 41.1844 310.762 41.1324C310.732 41.0772 310.716 41.0155 310.716 40.9526L310.825 40.0618L310.34 39.7804C310.285 39.7392 310.239 39.6857 310.208 39.6242C310.17 39.5571 310.149 39.4822 310.145 39.4054V38.8036C310.142 38.7745 310.146 38.745 310.157 38.7177C310.168 38.6905 310.185 38.6663 310.208 38.6473C310.227 38.6339 310.25 38.6267 310.274 38.6267C310.298 38.6267 310.321 38.6339 310.34 38.6473L310.95 38.9912L311.098 37.7643L310.528 37.4361C310.472 37.3948 310.427 37.3413 310.395 37.2798C310.357 37.2127 310.336 37.1378 310.333 37.061V36.4514C310.331 36.4235 310.335 36.3956 310.346 36.3698C310.357 36.344 310.374 36.3211 310.395 36.303C310.414 36.2884 310.438 36.2805 310.462 36.2805C310.486 36.2805 310.509 36.2884 310.528 36.303L311.223 36.7093L311.341 35.8028C311.347 35.7616 311.366 35.7234 311.395 35.6934C311.412 35.6801 311.433 35.6729 311.454 35.6729C311.475 35.6729 311.496 35.6801 311.513 35.6934L312.091 36.0216C312.141 36.053 312.179 36.0996 312.2 36.1545C312.23 36.2069 312.246 36.2661 312.247 36.3264L312.146 37.1938L312.865 37.6158L312.982 36.7093C312.988 36.6681 313.007 36.6299 313.036 36.5999C313.053 36.5866 313.074 36.5793 313.095 36.5793C313.116 36.5793 313.137 36.5866 313.154 36.5999L313.732 36.9281C313.78 36.9613 313.818 37.0073 313.841 37.061C313.871 37.1134 313.887 37.1726 313.888 37.2329L313.787 38.1081L314.271 38.3816C314.327 38.4229 314.372 38.4764 314.404 38.5379C314.439 38.6054 314.458 38.6805 314.459 38.7567V39.3663C314.462 39.3936 314.459 39.4213 314.449 39.4472C314.44 39.473 314.424 39.4962 314.404 39.5148C314.385 39.5293 314.362 39.5372 314.338 39.5372C314.314 39.5372 314.29 39.5293 314.271 39.5148L313.654 39.1553L313.505 40.3978L314.076 40.726C314.138 40.7625 314.187 40.8171 314.216 40.8823C314.253 40.9466 314.272 41.0194 314.271 41.0933V41.7028C314.275 41.7302 314.272 41.7582 314.263 41.7841C314.253 41.8101 314.237 41.8332 314.216 41.8513C314.196 41.8665 314.171 41.8748 314.146 41.8748C314.121 41.8748 314.096 41.8665 314.076 41.8513L313.38 41.4684ZM311.864 39.4679L312.591 39.8899L312.739 38.6552L312.013 38.2332L311.864 39.4679Z" fill="#FAFAFA"></path> <path d="M314.959 39.3734C314.928 39.3076 314.914 39.2349 314.92 39.1624C314.919 39.1352 314.927 39.1085 314.94 39.0851C314.954 39.0616 314.974 39.0424 314.998 39.0296L316.561 38.2481H316.678C316.699 38.2372 316.721 38.2314 316.745 38.2314C316.768 38.2314 316.791 38.2372 316.811 38.2481L317.374 38.5763C317.435 38.6129 317.484 38.6674 317.514 38.7326C317.551 38.7969 317.57 38.8697 317.569 38.9436V45.1953C317.572 45.2226 317.569 45.2503 317.56 45.2762C317.55 45.302 317.535 45.3252 317.514 45.3438C317.494 45.359 317.469 45.3672 317.444 45.3672C317.419 45.3672 317.394 45.359 317.374 45.3438L316.788 44.9999C316.727 44.9647 316.68 44.9095 316.655 44.8436C316.616 44.7798 316.595 44.7071 316.592 44.6326V39.8735L315.568 40.3502C315.547 40.3626 315.523 40.3691 315.498 40.3691C315.473 40.3691 315.449 40.3626 315.428 40.3502C315.37 40.3019 315.324 40.2402 315.295 40.1705L314.959 39.3734Z" fill="#FAFAFA"></path> <path d="M271.705 76.1496H285.404C288.911 76.1496 292.274 74.7565 294.754 72.2769C297.233 69.7972 298.626 66.4341 298.626 62.9273V60.1609C298.626 56.4573 297.155 52.9053 294.536 50.2864C291.917 47.6676 288.365 46.1963 284.662 46.1963C281.23 46.1963 277.938 47.5581 275.508 49.9829C273.079 52.4077 271.711 55.6972 271.705 59.1294V76.1496Z" fill="#263238"></path> <path d="M276.214 53.7217C275.519 54.089 273.651 57.629 273.87 65.4436C274.018 72.0391 276.152 73.6645 277.23 74.1334C278.308 74.6022 280.356 74.3209 282.38 73.9849V77.8844C282.38 77.8844 279.606 81.1118 279.778 82.9248C279.95 84.7377 283.794 85.1675 286.397 83.4015C288.08 82.1852 289.527 80.6701 290.663 78.9315V69.3977C290.875 69.6568 291.136 69.8713 291.431 70.0287C291.726 70.186 292.05 70.2832 292.383 70.3144C292.716 70.3457 293.052 70.3105 293.371 70.2108C293.69 70.1111 293.986 69.9489 294.242 69.7338C296.462 68.2568 296.548 64.6074 295.258 63.2945C293.969 61.9817 291.179 62.4037 290.663 64.2167C290.663 64.2167 287.405 64.7871 283.036 61.9739C278.246 58.9418 276.792 56.5193 276.214 53.7217Z" fill="#FFA8A7"></path> <path d="M275.097 61.0977L276.941 60.2147C276.89 60.0915 276.815 59.9799 276.72 59.8869C276.624 59.7939 276.511 59.7214 276.386 59.6738C276.262 59.6262 276.129 59.6046 275.996 59.6103C275.863 59.6159 275.732 59.6487 275.612 59.7067C275.365 59.8285 275.173 60.0407 275.077 60.2994C274.981 60.5582 274.988 60.8439 275.097 61.0977Z" fill="#263238"></path> <path d="M282.724 60.5126L284.451 61.5988C284.527 61.4902 284.581 61.3672 284.608 61.2372C284.635 61.1072 284.636 60.973 284.61 60.8428C284.583 60.7126 284.531 60.5891 284.455 60.48C284.379 60.3708 284.282 60.2782 284.169 60.2079C283.935 60.0632 283.655 60.0141 283.386 60.0709C283.116 60.1276 282.879 60.2858 282.724 60.5126Z" fill="#263238"></path> <path d="M290.671 62.3955L290.554 66.4278C290.289 66.4332 290.026 66.3848 289.78 66.2857C289.535 66.1866 289.312 66.0387 289.125 65.851C288.938 65.6634 288.791 65.4398 288.693 65.1937C288.594 64.9477 288.547 64.6843 288.553 64.4195C288.579 63.8749 288.814 63.3611 289.208 62.9844C289.602 62.6077 290.126 62.3969 290.671 62.3955Z" fill="#263238"></path> <path d="M292.625 49.4541L294.36 45.8125C294.605 45.9139 294.827 46.0643 295.013 46.2545C295.198 46.4446 295.342 46.6706 295.438 46.9185C295.533 47.1664 295.576 47.4311 295.566 47.6965C295.555 47.9618 295.49 48.2221 295.376 48.4616C295.133 48.949 294.711 49.324 294.199 49.5089C293.687 49.6937 293.123 49.6741 292.625 49.4541Z" fill="#263238"></path> <path d="M293.516 49.2276L297.532 48.876C297.569 49.1382 297.553 49.4052 297.484 49.6608C297.414 49.9164 297.294 50.1552 297.129 50.3628C296.965 50.5704 296.76 50.7424 296.527 50.8683C296.294 50.9942 296.038 51.0714 295.774 51.0953C295.229 51.1352 294.69 50.9632 294.27 50.6152C293.849 50.2672 293.579 49.7701 293.516 49.2276Z" fill="#263238"></path> <path d="M281.895 63.5133C281.894 63.6757 281.94 63.835 282.029 63.9712C282.117 64.1075 282.244 64.2147 282.393 64.2796C282.542 64.3445 282.707 64.3641 282.867 64.3361C283.027 64.308 283.175 64.2335 283.293 64.1219C283.411 64.0103 283.494 63.8664 283.53 63.7082C283.567 63.5499 283.557 63.3844 283.5 63.2321C283.444 63.0797 283.344 62.9474 283.213 62.8515C283.081 62.7556 282.925 62.7004 282.763 62.6927C282.652 62.6896 282.542 62.7083 282.438 62.7479C282.334 62.7875 282.24 62.847 282.159 62.9232C282.078 62.9994 282.014 63.0908 281.968 63.192C281.923 63.2932 281.898 63.4024 281.895 63.5133Z" fill="#263238"></path> <path d="M280.903 69.3496L278.981 69.967C279.016 70.0954 279.076 70.2156 279.158 70.3202C279.241 70.4248 279.343 70.5118 279.46 70.5759C279.577 70.6401 279.705 70.6801 279.837 70.6937C279.97 70.7072 280.104 70.6939 280.231 70.6546C280.49 70.567 280.706 70.3817 280.831 70.1382C280.957 69.8946 280.982 69.6118 280.903 69.3496Z" fill="#F28F8F"></path> <path d="M275.487 63.1615C275.478 63.2727 275.491 63.3845 275.525 63.4907C275.559 63.5968 275.614 63.695 275.687 63.7794C275.76 63.8639 275.849 63.9329 275.949 63.9825C276.049 64.0321 276.158 64.0612 276.269 64.068C276.486 64.0728 276.696 63.9945 276.858 63.8493C277.019 63.7041 277.118 63.5028 277.136 63.2866C277.145 63.1757 277.131 63.0642 277.097 62.9585C277.062 62.8529 277.007 62.7551 276.934 62.6709C276.861 62.5866 276.773 62.5176 276.673 62.4677C276.574 62.4178 276.466 62.388 276.355 62.3801C276.138 62.3754 275.927 62.4536 275.766 62.5988C275.605 62.744 275.505 62.9453 275.487 63.1615Z" fill="#263238"></path> <path d="M279.535 62.6924L279.403 67.6781L276.777 66.8654L279.535 62.6924Z" fill="#F28F8F"></path> <path d="M282.31 73.9765C284.435 73.6951 288.796 72.4135 289.476 70.7178C289.195 71.5962 288.649 72.3661 287.913 72.9215C286.608 74.039 282.278 75.2659 282.278 75.2659L282.31 73.9765Z" fill="#F28F8F"></path> <path d="M93.8609 71.0075C95.9708 67.952 96.3694 62.4115 97.3149 42.625C97.4322 40.2806 91.1492 44.4223 90.6491 45.9618C90.2427 47.1965 88.6642 64.4667 87.3592 66.1703C84.6162 68.8819 74.3401 74.5163 70.1124 75.1805C65.8847 75.8447 65.2751 78.8377 65.2751 78.8377C65.2751 78.8377 69.9639 88.9967 76.2859 85.4723C80.4823 83.1436 92.4152 73.1096 93.8609 71.0075Z" fill="#B16668"></path> <path d="M66.4943 75.5855C68.6042 74.9526 70.2609 74.0226 73.121 72.9598C76.9424 71.4907 81.2951 69.7246 81.2951 69.7246C81.2951 69.7246 88.0859 72.9208 85.8432 79.4225L75.4967 86.2212L66.4943 75.5855Z" fill="#455A64"></path> <path d="M102.246 19.3913C102.115 19.068 101.885 18.7944 101.589 18.6099L100.753 18.1253C100.723 17.7232 100.612 17.3314 100.425 16.9739C100.238 16.6165 99.9802 16.3009 99.6671 16.0467L99.4952 15.9451L96.5491 14.2415C96.2428 14.0599 95.8889 13.9747 95.5335 13.997C95.1781 14.0193 94.8376 14.1481 94.5564 14.3665L93.4233 13.7101C93.1909 13.5598 92.9184 13.4835 92.6418 13.4913V8.22428C92.6876 7.81346 92.6268 7.39777 92.4653 7.01727C92.3038 6.63677 92.047 6.30428 91.7197 6.05183L88.6642 4.29355C88.3835 4.14676 88.0677 4.08072 87.7517 4.1028C87.4358 4.12487 87.1322 4.23419 86.8747 4.41858C85.3899 5.27036 84.1864 7.54441 84.1864 9.55275V21.9779C84.1864 27.4481 82.8736 31.8946 82.9048 36.474C82.9048 38.8184 83.952 41.8973 83.952 42.8507V47.7973L87.0231 49.5712L101.496 41.2174V35.8879C101.603 33.3581 101.864 30.8372 102.277 28.339C102.816 23.8222 102.816 20.5869 102.246 19.3913Z" fill="#508EC2"></path> <path opacity="0.15" d="M102.246 19.3913C102.115 19.068 101.885 18.7944 101.589 18.6099L100.753 18.1253C100.723 17.7232 100.612 17.3314 100.425 16.9739C100.238 16.6165 99.9802 16.3009 99.6671 16.0467L99.4952 15.9451L96.5491 14.2415C96.2428 14.0599 95.8889 13.9747 95.5335 13.997C95.1781 14.0193 94.8376 14.1481 94.5564 14.3665L93.4233 13.7101C93.1909 13.5598 92.9184 13.4835 92.6418 13.4913V8.22428C92.6876 7.81346 92.6268 7.39777 92.4653 7.01727C92.3038 6.63677 92.047 6.30428 91.7197 6.05183L88.6642 4.29355C88.3835 4.14676 88.0677 4.08072 87.7517 4.1028C87.4358 4.12487 87.1322 4.23419 86.8747 4.41858C85.3899 5.27036 84.1864 7.54441 84.1864 9.55275V21.9779C84.1864 27.4481 82.8736 31.8946 82.9048 36.474C82.9048 38.8184 83.952 41.8973 83.952 42.8507V47.7973L87.0231 49.5712L101.496 41.2174V35.8879C101.603 33.3581 101.864 30.8372 102.277 28.339C102.816 23.8222 102.816 20.5869 102.246 19.3913Z" fill="black"></path> <path opacity="0.15" d="M101.551 18.6105C101.31 18.4848 101.03 18.4568 100.769 18.5323C100.778 18.4022 100.778 18.2717 100.769 18.1416L101.551 18.6105Z" fill="black"></path> <path opacity="0.15" d="M93.986 16.007C93.4759 16.4297 93.0216 16.9155 92.634 17.4527V15.2334L93.986 16.007Z" fill="black"></path> <path opacity="0.15" d="M94.5565 14.3897L96.4788 15.4681C96.669 15.5813 96.8255 15.7431 96.9321 15.937C97.0493 16.1278 97.1264 16.3405 97.1587 16.5622C97.4162 16.3158 97.7118 16.1126 98.034 15.9604L94.9159 14.1943C94.7906 14.2489 94.6704 14.3142 94.5565 14.3897Z" fill="black"></path> <path d="M87.0154 49.5714V44.6248C87.0154 43.6714 85.9838 40.6081 85.9682 38.2481C85.9682 33.6609 87.2498 29.2144 87.2498 23.752V11.3268C87.2498 9.34974 88.4532 7.04444 89.9458 6.19265C91.4306 5.33305 92.634 6.23954 92.634 8.22444V17.4535C92.634 17.4535 94.0094 15.4529 95.4864 15.2966C95.6773 15.2682 95.8721 15.2786 96.0589 15.3275C96.2458 15.3763 96.4207 15.4625 96.5734 15.5808C96.726 15.6991 96.8531 15.8471 96.9469 16.0158C97.0408 16.1845 97.0996 16.3705 97.1196 16.5626C97.1196 16.5626 98.4559 15.195 99.6672 16.0625C100.024 16.3653 100.308 16.7444 100.499 17.1718C100.69 17.5993 100.782 18.064 100.769 18.5319C100.769 18.5319 101.676 18.1958 102.246 19.3915C102.816 20.5871 102.816 23.8223 102.246 28.3392C101.833 30.8374 101.572 33.3583 101.465 35.8881V41.2176L87.0154 49.5714Z" fill="#508EC2"></path> <path d="M87.9296 47.9692C87.8903 47.9692 87.8525 47.9535 87.8246 47.9257C87.7968 47.8978 87.7812 47.8601 87.7812 47.8207V44.0931C87.7269 43.3528 87.5986 42.6198 87.3983 41.9051C87.0417 40.531 86.8193 39.1256 86.734 37.7086C86.7726 35.5456 86.9685 33.3883 87.3201 31.2538C87.7403 28.5983 87.9727 25.9164 88.0156 23.2282V10.8655C88.0241 10.1835 88.1867 9.5123 88.4911 8.902C88.7956 8.29169 89.2341 7.75811 89.7739 7.34117C89.9662 7.18765 90.1977 7.09093 90.4421 7.06193C90.6865 7.03294 90.9341 7.07281 91.1571 7.17705C91.4046 7.35012 91.6011 7.58643 91.7262 7.86134C91.8513 8.13624 91.9003 8.43966 91.8682 8.73997L92.1261 20.5869C92.3117 19.7731 92.5978 18.9856 92.9779 18.2425C93.1881 17.8113 93.4813 17.4258 93.8406 17.108C94.2 16.7902 94.6185 16.5464 95.0722 16.3904C95.4082 16.344 95.7493 16.4279 96.0255 16.6249C96.1529 16.7083 96.2708 16.8052 96.3772 16.914C96.461 17.0057 96.5555 17.087 96.6585 17.1563C96.9398 17.3438 97.3697 17.211 97.776 17.0781C97.999 17.0017 98.2351 16.9713 98.4702 16.9888C98.7053 17.0062 98.9343 17.0712 99.1436 17.1797C99.4902 17.3735 99.7501 17.6921 99.8703 18.0706C99.9284 18.2434 99.9703 18.4213 99.9954 18.602C100.01 18.7734 100.05 18.9418 100.113 19.1021C100.155 19.2403 100.236 19.3639 100.345 19.4591C100.454 19.5544 100.587 19.6174 100.73 19.6413C100.917 19.6714 101.092 19.75 101.239 19.8693C101.386 19.9886 101.499 20.1445 101.566 20.3212C101.941 21.1026 102.121 23.7049 101.496 28.6359L101.379 29.5424C101.014 31.8106 100.795 34.0997 100.722 36.3958V40.5062C100.72 40.5463 100.703 40.5841 100.674 40.6117C100.645 40.6394 100.606 40.6548 100.566 40.6547C100.527 40.6528 100.49 40.6366 100.463 40.6091C100.435 40.5817 100.419 40.545 100.417 40.5062V36.3958C100.489 34.0863 100.711 31.784 101.082 29.5033L101.168 28.6515C101.785 23.7909 101.621 21.2589 101.269 20.5087C101.223 20.3784 101.143 20.2627 101.037 20.1734C100.931 20.0842 100.804 20.0246 100.667 20.0008C100.471 19.9706 100.287 19.8867 100.135 19.7585C99.9836 19.6302 99.8703 19.4626 99.8078 19.274C99.7399 19.0897 99.6927 18.8983 99.6671 18.7036C99.6469 18.5421 99.6129 18.3826 99.5655 18.2269C99.4633 17.9224 99.2554 17.6646 98.9795 17.5001C98.8056 17.4113 98.6156 17.3585 98.4209 17.3451C98.2261 17.3317 98.0307 17.3578 97.8463 17.422C97.6334 17.5311 97.3991 17.5919 97.16 17.6C96.9209 17.6081 96.683 17.5633 96.4632 17.4689C96.3458 17.3878 96.2383 17.2934 96.1428 17.1875C96.0517 17.0952 95.9523 17.0115 95.8458 16.9375C95.634 16.7891 95.3767 16.7199 95.119 16.7421C94.2913 17.0375 93.6105 17.6426 93.2201 18.4301C92.6696 19.5526 92.3003 20.7554 92.1261 21.9935C92.117 22.0293 92.0955 22.0607 92.0655 22.0821C92.0354 22.1036 91.9988 22.1137 91.962 22.1107C91.9438 22.1107 91.9259 22.1071 91.9092 22.0999C91.8926 22.0928 91.8776 22.0823 91.8652 22.0691C91.8527 22.0559 91.8431 22.0403 91.8369 22.0233C91.8307 22.0063 91.8281 21.9881 91.8291 21.9701L91.54 8.78686C91.572 8.53851 91.5375 8.2861 91.44 8.05544C91.3425 7.82479 91.1856 7.62414 90.9851 7.47401C90.8104 7.39732 90.6178 7.37059 90.4288 7.3968C90.2398 7.42302 90.0618 7.50114 89.9145 7.62249C89.4194 8.01452 89.0174 8.51159 88.7377 9.07782C88.458 9.64405 88.3074 10.2653 88.2969 10.8968V23.2595C88.2522 25.9609 88.0172 28.6558 87.5936 31.3241C87.2484 33.4462 87.0552 35.5903 87.0153 37.7399C87.0998 39.1359 87.3196 40.5203 87.6718 41.8738C87.8802 42.6083 88.0111 43.3626 88.0625 44.1244V47.852C88.0559 47.8832 88.0394 47.9114 88.0155 47.9325C87.9915 47.9537 87.9614 47.9665 87.9296 47.9692Z" fill="white"></path> <path d="M86.9528 35.8639C86.9333 35.8619 86.9143 35.8561 86.8971 35.8468C86.8798 35.8375 86.8645 35.8248 86.8522 35.8095C86.8398 35.7943 86.8306 35.7767 86.8251 35.7579C86.8196 35.739 86.8178 35.7193 86.82 35.6998C87.1929 33.6947 87.7555 31.7297 88.5001 29.831C88.7111 29.2449 88.883 28.737 89.0003 28.3775C89.4926 26.8146 89.9458 26.4395 91.2821 25.5174C92.6184 24.5952 94.6502 22.751 94.6658 22.7354C94.6905 22.7164 94.7207 22.7061 94.7518 22.7061C94.7829 22.7061 94.8131 22.7164 94.8378 22.7354C94.8846 22.7354 95.9709 23.3605 95.5098 25.4001C95.08 27.2991 92.9466 29.706 90.5476 31.0032C90.5306 31.013 90.5119 31.0193 90.4926 31.0219C90.4732 31.0244 90.4535 31.0231 90.4346 31.0181C90.4157 31.013 90.398 31.0042 90.3825 30.9923C90.3671 30.9803 90.3541 30.9655 90.3444 30.9485C90.3249 30.9122 90.3205 30.8697 90.3322 30.8301C90.3439 30.7906 90.3707 30.7573 90.4069 30.7375C92.7513 29.4794 94.7987 27.1506 95.2129 25.3376C95.5567 23.845 95.0019 23.2355 94.7831 23.0636C94.3767 23.4231 92.6419 24.9625 91.454 25.7909C90.1256 26.7052 89.7583 27.01 89.2894 28.4869C89.1722 28.862 88.9925 29.37 88.7893 29.956C88.0509 31.832 87.491 33.7734 87.117 35.7545C87.1077 35.7896 87.0859 35.8202 87.0557 35.8404C87.0254 35.8605 86.9888 35.8689 86.9528 35.8639Z" fill="white"></path> <path d="M90.7819 34.6998C90.759 34.707 90.7345 34.707 90.7116 34.6998C90.6775 34.68 90.6521 34.6481 90.6405 34.6104C90.6289 34.5728 90.6319 34.5321 90.6491 34.4966C91.3862 33.1205 91.7373 31.5705 91.665 30.011C91.6623 29.9711 91.6744 29.9316 91.6989 29.8999C91.7233 29.8683 91.7585 29.8466 91.7978 29.8391C91.838 29.8369 91.8775 29.8503 91.9081 29.8765C91.9387 29.9027 91.9579 29.9397 91.9619 29.9798C92.063 31.6102 91.6999 33.236 90.9148 34.6685C90.8971 34.6846 90.8756 34.6959 90.8524 34.7013C90.8291 34.7068 90.8049 34.7063 90.7819 34.6998Z" fill="white"></path> <path d="M91.6416 25.581C91.6213 25.5801 91.6015 25.575 91.5833 25.5661C91.5652 25.5572 91.549 25.5447 91.5358 25.5293C91.5226 25.514 91.5127 25.4961 91.5067 25.4767C91.5007 25.4574 91.4988 25.437 91.5009 25.4169C91.5009 25.4169 91.6181 23.854 91.8604 21.916C91.8623 21.8964 91.8681 21.8775 91.8774 21.8602C91.8868 21.8429 91.8994 21.8277 91.9147 21.8153C91.93 21.8029 91.9475 21.7937 91.9664 21.7882C91.9852 21.7827 92.005 21.781 92.0245 21.7831C92.0448 21.785 92.0645 21.791 92.0823 21.8009C92.1002 21.8107 92.1158 21.8241 92.1283 21.8402C92.1408 21.8563 92.1498 21.8748 92.1548 21.8946C92.1598 21.9144 92.1606 21.9349 92.1573 21.9551C91.9151 23.8853 91.8057 25.4247 91.8057 25.4404C91.8017 25.4804 91.7824 25.5174 91.7518 25.5436C91.7213 25.5698 91.6818 25.5832 91.6416 25.581Z" fill="white"></path> <path d="M91.9698 32.2306C91.8606 32.2382 91.7509 32.2382 91.6416 32.2306C91.6028 32.2212 91.5691 32.1974 91.5473 32.164C91.5255 32.1306 91.5173 32.0901 91.5244 32.0508C91.532 32.0126 91.5542 31.979 91.5864 31.9571C91.6185 31.9351 91.658 31.9267 91.6963 31.9336C92.2217 31.9726 92.7428 31.8151 93.1586 31.4917C93.5745 31.1683 93.8554 30.7019 93.9469 30.1831C94.0329 29.808 94.2673 28.6202 94.6346 26.7369C94.6382 26.7174 94.6456 26.6988 94.6564 26.6822C94.6672 26.6655 94.6811 26.6512 94.6974 26.6399C94.7138 26.6287 94.7321 26.6208 94.7515 26.6166C94.7709 26.6125 94.7909 26.6122 94.8104 26.6158C94.8299 26.6194 94.8485 26.6268 94.8652 26.6376C94.8818 26.6483 94.8962 26.6623 94.9074 26.6786C94.9187 26.6949 94.9266 26.7133 94.9307 26.7327C94.9349 26.7521 94.9352 26.7721 94.9316 26.7916C94.5643 28.714 94.3298 29.9174 94.2361 30.2535C94.1227 30.7837 93.8406 31.2629 93.4321 31.6193C93.0235 31.9757 92.5105 32.1902 91.9698 32.2306Z" fill="white"></path> <path d="M95.3691 23.7991C95.3495 23.7962 95.3307 23.7895 95.3137 23.7793C95.2967 23.769 95.282 23.7555 95.2703 23.7395C95.2587 23.7234 95.2504 23.7053 95.2458 23.686C95.2413 23.6667 95.2407 23.6467 95.2441 23.6272C95.6348 21.5719 95.9396 19.9309 95.9396 19.9309C95.9424 19.9113 95.9492 19.8924 95.9594 19.8755C95.9696 19.8585 95.9831 19.8438 95.9992 19.8321C96.0152 19.8205 96.0334 19.8121 96.0527 19.8076C96.072 19.8031 96.092 19.8025 96.1115 19.8058C96.1517 19.8134 96.1873 19.8365 96.2107 19.8701C96.2341 19.9038 96.2434 19.9452 96.2365 19.9856C96.2365 19.9856 95.9317 21.6266 95.541 23.6819C95.5317 23.7191 95.5091 23.7516 95.4774 23.7732C95.4457 23.7949 95.4071 23.8041 95.3691 23.7991Z" fill="white"></path> <path d="M94.744 31.6753C94.5195 31.6792 94.3018 31.5983 94.1344 31.4486C94.0051 31.3219 93.9106 31.1641 93.86 30.9902C93.8093 30.8164 93.8043 30.6325 93.8453 30.4562C93.8546 30.4174 93.8785 30.3836 93.9119 30.3618C93.9453 30.3401 93.9858 30.3319 94.025 30.339C94.0444 30.3417 94.063 30.3484 94.0797 30.3588C94.0963 30.3691 94.1106 30.3828 94.1216 30.399C94.1327 30.4152 94.1402 30.4335 94.1438 30.4528C94.1473 30.472 94.1468 30.4918 94.1422 30.5109C94.1138 30.6363 94.1167 30.7669 94.1508 30.8909C94.1849 31.015 94.249 31.1287 94.3376 31.222C94.4218 31.2957 94.5242 31.3454 94.6342 31.3661C94.7441 31.3867 94.8576 31.3774 94.9628 31.3392C95.3947 31.2134 95.7852 30.9747 96.0942 30.6478C96.4033 30.3209 96.6196 29.9176 96.7211 29.4794C97.1118 28.2681 98.4793 23.2277 98.8935 21.1256C98.9028 21.0868 98.9267 21.053 98.9601 21.0312C98.9935 21.0094 99.034 21.0013 99.0733 21.0083C99.112 21.0177 99.1458 21.0415 99.1676 21.0749C99.1894 21.1083 99.1976 21.1488 99.1905 21.1881C98.7763 23.3293 97.4009 28.3541 97.0102 29.5731C96.8921 30.0576 96.6487 30.5024 96.3044 30.8632C95.9602 31.2239 95.5271 31.4878 95.0487 31.6284C94.9499 31.6586 94.8473 31.6744 94.744 31.6753Z" fill="white"></path> <path d="M97.5572 30.8009C97.4488 30.8016 97.3413 30.7797 97.2418 30.7367C97.1422 30.6936 97.0527 30.6303 96.9789 30.5508C96.8446 30.3585 96.7587 30.1365 96.7288 29.9038C96.6989 29.6711 96.7257 29.4346 96.807 29.2145C96.8113 29.1947 96.8198 29.1761 96.832 29.1599C96.8442 29.1437 96.8597 29.1303 96.8775 29.1207C96.8953 29.111 96.915 29.1053 96.9352 29.104C96.9554 29.1027 96.9757 29.1057 96.9946 29.1129C97.0137 29.1183 97.0316 29.1274 97.0472 29.1399C97.0627 29.1523 97.0756 29.1677 97.0851 29.1852C97.0946 29.2027 97.1004 29.2219 97.1023 29.2417C97.1042 29.2615 97.1021 29.2815 97.0962 29.3005C97.0309 29.4713 97.0067 29.6552 97.0257 29.8371C97.0448 30.0191 97.1064 30.1939 97.2056 30.3476C97.2659 30.4106 97.3416 30.4567 97.4252 30.4814C97.5088 30.506 97.5974 30.5084 97.6823 30.4883C98.013 30.4027 98.3187 30.2397 98.5741 30.0128C98.8295 29.7859 99.0274 29.5016 99.1514 29.1833C99.5031 28.3393 100.667 23.9475 100.714 23.9006C100.727 23.8626 100.753 23.8306 100.787 23.8104C100.822 23.7903 100.863 23.7835 100.902 23.7912C100.941 23.8022 100.974 23.8279 100.994 23.8629C101.015 23.8979 101.021 23.9394 101.011 23.9787C100.964 24.1585 99.8313 28.4409 99.4484 29.3005C99.3103 29.6674 99.0841 29.9947 98.7897 30.2536C98.4954 30.5125 98.1419 30.6951 97.7604 30.7852L97.5572 30.8009Z" fill="white"></path> <path d="M93.1967 40.5219L93.0951 41.5691C93.0825 41.6316 93.0615 41.692 93.0326 41.7488C93.0059 41.8032 92.9619 41.8472 92.9075 41.8739L92.3371 42.2099C92.3211 42.2213 92.302 42.2275 92.2824 42.2275C92.2628 42.2275 92.2436 42.2213 92.2277 42.2099C92.2101 42.1946 92.1966 42.1751 92.1884 42.1533C92.1803 42.1315 92.1776 42.108 92.1808 42.0849L92.2902 41.069L91.5634 41.4909L91.454 42.5303C91.4427 42.5931 91.4216 42.6538 91.3915 42.71C91.3654 42.7642 91.3248 42.8102 91.2743 42.8429L90.7038 43.1711C90.6863 43.1822 90.666 43.1881 90.6452 43.1881C90.6245 43.1881 90.6042 43.1822 90.5866 43.1711C90.5691 43.1558 90.5556 43.1363 90.5474 43.1145C90.5392 43.0927 90.5366 43.0691 90.5397 43.046L90.6491 42.0301L90.1646 42.3115C90.1099 42.3115 90.063 42.3115 90.0318 42.3115C90.0105 42.2933 89.9938 42.2704 89.983 42.2446C89.9721 42.2189 89.9674 42.1909 89.9693 42.163V41.5535C89.9727 41.4766 89.9941 41.4017 90.0318 41.3347C90.0582 41.2697 90.1048 41.2149 90.1646 41.1784L90.7742 40.8345L90.9226 39.4201L90.3522 39.7561C90.3337 39.7721 90.3101 39.7808 90.2858 39.7808C90.2614 39.7808 90.2378 39.7721 90.2193 39.7561C90.1981 39.7379 90.1814 39.715 90.1705 39.6893C90.1597 39.6635 90.155 39.6355 90.1568 39.6076V38.9981C90.1603 38.9213 90.1817 38.8463 90.2193 38.7793C90.2486 38.7161 90.2945 38.662 90.3522 38.623L91.0477 38.2245L91.1649 37.1851C91.1724 37.1249 91.1909 37.0666 91.2196 37.0132C91.2458 36.959 91.2863 36.913 91.3368 36.8803L91.9151 36.5521C91.9305 36.5394 91.9498 36.5325 91.9698 36.5325C91.9898 36.5325 92.0091 36.5394 92.0245 36.5521C92.0411 36.5682 92.0539 36.5878 92.062 36.6094C92.0701 36.631 92.0733 36.6542 92.0714 36.6772L91.962 37.6696L92.6887 37.2554L92.806 36.2161C92.8135 36.1559 92.832 36.0976 92.8607 36.0442C92.8868 35.99 92.9274 35.944 92.9779 35.9113L93.5562 35.5831C93.5716 35.5704 93.5909 35.5635 93.6109 35.5635C93.6308 35.5635 93.6502 35.5704 93.6656 35.5831C93.6821 35.5992 93.6949 35.6188 93.703 35.6404C93.7111 35.662 93.7144 35.6851 93.7125 35.7082L93.6031 36.7006L94.0876 36.4193C94.1086 36.4061 94.133 36.3991 94.1579 36.3991C94.1827 36.3991 94.2071 36.4061 94.2282 36.4193C94.2486 36.4378 94.2641 36.461 94.2737 36.4869C94.2832 36.5127 94.2864 36.5404 94.2829 36.5678V37.1773C94.2824 37.2536 94.2637 37.3286 94.2282 37.3961C94.1962 37.4599 94.1476 37.5138 94.0876 37.5524L93.478 37.9041L93.3295 39.3107L93.9 38.9747C93.9211 38.9615 93.9455 38.9545 93.9703 38.9545C93.9952 38.9545 94.0196 38.9615 94.0407 38.9747C94.061 38.9932 94.0766 39.0164 94.0861 39.0422C94.0956 39.0681 94.0988 39.0958 94.0954 39.1231V39.7327C94.0949 39.8089 94.0761 39.884 94.0407 39.9515C94.0086 40.0152 93.96 40.0692 93.9 40.1078L93.1967 40.5219ZM91.6885 40.2719L92.4152 39.8499L92.5637 38.4433L91.837 38.8652L91.6885 40.2719Z" fill="white"></path> <path d="M94.7831 36.6065C94.7654 36.582 94.7529 36.5541 94.7462 36.5245C94.7395 36.495 94.7387 36.4644 94.744 36.4346C94.7523 36.3565 94.7791 36.2815 94.8222 36.2158L96.3851 33.6683L96.5023 33.4885C96.5389 33.4345 96.5869 33.3891 96.643 33.3557L97.2056 33.0275C97.2252 33.014 97.2483 33.0068 97.2721 33.0068C97.2958 33.0068 97.3189 33.014 97.3385 33.0275C97.3597 33.0456 97.3765 33.0685 97.3873 33.0943C97.3982 33.1201 97.4028 33.148 97.401 33.1759V39.4276C97.3985 39.5021 97.377 39.5747 97.3385 39.6386C97.3111 39.703 97.2648 39.7575 97.2056 39.7949L96.6195 40.1387C96.5992 40.154 96.5746 40.1622 96.5492 40.1622C96.5238 40.1622 96.4992 40.154 96.4789 40.1387C96.4585 40.1202 96.443 40.097 96.4334 40.0712C96.4239 40.0453 96.4207 40.0176 96.4242 39.9903V35.2312L95.4005 36.8879C95.3662 36.9459 95.3178 36.9943 95.2598 37.0285C95.2382 37.0402 95.214 37.0463 95.1895 37.0463C95.1649 37.0463 95.1408 37.0402 95.1191 37.0285L94.7831 36.6065Z" fill="white"></path> <path d="M49.2787 215.24H55.6085V204.409H49.2787V215.24Z" fill="#B16668"></path> <path d="M55.6164 212.115V211.216C56.2181 211.474 57.6247 216.843 60.1332 219.133C62.1337 220.953 64.8219 223.04 65.5487 225.087C66.2755 227.135 61.7586 228.362 59.8909 228.033C57.7263 227.65 53.9675 226.127 53.0297 224.712C52.092 223.298 51.6387 221.211 50.8729 220.172C50.1071 219.133 48.341 217.976 47.9268 216.78C47.7002 216.124 47.9737 214.678 48.2941 213.459C48.6145 212.24 48.9036 211.115 49.2866 211.216V211.904C50.1774 212.604 51.2794 212.982 52.4124 212.975C53.3736 213.006 55.6242 212.826 55.6164 212.115Z" fill="#263238"></path> <path d="M66.7991 207.136L73.1211 207.355L73.4337 195.891L66.7991 195.672V207.136Z" fill="#B16668"></path> <path d="M73.1835 205.403C73.5118 205.403 73.7853 205.879 74.5042 206.661C75.5863 207.758 76.8467 208.665 78.2318 209.341C80.5761 210.529 85.2024 212.35 87.2889 213.295C88.5939 213.881 88.5314 215.452 87.1873 216.343C85.8432 217.234 82.5923 217.906 78.685 217.015C76.5594 216.538 73.7931 214.577 72.0426 214.671C70.2922 214.764 67.01 214.757 65.7206 213.889C64.4312 213.022 64.9392 211.092 65.3065 209.458C65.705 207.669 66.2051 204.887 66.799 205.012V205.621C67.5805 206.778 71.4878 207.247 73.1523 206.403L73.1835 205.403Z" fill="#263238"></path> <path d="M46.5905 123.521C46.5905 129.569 47.6611 164.711 47.6611 164.711C47.5127 166.454 45.8403 169.541 45.7075 175.808C45.5199 184.889 49.0131 209.825 49.0131 209.825C50.104 210.361 51.299 210.651 52.514 210.675C53.7291 210.699 54.9347 210.457 56.0462 209.966C56.0462 209.966 58.9141 176.16 60.0472 167.173C61.0397 159.359 62.7198 138.009 62.7198 138.009L65.6972 163.625C64.9663 166.924 64.7032 170.31 64.9157 173.683C65.2049 177.84 66.3771 203.589 66.3771 203.589C67.4801 204.211 68.7062 204.582 69.9687 204.678C71.2312 204.774 72.4994 204.592 73.6837 204.144C73.6837 204.144 78.1458 167.415 78.224 163.625C78.3021 159.273 76.5673 114.87 76.5673 114.87L46.5905 123.521Z" fill="#37474F"></path> <path d="M62.7355 138.009C66.0052 136.991 69.0117 135.268 71.5425 132.961C71.5425 132.961 69.8467 136.141 64.7907 139.103L65.4628 161.469L62.7355 138.009Z" fill="#263238"></path> <path d="M42.7067 67.9128C42.0815 67.5612 39.1042 68.874 37.2365 71.3044C35.3688 73.7347 35.0484 77.22 35.5876 77.978C36.1268 78.736 43.4022 75.8134 43.4022 75.8134L42.7067 67.9128Z" fill="#37474F"></path> <path d="M50.7479 79.0713C49.3567 79.6903 48.2628 80.829 47.7002 82.2441C47.2001 83.51 45.6997 85.5574 45.6997 87.9721L46.7703 100.116L46.5906 123.56C55.6711 128.35 67.2211 128.67 76.9111 121.598C76.9111 121.598 76.3641 91.4575 76.3641 86.5343C76.3641 86.3076 76.3641 86.081 76.3641 85.8544C76.2219 83.4323 75.2897 81.1236 73.7104 79.2818C72.1311 77.4399 69.9916 76.1665 67.6196 75.6564C65.9082 75.2734 56.5229 77.2193 56.5229 77.2193L50.7636 79.1182L50.7479 79.0713Z" fill="#508EC2"></path> <path d="M30.8989 69.2868C31.9773 71.7249 44.7619 88.8232 47.833 92.9181C55.8195 89.0498 49.9352 79.727 49.9352 79.727C49.9352 79.727 40.714 66.2547 39.2136 63.9807C38.859 63.3989 38.6202 62.7541 38.5103 62.0817C38.2836 60.847 36.9473 45.6711 37.4865 41.0918C37.5899 40.2737 37.987 39.521 38.604 38.974C40.2529 37.5049 40.7921 36.192 41.9252 34.4884C42.8161 33.1678 43.6991 32.7223 43.4881 32.3863C43.211 32.0223 42.8065 31.7766 42.3558 31.6983C41.9051 31.62 41.4414 31.7151 41.0578 31.9643C40.2047 32.4942 39.4177 33.1238 38.7134 33.8398C39.0622 32.0584 39.6982 30.3455 40.5967 28.7682C42.6363 25.15 42.4097 23.1807 37.174 24.0794C33.8996 24.6186 30.8051 27.3225 29.5938 34.9651C29.3153 37.7222 29.2083 40.4939 29.2734 43.2642C29.2109 49.6878 29.4453 59.8468 29.7814 64.2854C29.9064 66.5282 29.8126 66.8564 30.8989 69.2868Z" fill="#B16668"></path> <path d="M51.9358 78.665L42.7067 67.9121C42.7067 67.9121 43.2069 76.0002 35.572 77.9773L46.1217 92.7312C47.3095 94.9584 50.998 92.3092 52.0217 87.4798C53.4518 80.728 51.9358 78.665 51.9358 78.665Z" fill="#455A64"></path> <path d="M55.7883 77.4135L54.7177 77.7651C56.0528 79.5334 57.9575 80.7866 60.1098 81.3129C63.6498 82.1413 66.252 81.2582 66.9475 80.0704C67.643 78.8826 66.4865 76.8274 65.2752 75.999L55.7883 77.4135Z" fill="#455A64"></path> <path d="M58.2968 56.0033C58.2968 57.7235 58.8069 59.4051 59.7626 60.8354C60.7183 62.2658 62.0767 63.3805 63.6659 64.0389C65.2552 64.6972 67.004 64.8694 68.6912 64.5338C70.3784 64.1982 71.9281 63.3698 73.1445 62.1534C74.3609 60.9371 75.1893 59.3873 75.5249 57.7001C75.8605 56.0129 75.6882 54.2641 75.0299 52.6749C74.3716 51.0856 73.2568 49.7272 71.8265 48.7715C70.3962 47.8158 68.7146 47.3057 66.9944 47.3057C64.6876 47.3057 62.4754 48.222 60.8442 49.8531C59.2131 51.4843 58.2968 53.6965 58.2968 56.0033Z" fill="#263238"></path> <path d="M51.9357 62.1924C51.9357 62.1924 53.3502 68.8191 53.9128 69.9054C54.2907 70.5765 54.9116 71.0772 55.6477 71.3042L55.5461 66.6154L51.9357 62.1924Z" fill="#263238"></path> <path d="M53.7331 52.7128C53.2401 52.6534 52.7401 52.7078 52.2714 52.8717C51.8027 53.0356 51.3778 53.3047 51.0292 53.6583C49.8727 54.8461 50.5213 58.5581 51.9591 62.1918L54.6161 62.4966L53.7331 52.7128Z" fill="#263238"></path> <path d="M55.4132 62.5041C54.8818 62.8167 54.1238 61.8008 53.4674 61.1131C52.811 60.4255 50.6698 59.4877 49.5992 61.7383C48.5286 63.9889 50.5369 67.0679 52.2249 67.5992C55.1319 68.5057 55.5695 66.6459 55.5695 66.6459L55.7883 77.4144C59.3986 82.0484 69.4326 81.6967 65.2518 76.8517V73.6634C66.5433 73.8693 67.8534 73.9348 69.1591 73.8587C71.3003 73.5305 72.6444 71.8426 73.293 69.5294C74.3323 65.8097 74.7309 62.8089 73.8478 55.5023C72.8788 47.4923 63.556 47.4064 58.5234 50.5713C53.4908 53.7362 55.4132 62.5041 55.4132 62.5041Z" fill="#B16668"></path> <path d="M55.4132 63.3949C55.1475 63.3949 54.1238 61.7148 53.4674 61.113C52.5452 60.2769 53.7331 52.7124 53.7331 52.7124C53.4917 52.0574 53.4467 51.3463 53.6035 50.6661C53.7604 49.986 54.1123 49.3663 54.6161 48.8832C55.8742 47.5 57.2418 46.6248 60.8678 46.4295C62.9933 46.32 66.3927 46.6561 68.2994 46.7811C71.8785 47.0234 73.1992 46.1403 75.2544 45.562C76.8173 45.1244 77.0049 50.8056 73.0351 52.6889C73.0351 52.6889 71.7378 53.5251 68.3463 53.9393C65.2035 54.1721 62.0458 54.1119 58.9141 53.7595C57.9295 53.6189 57.7185 54.5801 57.1871 57.1979C56.7026 59.4876 56.3119 63.3793 55.4132 63.3949Z" fill="#263238"></path> <path d="M53.733 53.299L50.5212 51.572C50.6254 51.3574 50.772 51.1661 50.9522 51.0097C51.1323 50.8533 51.3423 50.735 51.5694 50.6619C51.7965 50.5889 52.0361 50.5626 52.2737 50.5847C52.5112 50.6068 52.7418 50.6769 52.9516 50.7905C53.3772 51.0301 53.6952 51.4233 53.8405 51.8896C53.9858 52.3559 53.9473 52.8601 53.733 53.299Z" fill="#263238"></path> <path d="M65.2205 73.6632C65.2205 73.6632 60.4458 72.702 58.7813 71.8112C57.7853 71.3075 56.9673 70.5113 56.4369 69.5293C56.6888 70.5056 57.1325 71.4221 57.7419 72.2253C58.961 73.7882 65.1814 74.9292 65.1814 74.9292L65.2205 73.6632Z" fill="#9A4A4D"></path> <path d="M65.0095 61.3089C65.0216 61.4418 65.0058 61.5759 64.9631 61.7024C64.9205 61.8289 64.8519 61.9452 64.7619 62.0438C64.6718 62.1423 64.5622 62.2211 64.44 62.2749C64.3178 62.3288 64.1858 62.3566 64.0523 62.3566C63.9187 62.3566 63.7867 62.3288 63.6645 62.2749C63.5423 62.2211 63.4327 62.1423 63.3426 62.0438C63.2526 61.9452 63.184 61.8289 63.1414 61.7024C63.0988 61.5759 63.0829 61.4418 63.095 61.3089C63.0929 61.1809 63.1162 61.0539 63.1635 60.935C63.2107 60.8162 63.2811 60.7078 63.3705 60.6163C63.4598 60.5248 63.5664 60.4518 63.6841 60.4017C63.8018 60.3516 63.9282 60.3252 64.0562 60.3242C64.3125 60.3304 64.5562 60.4371 64.7345 60.6213C64.9129 60.8055 65.0117 61.0524 65.0095 61.3089Z" fill="#263238"></path> <path d="M63.9936 57.6984L61.954 58.8237C61.8053 58.5442 61.7719 58.2176 61.861 57.9138C61.9501 57.61 62.1546 57.3532 62.4307 57.1983C62.5653 57.1247 62.7135 57.0793 62.8663 57.0647C63.019 57.0501 63.1732 57.0667 63.3193 57.1135C63.4654 57.1602 63.6006 57.2362 63.7165 57.3368C63.8324 57.4373 63.9267 57.5603 63.9936 57.6984Z" fill="#263238"></path> <path d="M64.8142 67.9121L66.9944 68.6936C66.947 68.8404 66.8705 68.9761 66.7694 69.0927C66.6684 69.2093 66.5449 69.3044 66.4063 69.3722C66.2678 69.44 66.117 69.4792 65.9629 69.4875C65.8088 69.4958 65.6547 69.4729 65.5097 69.4203C65.2246 69.3034 64.9944 69.0828 64.8653 68.803C64.7363 68.5232 64.718 68.2049 64.8142 67.9121Z" fill="#9A4A4D"></path> <path d="M73.2617 58.4957L71.394 57.0578C71.4798 56.9272 71.5917 56.8158 71.7226 56.7305C71.8535 56.6453 72.0007 56.588 72.1548 56.5623C72.3089 56.5366 72.4667 56.5431 72.6181 56.5813C72.7696 56.6195 72.9116 56.6886 73.0351 56.7843C73.289 56.9834 73.4549 57.274 73.4972 57.5938C73.5396 57.9137 73.455 58.2374 73.2617 58.4957Z" fill="#263238"></path> <path d="M72.6912 61.0364C72.685 61.2251 72.6235 61.4077 72.5142 61.5616C72.4049 61.7155 72.2527 61.8338 72.0767 61.9018C71.9006 61.9698 71.7084 61.9844 71.524 61.9439C71.3397 61.9034 71.1713 61.8094 71.04 61.6739C70.9087 61.5383 70.8202 61.367 70.7856 61.1815C70.751 60.9959 70.7717 60.8043 70.8453 60.6304C70.9189 60.4566 71.042 60.3083 71.1994 60.204C71.3567 60.0997 71.5412 60.044 71.73 60.0439C71.8583 60.046 71.9849 60.0733 72.1026 60.1243C72.2204 60.1752 72.3269 60.2489 72.4162 60.3411C72.5054 60.4332 72.5756 60.5421 72.6228 60.6614C72.67 60.7807 72.6932 60.9081 72.6912 61.0364Z" fill="#263238"></path> <path d="M67.8149 60.1289L68.1275 65.8804L71.1283 64.8567L67.8149 60.1289Z" fill="#9A4A4D"></path> </svg> 