<?xml version="1.0" encoding="UTF-8"?> <svg xmlns="http://www.w3.org/2000/svg" width="387" height="298" viewBox="0 0 387 298" fill="none"> <path d="M386.16 261.37H-13V261.57H386.16V261.37Z" fill="#EBEBEB"></path> <path d="M176.202 225.765H22.0541C20.8465 225.763 19.6891 225.281 18.836 224.427C17.9828 223.572 17.5037 222.414 17.5037 221.206V4.51849C17.5142 3.31783 17.998 2.16981 18.85 1.32379C19.702 0.477761 20.8534 0.00205678 22.0541 0H176.202C177.411 0 178.57 0.480259 179.425 1.33513C180.28 2.18999 180.76 3.34944 180.76 4.5584V221.206C180.76 222.415 180.28 223.575 179.425 224.43C178.57 225.284 177.411 225.765 176.202 225.765ZM22.0541 0.159664C20.8994 0.161779 19.7928 0.621943 18.9771 1.43915C18.1614 2.25636 17.7032 3.36384 17.7032 4.51849V221.206C17.7032 222.361 18.1614 223.468 18.9771 224.286C19.7928 225.103 20.8994 225.563 22.0541 225.565H176.202C177.357 225.563 178.464 225.103 179.281 224.286C180.098 223.469 180.558 222.362 180.56 221.206V4.51849C180.558 3.3631 180.098 2.25565 179.281 1.43866C178.464 0.621683 177.357 0.161775 176.202 0.159664H22.0541Z" fill="#EBEBEB"></path> <path d="M348.886 225.765H194.731C193.522 225.763 192.364 225.282 191.51 224.427C190.655 223.573 190.174 222.415 190.172 221.206V4.51849C190.185 3.31711 190.67 2.16909 191.524 1.32329C192.377 0.477482 193.529 0.00203435 194.731 0H348.886C350.085 0.00415485 351.235 0.480787 352.085 1.32659C352.935 2.17239 353.418 3.31921 353.428 4.51849V221.206C353.428 222.412 352.95 223.57 352.099 224.424C351.248 225.278 350.092 225.76 348.886 225.765ZM194.731 0.159664C193.575 0.161775 192.468 0.621683 191.651 1.43866C190.834 2.25565 190.374 3.3631 190.372 4.51849V221.206C190.374 222.362 190.834 223.469 191.651 224.286C192.468 225.103 193.575 225.563 194.731 225.565H348.886C350.041 225.563 351.149 225.103 351.966 224.286C352.783 223.469 353.243 222.362 353.245 221.206V4.51849C353.243 3.3631 352.783 2.25565 351.966 1.43866C351.149 0.621683 350.041 0.161775 348.886 0.159664H194.731Z" fill="#EBEBEB"></path> <path d="M346.164 268.97H320.961V269.169H346.164V268.97Z" fill="#EBEBEB"></path> <path d="M254.708 266.807H228.036V267.006H254.708V266.807Z" fill="#EBEBEB"></path> <path d="M353.445 276.386H303.605V276.585H353.445V276.386Z" fill="#EBEBEB"></path> <path d="M44.2313 275.044H28.8796V275.244H44.2313V275.044Z" fill="#EBEBEB"></path> <path d="M75.5256 275.044H51.3445V275.244H75.5256V275.044Z" fill="#EBEBEB"></path> <path d="M181.902 271.676H138.345V271.875H181.902V271.676Z" fill="#EBEBEB"></path> <path d="M351.393 159.855C343.298 156.462 329.886 159.735 318.774 173.211C313.641 179.437 308.691 188.57 307.358 197.919C307.446 187.253 307.557 175.797 307.661 164.98C308.886 159.674 310.817 154.557 313.401 149.764C321.552 133.382 328.29 135.195 339.362 122.374C357.78 101.043 368.333 60.7992 350.012 76.8694C333.399 91.3988 325.36 105.944 319.78 118.566C312.227 135.626 309.194 147.529 307.717 159.471C307.821 149.317 307.917 139.993 308.004 132.8C308.292 109.337 308.93 101.793 309.05 99.4618C309.338 93.8177 311.198 90.5286 311.717 89.7223C316.083 82.8648 322.941 78.3782 329.655 70.5627C345.31 52.369 354.347 29.8484 346.803 27.7249C338.923 25.5455 328.569 35.4765 317.065 58.7955C310.471 72.1593 308.787 75.3207 307.485 101.506C307.374 103.781 306.871 112.355 306.631 124.266C304.771 111.453 301.235 98.7194 295.064 90.2812C283.161 74.0034 274.108 72.4467 267.514 74.0034C260.92 75.5602 263.682 92.6522 271.122 101.785C282.298 115.532 300.979 112.61 306.512 130.9C306.232 147.05 306.033 167.503 305.921 186.55C304.037 176.715 302.065 168.532 297.738 160.829C289.691 146.507 279.792 140.256 272.99 147.002C268.751 151.201 273.669 162.968 282.53 167.758C291.527 172.66 298.912 179.437 301.77 183.517C302.432 184.467 304.643 188.107 305.905 190.207C305.785 213.462 305.801 233.987 306.001 240.988L307.126 241.092C307.054 239.287 307.126 227.456 307.222 211.801C309.186 192.266 322.981 191.205 331.802 187.485C347.569 180.819 359.488 163.256 351.393 159.855Z" fill="#E6E6E6"></path> <path d="M295.151 261.37H318.414C318.986 261.404 319.553 261.248 320.027 260.926C320.5 260.604 320.854 260.134 321.033 259.59L322.693 230.715H290.888L292.533 259.566C292.708 260.114 293.061 260.588 293.534 260.915C294.008 261.241 294.577 261.401 295.151 261.37Z" fill="#E6E6E6"></path> <path d="M291.471 240.558H322.111C322.845 240.558 323.46 239.593 323.548 238.315L324.17 228.576C324.266 227.075 323.595 225.766 322.741 225.766H290.809C289.946 225.766 289.276 227.075 289.38 228.576L290.002 238.315C290.114 239.593 290.737 240.558 291.471 240.558Z" fill="#F5F5F5"></path> <path d="M135.487 199.157H105.287V256.085H135.487V199.157Z" fill="#F0F0F0"></path> <path d="M260.033 256.085H111.091V261.37H260.033V256.085Z" fill="#F0F0F0"></path> <path d="M135.488 256.076H265.829V199.148H135.488V256.076Z" fill="#FAFAFA"></path> <path d="M147.366 223.602H253.958V206.086H147.366V223.602Z" fill="#F0F0F0"></path> <path d="M147.366 246.106H253.958V228.591H147.366V246.106Z" fill="#F0F0F0"></path> <path d="M213.738 203.907H187.585C186.571 203.907 185.749 204.729 185.749 205.743V205.823C185.749 206.837 186.571 207.659 187.585 207.659H213.738C214.752 207.659 215.574 206.837 215.574 205.823V205.743C215.574 204.729 214.752 203.907 213.738 203.907Z" fill="#FAFAFA"></path> <path d="M213.738 226.412H187.585C186.571 226.412 185.749 227.234 185.749 228.248V228.328C185.749 229.342 186.571 230.164 187.585 230.164H213.738C214.752 230.164 215.574 229.342 215.574 228.328V228.248C215.574 227.234 214.752 226.412 213.738 226.412Z" fill="#FAFAFA"></path> <path d="M269.86 194.047H135.495V199.148H269.86V194.047Z" fill="#F0F0F0"></path> <path d="M101.064 199.157H135.487V194.056H101.064V199.157Z" fill="#E6E6E6"></path> <path d="M76.2838 216.727C72.8351 214.923 66.7838 215.857 61.3633 221.39C58.4867 224.3 56.4248 227.914 55.3838 231.871C55.8229 227.169 56.3099 222.108 56.7649 217.334C57.5093 215.037 58.5563 212.849 59.8784 210.828C64.1015 203.898 67.0154 204.952 72.388 199.707C81.3452 190.982 87.5561 173.594 78.8305 179.989C72.5866 184.521 67.4724 190.433 63.8859 197.264C59.8943 204.521 58.1061 209.662 56.9964 214.883C57.4275 210.405 57.7948 206.285 58.138 203.108C59.1599 192.73 59.7347 189.441 59.8704 188.419C60.0206 186.908 60.5537 185.46 61.4191 184.212C63.6385 181.346 66.8317 179.621 70.0729 176.428C77.6809 168.98 82.5267 159.36 79.2775 158.147C75.8767 156.885 70.9191 160.885 64.9557 170.744C61.5309 176.404 60.6687 177.737 59.088 189.257C58.9443 190.263 58.4015 194.047 57.8427 199.284C57.5074 193.552 56.4296 187.796 54.0187 183.829C49.3805 176.181 45.4368 175.151 42.467 175.63C39.4973 176.109 40.0721 183.725 43.0019 188.044C47.4326 194.542 55.775 193.959 57.5393 202.254C56.8048 209.375 55.9427 218.412 55.1443 226.826C54.6893 222.403 54.1305 218.715 52.5099 215.147C49.5002 208.513 45.325 205.375 42.1317 208.098C40.104 209.79 41.8284 215.171 45.5645 217.677C49.3006 220.184 52.3582 223.457 53.4679 225.373C53.7233 225.812 54.5616 227.513 55.0645 228.487C54.0586 238.697 53.3082 247.758 53.1326 250.856L53.6515 250.927C53.6914 250.129 54.1624 244.908 54.8091 237.995C56.4057 229.429 62.5527 229.485 66.5922 228.175C73.8011 225.844 79.7326 218.532 76.2838 216.727Z" fill="#F0F0F0"></path> <path d="M22.8767 198.942C27.3393 196.93 34.8514 198.551 41.238 205.903C44.632 209.76 46.9552 214.44 47.9758 219.475C47.7603 213.527 47.5367 207.141 47.3132 201.113C46.5502 198.174 45.3984 195.35 43.8884 192.715C39.0985 183.702 35.3624 184.812 28.9998 177.826C18.4061 166.203 11.9157 143.922 22.3817 152.591C29.8811 158.75 35.8631 166.551 39.8649 175.391C44.3275 184.796 46.1956 191.358 47.2015 198.024C46.9939 192.364 46.7943 187.167 46.6346 183.151C46.1317 170.075 45.6607 165.876 45.5569 164.574C45.4834 162.673 44.9345 160.82 43.9603 159.186C41.4216 155.426 37.5737 153.031 33.662 148.768C24.6649 138.852 19.2922 126.415 23.4594 125.137C27.8262 123.804 33.7498 129.185 40.5115 142.014C44.3914 149.374 45.3733 151.107 46.5069 165.692C46.6107 166.961 47.0099 171.735 47.3052 178.377C48.1514 171.192 49.9317 164.055 53.2527 159.218C59.6393 149.957 64.6687 148.959 68.3649 149.726C72.0611 150.492 70.7598 160.104 66.7682 165.277C60.733 173.108 50.283 171.751 47.4729 182.041C47.8641 191.039 48.2712 202.447 48.6304 213.064C49.5325 207.556 50.5145 202.957 52.8056 198.599C57.0846 190.488 62.5132 186.855 66.3771 190.52C68.772 192.795 66.2414 199.429 61.3636 202.255C56.4859 205.081 52.4624 209.081 50.9296 211.396C50.5704 211.931 49.3968 213.998 48.7262 215.188C49.1414 228.152 49.4367 239.6 49.4288 243.504L48.7662 243.56C48.7662 242.554 48.5746 235.96 48.2712 227.226C46.8741 216.345 39.1783 215.978 34.2048 214.038C25.3195 210.573 18.4141 200.954 22.8767 198.942Z" fill="#E6E6E6"></path> <path d="M41.7569 261.37H62.3934C62.9035 261.398 63.4082 261.256 63.8296 260.967C64.251 260.679 64.5655 260.259 64.7245 259.774L66.1854 234.18H37.9648L39.4338 259.774C39.59 260.259 39.9028 260.679 40.3231 260.968C40.7434 261.257 41.2476 261.399 41.7569 261.37Z" fill="#E6E6E6"></path> <path d="M38.4837 242.912H65.6665C66.3211 242.912 66.8639 242.05 66.9438 240.917L67.4946 232.279C67.5824 230.946 66.9917 229.788 66.2253 229.788H37.9328C37.1345 229.788 36.5757 230.946 36.6555 232.279L37.2144 240.917C37.2942 242.05 37.837 242.912 38.4837 242.912Z" fill="#F5F5F5"></path> <path d="M205.125 19.8467H35.051V116.012H205.125V19.8467Z" fill="#E6E6E6"></path> <path d="M210.442 19.8467H35.9529V116.012H210.442V19.8467Z" fill="#F5F5F5"></path> <path d="M206.194 108.435V27.4297C206.194 25.5868 204.7 24.0928 202.857 24.0928L43.5288 24.0928C41.6858 24.0928 40.1918 25.5868 40.1918 27.4297V108.435C40.1918 110.278 41.6858 111.772 43.5288 111.772L202.857 111.772C204.7 111.772 206.194 110.278 206.194 108.435Z" fill="white"></path> <path d="M186.58 297.423C272.066 297.423 341.366 293.377 341.366 288.386C341.366 283.395 272.066 279.349 186.58 279.349C101.094 279.349 31.7935 283.395 31.7935 288.386C31.7935 293.377 101.094 297.423 186.58 297.423Z" fill="#F5F5F5"></path> <path d="M307.853 205.493H288.693V204.694H307.853C310.106 204.648 312.307 204.006 314.232 202.834C316.157 201.662 317.738 200.001 318.813 198.021L319.516 198.404C318.371 200.51 316.689 202.276 314.64 203.521C312.592 204.766 310.25 205.447 307.853 205.493Z" fill="#508EC2"></path> <path d="M284.901 204.694H277.053V205.493H284.901V204.694Z" fill="#508EC2"></path> <path d="M307.853 202.701H83.6845C82.4554 202.725 81.2354 202.487 80.1054 202.003C78.9754 201.519 77.9614 200.8 77.1307 199.894C76.3001 198.988 75.6718 197.916 75.2877 196.748C74.9036 195.58 74.7724 194.344 74.903 193.122L87.0135 54.2141C87.2843 51.6291 88.487 49.231 90.3969 47.468C92.3068 45.705 94.7932 44.6977 97.3916 44.6343H321.56C322.788 44.6116 324.008 44.8504 325.137 45.3349C326.267 45.8193 327.28 46.5383 328.11 47.4442C328.941 48.3501 329.569 49.4221 329.954 50.5893C330.338 51.7565 330.47 52.992 330.341 54.2141L318.303 193.122C318.03 195.719 316.817 198.126 314.892 199.891C312.967 201.656 310.463 202.655 307.853 202.701Z" fill="#508EC2"></path> <path d="M303.182 199.786H84.6025C83.5559 199.801 82.5181 199.594 81.5579 199.177C80.5977 198.761 79.7371 198.145 79.0333 197.37C78.3296 196.595 77.7988 195.68 77.4761 194.684C77.1535 193.688 77.0465 192.635 77.1621 191.595L88.1949 65.0534C88.2608 64.4192 88.5559 63.8309 89.0248 63.3988C89.4936 62.9666 90.1041 62.7204 90.7415 62.7064H320.953C321.253 62.7012 321.551 62.76 321.827 62.879C322.103 62.998 322.351 63.1744 322.553 63.3964C322.755 63.6185 322.908 63.8811 323.001 64.1668C323.094 64.4525 323.125 64.7548 323.092 65.0534L312.052 191.595C311.828 193.808 310.803 195.862 309.169 197.371C307.535 198.88 305.406 199.739 303.182 199.786Z" fill="white"></path> <path d="M112.464 56.4084C110.956 56.4342 109.46 56.1388 108.075 55.542C106.69 54.9453 105.447 54.0607 104.43 52.947C103.413 51.8334 102.645 50.5161 102.176 49.0828C101.707 47.6494 101.548 46.1326 101.711 44.6332C102.039 41.451 103.518 38.4981 105.87 36.3297C108.222 34.1614 111.285 32.9268 114.484 32.858C115.991 32.8321 117.487 33.1274 118.872 33.7243C120.257 34.3211 121.498 35.2059 122.515 36.3197C123.531 37.4335 124.299 38.7509 124.767 40.1843C125.235 41.6177 125.392 43.1342 125.229 44.6332H120.439C120.536 43.7431 120.441 42.8426 120.163 41.9916C119.884 41.1407 119.428 40.3588 118.824 39.698C118.219 39.0372 117.482 38.5126 116.659 38.1591C115.836 37.8056 114.948 37.6314 114.053 37.6479C112.151 37.6828 110.328 38.4126 108.928 39.6995C107.528 40.9864 106.647 42.7415 106.453 44.6332C106.356 45.5234 106.45 46.4239 106.729 47.2748C107.007 48.1258 107.464 48.9076 108.068 49.5684C108.672 50.2293 109.41 50.7538 110.233 51.1073C111.055 51.4608 111.944 51.6351 112.839 51.6185L112.464 56.4084Z" fill="#263238"></path> <path d="M159.844 56.4084C158.333 56.4387 156.834 56.1468 155.445 55.552C154.056 54.9573 152.81 54.0734 151.789 52.9592C150.769 51.845 149.997 50.5262 149.527 49.0905C149.056 47.6549 148.896 46.1353 149.059 44.6332C149.387 41.451 150.866 38.4981 153.218 36.3297C155.57 34.1614 158.633 32.9268 161.832 32.858C163.34 32.8321 164.835 33.1274 166.22 33.7243C167.605 34.3211 168.847 35.2059 169.863 36.3197C170.879 37.4335 171.647 38.7509 172.115 40.1843C172.583 41.6177 172.741 43.1342 172.577 44.6332H167.787C167.884 43.7431 167.79 42.8426 167.511 41.9916C167.233 41.1407 166.776 40.3588 166.172 39.698C165.568 39.0372 164.83 38.5126 164.007 38.1591C163.184 37.8056 162.296 37.6314 161.401 37.6479C159.499 37.6828 157.676 38.4126 156.276 39.6995C154.876 40.9864 153.996 42.7415 153.801 44.6332C153.706 45.5231 153.801 46.4231 154.08 47.2735C154.359 48.1238 154.815 48.9052 155.419 49.5657C156.023 50.2262 156.761 50.7508 157.583 51.1047C158.405 51.4586 159.292 51.6338 160.187 51.6185L159.844 56.4084Z" fill="#263238"></path> <path d="M207.224 56.4084C205.717 56.433 204.222 56.1368 202.838 55.5395C201.454 54.9423 200.212 54.0575 199.196 52.944C198.18 51.8305 197.412 50.5136 196.944 49.0808C196.476 47.648 196.317 46.1319 196.479 44.6332C196.804 41.4496 198.282 38.4948 200.635 36.3258C202.988 34.1568 206.053 32.9233 209.252 32.858C210.76 32.8321 212.256 33.1274 213.64 33.7243C215.025 34.3211 216.267 35.2059 217.283 36.3197C218.3 37.4335 219.067 38.7509 219.535 40.1843C220.003 41.6177 220.161 43.1342 219.998 44.6332H215.208C215.305 43.7428 215.212 42.8418 214.934 41.9903C214.656 41.1387 214.2 40.3563 213.595 39.6952C212.991 39.0341 212.252 38.5095 211.429 38.1565C210.606 37.8035 209.717 37.6301 208.821 37.6479C206.921 37.683 205.099 38.4131 203.7 39.7001C202.301 40.9872 201.422 42.7421 201.229 44.6332C201.133 45.5234 201.227 46.4239 201.505 47.2748C201.784 48.1258 202.24 48.9076 202.845 49.5684C203.449 50.2293 204.187 50.7538 205.009 51.1073C205.832 51.4608 206.72 51.6351 207.616 51.6185L207.224 56.4084Z" fill="#263238"></path> <path d="M254.605 56.4084C253.098 56.433 251.602 56.1368 250.218 55.5395C248.834 54.9422 247.593 54.0575 246.577 52.944C245.561 51.8305 244.793 50.5136 244.324 49.0808C243.856 47.648 243.697 46.1319 243.859 44.6332C244.186 41.4503 245.665 38.4965 248.017 36.3278C250.37 34.159 253.434 32.925 256.633 32.858C258.14 32.8323 259.637 33.1276 261.022 33.7244C262.407 34.3212 263.649 35.2057 264.666 36.3194C265.683 37.433 266.452 38.7503 266.92 40.1837C267.389 41.617 267.548 43.1338 267.386 44.6332H262.596C262.693 43.743 262.598 42.8425 262.32 41.9916C262.041 41.1407 261.585 40.3588 260.981 39.698C260.376 39.0372 259.638 38.5126 258.816 38.1591C257.993 37.8056 257.105 37.6314 256.209 37.6479C254.309 37.683 252.487 38.413 251.088 39.7001C249.689 40.9872 248.81 42.7421 248.617 44.6332C248.521 45.5234 248.615 46.4239 248.894 47.2748C249.172 48.1257 249.629 48.9076 250.233 49.5684C250.837 50.2292 251.575 50.7538 252.398 51.1073C253.22 51.4608 254.109 51.635 255.004 51.6185L254.605 56.4084Z" fill="#263238"></path> <path d="M301.984 56.4084C300.477 56.433 298.982 56.1368 297.598 55.5395C296.214 54.9422 294.973 54.0575 293.956 52.944C292.94 51.8305 292.172 50.5136 291.704 49.0808C291.236 47.648 291.077 46.1319 291.239 44.6332C291.566 41.4503 293.044 38.4965 295.397 36.3278C297.749 34.159 300.813 32.925 304.012 32.858C305.52 32.8323 307.016 33.1276 308.401 33.7244C309.786 34.3212 311.029 35.2057 312.046 36.3194C313.063 37.433 313.831 38.7503 314.3 40.1837C314.769 41.617 314.928 43.1338 314.766 44.6332H309.976C310.072 43.743 309.978 42.8425 309.699 41.9916C309.421 41.1407 308.964 40.3588 308.36 39.698C307.756 39.0372 307.018 38.5126 306.195 38.1591C305.373 37.8056 304.484 37.6314 303.589 37.6479C301.689 37.6847 299.868 38.4153 298.47 39.7021C297.071 40.9888 296.192 42.7428 295.997 44.6332C295.901 45.5234 295.995 46.4239 296.273 47.2748C296.552 48.1257 297.008 48.9076 297.613 49.5684C298.217 50.2292 298.955 50.7538 299.777 51.1073C300.6 51.4608 301.488 51.635 302.384 51.6185L301.984 56.4084Z" fill="#263238"></path> <path d="M302.607 194.048H86.5261C86.475 194.049 86.4241 194.04 86.3771 194.02C86.3301 194 86.288 193.97 86.2537 193.932C86.2195 193.894 86.194 193.849 86.179 193.8C86.164 193.751 86.1599 193.699 86.1669 193.649L96.9362 70.1806C96.9461 70.0725 96.9956 69.972 97.0752 69.8983C97.1548 69.8245 97.2588 69.7829 97.3673 69.7814H313.44C313.492 69.7799 313.543 69.7895 313.59 69.8095C313.638 69.8295 313.68 69.8594 313.715 69.8973C313.75 69.9351 313.776 69.98 313.792 70.0288C313.808 70.0777 313.813 70.1295 313.808 70.1806L303.038 193.649C303.028 193.757 302.979 193.857 302.899 193.931C302.82 194.005 302.716 194.046 302.607 194.048ZM86.9971 193.249H302.272L312.977 70.5797H97.7026L86.9971 193.249Z" fill="#E0E0E0"></path> <path d="M304.731 169.355H88.6818C88.6311 169.355 88.5808 169.345 88.5344 169.324C88.488 169.304 88.4465 169.274 88.4125 169.236C88.3786 169.198 88.353 169.154 88.3375 169.106C88.322 169.057 88.3169 169.006 88.3225 168.956C88.3306 168.847 88.3796 168.746 88.4596 168.672C88.5395 168.597 88.6446 168.556 88.7536 168.557H304.827C304.878 168.555 304.929 168.565 304.977 168.585C305.024 168.605 305.067 168.635 305.101 168.673C305.136 168.71 305.162 168.755 305.178 168.804C305.194 168.853 305.2 168.905 305.194 168.956C305.18 169.068 305.125 169.171 305.039 169.245C304.954 169.319 304.844 169.358 304.731 169.355Z" fill="#E0E0E0"></path> <path d="M306.911 144.664H90.8376C90.7866 144.664 90.7361 144.653 90.6893 144.633C90.6425 144.613 90.6005 144.583 90.566 144.545C90.5314 144.508 90.5051 144.463 90.4886 144.415C90.4722 144.367 90.4659 144.315 90.4704 144.265C90.4821 144.156 90.5332 144.055 90.6142 143.982C90.6951 143.908 90.8001 143.867 90.9095 143.865H306.983C307.034 143.864 307.085 143.873 307.132 143.893C307.18 143.913 307.222 143.943 307.257 143.981C307.292 144.019 307.318 144.064 307.334 144.113C307.35 144.162 307.356 144.213 307.35 144.265C307.336 144.373 307.285 144.472 307.204 144.546C307.124 144.619 307.02 144.661 306.911 144.664Z" fill="#E0E0E0"></path> <path d="M309.066 119.962H92.9928C92.9414 119.964 92.8902 119.954 92.8429 119.934C92.7955 119.914 92.753 119.884 92.7182 119.847C92.6833 119.809 92.6571 119.764 92.6411 119.715C92.6251 119.666 92.6198 119.614 92.6255 119.563C92.6389 119.455 92.6905 119.355 92.7711 119.282C92.8516 119.209 92.9558 119.167 93.0646 119.164H309.138C309.188 119.164 309.239 119.174 309.285 119.195C309.331 119.215 309.373 119.245 309.407 119.283C309.441 119.321 309.466 119.365 309.482 119.413C309.497 119.462 309.503 119.513 309.497 119.563C309.489 119.672 309.44 119.774 309.36 119.848C309.28 119.922 309.175 119.963 309.066 119.962Z" fill="#E0E0E0"></path> <path d="M311.221 95.2702H95.148C95.0966 95.2716 95.0455 95.2621 94.9982 95.2421C94.9508 95.2221 94.9082 95.1922 94.8734 95.1543C94.8386 95.1165 94.8123 95.0716 94.7964 95.0227C94.7804 94.9739 94.7751 94.9221 94.7808 94.871C94.7907 94.763 94.8402 94.6624 94.9198 94.5887C94.9994 94.515 95.1034 94.4734 95.2119 94.4719H311.293C311.344 94.4702 311.395 94.4798 311.442 94.4998C311.489 94.5199 311.531 94.5499 311.565 94.588C311.6 94.626 311.625 94.671 311.64 94.7199C311.655 94.7688 311.659 94.8204 311.652 94.871C311.644 94.9797 311.595 95.0813 311.515 95.1554C311.435 95.2295 311.33 95.2705 311.221 95.2702Z" fill="#E0E0E0"></path> <path d="M275.593 194.048C275.541 194.049 275.491 194.04 275.444 194.02C275.396 194 275.354 193.97 275.32 193.932C275.286 193.894 275.26 193.849 275.245 193.8C275.23 193.751 275.226 193.699 275.233 193.649L286.003 70.1806C286.012 70.0725 286.062 69.972 286.142 69.8983C286.221 69.8245 286.325 69.7829 286.434 69.7814C286.485 69.7799 286.536 69.7895 286.584 69.8095C286.631 69.8295 286.674 69.8594 286.708 69.8973C286.743 69.9351 286.769 69.98 286.785 70.0288C286.801 70.0777 286.807 70.1295 286.801 70.1806L276.032 193.649C276.02 193.757 275.969 193.858 275.888 193.932C275.807 194.005 275.702 194.046 275.593 194.048Z" fill="#E0E0E0"></path> <path d="M248.586 194.048C248.534 194.049 248.483 194.04 248.436 194.02C248.388 194 248.346 193.97 248.311 193.932C248.276 193.894 248.25 193.849 248.234 193.8C248.218 193.751 248.213 193.7 248.218 193.649L258.988 70.1806C258.999 70.0719 259.051 69.9712 259.131 69.8977C259.212 69.8241 259.317 69.7828 259.427 69.7814C259.478 69.7798 259.529 69.7893 259.576 69.8094C259.623 69.8294 259.665 69.8595 259.699 69.8975C259.733 69.9355 259.759 69.9806 259.774 70.0295C259.789 70.0783 259.793 70.1299 259.786 70.1806L249.017 193.649C249.009 193.757 248.96 193.859 248.88 193.933C248.8 194.007 248.695 194.048 248.586 194.048Z" fill="#E0E0E0"></path> <path d="M221.578 194.048C221.527 194.049 221.475 194.04 221.428 194.02C221.381 194 221.338 193.97 221.303 193.932C221.269 193.894 221.242 193.849 221.226 193.8C221.21 193.751 221.205 193.7 221.211 193.649L231.98 70.1806C231.992 70.0719 232.043 69.9712 232.124 69.8977C232.205 69.8241 232.31 69.7828 232.419 69.7814C232.47 69.7798 232.521 69.7893 232.568 69.8094C232.615 69.8294 232.657 69.8595 232.692 69.8975C232.726 69.9355 232.751 69.9806 232.766 70.0295C232.781 70.0783 232.785 70.1299 232.778 70.1806L222.009 193.649C221.999 193.757 221.95 193.857 221.87 193.931C221.79 194.005 221.686 194.046 221.578 194.048Z" fill="#E0E0E0"></path> <path d="M194.563 194.048C194.512 194.049 194.461 194.04 194.413 194.02C194.366 194 194.324 193.97 194.289 193.932C194.254 193.894 194.228 193.849 194.212 193.8C194.196 193.751 194.19 193.7 194.196 193.649L204.941 70.1806C204.951 70.0725 205.001 69.972 205.08 69.8983C205.16 69.8245 205.264 69.7829 205.373 69.7814C205.424 69.7799 205.475 69.7895 205.522 69.8095C205.57 69.8295 205.612 69.8594 205.647 69.8973C205.682 69.9351 205.708 69.98 205.724 70.0288C205.74 70.0777 205.746 70.1295 205.74 70.1806L195.002 193.649C194.992 193.758 194.942 193.86 194.86 193.934C194.779 194.007 194.673 194.048 194.563 194.048Z" fill="#E0E0E0"></path> <path d="M167.556 194.048C167.505 194.049 167.454 194.04 167.407 194.02C167.36 194 167.318 193.97 167.284 193.932C167.249 193.894 167.224 193.849 167.209 193.8C167.194 193.751 167.19 193.699 167.197 193.649L177.966 70.1806C177.974 70.0718 178.023 69.9702 178.103 69.8962C178.183 69.8221 178.288 69.7811 178.397 69.7814C178.448 69.7799 178.5 69.7895 178.547 69.8095C178.594 69.8295 178.637 69.8594 178.672 69.8973C178.707 69.9351 178.733 69.98 178.749 70.0288C178.765 70.0777 178.77 70.1295 178.764 70.1806L167.995 193.649C167.983 193.757 167.932 193.858 167.851 193.932C167.77 194.005 167.665 194.046 167.556 194.048Z" fill="#E0E0E0"></path> <path d="M140.549 194.048C140.498 194.049 140.446 194.04 140.399 194.02C140.352 194 140.309 193.97 140.274 193.932C140.239 193.894 140.213 193.849 140.197 193.8C140.181 193.751 140.176 193.7 140.182 193.649L150.951 70.1806C150.963 70.0719 151.014 69.9712 151.095 69.8977C151.176 69.8241 151.281 69.7828 151.39 69.7814C151.441 69.7798 151.492 69.7893 151.539 69.8094C151.586 69.8294 151.628 69.8595 151.662 69.8975C151.697 69.9355 151.722 69.9806 151.737 70.0295C151.752 70.0783 151.756 70.1299 151.749 70.1806L140.98 193.649C140.972 193.757 140.923 193.859 140.843 193.933C140.763 194.007 140.658 194.048 140.549 194.048Z" fill="#E0E0E0"></path> <path d="M113.542 194.048C113.49 194.049 113.439 194.04 113.392 194.02C113.345 194 113.302 193.97 113.267 193.932C113.232 193.894 113.206 193.849 113.19 193.8C113.174 193.751 113.169 193.7 113.175 193.649L123.944 70.1806C123.956 70.0719 124.007 69.9712 124.088 69.8977C124.169 69.8241 124.274 69.7828 124.383 69.7814C124.434 69.7798 124.485 69.7893 124.532 69.8094C124.579 69.8294 124.621 69.8595 124.655 69.8975C124.69 69.9355 124.715 69.9806 124.73 70.0295C124.745 70.0783 124.749 70.1299 124.742 70.1806L113.973 193.649C113.963 193.757 113.914 193.857 113.834 193.931C113.754 194.005 113.65 194.046 113.542 194.048Z" fill="#E0E0E0"></path> <path d="M223.039 117.097H206.538C206.211 117.102 205.887 117.038 205.587 116.908C205.287 116.779 205.018 116.586 204.798 116.345C204.579 116.103 204.413 115.817 204.312 115.506C204.211 115.196 204.178 114.867 204.214 114.542L205.492 99.893C205.56 99.2017 205.88 98.5595 206.391 98.0886C206.901 97.6176 207.567 97.3506 208.262 97.3384H224.763C225.091 97.3318 225.416 97.3952 225.716 97.5244C226.017 97.6535 226.287 97.8454 226.508 98.0873C226.728 98.3292 226.895 98.6154 226.996 98.9268C227.097 99.2382 227.131 99.5676 227.094 99.893L225.817 114.542C225.748 115.235 225.427 115.878 224.915 116.349C224.403 116.82 223.735 117.086 223.039 117.097Z" fill="#508EC2"></path> <path opacity="0.6" d="M223.039 117.097H206.538C206.211 117.102 205.887 117.038 205.587 116.908C205.287 116.779 205.018 116.586 204.798 116.345C204.579 116.103 204.413 115.817 204.312 115.506C204.211 115.196 204.178 114.867 204.214 114.542L205.492 99.893C205.56 99.2017 205.88 98.5595 206.391 98.0886C206.901 97.6176 207.567 97.3506 208.262 97.3384H224.763C225.091 97.3318 225.416 97.3952 225.716 97.5244C226.017 97.6535 226.287 97.8454 226.508 98.0873C226.728 98.3292 226.895 98.6154 226.996 98.9268C227.097 99.2382 227.131 99.5676 227.094 99.893L225.817 114.542C225.748 115.235 225.427 115.878 224.915 116.349C224.403 116.82 223.735 117.086 223.039 117.097Z" fill="white"></path> <path d="M338.172 117.096H320.825L322.541 97.3379H339.897L333.375 107.221L338.172 117.096Z" fill="white"></path> <path d="M338.819 117.497H320.386L322.182 96.9404H340.656L333.878 107.223L338.819 117.497ZM321.256 116.699H337.518L332.912 107.223L339.171 97.7387H322.909L321.256 116.699Z" fill="#508EC2"></path> <path d="M274.746 141.789H258.245C257.918 141.795 257.594 141.732 257.294 141.603C256.994 141.475 256.724 141.283 256.504 141.042C256.283 140.802 256.116 140.516 256.015 140.206C255.913 139.895 255.879 139.567 255.914 139.242L257.191 124.585C257.263 123.894 257.586 123.254 258.097 122.785C258.609 122.316 259.275 122.05 259.969 122.038H276.471C276.797 122.033 277.12 122.097 277.42 122.226C277.72 122.356 277.988 122.547 278.209 122.787C278.429 123.028 278.596 123.313 278.698 123.623C278.8 123.932 278.836 124.261 278.802 124.585L277.524 139.242C277.452 139.933 277.13 140.573 276.618 141.042C276.106 141.511 275.44 141.777 274.746 141.789Z" fill="#508EC2"></path> <path opacity="0.4" d="M274.746 141.789H258.245C257.918 141.795 257.594 141.732 257.294 141.603C256.994 141.475 256.724 141.283 256.504 141.042C256.283 140.802 256.116 140.516 256.015 140.206C255.913 139.895 255.879 139.567 255.914 139.242L257.191 124.585C257.263 123.894 257.586 123.254 258.097 122.785C258.609 122.316 259.275 122.05 259.969 122.038H276.471C276.797 122.033 277.12 122.097 277.42 122.226C277.72 122.356 277.988 122.547 278.209 122.787C278.429 123.028 278.596 123.313 278.698 123.623C278.8 123.932 278.836 124.261 278.802 124.585L277.524 139.242C277.452 139.933 277.13 140.573 276.618 141.042C276.106 141.511 275.44 141.777 274.746 141.789Z" fill="white"></path> <path d="M306.368 92.4052H262.556C262.228 92.4118 261.903 92.3484 261.603 92.2192C261.302 92.09 261.032 91.8981 260.811 91.6562C260.591 91.4144 260.424 91.1282 260.323 90.8168C260.222 90.5054 260.188 90.176 260.225 89.8506L261.502 75.2014C261.57 74.5101 261.89 73.868 262.401 73.397C262.912 72.926 263.578 72.6591 264.272 72.6468H308.092C308.419 72.6415 308.743 72.7058 309.044 72.8354C309.344 72.965 309.613 73.1569 309.833 73.3985C310.054 73.6401 310.221 73.9257 310.322 74.2366C310.424 74.5474 310.458 74.8763 310.423 75.2014L309.146 89.8506C309.077 90.5432 308.756 91.1865 308.244 91.6576C307.731 92.1287 307.064 92.3948 306.368 92.4052Z" fill="#508EC2"></path> <path d="M131.592 113.76C124.934 113.76 119.385 111.405 115.45 106.895C110.396 101.091 109.638 93.89 113.462 88.0942C119.138 79.5123 133.931 74.9379 143.662 76.2072C143.713 76.2137 143.762 76.2308 143.806 76.2574C143.85 76.284 143.888 76.3195 143.917 76.3617C143.947 76.4038 143.967 76.4516 143.977 76.502C143.986 76.5524 143.985 76.6043 143.974 76.6543C143.949 76.7599 143.887 76.8529 143.799 76.916C143.711 76.9792 143.603 77.0082 143.495 76.9976C134.003 75.7602 119.617 80.1909 114.125 88.4934C109.798 95.0396 112.296 102.001 116.08 106.344C121.357 112.395 128.55 113.249 133.643 112.89C143.375 112.211 154.033 106.647 160.172 99.0472C161.888 96.9236 164.522 92.8442 162.91 89.4673C160.515 84.414 152.532 84.7652 145.874 85.6274C145.824 85.6341 145.773 85.6303 145.724 85.6164C145.675 85.6025 145.63 85.5786 145.591 85.5464C145.552 85.5142 145.52 85.4742 145.498 85.4291C145.475 85.384 145.461 85.3346 145.459 85.2841C145.456 85.1754 145.493 85.0694 145.564 84.9868C145.635 84.9043 145.734 84.8509 145.842 84.8371C150.296 84.2543 160.722 82.9051 163.636 89.0841C165.441 92.8841 162.614 97.2749 160.778 99.5581C154.496 107.334 143.583 113.034 133.635 113.72C132.949 113.736 132.294 113.76 131.592 113.76Z" fill="#508EC2"></path> <path d="M264.815 137.391H264.751C264.627 137.382 264.506 137.341 264.402 137.271C264.299 137.201 264.215 137.104 264.161 136.992C263.338 135.109 262.208 133.377 260.816 131.867C260.659 131.711 260.571 131.499 260.57 131.279C260.569 131.058 260.656 130.846 260.812 130.689C260.967 130.532 261.179 130.444 261.4 130.443C261.62 130.442 261.833 130.529 261.989 130.685C263.269 132.023 264.328 133.557 265.127 135.228C267.87 132.41 270.842 129.826 274.012 127.5C274.177 127.372 274.385 127.313 274.593 127.337C274.8 127.361 274.99 127.465 275.122 127.628C275.183 127.716 275.225 127.815 275.247 127.92C275.269 128.025 275.269 128.133 275.248 128.238C275.228 128.343 275.186 128.442 275.126 128.531C275.065 128.62 274.988 128.695 274.898 128.753C271.497 131.24 268.335 134.038 265.454 137.112C265.372 137.2 265.274 137.27 265.164 137.318C265.054 137.366 264.935 137.391 264.815 137.391Z" fill="white"></path> <path d="M235.413 190.262C234.265 190.282 233.126 190.056 232.072 189.602C231.018 189.147 230.073 188.474 229.299 187.626C228.525 186.778 227.941 185.775 227.584 184.684C227.227 183.593 227.107 182.439 227.23 181.297C227.48 178.871 228.609 176.62 230.405 174.97C232.201 173.319 234.539 172.384 236.978 172.34C238.125 172.32 239.264 172.544 240.318 172.998C241.372 173.451 242.317 174.124 243.091 174.971C243.865 175.819 244.45 176.821 244.807 177.912C245.163 179.002 245.284 180.156 245.16 181.297C244.911 183.724 243.782 185.976 241.986 187.628C240.191 189.28 237.852 190.217 235.413 190.262ZM236.874 173.937C234.875 173.981 232.961 174.753 231.491 176.108C230.021 177.463 229.096 179.309 228.891 181.297C228.789 182.235 228.887 183.184 229.18 184.081C229.473 184.977 229.953 185.802 230.589 186.498C231.224 187.195 232.001 187.749 232.867 188.123C233.734 188.496 234.669 188.681 235.612 188.666C237.612 188.62 239.526 187.846 240.996 186.49C242.466 185.133 243.39 183.287 243.596 181.297C243.695 180.36 243.595 179.413 243.301 178.518C243.007 177.623 242.527 176.8 241.891 176.104C241.256 175.408 240.48 174.856 239.615 174.482C238.75 174.108 237.816 173.922 236.874 173.937Z" fill="#508EC2"></path> <path d="M158.639 140.782C157.491 140.801 156.352 140.576 155.298 140.121C154.244 139.667 153.299 138.993 152.525 138.145C151.751 137.297 151.166 136.295 150.81 135.204C150.453 134.113 150.332 132.958 150.456 131.817C150.706 129.384 151.839 127.128 153.642 125.476C155.444 123.823 157.79 122.89 160.235 122.852C161.383 122.833 162.522 123.058 163.576 123.512C164.63 123.967 165.575 124.641 166.349 125.488C167.123 126.336 167.708 127.339 168.064 128.43C168.421 129.521 168.542 130.676 168.418 131.817C168.167 134.249 167.032 136.504 165.23 138.156C163.428 139.808 161.083 140.742 158.639 140.782ZM160.06 124.448C158.06 124.492 156.144 125.266 154.674 126.623C153.204 127.979 152.28 129.827 152.077 131.817C151.974 132.755 152.073 133.703 152.366 134.6C152.659 135.497 153.139 136.321 153.775 137.018C154.41 137.715 155.187 138.269 156.053 138.642C156.919 139.016 157.855 139.201 158.798 139.185C160.798 139.14 162.712 138.366 164.182 137.009C165.652 135.653 166.576 133.806 166.782 131.817C166.882 130.881 166.783 129.934 166.491 129.039C166.198 128.144 165.72 127.321 165.086 126.624C164.452 125.928 163.678 125.374 162.814 124.999C161.951 124.624 161.017 124.436 160.076 124.448H160.06Z" fill="#508EC2"></path> <path opacity="0.1" d="M174.238 162.251H91.2924C90.5266 162.262 89.7671 162.11 89.0641 161.806C88.3612 161.502 87.7308 161.052 87.2147 160.486C86.6985 159.92 86.3084 159.251 86.07 158.523C85.8317 157.795 85.7505 157.025 85.8319 156.263C86.0008 154.644 86.7551 153.142 87.9531 152.04C89.1512 150.937 90.7105 150.31 92.3382 150.276H175.284C176.049 150.265 176.809 150.416 177.512 150.721C178.215 151.025 178.845 151.475 179.361 152.041C179.878 152.607 180.268 153.276 180.506 154.004C180.744 154.732 180.826 155.502 180.744 156.263C180.575 157.883 179.821 159.385 178.623 160.487C177.425 161.59 175.866 162.217 174.238 162.251Z" fill="black"></path> <path d="M63.9496 143.226L67.063 144.559L62.8878 149.676C62.1583 148.405 61.5898 147.048 61.1954 145.637C61.1367 145.43 61.1202 145.214 61.147 145.001C61.1738 144.787 61.2433 144.582 61.3514 144.396C61.4595 144.211 61.6039 144.049 61.776 143.92C61.9481 143.792 62.1443 143.7 62.3529 143.649L63.9496 143.226Z" fill="#FF8B7B"></path> <path d="M68.4921 150.084L66.6241 152.16C66.483 152.317 66.3078 152.441 66.1118 152.52C65.9158 152.6 65.7043 152.633 65.4933 152.619C65.2823 152.604 65.0774 152.542 64.8943 152.436C64.7112 152.33 64.5547 152.184 64.4367 152.008L62.8879 149.709L67.0632 144.592L68.7476 148.583C68.8568 148.831 68.8908 149.105 68.8453 149.372C68.7999 149.639 68.6771 149.887 68.4921 150.084Z" fill="#FF8B7B"></path> <path d="M178.309 160.239L70.3361 151.681C69.5733 151.63 68.8299 151.419 68.1545 151.061C67.4792 150.702 66.8872 150.206 66.4175 149.602C65.9478 148.999 65.611 148.304 65.4292 147.561C65.2474 146.819 65.2247 146.046 65.3626 145.294C65.6594 143.693 66.5305 142.256 67.8124 141.252C69.0942 140.248 70.6985 139.746 72.3239 139.842L180.297 148.392C181.06 148.441 181.804 148.651 182.48 149.009C183.156 149.367 183.748 149.864 184.218 150.467C184.688 151.071 185.025 151.767 185.206 152.51C185.388 153.253 185.409 154.026 185.27 154.778C184.973 156.38 184.103 157.818 182.821 158.823C181.539 159.829 179.935 160.332 178.309 160.239Z" fill="#508EC2"></path> <path d="M102.126 109.856C103.475 112.898 104.856 116.019 106.253 119.053C107.65 122.087 109.095 125.168 110.644 127.835C110.972 128.391 111.337 128.924 111.737 129.431C112.216 129.998 112.751 130.581 113.294 131.18C114.404 132.369 115.593 133.575 116.783 134.756C119.178 137.151 121.573 139.546 123.968 142.045L121.573 145.166C118.547 143.422 115.616 141.52 112.791 139.466C111.37 138.436 109.981 137.367 108.592 136.201C107.897 135.618 107.211 134.996 106.508 134.317C105.775 133.55 105.105 132.725 104.505 131.85C102.506 128.856 100.711 125.73 99.1319 122.494C97.5752 119.34 96.1462 116.203 94.813 112.914L102.126 109.856Z" fill="#FF8B7B"></path> <path d="M75.7246 109.37C73.9124 112.332 72.0524 115.31 70.1923 118.255L64.644 127.101L63.9654 128.203L63.8856 128.346V128.41V128.458C63.8457 128.519 63.8109 128.583 63.7818 128.65C63.5961 129.186 63.4833 129.744 63.4465 130.31C63.3553 131.854 63.4008 133.404 63.5822 134.94C63.9255 138.197 64.5721 141.638 65.2587 144.967L61.5545 146.34C59.8638 143.064 58.5257 139.617 57.5629 136.058C57.038 134.148 56.7247 132.185 56.6288 130.206C56.5731 129.01 56.6859 127.811 56.9641 126.646C57.0759 126.295 57.1637 125.975 57.3154 125.6L57.5629 125.057L57.6666 124.842L57.7385 124.698L58.3532 123.492C59.9498 120.299 61.7141 117.202 63.4944 114.136C65.2746 111.071 67.1267 108.061 69.0826 105.075L75.7246 109.37Z" fill="#FF8B7B"></path> <path d="M96.8487 87.2644C96.705 87.6555 96.7928 88.0627 97.0483 88.1744C97.3038 88.2862 97.6311 88.0467 97.7828 87.6475C97.9344 87.2484 97.8386 86.8492 97.5832 86.7375C97.3277 86.6257 97.0004 86.8652 96.8487 87.2644Z" fill="#263238"></path> <path d="M96.7525 88.0557C96.7698 89.4681 96.9738 90.872 97.3593 92.2309C97.0148 92.3129 96.6563 92.3175 96.3099 92.2443C95.9634 92.1711 95.6374 92.022 95.3555 91.8078L96.7525 88.0557Z" fill="#FF5652"></path> <path d="M98.3096 84.9335C98.258 84.924 98.2106 84.8989 98.1738 84.8616C97.9345 84.6653 97.6517 84.5288 97.3491 84.4636C97.0464 84.3983 96.7325 84.4061 96.4335 84.4864C96.4015 84.4947 96.3682 84.4966 96.3355 84.4918C96.3028 84.487 96.2714 84.4757 96.2431 84.4586C96.2148 84.4415 96.1903 84.4189 96.1709 84.3921C96.1515 84.3654 96.1376 84.335 96.1302 84.3028C96.1158 84.2393 96.127 84.1727 96.1613 84.1174C96.1957 84.0621 96.2505 84.0226 96.3138 84.0074C96.6937 83.9058 97.0926 83.8978 97.4763 83.984C97.86 84.0702 98.2171 84.2481 98.5171 84.5024C98.5403 84.5254 98.5587 84.5527 98.5712 84.5829C98.5838 84.613 98.5903 84.6454 98.5903 84.678C98.5903 84.7107 98.5838 84.743 98.5712 84.7731C98.5587 84.8033 98.5403 84.8306 98.5171 84.8536C98.4912 84.8822 98.4589 84.9043 98.4228 84.9182C98.3868 84.932 98.348 84.9373 98.3096 84.9335Z" fill="#263238"></path> <path d="M82.295 88.0459C81.7921 92.3409 82.6143 97.7535 79.6765 99.9089C79.6765 99.9089 80.2912 103.901 87.3563 104.994C95.124 106.144 91.4916 101.665 91.4916 101.665C87.3643 100.013 87.8194 96.8753 88.8811 94.0093L82.295 88.0459Z" fill="#FF8B7B"></path> <path d="M77.2097 102.608C77.1059 100.628 77.2097 97.6428 78.4391 97.2117C79.7803 96.7407 87.7076 97.3713 91.6832 100.972C90.7732 102.767 90.3077 104.755 90.3261 106.768L77.2097 102.608Z" fill="#263238"></path> <path d="M52.9172 280.665C52.1985 280.606 51.4985 280.405 50.8576 280.074C50.8353 280.064 50.8166 280.046 50.8038 280.025C50.7911 280.004 50.7848 279.979 50.7857 279.955C50.7875 279.931 50.796 279.909 50.8102 279.891C50.8244 279.872 50.8436 279.859 50.8656 279.851C50.9374 279.851 52.5341 279.212 53.2605 279.555C53.3388 279.593 53.4083 279.646 53.4647 279.712C53.521 279.778 53.563 279.856 53.5878 279.939C53.6325 280.036 53.6449 280.145 53.6234 280.25C53.6018 280.354 53.5474 280.45 53.4681 280.521C53.3084 280.635 53.1123 280.687 52.9172 280.665ZM51.2328 279.979C51.9672 280.306 53.013 280.561 53.2925 280.33C53.2925 280.33 53.4042 280.242 53.2925 280.011C53.2769 279.96 53.2511 279.914 53.2168 279.874C53.1824 279.834 53.1403 279.802 53.0929 279.779C52.4665 279.668 51.8214 279.737 51.2328 279.979Z" fill="#508EC2"></path> <path d="M50.9133 280.089C50.8799 280.088 50.8484 280.074 50.8255 280.05C50.8141 280.032 50.8081 280.011 50.8081 279.99C50.8081 279.968 50.8141 279.948 50.8255 279.93C50.8255 279.866 51.2726 278.413 51.9751 278.07C52.0615 278.03 52.1555 278.01 52.2505 278.01C52.3455 278.01 52.4395 278.03 52.5259 278.07C52.6194 278.092 52.702 278.147 52.759 278.224C52.8159 278.302 52.8437 278.397 52.8373 278.493C52.8373 279.092 51.552 279.954 50.9772 280.089H50.9133ZM52.2545 278.245C52.1826 278.246 52.1118 278.262 52.0469 278.293C51.5932 278.676 51.2673 279.189 51.1129 279.762C51.7116 279.491 52.5339 278.812 52.5579 278.453C52.5579 278.453 52.5578 278.333 52.4062 278.277C52.3585 278.256 52.3067 278.245 52.2545 278.245Z" fill="#508EC2"></path> <path d="M93.0481 282.989C92.5124 282.987 91.978 282.936 91.4515 282.838C91.4289 282.829 91.4095 282.814 91.3958 282.794C91.3821 282.774 91.3748 282.75 91.3748 282.726C91.3748 282.702 91.3821 282.678 91.3958 282.658C91.4095 282.638 91.4289 282.623 91.4515 282.614C91.715 282.454 94.046 281.121 94.6049 282.047C94.6616 282.128 94.692 282.224 94.692 282.323C94.692 282.421 94.6616 282.517 94.6049 282.598C94.3654 282.894 93.7187 282.989 93.0481 282.989ZM91.8267 282.654C92.8166 282.798 94.1498 282.774 94.3734 282.454C94.3734 282.454 94.4452 282.351 94.3734 282.175C94.0221 281.648 92.6011 282.247 91.8267 282.654Z" fill="#508EC2"></path> <path d="M91.4517 282.845C91.4312 282.853 91.4084 282.853 91.3879 282.845C91.3692 282.834 91.354 282.817 91.3442 282.797C91.3343 282.778 91.3301 282.755 91.332 282.733C91.3526 281.996 91.6101 281.285 92.0664 280.706C92.1609 280.626 92.2703 280.566 92.3881 280.529C92.506 280.492 92.63 280.479 92.753 280.49C93.1042 280.53 93.208 280.706 93.232 280.849C93.3278 281.456 92.1383 282.566 91.5076 282.853L91.4517 282.845ZM92.6572 280.714C92.4992 280.715 92.3465 280.771 92.2261 280.873C91.8578 281.328 91.6402 281.886 91.6034 282.47C92.2341 282.079 93.0484 281.201 92.9845 280.833C92.9845 280.833 92.9845 280.706 92.729 280.682L92.6572 280.714Z" fill="#508EC2"></path> <path d="M85.6804 282.716H90.9334L90.9892 270.542H85.7283L85.6804 282.716Z" fill="#FF8B7B"></path> <path d="M44.9653 278.949L49.891 280.09L54.0263 268.052L49.1006 266.91L44.9653 278.949Z" fill="#FF8B7B"></path> <path d="M50.6578 279.276L44.9339 277.815C44.8342 277.787 44.7276 277.796 44.6338 277.84C44.54 277.884 44.4651 277.96 44.423 278.055L42.4511 282.373C42.4034 282.481 42.3801 282.598 42.3828 282.716C42.3855 282.833 42.4142 282.949 42.4669 283.054C42.5195 283.159 42.5948 283.252 42.6873 283.325C42.7798 283.397 42.8873 283.449 43.002 283.475C45.0137 283.946 46.0116 284.074 48.5263 284.705C50.0751 285.096 53.2364 286.062 55.3759 286.597C57.5154 287.131 58.2419 285.064 57.4036 284.657C53.6595 282.797 52.4381 281.232 51.4163 279.771C51.2294 279.522 50.9609 279.347 50.6578 279.276Z" fill="#263238"></path> <path d="M90.8769 282.111H85.1369C85.0335 282.111 84.9332 282.147 84.8531 282.212C84.7731 282.278 84.7182 282.369 84.6979 282.471L83.8437 287.141C83.8237 287.256 83.8295 287.375 83.8606 287.488C83.8916 287.601 83.9473 287.706 84.0235 287.795C84.0997 287.884 84.1947 287.956 84.3016 288.004C84.4085 288.052 84.5247 288.076 84.642 288.075C86.7096 288.075 89.6953 287.923 92.2979 287.923C95.3474 287.923 95.4033 288.083 98.9718 288.083C101.127 288.083 101.646 285.903 100.736 285.688C96.5848 284.794 95.8025 284.698 92.1622 282.495C91.7768 282.252 91.3323 282.119 90.8769 282.111Z" fill="#263238"></path> <path d="M73.5217 99.5487C68.5243 99.9479 61.4751 112.481 61.4751 112.481L70.528 120.68C73.3473 117.524 75.9126 114.15 78.1999 110.589C81.7524 104.897 78.631 99.1416 73.5217 99.5487Z" fill="#508EC2"></path> <path opacity="0.6" d="M73.5217 99.5487C68.5243 99.9479 61.4751 112.481 61.4751 112.481L70.528 120.68C73.3473 117.524 75.9126 114.15 78.1999 110.589C81.7524 104.897 78.631 99.1416 73.5217 99.5487Z" fill="white"></path> <path opacity="0.2" d="M76.0763 108.571L70.0969 120.275L70.52 120.666C70.52 120.666 72.8352 118.135 75.4137 114.646L76.0763 108.571Z" fill="black"></path> <path d="M98.5648 127.651C97.6627 133.447 96.2337 140.616 94.0384 149.445L66.2329 145.294C66.4884 141.302 70.7434 123.508 69.9052 104.404C69.8755 103.768 69.9769 103.132 70.2031 102.537C70.4294 101.941 70.7756 101.399 71.2203 100.943C71.665 100.487 72.1986 100.128 72.7882 99.8865C73.3777 99.6455 74.0105 99.5283 74.6472 99.5421C76.0203 99.5421 77.5291 99.6459 79.014 99.7896C82.985 100.152 86.9324 100.738 90.8371 101.546C93.5144 102.223 96.1354 103.107 98.6766 104.188C98.6766 104.188 100.672 107.118 99.5947 119.308C99.3791 121.727 99.0518 124.482 98.5648 127.651Z" fill="#508EC2"></path> <path opacity="0.6" d="M98.5648 127.651C97.6627 133.447 96.2337 140.616 94.0384 149.445L66.2329 145.294C66.4884 141.302 70.7434 123.508 69.9052 104.404C69.8755 103.768 69.9769 103.132 70.2031 102.537C70.4294 101.941 70.7756 101.399 71.2203 100.943C71.665 100.487 72.1986 100.128 72.7882 99.8865C73.3777 99.6455 74.0105 99.5283 74.6472 99.5421C76.0203 99.5421 77.5291 99.6459 79.014 99.7896C82.985 100.152 86.9324 100.738 90.8371 101.546C93.5144 102.223 96.1354 103.107 98.6766 104.188C98.6766 104.188 100.672 107.118 99.5947 119.308C99.3791 121.727 99.0518 124.482 98.5648 127.651Z" fill="white"></path> <path opacity="0.2" d="M98.5649 127.651C96.3056 126.222 94.1901 119.668 95.1401 116.211L99.5947 119.324C99.3791 121.727 99.0518 124.482 98.5649 127.651Z" fill="black"></path> <path d="M92.314 107.772C90.8771 112.562 99.5787 126.668 99.5787 126.668L109.957 121.24C108.43 116.818 106.383 112.595 103.858 108.658C99.6985 102.535 93.9745 102.359 92.314 107.772Z" fill="#508EC2"></path> <path opacity="0.6" d="M92.314 107.772C90.8771 112.562 99.5787 126.668 99.5787 126.668L109.957 121.24C108.43 116.818 106.383 112.595 103.858 108.658C99.6985 102.535 93.9745 102.359 92.314 107.772Z" fill="white"></path> <path opacity="0.2" d="M90.9812 270.551L90.9573 276.826H85.7043L85.7283 270.551H90.9812Z" fill="black"></path> <path opacity="0.2" d="M49.101 266.917L54.0266 268.051L51.8871 274.262L46.9695 273.12L49.101 266.917Z" fill="black"></path> <path d="M84.1154 80.9817C82.5906 85.9872 81.449 88.8292 82.9498 92.3418C83.4157 93.4918 84.1882 94.4918 85.1833 95.233C86.1784 95.9741 87.3578 96.4279 88.593 96.5448C89.8282 96.6617 91.0718 96.4373 92.1883 95.8961C93.3048 95.3549 94.2513 94.5176 94.9246 93.4754C97.591 89.4838 99.6347 81.9956 95.6511 78.0918C94.8152 77.2209 93.7639 76.5864 92.6038 76.2525C91.4437 75.9186 90.216 75.8973 89.045 76.1907C87.874 76.484 86.8013 77.0817 85.9356 77.923C85.0699 78.7644 84.442 79.8196 84.1154 80.9817Z" fill="#FF8B7B"></path> <path d="M92.1545 86.4817C91.5558 89.0443 89.9991 93.6666 86.1671 94.2014C84.0276 94.4968 80.4671 93.8661 80.1398 92.1418C79.8125 90.4174 81.1377 90.6489 80.8024 89.2359C80.4671 87.8229 78.7188 82.8493 80.7066 79.3687C77.9445 79.6002 79.8365 75.5048 84.794 74.5788C83.2613 73.98 83.9957 69.7888 91.6436 71.7846C95.2201 72.7027 97.8785 74.1077 98.1978 76.0317C101.455 77.4048 102.317 80.8615 100.297 82.1229C98.2776 83.3842 95.3558 81.9632 95.3558 81.9632C95.3558 81.9632 96.7369 89.2758 92.1545 86.4817Z" fill="#263238"></path> <path d="M90.0708 86.0894C90.0007 87.2389 90.3527 88.3744 91.0607 89.2827C92.0107 90.4961 92.33 90.5041 92.7212 89.1549C93.0804 87.9415 93.9506 85.2272 92.6813 84.5087C91.412 83.7902 90.1825 84.6923 90.0708 86.0894Z" fill="#FF8B7B"></path> <path d="M84.179 147.976C84.179 147.976 79.86 189.201 77.2096 204.241C74.2558 220.719 54.6332 273.695 54.6332 273.695L45.2769 271.38C50.0668 253.019 57.1638 218.827 61.4827 205.734C64.7399 185.832 61.4827 160.813 66.2727 145.31L84.179 147.976Z" fill="#263238"></path> <path d="M56.8128 270.631L55.0884 274.008L44.5825 271.365L45.4527 268.172L56.8128 270.631Z" fill="#508EC2"></path> <path opacity="0.2" d="M81.5127 164.053C81.8104 163.994 82.117 163.994 82.4148 164.053C81.0337 176.363 79.0698 192.793 77.5211 202.221C76.2278 188.522 75.0303 165.331 81.5127 164.053Z" fill="black"></path> <path d="M94.0384 149.444C94.0384 149.444 96.2178 193.496 96.5372 209.518C96.8645 226.187 92.8729 275.611 92.8729 275.611H83.9636C83.9636 275.611 80.6027 229.779 82.4149 207.426C80.2674 190.398 75.7649 146.754 75.7649 146.754L94.0384 149.444Z" fill="#263238"></path> <path d="M126.186 141.542C124.738 141.422 123.281 141.629 121.923 142.149L121.277 143.218C121.151 143.43 121.075 143.668 121.053 143.913C121.032 144.158 121.067 144.405 121.154 144.635C121.242 144.866 121.38 145.073 121.559 145.243C121.738 145.412 121.952 145.539 122.187 145.613L125.308 146.611L126.833 147.074C127.154 147.174 127.498 147.169 127.816 147.062C128.134 146.954 128.411 146.749 128.605 146.476L129.26 145.566C129.495 145.244 129.602 144.847 129.559 144.451C129.516 144.055 129.327 143.69 129.029 143.426L127.623 142.157C127.223 141.802 126.719 141.587 126.186 141.542Z" fill="#FF8B7B"></path> <path d="M94.4454 272.059L94.0862 275.755H83.253L82.8379 272.458L94.4454 272.059Z" fill="#508EC2"></path> </svg> 