<?xml version="1.0" encoding="UTF-8"?> <svg xmlns="http://www.w3.org/2000/svg" width="375" height="279" viewBox="0 0 375 279" fill="none"> <path d="M337.416 257.61H312.577V257.798H337.416V257.61Z" fill="#EBEBEB"></path> <path d="M248.408 259.65H241.891V259.838H248.408V259.65Z" fill="#EBEBEB"></path> <path d="M311.827 250.651H297.435V250.839H311.827V250.651Z" fill="#EBEBEB"></path> <path d="M71.7354 251.911H39.3438V252.099H71.7354V251.911Z" fill="#EBEBEB"></path> <path d="M83.1653 251.911H78.418V252.099H83.1653V251.911Z" fill="#EBEBEB"></path> <path d="M168.858 255.076H98.6001V255.264H168.858V255.076Z" fill="#EBEBEB"></path> <path d="M374.99 245.543H0V245.73H374.99V245.543Z" fill="#EBEBEB"></path> <path d="M177.745 212.094H32.9316C31.7972 212.092 30.7098 211.64 29.9084 210.837C29.1069 210.034 28.6567 208.946 28.6567 207.812V4.24489C28.6666 3.11693 29.1211 2.03843 29.9215 1.24363C30.722 0.448832 31.8036 0.00193224 32.9316 0H177.745C178.881 0 179.97 0.451179 180.773 1.25428C181.576 2.05738 182.028 3.14662 182.028 4.28238V207.812C182.028 208.948 181.576 210.037 180.773 210.84C179.97 211.643 178.881 212.094 177.745 212.094ZM32.9316 0.149997C31.8469 0.151983 30.8073 0.584283 30.0409 1.35201C29.2746 2.11973 28.8442 3.16015 28.8442 4.24489V207.812C28.8442 208.897 29.2746 209.937 30.0409 210.705C30.8073 211.473 31.8469 211.905 32.9316 211.907H179.995C182.245 211.907 181.833 210.069 181.833 207.812V4.24489C181.831 3.16076 181.4 2.12149 180.634 1.35419C179.868 0.586894 178.829 0.153959 177.745 0.149997H32.9316Z" fill="#EBEBEB"></path> <path d="M339.974 212.094H195.152C194.017 212.092 192.929 211.64 192.127 210.838C191.324 210.035 190.872 208.947 190.87 207.812V4.24489C190.882 3.11625 191.338 2.03775 192.14 1.24316C192.941 0.448569 194.024 0.00191117 195.152 0H339.974C341.1 0.00390327 342.18 0.451675 342.979 1.24626C343.778 2.04085 344.231 3.11823 344.241 4.24489V207.812C344.241 208.945 343.792 210.032 342.992 210.835C342.192 211.637 341.107 212.09 339.974 212.094ZM195.152 0.149997C194.067 0.151979 193.027 0.58404 192.259 1.35155C191.492 2.11906 191.06 3.15946 191.058 4.24489V207.812C191.06 208.897 191.492 209.938 192.259 210.705C193.027 211.473 194.067 211.905 195.152 211.907H339.974C341.059 211.905 342.099 211.473 342.867 210.705C343.634 209.938 344.067 208.897 344.068 207.812V4.24489C344.067 3.15946 343.634 2.11906 342.867 1.35155C342.099 0.58404 341.059 0.151979 339.974 0.149997H195.152Z" fill="#EBEBEB"></path> <path opacity="0.2" d="M43.1016 212.012H188.103L197.642 14.542H57.7712L43.1016 212.012Z" fill="black"></path> <path d="M38.6465 212.012H186.753L196.3 14.542H57.771L38.6465 212.012Z" fill="#E6E6E6"></path> <path opacity="0.1" d="M44.9312 208.344H180.542L189.67 21.1794L61.5807 21.1719L44.9312 208.344Z" fill="black"></path> <path d="M189.67 21.1719C188.103 82.8552 182.687 144.381 173.455 205.389H75.6956C64.8959 205.067 44.7739 204.602 44.7739 204.602C44.7739 204.602 60.186 75.6504 61.581 21.1719H189.67Z" fill="#FAFAFA"></path> <path d="M152.186 35.7139C151.901 43.7837 151.551 51.8509 151.136 59.9157H175.346C175.766 51.8459 176.116 43.7787 176.396 35.7139H152.186ZM173.343 57.8083H153.356C153.696 51.1385 153.986 44.4761 154.226 37.8213H174.213C173.968 44.4811 173.678 51.1435 173.343 57.8083Z" fill="#E0E0E0"></path> <path d="M148.144 74.8848C147.864 82.9545 147.514 91.0243 147.094 99.0941H171.296C171.716 91.0193 172.068 82.9495 172.353 74.8848H148.144ZM169.301 96.9867H149.314C149.644 90.3219 149.934 83.657 150.184 76.9922H170.171C169.921 83.662 169.631 90.3268 169.301 96.9867Z" fill="#E0E0E0"></path> <path d="M144.649 112.752C144.369 120.817 144.019 128.884 143.599 136.954H167.815C168.23 128.884 168.58 120.817 168.865 112.752H144.649ZM165.806 134.846H145.819C146.149 128.177 146.439 121.514 146.689 114.859H166.676C166.431 121.514 166.141 128.177 165.806 134.846Z" fill="#E0E0E0"></path> <path d="M139.286 153.078C139.006 161.148 138.656 169.218 138.236 177.287H162.446C162.861 169.213 163.211 161.143 163.496 153.078H139.286ZM160.443 175.18H140.456C140.786 168.515 141.076 161.85 141.326 155.186H161.313C161.063 161.845 160.773 168.51 160.443 175.18Z" fill="#E0E0E0"></path> <path d="M71.0457 49.9414H139.496C139.441 51.4414 139.384 52.9413 139.324 54.4413H70.8657L71.0457 49.9414Z" fill="#E6E6E6"></path> <path d="M86.6154 42.748H140.172C140.112 44.248 140.037 45.748 139.969 47.2479H86.3979C86.4729 45.748 86.5404 44.248 86.6154 42.748Z" fill="#E6E6E6"></path> <path d="M64.7684 90.4102H133.212C133.159 91.9101 133.099 93.4101 133.039 94.91H64.5884C64.6484 93.4251 64.7159 91.9101 64.7684 90.4102Z" fill="#E6E6E6"></path> <path d="M80.3379 83.1943H133.901C133.834 84.6943 133.759 86.1943 133.691 87.6942H80.1279C80.1954 86.2018 80.2479 84.6943 80.3379 83.1943Z" fill="#E6E6E6"></path> <path d="M59.9985 165.91H128.442C128.382 167.41 128.329 168.91 128.262 170.41H59.811C59.881 168.92 59.9435 167.42 59.9985 165.91Z" fill="#E6E6E6"></path> <path d="M75.5681 158.695H129.124C129.064 160.195 128.989 161.695 128.922 163.195H75.3506C75.4256 161.703 75.4931 160.203 75.5681 158.695Z" fill="#E6E6E6"></path> <path d="M64.4307 126.199H132.874C132.814 127.699 132.761 129.199 132.694 130.699H64.2432C64.3132 129.209 64.3757 127.709 64.4307 126.199Z" fill="#E6E6E6"></path> <path d="M79.9927 118.984H133.556C133.496 120.484 133.421 121.984 133.346 123.484H79.7827C79.8502 121.992 79.9252 120.492 79.9927 118.984Z" fill="#E6E6E6"></path> <path d="M91.0024 24.689H162.746L162.116 22.4391C160.496 16.7993 159.746 13.0644 154.496 13.0644C154.496 13.0644 136.901 12.0669 136.414 10.5444C135.824 8.74058 134.676 7.17135 133.134 6.06425C131.593 4.95714 129.739 4.3697 127.841 4.38709C125.88 4.4106 123.969 5.00565 122.341 6.09933C120.713 7.19301 119.44 8.7378 118.677 10.5444C118.047 12.0444 98.8847 13.0644 98.8847 13.0644C93.5974 13.0644 93.9724 16.8143 91.8424 22.4391L91.0024 24.689Z" fill="#E0E0E0"></path> <path d="M155.021 49.6111C154.993 50.0066 155.044 50.4038 155.173 50.7788C155.302 51.1538 155.505 51.4989 155.771 51.7935C156.382 52.2263 157.14 52.3989 157.878 52.2735C160.878 52.026 163.556 50.3161 165.963 48.5236C170.588 45.0342 174.747 40.9661 178.338 36.4189C173.773 39.4989 169.093 42.4038 164.298 45.1337C162.839 46.0297 161.278 46.7473 159.648 47.2712C158.988 47.4586 158.088 47.4736 157.826 46.8437C157.503 46.0937 158.471 44.9612 157.826 44.4512C157.181 43.9412 155.816 45.0962 155.508 45.6137C154.908 46.5887 154.983 48.4936 155.021 49.6111Z" fill="#E0E0E0"></path> <path d="M149.659 88.4978C149.63 88.8933 149.682 89.2905 149.811 89.6655C149.94 90.0405 150.143 90.3856 150.408 90.6803C151.02 91.113 151.778 91.2857 152.516 91.1602C155.516 90.9052 158.193 89.2028 160.601 87.4103C165.224 83.9188 169.383 79.851 172.975 75.3057C168.405 78.3856 163.726 81.288 158.936 84.0129C157.479 84.9143 155.917 85.6346 154.286 86.1579C153.626 86.3454 152.726 86.3604 152.463 85.7229C152.141 84.9729 153.108 83.8479 152.463 83.3379C151.818 82.828 150.453 83.9829 150.146 84.4929C149.546 85.4379 149.621 87.3353 149.659 88.4978Z" fill="#E0E0E0"></path> <path d="M147.168 127.302C147.142 127.698 147.195 128.096 147.324 128.472C147.452 128.848 147.655 129.195 147.918 129.492C148.22 129.706 148.56 129.859 148.92 129.941C149.281 130.024 149.654 130.034 150.018 129.972C153.018 129.717 155.696 128.014 158.103 126.222C162.727 122.73 166.885 118.663 170.478 114.117C165.918 117.202 161.238 120.105 156.438 122.824C154.983 123.724 153.424 124.445 151.796 124.969C151.136 125.157 150.228 125.172 149.966 124.534C149.643 123.784 150.611 122.652 149.966 122.149C149.321 121.647 147.956 122.787 147.648 123.304C147.056 124.279 147.131 126.184 147.168 127.302Z" fill="#E0E0E0"></path> <path d="M273.788 196.772C274.538 197.695 275.288 198.79 275.048 199.952C274.877 200.587 274.474 201.135 273.918 201.487C273.362 201.839 272.695 201.968 272.048 201.849C271.408 201.707 270.815 201.404 270.325 200.97C269.834 200.536 269.462 199.984 269.243 199.367C268.943 198.617 268.838 197.792 268.545 197.035C267.698 194.845 265.545 193.502 263.505 192.317C263.378 194.567 264.668 196.72 266.19 198.415C267.713 200.109 269.535 201.557 270.855 203.424C272.175 205.292 272.94 207.767 272.033 209.867C271.969 210.046 271.857 210.204 271.71 210.324C271.482 210.453 271.214 210.49 270.96 210.429C268.575 210.107 266.948 207.872 265.898 205.697C264.848 203.522 263.978 201.114 262.05 199.697C262.898 202.562 265.2 204.767 266.415 207.497C267.178 209.266 267.477 211.201 267.285 213.118C267.092 215.036 266.413 216.872 265.313 218.454C265.234 218.596 265.127 218.72 264.998 218.818C264.869 218.916 264.72 218.986 264.563 219.024C264.098 219.076 263.76 218.604 263.565 218.176C261.615 213.924 263.048 208.172 259.673 204.932C259.148 206.072 258.63 207.182 258.105 208.337C257.837 209.053 257.421 209.705 256.883 210.249C256.605 210.512 256.253 210.682 255.874 210.737C255.496 210.792 255.109 210.729 254.768 210.557C253.763 209.912 254.018 208.397 254.468 207.287C255.581 204.404 256.957 201.63 258.578 199C257.445 198.467 256.328 199.629 255.481 200.574C254.633 201.519 253.073 202.352 252.308 201.324C252.083 200.986 251.976 200.583 252.001 200.177C252.001 198.197 253.358 196.487 254.798 195.122C256.238 193.757 257.873 192.542 258.833 190.817C257.753 191.143 256.605 191.172 255.511 190.9C254.453 190.532 253.606 189.325 254.011 188.29C255.287 186.844 256.699 185.523 258.225 184.345C259.943 183.805 261.623 185.387 262.92 186.34C267.001 189.306 270.657 192.816 273.788 196.772Z" fill="#EBEBEB"></path> <path d="M264.308 213.527C264.308 212.95 264.308 212.387 264.308 211.825C264.12 195.67 261.308 189.64 260.558 189.468L260.483 188.718C260.607 188.706 260.732 188.721 260.849 188.764C260.966 188.807 261.071 188.876 261.158 188.965C262.658 190.255 264.908 197.403 265.095 211.81C265.095 212.372 265.095 212.935 265.095 213.505L264.308 213.527Z" fill="#E0E0E0"></path> <path d="M264.293 221.859C264.293 221.387 264.293 214.51 264.293 211.915V210.902C264.293 195.438 266.648 187.758 268.23 186.37C268.319 186.279 268.427 186.208 268.546 186.162C268.665 186.117 268.793 186.098 268.92 186.108L268.823 186.858C268.035 187.038 265.073 193.518 265.073 210.902V211.915C265.073 214.502 265.073 221.379 265.073 221.852L264.293 221.859Z" fill="#E0E0E0"></path> <path d="M274.897 246.841H254.633L252.653 222.481H276.877L274.897 246.841Z" fill="#F0F0F0"></path> <path d="M278.445 223.734H250.883L250.388 220.494H278.947L278.445 223.734Z" fill="#FAFAFA"></path> <path d="M237.639 183.25C236.244 183.25 234.639 183.295 233.724 184.322C233.247 184.935 233.016 185.703 233.076 186.477C233.136 187.251 233.482 187.975 234.046 188.507C234.639 189.009 235.35 189.354 236.111 189.509C236.873 189.663 237.661 189.623 238.404 189.392C239.334 189.13 240.189 188.642 241.111 188.387C243.796 187.637 246.616 188.717 249.188 189.797C247.118 191.545 244.178 191.837 241.479 191.605C238.779 191.372 236.116 190.675 233.409 190.75C230.701 190.825 227.799 191.882 226.456 194.237C226.335 194.426 226.265 194.643 226.254 194.867C226.293 195.176 226.445 195.46 226.681 195.662C228.699 197.695 231.984 197.635 234.789 197.087C237.594 196.54 240.504 195.587 243.248 196.427C239.926 197.665 236.191 197.057 232.749 197.86C230.527 198.397 228.479 199.494 226.8 201.045C225.122 202.597 223.867 204.552 223.156 206.724C223.079 206.899 223.039 207.088 223.039 207.279C223.039 207.471 223.079 207.66 223.156 207.834C223.441 208.307 224.131 208.292 224.656 208.172C230.079 206.987 234.504 201.527 239.986 202.412L237.871 206.327C237.386 207.094 237.069 207.956 236.941 208.854C236.881 209.309 236.966 209.772 237.185 210.176C237.403 210.58 237.743 210.905 238.156 211.104C239.476 211.599 240.729 210.257 241.471 209.057C243.407 205.944 245.054 202.66 246.391 199.247C247.703 199.937 247.418 201.857 247.141 203.312C246.863 204.767 247.141 206.859 248.641 206.874C249.123 206.848 249.583 206.66 249.946 206.342C251.806 204.917 252.473 202.427 252.736 200.095C252.998 197.762 252.991 195.34 253.951 193.195C254.399 194.445 255.177 195.551 256.201 196.397C257.311 197.147 259.058 197.087 259.733 195.94C260.203 193.699 260.454 191.419 260.483 189.13C259.771 187.112 257.071 186.655 255.233 186.092C249.524 184.354 243.605 183.398 237.639 183.25Z" fill="#F5F5F5"></path> <path d="M273.12 209.244C273.75 210.489 274.553 211.839 275.91 212.199C276.674 212.333 277.461 212.176 278.116 211.76C278.771 211.344 279.247 210.698 279.45 209.949C279.618 209.191 279.59 208.402 279.37 207.657C279.149 206.912 278.743 206.235 278.19 205.69C277.522 204.992 276.69 204.46 276.03 203.762C274.095 201.745 273.743 198.745 273.488 195.97C276.008 196.982 277.642 199.435 278.7 201.932C279.757 204.43 280.395 207.107 281.737 209.432C283.08 211.757 285.36 213.857 288.067 213.932C288.291 213.95 288.516 213.908 288.72 213.812C288.974 213.632 289.153 213.365 289.222 213.062C290.07 210.332 288.472 207.459 286.68 205.24C284.887 203.02 282.712 200.875 282.135 198.07C284.79 200.425 285.997 204.01 288.33 206.695C289.848 208.403 291.777 209.697 293.935 210.452C296.092 211.208 298.406 211.402 300.659 211.014C300.849 211 301.034 210.948 301.203 210.86C301.372 210.773 301.521 210.652 301.642 210.504C301.934 210.024 301.597 209.424 301.237 209.004C297.644 204.775 290.737 203.425 288.952 198.167H293.407C294.31 198.238 295.218 198.115 296.069 197.807C296.493 197.644 296.855 197.352 297.105 196.973C297.355 196.594 297.481 196.146 297.464 195.692C297.277 194.29 295.515 193.817 294.097 193.72C290.442 193.471 286.772 193.556 283.132 193.975C283.132 192.475 284.955 191.845 286.38 191.44C287.805 191.035 289.492 189.745 288.817 188.44C288.567 188.028 288.187 187.712 287.737 187.54C285.6 186.565 283.087 187.143 280.905 188.005C278.722 188.867 276.585 190.015 274.245 190.172C275.136 189.177 275.743 187.959 276 186.648C276.135 185.328 275.25 183.805 273.938 183.745C271.741 184.39 269.611 185.244 267.578 186.295C266.13 187.863 266.993 190.465 267.36 192.347C268.508 198.214 270.446 203.898 273.12 209.244Z" fill="#F0F0F0"></path> <path opacity="0.2" d="M278.91 33.7487C278.91 34.0037 278.91 34.2537 278.91 34.4987V53.9982H252.241L250.823 52.6482L252.241 33.7487C252.241 30.2121 253.646 26.8204 256.146 24.3197C258.647 21.819 262.039 20.4141 265.575 20.4141C269.112 20.4141 272.504 21.819 275.004 24.3197C277.505 26.8204 278.91 30.2121 278.91 33.7487Z" fill="black"></path> <path d="M277.493 32.4284C277.493 32.6909 277.493 32.9459 277.493 33.1784V52.5879H250.823V32.4284C250.823 28.8918 252.228 25.5001 254.729 22.9994C257.23 20.4986 260.621 19.0938 264.158 19.0938C267.694 19.0938 271.086 20.4986 273.587 22.9994C276.088 25.5001 277.493 28.8918 277.493 32.4284Z" fill="#F5F5F5"></path> <path d="M273.853 34.2373C274.68 29.143 271.221 24.3429 266.126 23.516C261.032 22.6891 256.232 26.1485 255.405 31.2428C254.578 36.3371 258.037 41.1371 263.132 41.9641C268.226 42.791 273.026 39.3316 273.853 34.2373Z" fill="#E0E0E0"></path> <path d="M263.536 41.9161C268.697 41.9161 272.88 37.7323 272.88 32.5713C272.88 27.4103 268.697 23.2266 263.536 23.2266C258.375 23.2266 254.191 27.4103 254.191 32.5713C254.191 37.7323 258.375 41.9161 263.536 41.9161Z" fill="white"></path> <path d="M264.158 33.1943C264.158 33.3426 264.114 33.4876 264.031 33.611C263.949 33.7343 263.832 33.8304 263.695 33.8872C263.558 33.944 263.407 33.9588 263.261 33.9299C263.116 33.9009 262.982 33.8295 262.877 33.7246C262.772 33.6197 262.701 33.4861 262.672 33.3406C262.643 33.1951 262.658 33.0444 262.715 32.9073C262.772 32.7703 262.868 32.6531 262.991 32.5707C263.114 32.4883 263.259 32.4443 263.408 32.4443C263.607 32.4443 263.797 32.5234 263.938 32.664C264.079 32.8046 264.158 32.9954 264.158 33.1943Z" fill="#E0E0E0"></path> <path d="M263.31 33.4715L260.085 30.4341L260.4 30.0966L263.325 32.8491L268.568 28.2217L268.868 28.5667L263.31 33.4715Z" fill="#E0E0E0"></path> <path d="M187.495 279C267.805 279 332.909 275.199 332.909 270.51C332.909 265.822 267.805 262.021 187.495 262.021C107.185 262.021 42.0815 265.822 42.0815 270.51C42.0815 275.199 107.185 279 187.495 279Z" fill="#F5F5F5"></path> <path d="M184.818 158.155V249.908H187.203L190.203 158.155H184.818Z" fill="#508EC2"></path> <path d="M212.973 161.156V246.159H215.358L218.358 161.156H212.973Z" fill="#508EC2"></path> <path opacity="0.5" d="M212.973 161.156V246.159H215.358L218.358 161.156H212.973Z" fill="black"></path> <path d="M327.832 158.155V246.158H325.447L322.447 158.155H327.832Z" fill="#508EC2"></path> <path opacity="0.5" d="M327.832 158.155V246.158H325.447L322.447 158.155H327.832Z" fill="black"></path> <path d="M299.677 161.156V249.346H297.292L294.292 161.156H299.677Z" fill="#508EC2"></path> <path d="M344.309 155.396H166.608V159.243H344.309V155.396Z" fill="#508EC2"></path> <path d="M332.624 163.353H179.193L172.968 159.243H338.849L332.624 163.353Z" fill="#508EC2"></path> <path opacity="0.5" d="M332.624 163.353H179.193L172.968 159.243H338.849L332.624 163.353Z" fill="black"></path> <path d="M197.005 145.879H234.474V136.564H197.005V145.879Z" fill="#508EC2"></path> <path opacity="0.6" d="M197.125 145.916H234.594V136.601H197.125V145.916Z" fill="white"></path> <path opacity="0.6" d="M197.012 145.916H225.767V136.601H197.012V145.916Z" fill="white"></path> <path d="M197.193 144.694L234.474 145.856L234.437 144.911L197.17 144.424L197.193 144.694Z" fill="#508EC2"></path> <path d="M234.474 140.388L197.253 138.296V138.603L234.474 141.093V140.388Z" fill="#508EC2"></path> <path d="M234.474 137.576L197.253 138.424V138.731L234.474 138.281V137.576Z" fill="#508EC2"></path> <path d="M234.579 142.218L197.35 144.033V143.756L234.579 141.596V142.218Z" fill="#508EC2"></path> <path d="M199.615 155.561H237.084V146.246H199.615V155.561Z" fill="#508EC2"></path> <path opacity="0.6" d="M199.742 155.605H237.211V146.291H199.742V155.605Z" fill="white"></path> <path opacity="0.6" d="M228.459 146.283H199.705V155.598H228.459V146.283Z" fill="white"></path> <path d="M236.927 154.105L199.668 154.585L199.623 155.53L236.904 154.375L236.927 154.105Z" fill="#508EC2"></path> <path d="M199.863 146.365L237.092 146.395V146.703H199.863V146.365Z" fill="#508EC2"></path> <path d="M199.623 150.776L236.852 148.286V147.971L199.623 150.063V150.776Z" fill="#508EC2"></path> <path d="M237.092 147.251L199.863 148.106V148.413L237.092 147.963V147.251Z" fill="#508EC2"></path> <path d="M237.196 151.901L199.96 153.708V153.438L237.196 151.278V151.901Z" fill="#508EC2"></path> <path d="M231.332 100.452L193.885 100.64L193.825 109.767H231.332V100.452Z" fill="#508EC2"></path> <path opacity="0.6" d="M193.863 109.767H231.332V100.452H193.863V109.767Z" fill="white"></path> <path opacity="0.6" d="M222.579 100.452H193.825V109.767H222.579V100.452Z" fill="white"></path> <path d="M223.712 100.64H193.885V101.585H223.074L223.712 100.64Z" fill="#508EC2"></path> <path d="M231.114 104.457L193.885 104.802V105.08H231.114V104.457Z" fill="#508EC2"></path> <path d="M193.885 108.769L231.114 106.954V107.224L193.885 109.384V108.769Z" fill="#508EC2"></path> <path d="M193.885 105.267L231.114 106.009V106.272L193.885 105.882V105.267Z" fill="#508EC2"></path> <path d="M231.174 134.509H193.945V136.766H231.174V134.509Z" fill="#508EC2"></path> <path opacity="0.6" d="M231.174 134.531H193.945V136.774H231.174V134.531Z" fill="white"></path> <path opacity="0.6" d="M223.614 134.389H193.945V136.774H223.614V134.389Z" fill="white"></path> <path d="M193.968 135.528L231.204 135.986L231.197 136.128L193.96 135.851L193.968 135.528Z" fill="#508EC2"></path> <path d="M193.968 135.094L231.197 135.476V135.619L193.968 135.416V135.094Z" fill="#508EC2"></path> <path d="M231.549 110.246V116.171C231.7 116.171 231.845 116.231 231.952 116.338C232.059 116.445 232.119 116.59 232.119 116.741C232.119 116.892 232.059 117.037 231.952 117.144C231.845 117.251 231.7 117.311 231.549 117.311C229.299 117.311 227.049 117.311 224.799 117.311V109.062H231.549C231.706 109.062 231.857 109.124 231.968 109.235C232.079 109.346 232.142 109.497 232.142 109.654C232.142 109.811 232.079 109.962 231.968 110.073C231.857 110.184 231.706 110.246 231.549 110.246Z" fill="#508EC2"></path> <path opacity="0.3" d="M231.549 110.246V116.171C231.7 116.171 231.845 116.231 231.952 116.338C232.059 116.445 232.119 116.59 232.119 116.741C232.119 116.892 232.059 117.037 231.952 117.144C231.845 117.251 231.7 117.311 231.549 117.311C229.299 117.311 227.049 117.311 224.799 117.311V109.062H231.549C231.706 109.062 231.857 109.124 231.968 109.235C232.079 109.346 232.142 109.497 232.142 109.654C232.142 109.811 232.079 109.962 231.968 110.073C231.857 110.184 231.706 110.246 231.549 110.246Z" fill="white"></path> <path d="M231.549 110.27H226.284V116.187H231.549V110.27Z" fill="#508EC2"></path> <path opacity="0.6" d="M231.549 110.27H226.284V116.187H231.549V110.27Z" fill="white"></path> <path d="M227.387 109.691H198.31C197.05 109.691 196.06 111.274 196.06 113.224C196.06 115.174 197.073 116.756 198.31 116.756H227.387V109.691Z" fill="#508EC2"></path> <path opacity="0.9" d="M227.387 109.691H198.31C197.05 109.691 196.06 111.274 196.06 113.224C196.06 115.174 197.073 116.756 198.31 116.756H227.387V109.691Z" fill="white"></path> <path d="M227.387 117.327C221.387 117.327 204.602 117.432 198.625 117.327C194.53 117.252 194.313 109.4 198.325 109.13C201.13 108.935 204.01 109.13 206.815 109.13H227.387C227.526 109.146 227.654 109.212 227.747 109.317C227.84 109.421 227.891 109.556 227.891 109.696C227.891 109.836 227.84 109.971 227.747 110.075C227.654 110.18 227.526 110.246 227.387 110.262H199.57C198.257 110.262 197.32 110.262 196.818 111.822C196.375 113.165 196.518 115.894 198.317 116.187C198.522 116.206 198.728 116.206 198.932 116.187H227.394C227.545 116.187 227.69 116.247 227.797 116.354C227.904 116.461 227.964 116.606 227.964 116.757C227.964 116.908 227.904 117.053 227.797 117.16C227.69 117.267 227.545 117.327 227.394 117.327H227.387Z" fill="#508EC2"></path> <g opacity="0.2"> <path opacity="0.2" d="M227.387 117.327C221.387 117.327 204.602 117.432 198.625 117.327C194.53 117.252 194.313 109.4 198.325 109.13C201.13 108.935 204.01 109.13 206.815 109.13H227.387C227.526 109.146 227.654 109.212 227.747 109.317C227.84 109.421 227.891 109.556 227.891 109.696C227.891 109.836 227.84 109.971 227.747 110.075C227.654 110.18 227.526 110.246 227.387 110.262H199.57C198.257 110.262 197.32 110.262 196.818 111.822C196.375 113.165 196.518 115.894 198.317 116.187C198.522 116.206 198.728 116.206 198.932 116.187H227.394C227.545 116.187 227.69 116.247 227.797 116.354C227.904 116.461 227.964 116.606 227.964 116.757C227.964 116.908 227.904 117.053 227.797 117.16C227.69 117.267 227.545 117.327 227.394 117.327H227.387Z" fill="white"></path> </g> <path d="M225.287 118.264V123.746C225.426 123.746 225.559 123.802 225.658 123.9C225.756 123.998 225.812 124.132 225.812 124.271C225.812 124.41 225.756 124.544 225.658 124.642C225.559 124.741 225.426 124.796 225.287 124.796C223.194 124.796 221.102 124.796 219.009 124.796V117.214H225.287C225.426 117.214 225.559 117.269 225.658 117.368C225.756 117.466 225.812 117.6 225.812 117.739C225.812 117.878 225.756 118.012 225.658 118.11C225.559 118.209 225.426 118.264 225.287 118.264Z" fill="#508EC2"></path> <path opacity="0.3" d="M225.287 118.264V123.746C225.426 123.746 225.559 123.802 225.658 123.9C225.756 123.998 225.812 124.132 225.812 124.271C225.812 124.41 225.756 124.544 225.658 124.642C225.559 124.741 225.426 124.796 225.287 124.796C223.194 124.796 221.102 124.796 219.009 124.796V117.214H225.287C225.426 117.214 225.559 117.269 225.658 117.368C225.756 117.466 225.812 117.6 225.812 117.739C225.812 117.878 225.756 118.012 225.658 118.11C225.559 118.209 225.426 118.264 225.287 118.264Z" fill="white"></path> <path d="M225.287 118.271H220.412V123.754H225.287V118.271Z" fill="#508EC2"></path> <path opacity="0.6" d="M225.287 118.271H220.412V123.754H225.287V118.271Z" fill="white"></path> <path d="M221.432 117.747H194.507C193.345 117.747 192.4 119.21 192.4 121.017C192.4 122.824 193.345 124.287 194.507 124.287H221.432V117.747Z" fill="#508EC2"></path> <path opacity="0.9" d="M221.432 117.747H194.507C193.345 117.747 192.4 119.21 192.4 121.017C192.4 122.824 193.345 124.287 194.507 124.287H221.432V117.747Z" fill="white"></path> <path d="M221.432 124.804C215.897 124.804 200.335 124.901 194.8 124.804C191.005 124.736 190.803 117.469 194.523 117.214C197.117 117.034 199.772 117.214 202.382 117.214H221.432C221.571 117.214 221.705 117.269 221.803 117.368C221.901 117.466 221.957 117.6 221.957 117.739C221.957 117.878 221.901 118.012 221.803 118.11C221.705 118.208 221.571 118.264 221.432 118.264H195.67C194.455 118.264 193.593 118.264 193.12 119.711C192.715 120.949 192.843 123.461 194.508 123.754C194.695 123.769 194.883 123.769 195.07 123.754H221.432C221.571 123.754 221.705 123.809 221.803 123.907C221.901 124.006 221.957 124.139 221.957 124.279C221.957 124.418 221.901 124.551 221.803 124.65C221.705 124.748 221.571 124.804 221.432 124.804Z" fill="#508EC2"></path> <path d="M233.672 125.996V132.528C233.826 132.545 233.969 132.619 234.072 132.734C234.176 132.85 234.233 132.999 234.233 133.155C234.233 133.31 234.176 133.46 234.072 133.575C233.969 133.691 233.826 133.764 233.672 133.781C231.182 133.781 228.692 133.781 226.172 133.781V124.706H233.672C233.843 124.706 234.007 124.774 234.128 124.895C234.249 125.016 234.317 125.18 234.317 125.351C234.317 125.522 234.249 125.686 234.128 125.807C234.007 125.928 233.843 125.996 233.672 125.996Z" fill="#508EC2"></path> <path opacity="0.3" d="M233.672 125.996V132.528C233.826 132.545 233.969 132.619 234.072 132.734C234.176 132.85 234.233 132.999 234.233 133.155C234.233 133.31 234.176 133.46 234.072 133.575C233.969 133.691 233.826 133.764 233.672 133.781C231.182 133.781 228.692 133.781 226.172 133.781V124.706H233.672C233.843 124.706 234.007 124.774 234.128 124.895C234.249 125.016 234.317 125.18 234.317 125.351C234.317 125.522 234.249 125.686 234.128 125.807C234.007 125.928 233.843 125.996 233.672 125.996Z" fill="white"></path> <path d="M233.672 125.966H227.867V132.491H233.672V125.966Z" fill="#508EC2"></path> <path opacity="0.6" d="M233.672 125.966H227.867V132.491H233.672V125.966Z" fill="white"></path> <path d="M229.082 125.336H197.035C195.648 125.336 194.53 127.076 194.53 129.228C194.53 131.381 195.648 133.121 197.035 133.121H229.082V125.336Z" fill="#508EC2"></path> <path opacity="0.9" d="M229.082 125.336H197.035C195.648 125.336 194.53 127.076 194.53 129.228C194.53 131.381 195.648 133.121 197.035 133.121H229.082V125.336Z" fill="white"></path> <path d="M229.082 133.744C222.489 133.744 203.972 133.864 197.38 133.744C192.88 133.661 192.625 125.014 197.05 124.707C200.14 124.497 203.312 124.707 206.402 124.707H229.082C229.236 124.724 229.379 124.797 229.482 124.912C229.586 125.028 229.643 125.178 229.643 125.333C229.643 125.488 229.586 125.638 229.482 125.753C229.379 125.869 229.236 125.942 229.082 125.959H198.423C196.975 125.959 195.948 125.959 195.385 127.684C194.905 129.184 195.055 132.184 197.035 132.491C197.26 132.51 197.486 132.51 197.71 132.491H229.082C229.236 132.508 229.379 132.582 229.482 132.697C229.586 132.813 229.643 132.962 229.643 133.118C229.643 133.273 229.586 133.423 229.482 133.538C229.379 133.654 229.236 133.727 229.082 133.744Z" fill="#508EC2"></path> <g opacity="0.2"> <path opacity="0.2" d="M229.082 133.744C222.489 133.744 203.972 133.864 197.38 133.744C192.88 133.661 192.625 125.014 197.05 124.707C200.14 124.497 203.312 124.707 206.402 124.707H229.082C229.236 124.724 229.379 124.797 229.482 124.912C229.586 125.028 229.643 125.178 229.643 125.333C229.643 125.488 229.586 125.638 229.482 125.753C229.379 125.869 229.236 125.942 229.082 125.959H198.423C196.975 125.959 195.948 125.959 195.385 127.684C194.905 129.184 195.055 132.184 197.035 132.491C197.26 132.51 197.486 132.51 197.71 132.491H229.082C229.236 132.508 229.379 132.582 229.482 132.697C229.586 132.813 229.643 132.962 229.643 133.118C229.643 133.273 229.586 133.423 229.482 133.538C229.379 133.654 229.236 133.727 229.082 133.744Z" fill="black"></path> </g> <path d="M283.673 153.341L240.114 153.536C239.825 153.542 239.539 153.487 239.274 153.373C239.01 153.259 238.772 153.09 238.578 152.877C238.384 152.664 238.238 152.411 238.15 152.137C238.061 151.862 238.033 151.572 238.066 151.286L240.376 123.432C240.435 122.825 240.714 122.261 241.16 121.847C241.607 121.432 242.189 121.195 242.799 121.182L286.357 120.987C286.646 120.981 286.932 121.036 287.197 121.15C287.462 121.264 287.699 121.433 287.893 121.646C288.087 121.859 288.233 122.111 288.321 122.386C288.41 122.66 288.438 122.95 288.405 123.237L286.095 151.091C286.036 151.697 285.757 152.261 285.311 152.676C284.865 153.091 284.282 153.327 283.673 153.341Z" fill="#263238"></path> <path d="M283.56 151.144L239.356 151.346L241.681 123.312L285.885 123.117L283.56 151.144Z" fill="#508EC2"></path> <path d="M282.96 153.341L239.401 153.536C239.113 153.543 238.826 153.489 238.56 153.375C238.295 153.262 238.057 153.093 237.863 152.879C237.668 152.666 237.522 152.413 237.435 152.138C237.347 151.863 237.319 151.573 237.354 151.286L239.664 123.432C239.722 122.825 240.001 122.261 240.448 121.847C240.894 121.432 241.477 121.195 242.086 121.182L285.645 120.987C285.933 120.981 286.219 121.036 286.484 121.15C286.749 121.264 286.987 121.433 287.181 121.646C287.375 121.859 287.521 122.111 287.609 122.386C287.697 122.66 287.726 122.95 287.692 123.237L285.383 151.091C285.324 151.697 285.045 152.261 284.599 152.676C284.152 153.091 283.569 153.327 282.96 153.341Z" fill="#508EC2"></path> <g opacity="0.7"> <path opacity="0.7" d="M283.23 150.821L239.034 151.016L241.359 122.989L285.562 122.794L283.23 150.821Z" fill="#508EC2"></path> <path opacity="0.9" d="M281.243 150.829L241.404 151.009C241.102 151.01 240.804 150.948 240.528 150.828C240.251 150.707 240.003 150.531 239.798 150.309C239.594 150.088 239.438 149.826 239.34 149.541C239.241 149.256 239.204 148.954 239.229 148.654L241.194 124.977C241.239 124.434 241.485 123.928 241.885 123.559C242.285 123.19 242.809 122.984 243.354 122.982L283.185 122.802C283.487 122.8 283.786 122.86 284.062 122.98C284.339 123.1 284.588 123.277 284.793 123.499C284.998 123.72 285.154 123.982 285.251 124.268C285.349 124.553 285.386 124.856 285.36 125.157L283.395 148.841C283.35 149.382 283.104 149.886 282.705 150.254C282.307 150.622 281.785 150.827 281.243 150.829Z" fill="white"></path> </g> <path opacity="0.1" d="M276.195 121.009L267.706 153.333L270.608 153.318L279.008 120.994L276.195 121.009Z" fill="white"></path> <path opacity="0.1" d="M280.68 120.987L272.19 153.311L277.95 153.289L286.343 120.957L280.68 120.987Z" fill="white"></path> <path d="M269.138 153.183L283.838 153.31C284.033 155.02 283.275 155.635 282.338 155.628L228.527 155.545C227.959 155.543 227.415 155.316 227.015 154.914C226.614 154.512 226.389 153.968 226.389 153.4L269.138 153.183Z" fill="#508EC2"></path> <path opacity="0.2" d="M269.138 153.183L283.838 153.31C284.033 155.02 283.275 155.635 282.338 155.628L228.527 155.545C227.959 155.543 227.415 155.316 227.015 154.914C226.614 154.512 226.389 153.968 226.389 153.4L269.138 153.183Z" fill="white"></path> <path opacity="0.2" d="M283.838 153.311C284.033 155.021 283.275 155.636 282.338 155.629H267.413C268.636 155.629 270.196 154.444 270.196 153.214L283.838 153.311Z" fill="white"></path> <path d="M286.792 126.844C287.888 125.963 289.265 125.508 290.67 125.561C292.066 125.616 293.431 125.99 294.66 126.656C294.775 124.856 294.882 123.056 294.982 121.256C295.065 119.944 288.892 119.809 288.135 120.109C286.14 120.881 287.122 124.984 286.792 126.844Z" fill="#508EC2"></path> <path opacity="0.9" d="M286.792 126.844C287.888 125.963 289.265 125.508 290.67 125.561C292.066 125.616 293.431 125.99 294.66 126.656C294.775 124.856 294.882 123.056 294.982 121.256C295.065 119.944 288.892 119.809 288.135 120.109C286.14 120.881 287.122 124.984 286.792 126.844Z" fill="white"></path> <path d="M286.042 130.908C287.278 130.431 288.596 130.204 289.92 130.241C291.268 130.265 292.609 130.456 293.91 130.811C294.022 129.881 294.127 128.943 294.232 128.006C294.315 127.323 288.142 127.256 287.385 127.406C285.39 127.811 286.372 129.941 286.042 130.908Z" fill="#508EC2"></path> <path opacity="0.9" d="M286.042 130.908C287.278 130.431 288.596 130.204 289.92 130.241C291.268 130.265 292.609 130.456 293.91 130.811C294.022 129.881 294.127 128.943 294.232 128.006C294.315 127.323 288.142 127.256 287.385 127.406C285.39 127.811 286.372 129.941 286.042 130.908Z" fill="white"></path> <path d="M285.743 135.783C286.98 135.302 288.301 135.075 289.628 135.116C290.976 135.14 292.316 135.332 293.617 135.686C293.722 134.748 293.827 133.818 293.94 132.881C294.015 132.198 287.85 132.131 287.085 132.281C285.098 132.686 286.08 134.816 285.743 135.783Z" fill="#508EC2"></path> <path opacity="0.9" d="M285.743 135.783C286.98 135.302 288.301 135.075 289.628 135.116C290.976 135.14 292.316 135.332 293.617 135.686C293.722 134.748 293.827 133.818 293.94 132.881C294.015 132.198 287.85 132.131 287.085 132.281C285.098 132.686 286.08 134.816 285.743 135.783Z" fill="white"></path> <path d="M278.768 115.646C278.797 115.571 278.84 115.503 278.895 115.444C279.003 115.366 279.137 115.331 279.27 115.346L284.182 115.271C283.146 117.523 282.602 119.97 282.585 122.449C281.378 122.396 277.185 122.449 277.185 122.449C276.375 121.159 278.243 116.906 278.768 115.646Z" fill="#508EC2"></path> <path opacity="0.9" d="M278.768 115.646C278.797 115.571 278.84 115.503 278.895 115.444C279.003 115.366 279.137 115.331 279.27 115.346L284.182 115.271C283.146 117.523 282.602 119.97 282.585 122.449C281.378 122.396 277.185 122.449 277.185 122.449C276.375 121.159 278.243 116.906 278.768 115.646Z" fill="white"></path> <path d="M270.376 115.047C270.402 114.968 270.445 114.896 270.503 114.837C270.611 114.763 270.74 114.729 270.871 114.739L275.79 114.664C274.754 116.916 274.21 119.363 274.193 121.841C272.985 121.789 268.793 121.841 268.793 121.841C267.983 120.559 269.851 116.307 270.376 115.047Z" fill="#508EC2"></path> <path opacity="0.9" d="M270.376 115.047C270.402 114.968 270.445 114.896 270.503 114.837C270.611 114.763 270.74 114.729 270.871 114.739L275.79 114.664C274.754 116.916 274.21 119.363 274.193 121.841C272.985 121.789 268.793 121.841 268.793 121.841C267.983 120.559 269.851 116.307 270.376 115.047Z" fill="white"></path> <path d="M263.476 115.025C263.493 114.954 263.521 114.885 263.558 114.822C263.588 114.788 263.625 114.762 263.666 114.745C263.708 114.728 263.753 114.721 263.798 114.725H266.896C266.19 117.046 265.809 119.454 265.763 121.879C265.013 121.812 262.358 121.879 262.358 121.879C261.871 120.507 263.123 116.247 263.476 115.025Z" fill="#508EC2"></path> <path opacity="0.9" d="M263.476 115.025C263.493 114.954 263.521 114.885 263.558 114.822C263.588 114.788 263.625 114.762 263.666 114.745C263.708 114.728 263.753 114.721 263.798 114.725H266.896C266.19 117.046 265.809 119.454 265.763 121.879C265.013 121.812 262.358 121.879 262.358 121.879C261.871 120.507 263.123 116.247 263.476 115.025Z" fill="white"></path> <g opacity="0.2"> <path opacity="0.2" d="M241.854 121.361C241.763 122.376 241.472 123.362 240.999 124.264C240.463 125.397 239.825 126.479 239.094 127.496C242.784 127.571 245.574 127.744 246.961 127.541C248.406 125.523 248.999 123.018 248.611 120.566C246.429 121.211 243.774 120.701 241.516 121.249L241.854 121.361Z" fill="black"></path> </g> <path d="M241.899 120.521C241.657 121.533 241.229 122.492 240.639 123.349C239.945 124.438 239.157 125.464 238.284 126.416C240.912 126.67 243.556 126.703 246.189 126.514C247.944 124.624 248.716 122.764 248.611 120.566C245.994 120.566 241.899 120.521 241.899 120.521Z" fill="#508EC2"></path> <g opacity="0.9"> <path opacity="0.9" d="M241.899 120.521C241.657 121.533 241.229 122.492 240.639 123.349C239.945 124.438 239.157 125.464 238.284 126.416C240.912 126.67 243.556 126.703 246.189 126.514C247.944 124.624 248.716 122.764 248.611 120.566C245.994 120.566 241.899 120.521 241.899 120.521Z" fill="white"></path> </g> <g opacity="0.2"> <path opacity="0.2" d="M251.993 120.686C251.904 121.811 251.614 122.911 251.138 123.934C250.606 125.193 249.969 126.405 249.233 127.556C252.931 127.631 255.713 127.826 257.101 127.601C258.56 125.277 259.144 122.51 258.751 119.794C256.568 120.544 253.913 119.944 251.663 120.544L251.993 120.686Z" fill="black"></path> </g> <path d="M251.994 119.749C251.76 120.867 251.334 121.935 250.734 122.906C250.047 124.116 249.262 125.268 248.386 126.349C251.01 126.627 253.653 126.663 256.284 126.454C257.938 124.641 258.809 122.247 258.706 119.794C256.104 119.794 251.994 119.749 251.994 119.749Z" fill="#508EC2"></path> <g opacity="0.9"> <path opacity="0.9" d="M251.994 119.749C251.76 120.867 251.334 121.935 250.734 122.906C250.047 124.116 249.262 125.268 248.386 126.349C251.01 126.627 253.653 126.663 256.284 126.454C257.938 124.641 258.809 122.247 258.706 119.794C256.104 119.794 251.994 119.749 251.994 119.749Z" fill="white"></path> </g> <path d="M323.077 155.539H310.859L314.692 143.209L315.247 141.401H318.014L323.077 155.539Z" fill="#508EC2"></path> <path opacity="0.2" d="M323.077 155.539H310.859L314.692 143.209L315.247 141.401H318.014L323.077 155.539Z" fill="black"></path> <path d="M315.247 141.401L314.692 143.209L310.86 155.539L299.565 155.374L295.935 143.209L295.373 141.401H315.247Z" fill="#E0E0E0"></path> <path d="M315.247 141.401L314.692 143.209L310.859 155.539L287.663 155.201L292.605 141.401H315.247Z" fill="#508EC2"></path> <path opacity="0.8" d="M315.247 141.401L314.692 143.209L310.859 155.539L287.663 155.201L292.605 141.401H315.247Z" fill="white"></path> <path d="M315.247 141.401L314.692 143.209H291.968L292.605 141.401H315.247Z" fill="#508EC2"></path> <path d="M295.492 149.066H290.4L292.177 144.049L297.052 144.101L295.492 149.066ZM290.992 148.654H295.192L296.49 144.514L292.47 144.469L290.992 148.654Z" fill="#508EC2"></path> <path d="M301.155 149.066H296.062L297.84 144.049L302.715 144.101L301.155 149.066ZM296.655 148.654H300.855L302.145 144.514L298.132 144.469L296.655 148.654Z" fill="#508EC2"></path> <path d="M306.855 149.066H301.762L303.54 144.049L308.407 144.101L306.855 149.066ZM302.355 148.654H306.555L307.852 144.514L303.84 144.469L302.355 148.654Z" fill="#508EC2"></path> <path d="M312.555 149.066H307.492L309.27 144.049L314.137 144.101L312.555 149.066ZM308.055 148.654H312.255L313.552 144.514L309.54 144.469L308.055 148.654Z" fill="#508EC2"></path> <path d="M293.685 154.39H288.585L290.363 149.373L295.238 149.426L293.685 154.39ZM289.185 153.978H293.385L294.683 149.838L290.663 149.793L289.185 153.978Z" fill="#508EC2"></path> <path d="M299.378 154.39H294.285L296.063 149.373L300.937 149.426L299.378 154.39ZM294.878 153.978H299.078L300.367 149.838L296.355 149.793L294.878 153.978Z" fill="#508EC2"></path> <path d="M305.077 154.39H299.992L301.77 149.373L306.637 149.426L305.077 154.39ZM300.577 153.978H304.777L306.075 149.838L302.062 149.793L300.577 153.978Z" fill="#508EC2"></path> <path d="M310.777 154.39H305.685L307.462 149.373L312.329 149.426L310.777 154.39ZM306.277 153.978H310.492L311.789 149.838L307.777 149.793L306.277 153.978Z" fill="#508EC2"></path> <path d="M295.11 148.819C294.978 147.949 294.764 147.092 294.473 146.262C294.308 145.834 292.628 143.209 292.298 144.814C292.2 145.287 293.198 146.434 293.468 146.817C293.965 147.524 294.514 148.193 295.11 148.819Z" fill="#508EC2"></path> <path d="M291.45 147.746C291.397 147.903 291.412 148.143 291.577 148.151C291.637 148.149 291.695 148.128 291.742 148.091C292.77 147.416 293.542 146.381 294.637 145.841C295.168 145.672 295.643 145.36 296.01 144.941C295.707 144.906 295.401 144.955 295.125 145.083C293.715 145.608 291.997 146.186 291.45 147.746Z" fill="#508EC2"></path> <path d="M306.48 148.938C306.351 148.067 306.137 147.211 305.842 146.381C305.677 145.953 304.005 143.328 303.667 144.933C303.57 145.406 304.567 146.553 304.837 146.936C305.335 147.643 305.884 148.312 306.48 148.938Z" fill="#508EC2"></path> <path d="M302.819 147.896C302.767 148.053 302.82 148.293 302.947 148.301C303.007 148.299 303.065 148.278 303.112 148.241C304.139 147.566 304.912 146.531 306.007 145.991C306.537 145.819 307.01 145.508 307.379 145.091C307.077 145.052 306.77 145.102 306.494 145.233C305.084 145.728 303.367 146.306 302.819 147.896Z" fill="#508EC2"></path> <path d="M298.605 146.321C299.629 146.851 300.471 147.676 301.02 148.691C300.764 147.356 300.255 146.083 299.52 144.941C298.395 143.246 297.135 145.496 298.605 146.321Z" fill="#508EC2"></path> <path d="M309.359 146.321C310.384 146.851 311.225 147.676 311.774 148.691C311.519 147.356 311.009 146.083 310.274 144.941C309.149 143.246 307.889 145.496 309.359 146.321Z" fill="#508EC2"></path> <path d="M299.355 145.743C298.629 146.041 298.021 146.568 297.623 147.243C297.488 147.476 297.413 147.813 297.623 147.993C297.833 148.173 298.215 147.948 298.44 147.723C298.95 147.213 301.14 145.953 301.125 145.316C300.507 145.293 299.894 145.441 299.355 145.743Z" fill="#508EC2"></path> <path d="M310.904 145.744C310.179 146.041 309.57 146.568 309.172 147.244C309.044 147.476 308.962 147.814 309.172 147.994C309.382 148.174 309.757 147.949 309.982 147.724C310.492 147.214 312.682 145.954 312.667 145.316C312.051 145.295 311.442 145.443 310.904 145.744Z" fill="#508EC2"></path> <path d="M294.36 151.361C293.962 148.856 290.977 148.721 289.732 150.671C289.436 151.163 289.259 151.718 289.215 152.291C289.166 152.656 289.197 153.027 289.305 153.378C289.478 153.782 289.776 154.12 290.156 154.343C290.535 154.566 290.975 154.661 291.412 154.616C292.289 154.506 293.093 154.069 293.662 153.393C294.007 153.057 294.244 152.627 294.345 152.156C294.399 151.894 294.404 151.625 294.36 151.361ZM293.452 153.101C293.261 153.389 293.004 153.628 292.702 153.798C292.446 153.982 292.155 154.114 291.847 154.184C291.54 154.255 291.221 154.264 290.91 154.211C290.565 154.135 290.248 153.964 289.995 153.717C289.742 153.471 289.563 153.159 289.477 152.816C289.32 151.691 290.317 149.921 291.795 149.921C293.88 149.921 294.247 151.781 293.452 153.101Z" fill="#263238"></path> <path d="M193.09 134.997L211.839 192.168H170.838L163.75 131.93H188.86C189.798 131.929 190.713 132.226 191.473 132.777C192.232 133.328 192.798 134.105 193.09 134.997Z" fill="#263238"></path> <path d="M199.495 185.058H240.106C241.981 185.058 243.496 187 243.496 189.4V192.4C243.496 194.8 241.996 196.742 240.106 196.742H177.745L174.483 185.418L199.495 185.058Z" fill="#263238"></path> <g opacity="0.2"> <path opacity="0.2" d="M199.495 185.058H240.106C241.981 185.058 243.496 187 243.496 189.4V192.4C243.496 194.8 241.996 196.742 240.106 196.742H177.745L174.483 185.418L199.495 185.058Z" fill="white"></path> </g> <path d="M167.171 135.289L172.42 181.218C172.625 182.976 173.468 184.598 174.79 185.775C176.112 186.951 177.82 187.601 179.59 187.6H207.879C208.781 187.6 209.645 187.958 210.282 188.595C210.919 189.233 211.277 190.097 211.277 190.998V193.368C211.277 194.269 210.919 195.133 210.282 195.77C209.645 196.407 208.781 196.765 207.879 196.765H173.658C171.868 196.765 170.143 196.099 168.816 194.897C167.49 193.696 166.657 192.044 166.481 190.263L160.983 134.637C160.949 134.296 160.986 133.952 161.093 133.627C161.199 133.302 161.373 133.002 161.603 132.748C161.833 132.495 162.113 132.292 162.427 132.153C162.74 132.015 163.078 131.944 163.421 131.944C164.349 131.939 165.246 132.278 165.939 132.896C166.631 133.514 167.07 134.367 167.171 135.289Z" fill="#263238"></path> <path opacity="0.3" d="M167.171 135.289L172.42 181.218C172.625 182.976 173.468 184.598 174.79 185.775C176.112 186.951 177.82 187.601 179.59 187.6H207.879C208.781 187.6 209.645 187.958 210.282 188.595C210.919 189.233 211.277 190.097 211.277 190.998V193.368C211.277 194.269 210.919 195.133 210.282 195.77C209.645 196.407 208.781 196.765 207.879 196.765H173.658C171.868 196.765 170.143 196.099 168.816 194.897C167.49 193.696 166.657 192.044 166.481 190.263L160.983 134.637C160.949 134.296 160.986 133.952 161.093 133.627C161.199 133.302 161.373 133.002 161.603 132.748C161.833 132.495 162.113 132.292 162.427 132.153C162.74 132.015 163.078 131.944 163.421 131.944C164.349 131.939 165.246 132.278 165.939 132.896C166.631 133.514 167.07 134.367 167.171 135.289Z" fill="white"></path> <path d="M177.746 251.334C177.746 251.979 177.554 252.61 177.196 253.146C176.837 253.683 176.328 254.101 175.732 254.348C175.135 254.595 174.479 254.659 173.847 254.533C173.214 254.408 172.632 254.097 172.176 253.641C171.72 253.184 171.409 252.603 171.283 251.97C171.158 251.337 171.222 250.681 171.469 250.085C171.716 249.489 172.134 248.98 172.671 248.621C173.207 248.263 173.838 248.071 174.483 248.071C175.348 248.071 176.178 248.415 176.79 249.027C177.402 249.639 177.746 250.468 177.746 251.334Z" fill="#508EC2"></path> <path d="M226.412 251.334C226.412 251.979 226.603 252.61 226.961 253.146C227.32 253.683 227.829 254.101 228.426 254.348C229.022 254.595 229.678 254.659 230.31 254.533C230.943 254.408 231.525 254.097 231.981 253.641C232.437 253.184 232.748 252.603 232.874 251.97C233 251.337 232.935 250.681 232.688 250.085C232.441 249.489 232.023 248.98 231.487 248.621C230.95 248.263 230.319 248.071 229.674 248.071C228.809 248.071 227.979 248.415 227.367 249.027C226.755 249.639 226.412 250.468 226.412 251.334Z" fill="#508EC2"></path> <path d="M198.902 250.292C198.902 250.937 199.094 251.568 199.452 252.104C199.811 252.641 200.32 253.059 200.916 253.306C201.512 253.553 202.168 253.617 202.801 253.491C203.434 253.366 204.015 253.055 204.472 252.599C204.928 252.142 205.239 251.561 205.364 250.928C205.49 250.295 205.426 249.639 205.179 249.043C204.932 248.447 204.514 247.938 203.977 247.579C203.441 247.221 202.81 247.029 202.165 247.029C201.3 247.029 200.47 247.373 199.858 247.985C199.246 248.597 198.902 249.426 198.902 250.292Z" fill="#508EC2"></path> <path d="M233.536 245.747C233.491 246.104 233.32 246.432 233.053 246.673C232.786 246.914 232.441 247.051 232.081 247.059L201.182 246.579L172.255 247.329C171.896 247.321 171.551 247.184 171.284 246.943C171.017 246.702 170.845 246.373 170.8 246.017C170.712 245.614 170.779 245.192 170.989 244.837C171.2 244.482 171.537 244.22 171.933 244.104L187.735 240.617C189.367 240.27 191.031 240.094 192.7 240.092H209.679C211.348 240.095 213.012 240.271 214.644 240.617L232.396 243.842C232.791 243.957 233.128 244.218 233.339 244.571C233.55 244.924 233.621 245.344 233.536 245.747Z" fill="#263238"></path> <g opacity="0.3"> <path opacity="0.3" d="M233.536 245.747C233.491 246.104 233.32 246.432 233.053 246.673C232.786 246.914 232.441 247.051 232.081 247.059L201.182 246.579L172.255 247.329C171.896 247.321 171.551 247.184 171.284 246.943C171.017 246.702 170.845 246.373 170.8 246.017C170.712 245.614 170.779 245.192 170.989 244.837C171.2 244.482 171.537 244.22 171.933 244.104L187.735 240.617C189.367 240.27 191.031 240.094 192.7 240.092H209.679C211.348 240.095 213.012 240.271 214.644 240.617L232.396 243.842C232.791 243.957 233.128 244.218 233.339 244.571C233.55 244.924 233.621 245.344 233.536 245.747Z" fill="white"></path> </g> <path d="M206.432 210.348H195.925V240.092H206.432V210.348Z" fill="#263238"></path> <path d="M204.932 196.503H197.44V210.34H204.932V196.503Z" fill="#263238"></path> <path opacity="0.3" d="M197.44 200.568L204.932 202.705V196.503H197.44V200.568Z" fill="black"></path> <path d="M177.746 251.334C177.746 251.979 177.554 252.61 177.196 253.146C176.837 253.683 176.328 254.101 175.732 254.348C175.135 254.595 174.479 254.659 173.847 254.533C173.214 254.408 172.632 254.097 172.176 253.641C171.72 253.184 171.409 252.603 171.283 251.97C171.158 251.337 171.222 250.681 171.469 250.085C171.716 249.489 172.134 248.98 172.671 248.621C173.207 248.263 173.838 248.071 174.483 248.071C175.348 248.071 176.178 248.415 176.79 249.027C177.402 249.639 177.746 250.468 177.746 251.334Z" fill="#263238"></path> <path d="M226.412 251.334C226.412 251.979 226.603 252.61 226.961 253.146C227.32 253.683 227.829 254.101 228.426 254.348C229.022 254.595 229.678 254.659 230.31 254.533C230.943 254.408 231.525 254.097 231.981 253.641C232.437 253.184 232.748 252.603 232.874 251.97C233 251.337 232.935 250.681 232.688 250.085C232.441 249.489 232.023 248.98 231.487 248.621C230.95 248.263 230.319 248.071 229.674 248.071C228.809 248.071 227.979 248.415 227.367 249.027C226.755 249.639 226.412 250.468 226.412 251.334Z" fill="#263238"></path> <path d="M198.902 250.292C198.902 250.937 199.094 251.568 199.452 252.104C199.811 252.641 200.32 253.059 200.916 253.306C201.512 253.553 202.168 253.617 202.801 253.491C203.434 253.366 204.015 253.055 204.472 252.599C204.928 252.142 205.239 251.561 205.364 250.928C205.49 250.295 205.426 249.639 205.179 249.043C204.932 248.447 204.514 247.938 203.977 247.579C203.441 247.221 202.81 247.029 202.165 247.029C201.3 247.029 200.47 247.373 199.858 247.985C199.246 248.597 198.902 249.426 198.902 250.292Z" fill="#263238"></path> <path d="M70.4978 142.758C70.4978 142.758 64.5879 150.258 65.5404 163.075C66.4929 175.893 91.9247 168.633 91.9247 168.633C91.9247 168.633 102.979 152.591 109.842 150.821L103.744 144.491C99.492 144.746 96.3346 140.164 70.4978 142.758Z" fill="#508EC2"></path> <path d="M94.6245 94.7374C96.327 98.7573 98.1044 102.642 100.002 106.55C101.899 110.457 103.834 114.312 106.002 118.189L106.872 119.689C107.419 120.633 108.148 121.459 109.017 122.119C110.405 123.144 112.021 123.816 113.726 124.077C116.264 124.453 118.847 124.405 121.369 123.934C125.857 123.132 130.222 121.756 134.358 119.839L132.858 115.339L129.791 115.827C128.756 115.984 127.721 116.074 126.701 116.224C124.698 116.474 122.682 116.619 120.664 116.659C118.91 116.737 117.155 116.56 115.451 116.134C115.028 116.044 114.637 115.842 114.319 115.549C114.319 115.497 114.386 115.549 114.386 115.549L113.756 114.222C112.032 110.427 110.307 106.475 108.597 102.597C106.887 98.7198 105.124 94.7674 103.347 90.8975L94.6245 94.7374Z" fill="#FFB573"></path> <path d="M139.721 119.203C140.26 119.083 140.77 118.856 141.221 118.535C142.833 117.035 141.881 114.5 140.366 112.895C140.306 112.828 138.611 111.268 138.543 111.2C136.916 109.7 136.016 111.313 134.523 112.94L131.523 116.188L133.361 120.08C135.043 120.074 136.72 119.891 138.363 119.533C138.746 119.458 139.218 119.345 139.721 119.203Z" fill="#FFB573"></path> <path d="M107.067 93.1702C110.532 98.5176 109.932 105.597 109.932 105.597L101.592 107.405C101.592 107.405 92.3072 97.7151 94.0021 92.9978C95.8846 87.7929 103.399 87.5004 107.067 93.1702Z" fill="#263238"></path> <path opacity="0.2" d="M101.592 107.405L106.894 106.257C105.639 102.589 103.95 99.0841 101.862 95.8174C98.7194 91.16 96.4694 89.8176 93.972 91.1375C93.1845 97.6024 101.592 107.405 101.592 107.405Z" fill="black"></path> <path d="M78.4547 88.1758C77.5997 88.2583 68.9899 90.3507 71.1574 98.4955C80.1571 130.43 74.3898 127.745 70.5049 142.744L103.751 144.477C103.751 144.477 101.502 121.55 102.957 117.478C105.446 110.63 105.169 105.635 102.634 98.7655C99.8366 91.1832 98.7566 89.1283 98.7566 89.1283C95.5917 88.4308 84.9495 85.7384 78.4547 88.1758Z" fill="#263238"></path> <path opacity="0.2" d="M79.8802 112.865C79.4153 108.83 72.7029 93.5381 74.0304 91.6707C75.0654 91.1232 79.7602 91.7382 82.3777 94.6706C88.34 108.635 79.8802 112.865 79.8802 112.865Z" fill="black"></path> <path d="M63.5157 243.279L46.4387 256.104C45.7412 255.774 40.6938 250.231 40.6938 250.231L55.4985 237.677L63.5157 243.279Z" fill="#E29471"></path> <path d="M47.5485 257.709C47.5267 257.673 47.5151 257.631 47.5151 257.589C47.5151 257.547 47.5267 257.505 47.5485 257.469C47.5774 257.435 47.6156 257.411 47.6583 257.399C47.701 257.387 47.7463 257.388 47.7885 257.402C47.931 257.447 51.3509 258.587 52.0409 259.974C52.1124 260.1 52.1572 260.24 52.1727 260.385C52.1882 260.529 52.174 260.675 52.1309 260.814C52.0965 260.977 52.0123 261.125 51.89 261.238C51.7678 261.351 51.6134 261.423 51.4484 261.444C50.8334 261.534 49.9484 260.814 49.1985 259.944C48.5819 259.251 48.0297 258.502 47.5485 257.709ZM51.4784 259.839C50.5448 259.02 49.4592 258.393 48.2835 257.994C49.2135 259.382 50.7434 261.069 51.4559 260.994C51.5534 260.994 51.6809 260.934 51.7784 260.641C51.8035 260.558 51.8118 260.471 51.8027 260.385C51.7937 260.299 51.7676 260.215 51.7259 260.139C51.6571 260.019 51.5767 259.906 51.4859 259.801L51.4784 259.839Z" fill="#508EC2"></path> <path d="M47.5483 257.566C47.5516 257.529 47.5643 257.493 47.5853 257.461C47.6063 257.43 47.6348 257.404 47.6683 257.386C47.7583 257.334 49.7083 255.887 51.1782 256.119C51.385 256.16 51.5816 256.241 51.7567 256.358C51.9318 256.475 52.0819 256.626 52.1982 256.801C52.3312 256.929 52.4125 257.102 52.4263 257.286C52.4401 257.47 52.3856 257.653 52.2732 257.799C51.6357 258.601 48.7633 258.301 47.6758 257.799L47.6008 257.746L47.5483 257.566ZM51.0882 256.569C50.0617 256.586 49.0657 256.921 48.2383 257.529C49.4833 257.904 51.6357 258.001 51.9882 257.529C51.9882 257.484 52.1157 257.371 51.8982 257.064L51.7857 256.989C51.6169 256.763 51.3666 256.613 51.0882 256.569Z" fill="#508EC2"></path> <path d="M47.8633 255.571L46.3634 254.866C45.5468 254.478 44.8226 253.92 44.2392 253.229C43.6559 252.539 43.2269 251.731 42.981 250.861L42.396 248.806C42.2849 248.665 42.1269 248.569 41.9508 248.534C41.7746 248.5 41.592 248.53 41.436 248.619L34.7612 251.806C34.1162 252.166 34.3337 253.779 34.3862 253.839C37.3186 258.293 44.3009 267.338 46.7309 270.226C49.1608 273.113 52.3257 271.096 51.5907 269.693C48.3058 263.423 48.2308 260.078 48.3358 257.116C48.375 256.56 48.2067 256.01 47.8633 255.571Z" fill="#263238"></path> <path d="M65.5476 163.076C65.3253 164.639 65.29 166.222 65.4426 167.793C66.0876 176.103 71.3525 203.41 72.7774 213.955C72.8851 215.012 72.7212 216.079 72.3012 217.056C71.8813 218.032 71.2192 218.885 70.3775 219.534C65.5626 223.682 57.0429 229.284 47.3906 243.001C47.5106 249.001 48.0956 249.751 53.5405 251.919C53.5405 251.919 80.9072 231.272 85.1596 225.219C91.4219 216.294 91.5644 178.488 91.9094 168.633C92.1119 163.038 92.2844 156.371 88.0545 152.771C85.6996 150.746 67.1376 147.746 65.5476 163.076Z" fill="#508EC2"></path> <path d="M168.55 224.5L176.185 244.494C175.675 245.057 169.713 250.149 168.903 248.244C166.413 242.492 155.343 223.675 155.343 223.675L168.55 224.5Z" fill="#E29471"></path> <path d="M177.25 243.579C177.212 243.601 177.169 243.612 177.126 243.612C177.083 243.612 177.04 243.601 177.002 243.579C176.973 243.546 176.952 243.506 176.941 243.463C176.931 243.42 176.931 243.375 176.942 243.332C177.002 243.189 178.24 239.807 179.65 239.162C179.778 239.095 179.919 239.055 180.063 239.045C180.208 239.034 180.353 239.054 180.49 239.102C180.652 239.139 180.797 239.227 180.907 239.352C181.016 239.477 181.082 239.634 181.097 239.799C181.172 240.414 180.422 241.254 179.53 241.989C178.822 242.59 178.058 243.122 177.25 243.579ZM179.5 239.724C178.661 240.633 178.011 241.698 177.587 242.859C178.997 241.967 180.737 240.489 180.685 239.777C180.685 239.687 180.625 239.552 180.34 239.447C180.258 239.42 180.171 239.409 180.085 239.415C179.998 239.422 179.914 239.445 179.837 239.484C179.712 239.55 179.594 239.628 179.485 239.717L179.5 239.724Z" fill="#508EC2"></path> <path d="M177.107 243.579C177.069 243.576 177.032 243.562 177 243.54C176.968 243.517 176.943 243.487 176.927 243.452C176.875 243.362 175.502 241.367 175.772 239.904C175.819 239.699 175.906 239.505 176.028 239.334C176.151 239.162 176.306 239.017 176.485 238.907C176.617 238.778 176.791 238.702 176.975 238.694C177.159 238.686 177.34 238.745 177.482 238.862C178.232 239.522 177.872 242.387 177.355 243.459L177.302 243.534L177.107 243.579ZM176.245 239.994C176.227 241.019 176.531 242.024 177.115 242.867C177.527 241.644 177.692 239.492 177.205 239.117C177.16 239.117 177.047 238.989 176.732 239.192L176.657 239.304C176.434 239.471 176.286 239.719 176.245 239.994Z" fill="#508EC2"></path> <path d="M176.095 242.994L168.032 246.227C167.866 246.292 167.728 246.415 167.644 246.573C167.56 246.731 167.536 246.914 167.575 247.089L168.67 254.401C168.827 255.151 170.432 255.384 170.507 255.354C175.63 253.854 186.317 249.812 189.789 248.342C193.262 246.872 192.249 243.242 190.697 243.534C183.737 244.839 180.52 243.939 177.715 242.972C177.192 242.769 176.611 242.777 176.095 242.994Z" fill="#263238"></path> <path d="M123.746 191.298C125.696 192.656 127.541 193.96 129.214 195.183C144.318 206.253 152.92 226.262 159.048 237.182C164.62 239.904 172.367 234.497 174.722 232.832C174.722 232.832 158.223 197.83 152.695 190.218C139.301 171.874 125.989 159.844 105.447 148.332C102.77 146.826 99.74 146.061 96.6693 146.118C93.5987 146.175 90.5988 147.05 87.9797 148.654C85.8735 149.873 83.9219 151.341 82.1673 153.027C81.4173 153.837 80.0524 158.479 86.3672 164.794C92.0296 170.464 110.449 182.103 123.716 191.321" fill="#508EC2"></path> <path opacity="0.1" d="M91.9323 168.634C90.6123 166.286 92.5398 158.352 92.5398 158.352C92.5398 158.352 118.294 183.266 119.539 188.351L97.4147 173.351L91.9323 168.634Z" fill="black"></path> <path d="M143.726 216.347C143.664 216.347 143.603 216.331 143.548 216.303C143.494 216.274 143.446 216.233 143.411 216.182C142.661 214.997 141.866 213.85 141.101 212.77C141.072 212.73 141.052 212.684 141.041 212.636C141.03 212.587 141.029 212.538 141.037 212.489C141.046 212.44 141.063 212.393 141.09 212.352C141.116 212.31 141.15 212.273 141.191 212.245C141.231 212.216 141.277 212.196 141.325 212.185C141.373 212.174 141.423 212.173 141.472 212.181C141.521 212.19 141.567 212.207 141.609 212.234C141.651 212.26 141.687 212.295 141.716 212.335C142.466 213.43 143.268 214.585 144.041 215.77C144.068 215.811 144.087 215.857 144.097 215.906C144.106 215.954 144.105 216.004 144.095 216.052C144.084 216.101 144.064 216.147 144.035 216.187C144.007 216.227 143.97 216.261 143.928 216.287C143.869 216.329 143.798 216.351 143.726 216.347Z" fill="#508EC2"></path> <path d="M138.948 209.605C138.891 209.606 138.834 209.593 138.782 209.569C138.73 209.544 138.684 209.508 138.648 209.462C135.229 204.922 131.189 200.883 126.649 197.463C125.081 196.315 123.296 195.048 121.189 193.585C121.113 193.527 121.062 193.441 121.048 193.346C121.033 193.251 121.056 193.154 121.111 193.075C121.165 192.996 121.248 192.941 121.342 192.922C121.437 192.902 121.535 192.92 121.616 192.97C123.731 194.47 125.516 195.708 127.091 196.863C131.682 200.311 135.766 204.386 139.226 208.968C139.273 209.022 139.303 209.088 139.312 209.159C139.321 209.23 139.31 209.303 139.279 209.367C139.248 209.432 139.198 209.486 139.137 209.523C139.076 209.56 139.005 209.578 138.933 209.575L138.948 209.605Z" fill="#508EC2"></path> <path d="M90.4999 223.314H90.3874C90.2927 223.283 90.2139 223.217 90.1677 223.128C90.1215 223.04 90.1115 222.937 90.1399 222.842C90.3574 222.174 90.5599 221.432 90.7624 220.644C90.7746 220.597 90.7962 220.552 90.8258 220.512C90.8554 220.473 90.8926 220.439 90.9351 220.414C90.9776 220.389 91.0246 220.373 91.0735 220.366C91.1223 220.359 91.1721 220.362 91.2199 220.374C91.2674 220.386 91.3122 220.406 91.3516 220.435C91.391 220.464 91.4242 220.501 91.4493 220.543C91.4745 220.585 91.491 220.631 91.498 220.679C91.5049 220.728 91.5022 220.777 91.4899 220.824C91.2874 221.627 91.0774 222.384 90.8599 223.074C90.8311 223.146 90.7813 223.207 90.7171 223.25C90.6528 223.293 90.5771 223.315 90.4999 223.314Z" fill="#508EC2"></path> <path d="M76.7151 238.921C76.6594 238.922 76.6042 238.91 76.5536 238.887C76.503 238.863 76.4582 238.829 76.4226 238.786C76.36 238.708 76.3304 238.609 76.3402 238.509C76.35 238.41 76.3984 238.318 76.4751 238.254C82.8349 232.966 86.7423 229.299 88.1073 227.364C88.3848 226.979 88.6354 226.576 88.8572 226.156C88.905 226.069 88.985 226.003 89.0802 225.974C89.1755 225.945 89.2785 225.954 89.3672 225.999C89.4542 226.045 89.5195 226.124 89.549 226.218C89.5785 226.312 89.5698 226.414 89.5247 226.501C89.3051 226.951 89.0545 227.384 88.7747 227.799C87.3798 229.786 83.4199 233.499 77.0151 238.831C76.9742 238.866 76.9264 238.893 76.8747 238.908C76.823 238.924 76.7686 238.928 76.7151 238.921Z" fill="#508EC2"></path> <path d="M87.8824 80.8035C88.4674 83.2109 90.6573 84.8609 92.7648 86.1583C94.4072 87.1633 96.2147 88.1233 98.1346 88.0558C98.8933 87.9924 99.6312 87.7755 100.303 87.4181C100.976 87.0608 101.568 86.5706 102.045 85.9772C102.522 85.3837 102.874 84.6996 103.078 83.9662C103.283 83.2328 103.336 82.4655 103.234 81.711C103.516 82.1193 103.88 82.4638 104.303 82.7222C104.726 82.9806 105.199 83.147 105.69 83.2107C106.182 83.2744 106.681 83.2338 107.156 83.0917C107.631 82.9496 108.071 82.7092 108.447 82.3859C109.872 81.006 109.834 78.726 109.474 76.7761C108.291 70.5632 105.069 64.9228 100.317 60.749C99.2221 62.1815 97.0472 61.9115 96.0572 61.649C95.7056 61.566 95.3655 61.4401 95.0447 61.274C94.0711 61.0874 93.0632 61.2217 92.1723 61.6565C90.7848 63.464 90.2823 65.8189 89.8248 68.0763C89.2649 70.8363 88.7049 73.5987 88.1449 76.3636C87.7452 77.8085 87.6558 79.3216 87.8824 80.8035Z" fill="#263238"></path> <path d="M86.2471 76.3936C86.397 80.3834 86.2471 86.1433 83.1571 88.3482C83.1571 88.3482 82.6846 92.3381 93.0044 98.323C97.8417 93.2606 95.2543 90.2382 95.2543 90.2382C91.0694 88.5282 91.5044 86.7808 92.6819 83.8784L86.2471 76.3936Z" fill="#FFB573"></path> <path opacity="0.2" d="M88.8872 79.4082L92.6371 83.9081C92.3397 84.5804 92.1038 85.2782 91.9321 85.993C90.3047 85.498 87.9197 83.6831 87.8447 81.8306C87.9804 80.9476 88.3392 80.1138 88.8872 79.4082Z" fill="black"></path> <path d="M82.2348 68.9461C82.9848 75.576 83.1648 78.3959 86.7347 81.6283C92.0595 86.5032 100.039 84.1182 101.284 77.3984C102.394 71.3461 100.969 61.4839 94.317 59.2189C92.8511 58.701 91.2769 58.5673 89.7447 58.8308C88.2125 59.0942 86.7734 59.7459 85.5647 60.7237C84.3559 61.7015 83.418 62.9728 82.8403 64.4162C82.2626 65.8596 82.0645 67.4269 82.2648 68.9687L82.2348 68.9461Z" fill="#FFB573"></path> <path d="M96.3193 77.158C96.3193 77.713 96.5893 78.163 96.9493 78.178C97.3093 78.193 97.6093 77.7355 97.6243 77.188C97.6393 76.6406 97.3543 76.1756 96.9943 76.1681C96.6343 76.1606 96.3193 76.6031 96.3193 77.158Z" fill="#263238"></path> <path d="M92.9224 70.1307C92.9224 70.6707 93.2674 71.0982 93.6198 71.0832C93.9723 71.0682 94.2348 70.6032 94.2123 70.0632C94.1898 69.5232 93.8673 69.0957 93.5223 69.1107C93.1774 69.1257 92.9299 69.6132 92.9224 70.1307Z" fill="#263238"></path> <path d="M99.0423 69.8239C99.0423 70.3714 99.3873 70.7913 99.7323 70.7763C100.077 70.7613 100.355 70.2964 100.332 69.7564C100.31 69.2164 99.9873 68.7889 99.6348 68.8114C99.2823 68.8339 98.9973 69.2839 99.0423 69.8239Z" fill="#263238"></path> <path d="M99.4844 68.8487L100.759 68.4062C100.759 68.4062 100.152 69.4637 99.4844 68.8487Z" fill="#263238"></path> <path d="M97.2046 70.9033C97.7594 72.1128 98.4732 73.2427 99.327 74.2632C99.0584 74.4725 98.748 74.6217 98.4168 74.7006C98.0855 74.7796 97.7412 74.7864 97.4071 74.7207L97.2046 70.9033Z" fill="#ED893E"></path> <path d="M90.9348 67.619C90.9899 67.6571 91.0553 67.6774 91.1223 67.6774C91.1893 67.6774 91.2547 67.6571 91.3098 67.619C91.7345 67.3212 92.2165 67.1148 92.7251 67.0129C93.2337 66.9109 93.758 66.9155 94.2647 67.0265C94.3472 67.0446 94.4334 67.0295 94.5049 66.9846C94.5765 66.9398 94.6275 66.8686 94.6472 66.7865C94.6572 66.7462 94.6592 66.7042 94.6529 66.663C94.6467 66.6219 94.6323 66.5824 94.6107 66.5468C94.5891 66.5112 94.5606 66.4803 94.527 66.4558C94.4933 66.4313 94.4552 66.4137 94.4147 66.404C93.8067 66.2658 93.176 66.2613 92.566 66.3907C91.9561 66.5202 91.3816 66.7807 90.8823 67.154C90.8241 67.213 90.7915 67.2925 90.7915 67.3753C90.7915 67.4581 90.8241 67.5376 90.8823 67.5965L90.9348 67.619Z" fill="#263238"></path> <path d="M100.73 66.9067C100.787 66.9124 100.845 66.903 100.898 66.8793C100.95 66.8556 100.996 66.8185 101.03 66.7717C101.054 66.7383 101.072 66.7003 101.082 66.6599C101.092 66.6195 101.094 66.5775 101.088 66.5364C101.082 66.4953 101.067 66.4558 101.046 66.4202C101.024 66.3846 100.996 66.3537 100.962 66.3292C100.561 66.0086 100.086 65.7927 99.5808 65.7011C99.0755 65.6094 98.5553 65.6449 98.0671 65.8043C98.0289 65.816 97.9936 65.8355 97.9633 65.8614C97.933 65.8873 97.9083 65.9192 97.8907 65.955C97.8731 65.9908 97.8631 66.0299 97.8612 66.0697C97.8593 66.1096 97.8655 66.1494 97.8796 66.1867C97.893 66.2254 97.914 66.261 97.9414 66.2915C97.9687 66.3219 98.0019 66.3466 98.0389 66.3641C98.0759 66.3815 98.1161 66.3914 98.157 66.3932C98.1979 66.3949 98.2387 66.3885 98.2771 66.3742C98.6611 66.2676 99.0649 66.2528 99.4557 66.331C99.8465 66.4091 100.213 66.5781 100.527 66.8242C100.586 66.8698 100.656 66.8983 100.73 66.9067Z" fill="#263238"></path> <path d="M93.3569 69.2088L94.6394 68.7588C94.6394 68.7588 94.0319 69.7488 93.3569 69.2088Z" fill="#263238"></path> <path d="M101.802 62.2482C101.742 62.3307 99.2074 63.4557 96.0575 61.6108C95.735 61.4233 95.36 61.3933 95.0525 61.2283C94.0764 61.0411 93.066 61.1753 92.1726 61.6108C91.9476 61.7383 89.2551 62.8332 88.9177 67.6106C88.3702 75.2904 84.8978 73.3854 84.4178 73.2204C83.2478 72.793 82.6253 71.8705 81.4179 72.028C81.1995 72.0655 80.9763 72.0655 80.7579 72.028C81.5079 74.2329 82.3103 76.3329 83.2703 76.8054C90.2676 80.1878 88.1977 86.1801 86.3452 87.1326C85.0178 87.8225 79.4454 88.37 75.3355 83.8177C74.0756 84.9651 72.0281 84.6951 70.4906 83.9002C69.3183 83.2766 68.4126 82.2481 67.9421 81.0064C67.4716 79.7646 67.4684 78.3942 67.9332 77.1503C68.8209 74.6788 70.4467 72.5398 72.5906 71.023C74.0906 69.9955 75.823 69.2456 76.903 67.7906C77.2147 67.3642 77.467 66.8975 77.653 66.4031C77.9454 65.6531 78.2979 64.8657 78.6429 64.1082C78.6897 63.992 78.7249 63.8714 78.7479 63.7482C79.2962 62.0545 80.2606 60.5253 81.5528 59.3008C83.4728 57.4259 87.6427 55.9709 91.0851 55.8884C95.045 55.7534 100.242 58.5883 101.802 62.2482Z" fill="#263238"></path> <path d="M78.3052 67.4464C78.3577 66.8989 78.3802 66.4264 78.3877 66.2314C78.3346 66.6343 78.307 67.0401 78.3052 67.4464Z" fill="#263238"></path> <path d="M80.6904 74.1581C81.1704 75.327 82.0921 76.2594 83.2553 76.753C84.8153 77.383 85.7902 76.0031 85.5052 74.4581C85.2503 73.0407 84.1478 71.0007 82.5053 71.0157C82.2213 71.0263 81.9421 71.093 81.684 71.2121C81.4259 71.3311 81.194 71.5001 81.0015 71.7093C80.8091 71.9185 80.6599 72.1637 80.5628 72.4309C80.4656 72.698 80.4223 72.9817 80.4354 73.2656C80.4509 73.5787 80.5382 73.8841 80.6904 74.1581Z" fill="#FFB573"></path> <path d="M100.94 86.9979C102.852 86.6529 104.765 85.8579 105.807 84.2305C108.807 79.5506 103.805 67.4459 97.7448 61.1836L97.4973 61.4986C103.497 67.6634 108.44 79.4981 105.515 84.0805C103.497 87.2229 97.8198 87.0804 95.9899 86.7354L95.9224 87.1029C97.5897 87.3363 99.2836 87.3008 100.94 86.9979Z" fill="#263238"></path> <path d="M78.5454 68.1585L78.9129 68.091C78.4554 65.6086 79.3179 62.8861 81.3279 60.4187C83.5028 57.7563 86.6602 55.9188 89.1801 55.9188C92.0751 55.8663 96.2299 56.9088 98.5249 59.3237L98.7949 59.0687C96.4249 56.5638 92.1501 55.4913 89.1726 55.5438C86.5477 55.5888 83.2778 57.4638 81.0429 60.2012C78.9504 62.7286 78.0654 65.5636 78.5454 68.1585Z" fill="#263238"></path> <path d="M67.6929 80.2483C69.5764 81.8411 71.5826 83.2831 73.6927 84.5607C75.6178 85.8663 77.8526 86.6423 80.1725 86.8106C80.7128 86.8278 81.2533 86.7876 81.785 86.6906C82.6798 86.5578 83.5358 86.2346 84.2952 85.743C85.0546 85.2514 85.6998 84.6027 86.1874 83.8407C86.5064 83.2763 86.7098 82.6541 86.7858 82.0103C86.8618 81.3664 86.8088 80.7139 86.6299 80.0908C86.4994 79.5725 86.2636 79.0865 85.9372 78.6633C85.6107 78.2401 85.2006 77.8886 84.7324 77.6309L84.5674 77.9534C84.9917 78.1918 85.3628 78.5144 85.6581 78.9012C85.9534 79.2881 86.1667 79.7312 86.2849 80.2033C86.4503 80.7792 86.499 81.3824 86.4281 81.9774C86.3573 82.5724 86.1684 83.1472 85.8724 83.6682C85.2586 84.5835 84.4174 85.3233 83.4312 85.8151C82.445 86.3069 81.3479 86.5336 80.2475 86.4731C77.9922 86.3066 75.82 85.5515 73.9477 84.2832C71.7855 82.9828 69.7314 81.5106 67.8054 79.8808L67.6929 80.2483Z" fill="#263238"></path> <path d="M72.2979 93.605C72.9578 98.5624 78.4477 119.794 79.5652 122.217C79.7226 122.547 79.8801 122.884 80.0676 123.222C80.2551 123.559 80.4351 123.904 80.6676 124.264L81.0126 124.819C81.1776 125.052 81.3426 125.299 81.5151 125.502C81.8411 125.908 82.1917 126.294 82.5651 126.657C83.8218 127.803 85.2617 128.731 86.825 129.402C89.3539 130.492 92.0095 131.26 94.7297 131.689C99.7295 132.516 104.807 132.767 109.864 132.439L110.127 127.189L106.699 126.439C105.552 126.184 104.412 125.892 103.28 125.629C101.03 125.067 98.7796 124.474 96.6647 123.762C94.6547 123.154 91.4523 122.262 89.6149 121.272C88.9836 120.918 88.4158 120.462 87.9349 119.922C87.883 119.856 87.8378 119.786 87.7999 119.712C87.7966 119.692 87.7966 119.672 87.7999 119.652L87.6874 119.434C87.5974 119.254 87.5149 119.067 87.4399 118.879C87.3649 118.692 81.8226 96.1625 81.0651 91.5801L72.2979 93.605Z" fill="#FFB573"></path> <path d="M109.212 127.647C110.281 126.303 111.504 125.089 112.857 124.032C113.465 123.534 114.195 123.208 114.972 123.087C117.402 122.712 119.967 122.337 120.057 126.799C120.057 126.912 120.627 128.802 120.634 128.907C120.844 131.359 118.489 131.734 116.037 131.944L109.489 132.394L109.212 127.647Z" fill="#FFB573"></path> <path d="M84.8373 93.5599C87.1472 101.097 84.3648 101.007 84.6423 105.605L75.425 107.899C75.425 107.899 70.3627 103.64 69.5977 98.2473C69.4313 96.9066 69.5832 95.5457 70.0412 94.2748C70.4992 93.0039 71.2503 91.8588 72.2335 90.9325C73.2168 90.0062 74.4046 89.3247 75.7006 88.9434C76.9965 88.562 78.3641 88.4915 79.6924 88.7375C80.9252 88.9561 82.0678 89.5282 82.9812 90.3844C83.8947 91.2406 84.5395 92.3438 84.8373 93.5599Z" fill="#263238"></path> <path d="M83.2869 103.632L80.4707 104.27L80.6544 105.081L83.4707 104.444L83.2869 103.632Z" fill="#508EC2"></path> <path d="M78.8876 104.735L75.9287 105.725L76.1927 106.514L79.1516 105.525L78.8876 104.735Z" fill="#508EC2"></path> <path d="M110.488 104.45L107.955 105.01L108.116 105.742L110.65 105.182L110.488 104.45Z" fill="#508EC2"></path> <path d="M138.949 116.734C137.97 117.866 137.417 119.303 137.382 120.799C137.348 122.295 137.836 123.756 138.761 124.931L138.949 125.171V126.476H97.0547V115.227H138.949V116.734Z" fill="#508EC2"></path> <path opacity="0.1" d="M138.949 116.734C137.97 117.866 137.417 119.303 137.382 120.799C137.348 122.295 137.836 123.756 138.761 124.931L138.949 125.171V126.476H120.582V115.227H138.949V116.734Z" fill="black"></path> <path d="M138.746 124.932L138.933 125.172H122.569V116.734H138.948C137.97 117.866 137.416 119.304 137.382 120.799C137.348 122.295 137.835 123.756 138.761 124.932H138.746Z" fill="#263238"></path> <path opacity="0.9" d="M138.746 124.932L138.933 125.172H122.569V116.734H138.948C137.97 117.866 137.416 119.304 137.382 120.799C137.348 122.295 137.835 123.756 138.761 124.932H138.746Z" fill="white"></path> <path d="M119.104 121.144C119.104 121.589 118.972 122.024 118.725 122.394C118.477 122.764 118.126 123.053 117.715 123.223C117.304 123.393 116.851 123.438 116.415 123.351C115.979 123.264 115.578 123.05 115.263 122.735C114.948 122.421 114.734 122.02 114.647 121.583C114.56 121.147 114.605 120.695 114.775 120.283C114.946 119.872 115.234 119.521 115.604 119.274C115.974 119.026 116.409 118.895 116.854 118.895C117.451 118.895 118.023 119.132 118.445 119.554C118.867 119.975 119.104 120.548 119.104 121.144Z" fill="white"></path> <path d="M118.594 121.144C118.594 121.493 118.491 121.834 118.297 122.123C118.104 122.413 117.828 122.639 117.506 122.773C117.184 122.906 116.83 122.941 116.488 122.873C116.146 122.805 115.832 122.637 115.586 122.391C115.339 122.144 115.171 121.83 115.103 121.488C115.035 121.146 115.07 120.792 115.203 120.47C115.337 120.148 115.563 119.873 115.853 119.679C116.142 119.485 116.483 119.382 116.832 119.382C117.299 119.382 117.748 119.568 118.078 119.898C118.409 120.229 118.594 120.677 118.594 121.144Z" fill="#263238"></path> <path d="M107.959 117.709H98.187V123.941H107.959V117.709Z" fill="white"></path> <path d="M112.624 117.709H108.417V123.941H112.624V117.709Z" fill="white"></path> <path d="M122.569 124.122V123.372C122.888 123.417 123.213 123.394 123.522 123.303C123.831 123.212 124.117 123.055 124.361 122.844C124.604 122.633 124.799 122.372 124.933 122.078C125.067 121.785 125.136 121.467 125.136 121.144C125.136 120.822 125.067 120.504 124.933 120.21C124.799 119.917 124.604 119.656 124.361 119.445C124.117 119.234 123.831 119.077 123.522 118.986C123.213 118.895 122.888 118.872 122.569 118.917V118.167C122.991 118.115 123.419 118.153 123.824 118.279C124.23 118.405 124.605 118.616 124.923 118.897C125.241 119.179 125.496 119.525 125.671 119.912C125.845 120.299 125.935 120.72 125.935 121.144C125.935 121.569 125.845 121.989 125.671 122.377C125.496 122.764 125.241 123.11 124.923 123.392C124.605 123.673 124.23 123.884 123.824 124.01C123.419 124.136 122.991 124.174 122.569 124.122Z" fill="#263238"></path> <path d="M137.576 119.194H122.569V119.569H137.576V119.194Z" fill="white"></path> <path d="M137.576 119.637H122.569V120.012H137.576V119.637Z" fill="white"></path> <path d="M137.576 120.072H122.569V120.447H137.576V120.072Z" fill="white"></path> <path d="M137.576 120.514H122.569V120.889H137.576V120.514Z" fill="white"></path> <path d="M137.576 120.957H122.569V121.332H137.576V120.957Z" fill="white"></path> <path d="M137.576 121.399H122.569V121.774H137.576V121.399Z" fill="white"></path> <path d="M137.576 121.842H122.569V122.217H137.576V121.842Z" fill="white"></path> <path d="M137.576 122.284H122.569V122.659H137.576V122.284Z" fill="white"></path> <path d="M137.576 122.72H122.569V123.095H137.576V122.72Z" fill="white"></path> <path d="M143.516 105.282C142.538 106.414 141.984 107.851 141.95 109.347C141.916 110.843 142.403 112.304 143.328 113.48L143.516 113.72V115.024H101.622V103.737H143.516V105.282Z" fill="#508EC2"></path> <path opacity="0.1" d="M143.516 105.282C142.538 106.414 141.984 107.851 141.95 109.347C141.916 110.843 142.403 112.304 143.328 113.48L143.516 113.72V115.024H125.149V103.737H143.516V105.282Z" fill="black"></path> <path d="M143.328 113.48L143.516 113.719H127.136V105.282H143.516C142.538 106.414 141.984 107.851 141.95 109.347C141.915 110.843 142.403 112.304 143.328 113.48Z" fill="#263238"></path> <path opacity="0.9" d="M143.328 113.48L143.516 113.719H127.136V105.282H143.516C142.538 106.414 141.984 107.851 141.95 109.347C141.915 110.843 142.403 112.304 143.328 113.48Z" fill="white"></path> <path d="M123.671 109.692C123.671 110.137 123.539 110.572 123.292 110.942C123.045 111.312 122.693 111.601 122.282 111.771C121.871 111.941 121.419 111.986 120.982 111.899C120.546 111.812 120.145 111.598 119.83 111.283C119.516 110.969 119.301 110.568 119.215 110.131C119.128 109.695 119.172 109.242 119.343 108.831C119.513 108.42 119.801 108.069 120.171 107.822C120.541 107.574 120.976 107.442 121.421 107.442C122.018 107.442 122.59 107.679 123.012 108.101C123.434 108.523 123.671 109.096 123.671 109.692Z" fill="white"></path> <path d="M123.162 109.692C123.162 110.041 123.058 110.381 122.865 110.671C122.671 110.961 122.396 111.187 122.074 111.32C121.752 111.454 121.397 111.489 121.055 111.421C120.713 111.353 120.399 111.185 120.153 110.938C119.906 110.692 119.739 110.378 119.671 110.036C119.603 109.694 119.637 109.34 119.771 109.018C119.904 108.696 120.13 108.42 120.42 108.227C120.71 108.033 121.051 107.93 121.399 107.93C121.867 107.93 122.315 108.115 122.645 108.446C122.976 108.776 123.162 109.225 123.162 109.692Z" fill="#263238"></path> <path d="M112.527 106.249H102.754V112.481H112.527V106.249Z" fill="white"></path> <path d="M117.191 106.249H112.984V112.481H117.191V106.249Z" fill="white"></path> <path d="M127.136 112.67V111.92C127.673 111.843 128.163 111.576 128.518 111.167C128.873 110.758 129.069 110.234 129.069 109.692C129.069 109.151 128.873 108.627 128.518 108.218C128.163 107.809 127.673 107.541 127.136 107.465V106.715C127.863 106.804 128.532 107.156 129.017 107.705C129.502 108.253 129.769 108.96 129.769 109.692C129.769 110.424 129.502 111.131 129.017 111.68C128.532 112.228 127.863 112.58 127.136 112.67Z" fill="#263238"></path> <path d="M142.143 107.742H127.136V108.117H142.143V107.742Z" fill="white"></path> <path d="M142.143 108.185H127.136V108.56H142.143V108.185Z" fill="white"></path> <path d="M142.143 108.62H127.136V108.995H142.143V108.62Z" fill="white"></path> <path d="M142.143 109.062H127.136V109.437H142.143V109.062Z" fill="white"></path> <path d="M142.143 109.505H127.136V109.88H142.143V109.505Z" fill="white"></path> <path d="M142.143 109.947H127.136V110.322H142.143V109.947Z" fill="white"></path> <path d="M142.143 110.39H127.136V110.765H142.143V110.39Z" fill="white"></path> <path d="M142.143 110.824H127.136V111.199H142.143V110.824Z" fill="white"></path> <path d="M142.143 111.268H127.136V111.643H142.143V111.268Z" fill="white"></path> <path d="M122.614 51.5087C131.202 52.6846 139.914 52.6341 148.488 51.3587C148.74 51.3548 148.989 51.2965 149.217 51.1877C149.445 51.079 149.646 50.9224 149.808 50.7287C150.198 50.0837 149.651 49.3037 149.201 48.7037C148.383 47.5991 147.805 46.3367 147.501 44.9965C147.198 43.6564 147.176 42.2678 147.438 40.9189C141.041 46.7453 132.978 50.4177 124.384 51.4187L122.614 51.5087Z" fill="#508EC2"></path> <path opacity="0.4" d="M122.614 51.5087C131.202 52.6846 139.914 52.6341 148.488 51.3587C148.74 51.3548 148.989 51.2965 149.217 51.1877C149.445 51.079 149.646 50.9224 149.808 50.7287C150.198 50.0837 149.651 49.3037 149.201 48.7037C148.383 47.5991 147.805 46.3367 147.501 44.9965C147.198 43.6564 147.176 42.2678 147.438 40.9189C141.041 46.7453 132.978 50.4177 124.384 51.4187L122.614 51.5087Z" fill="white"></path> <path d="M103.204 103.774H140.673V94.4597H103.204V103.774Z" fill="#508EC2"></path> <path opacity="0.6" d="M103.332 103.812H140.801V94.4978H103.332V103.812Z" fill="white"></path> <path opacity="0.6" d="M103.212 103.812H131.966V94.4978H103.212V103.812Z" fill="white"></path> <path d="M103.392 102.582L140.681 103.745L140.636 102.8L103.377 102.312L103.392 102.582Z" fill="#508EC2"></path> <path d="M140.681 98.277L103.452 96.1846V96.4996L140.681 98.9895V98.277Z" fill="#508EC2"></path> <path d="M140.681 95.4648L103.452 96.3198V96.6198L140.681 96.1698V95.4648Z" fill="#508EC2"></path> <path d="M140.786 100.107L103.549 101.922V101.644L140.786 99.4844V100.107Z" fill="#508EC2"></path> <path d="M103.302 94.5801L140.531 94.6101V94.9176H103.302V94.5801Z" fill="#508EC2"></path> <path d="M105.897 76.0254H143.366V66.7106H105.897V76.0254Z" fill="#508EC2"></path> <path opacity="0.6" d="M106.017 76.0703H143.486V66.7556H106.017V76.0703Z" fill="white"></path> <path opacity="0.6" d="M105.904 76.0703H134.659V66.7556H105.904V76.0703Z" fill="white"></path> <path d="M106.077 74.8403L143.366 75.9953L143.321 75.0503L106.062 74.5703L106.077 74.8403Z" fill="#508EC2"></path> <path d="M143.366 70.5355L106.137 68.4355V68.7505L143.366 71.2405V70.5355Z" fill="#508EC2"></path> <path d="M143.366 67.7158L106.137 68.5708V68.8783L143.366 68.4283V67.7158Z" fill="#508EC2"></path> <path d="M143.471 72.3656L106.234 74.1731V73.9031L143.471 71.7432V72.3656Z" fill="#508EC2"></path> <path d="M105.432 94.3252H142.901V85.0104H105.432V94.3252Z" fill="#508EC2"></path> <path opacity="0.6" d="M105.552 94.3623H143.021V85.0476H105.552V94.3623Z" fill="white"></path> <path opacity="0.6" d="M134.269 85.0547H105.515V94.3694H134.269V85.0547Z" fill="white"></path> <path d="M142.736 92.8701L105.477 93.3576L105.432 94.3026L142.714 93.1401L142.736 92.8701Z" fill="#508EC2"></path> <path d="M105.672 85.1309L142.901 85.1609V85.4684H105.672V85.1309Z" fill="#508EC2"></path> <path d="M105.432 89.5406L142.661 87.0507V86.7432L105.432 88.8356V89.5406Z" fill="#508EC2"></path> <path d="M142.901 86.0225L105.672 86.8699V87.1774L142.901 86.7274V86.0225Z" fill="#508EC2"></path> <path d="M143.006 90.6645L105.77 92.4794V92.2019L143.006 90.042V90.6645Z" fill="#508EC2"></path> <path d="M141.603 76.2275L104.149 76.415L104.097 85.5423H141.603V76.2275Z" fill="#508EC2"></path> <path opacity="0.6" d="M104.135 85.543H141.604V76.2282H104.135V85.543Z" fill="white"></path> <path opacity="0.6" d="M132.851 76.2275H104.097V85.5423H132.851V76.2275Z" fill="white"></path> <path d="M133.984 76.416H104.149V77.3685H133.339L133.984 76.416Z" fill="#508EC2"></path> <path d="M141.386 80.2324L104.149 80.5774V80.8549H141.386V80.2324Z" fill="#508EC2"></path> <path d="M104.149 84.5454L141.386 82.7305V83.0005L104.149 85.1679V84.5454Z" fill="#508EC2"></path> <path d="M104.149 81.043L141.386 81.7855V82.0479L104.149 81.658V81.043Z" fill="#508EC2"></path> <path d="M151.166 55.9639H113.937V60.6512H151.166V55.9639Z" fill="#508EC2"></path> <path opacity="0.6" d="M151.166 55.9639H113.937V60.6512H151.166V55.9639Z" fill="white"></path> <path opacity="0.6" d="M143.598 55.9639H113.937V60.6512H143.598V55.9639Z" fill="white"></path> <path d="M151.188 59.2939L113.959 59.4739V59.6164H151.188V59.2939Z" fill="#508EC2"></path> <path d="M113.959 57.5387L151.188 56.5938V56.7362L113.959 57.8612V57.5387Z" fill="#508EC2"></path> <path d="M113.839 57.2832L151.068 57.6657V57.8082L113.839 57.5982V57.2832Z" fill="#508EC2"></path> <path d="M145.961 53.9014H108.732V56.1588H145.961V53.9014Z" fill="#508EC2"></path> <path opacity="0.6" d="M145.961 53.916H108.732V56.1585H145.961V53.916Z" fill="white"></path> <path opacity="0.6" d="M138.401 53.7812H108.732V56.1662H138.401V53.7812Z" fill="white"></path> <path d="M108.747 55.6188L145.976 54.6738V54.8163L108.747 55.9413V55.6188Z" fill="#508EC2"></path> <path d="M108.747 54.4863L145.976 54.8688V55.0113L108.747 54.8088V54.4863Z" fill="#508EC2"></path> <path d="M149.426 51.5908H112.197V53.8483H149.426V51.5908Z" fill="#508EC2"></path> <path opacity="0.6" d="M149.426 51.6064H112.197V53.8489H149.426V51.6064Z" fill="white"></path> <path opacity="0.6" d="M141.858 51.4707H112.197V53.8556H141.858V51.4707Z" fill="white"></path> <path d="M112.219 52.6113L149.456 53.0613L149.448 53.2113L112.204 52.9338L112.219 52.6113Z" fill="#508EC2"></path> <path d="M112.219 52.1758L149.441 52.5583V52.7008L112.219 52.4983V52.1758Z" fill="#508EC2"></path> <path d="M148.653 60.6582H111.424V66.6955H148.653V60.6582Z" fill="#508EC2"></path> <path opacity="0.6" d="M148.653 60.6582H111.424V66.6955H148.653V60.6582Z" fill="white"></path> <path opacity="0.6" d="M140.149 60.6582H111.424V66.6955H140.149V60.6582Z" fill="white"></path> <path d="M148.413 62.5332L111.184 62.3232V62.1582H148.413V62.5332Z" fill="#508EC2"></path> <path d="M111.439 63.4105L148.668 64.4979V64.3329L111.439 63.043V63.4105Z" fill="#508EC2"></path> <path d="M148.668 60.6582H113.554L114.334 61.4082H148.668V60.6582Z" fill="#508EC2"></path> <path d="M111.567 65.7657L148.796 65.3157V65.1582L111.567 65.3907V65.7657Z" fill="#508EC2"></path> </svg> 